<?xml version="1.0" encoding="utf-8" standalone="no"?>
<!DOCTYPE svg PUBLIC "-//W3C//DTD SVG 1.1//EN"
  "http://www.w3.org/Graphics/SVG/1.1/DTD/svg11.dtd">
<svg xmlns:xlink="http://www.w3.org/1999/xlink" width="1000.340625pt" height="330.541644pt" viewBox="0 0 1000.340625 330.541644" xmlns="http://www.w3.org/2000/svg" version="1.1">
 <metadata>
  <rdf:RDF xmlns:dc="http://purl.org/dc/elements/1.1/" xmlns:cc="http://creativecommons.org/ns#" xmlns:rdf="http://www.w3.org/1999/02/22-rdf-syntax-ns#">
   <cc:Work>
    <dc:type rdf:resource="http://purl.org/dc/dcmitype/StillImage"/>
    <dc:date>2024-09-04T22:05:55.678399</dc:date>
    <dc:format>image/svg+xml</dc:format>
    <dc:creator>
     <cc:Agent>
      <dc:title>Matplotlib v3.8.1, https://matplotlib.org/</dc:title>
     </cc:Agent>
    </dc:creator>
   </cc:Work>
  </rdf:RDF>
 </metadata>
 <defs>
  <style type="text/css">*{stroke-linejoin: round; stroke-linecap: butt}</style>
 </defs>
 <g id="figure_1">
  <g id="axes_1">
   <g id="patch_1">
    <path d="M 40.600625 273.99006 
L 993.140625 273.99006 
L 993.140625 31.48286 
L 40.600625 31.48286 
z
" style="fill: #ffffff"/>
   </g>
   <g id="matplotlib.axis_1">
    <g id="xtick_1">
     <g id="text_1">
      <!-- NC_000067.7 -->
      <g transform="translate(57.026023 286.92756) scale(0.08 -0.08)">
       <defs>
        <path id="DejaVuSans-4e" d="M 628 4666 
L 1478 4666 
L 3547 763 
L 3547 4666 
L 4159 4666 
L 4159 0 
L 3309 0 
L 1241 3903 
L 1241 0 
L 628 0 
L 628 4666 
z
" transform="scale(0.015625)"/>
        <path id="DejaVuSans-43" d="M 4122 4306 
L 4122 3641 
Q 3803 3938 3442 4084 
Q 3081 4231 2675 4231 
Q 1875 4231 1450 3742 
Q 1025 3253 1025 2328 
Q 1025 1406 1450 917 
Q 1875 428 2675 428 
Q 3081 428 3442 575 
Q 3803 722 4122 1019 
L 4122 359 
Q 3791 134 3420 21 
Q 3050 -91 2638 -91 
Q 1578 -91 968 557 
Q 359 1206 359 2328 
Q 359 3453 968 4101 
Q 1578 4750 2638 4750 
Q 3056 4750 3426 4639 
Q 3797 4528 4122 4306 
z
" transform="scale(0.015625)"/>
        <path id="DejaVuSans-5f" d="M 3263 -1063 
L 3263 -1509 
L -63 -1509 
L -63 -1063 
L 3263 -1063 
z
" transform="scale(0.015625)"/>
        <path id="DejaVuSans-30" d="M 2034 4250 
Q 1547 4250 1301 3770 
Q 1056 3291 1056 2328 
Q 1056 1369 1301 889 
Q 1547 409 2034 409 
Q 2525 409 2770 889 
Q 3016 1369 3016 2328 
Q 3016 3291 2770 3770 
Q 2525 4250 2034 4250 
z
M 2034 4750 
Q 2819 4750 3233 4129 
Q 3647 3509 3647 2328 
Q 3647 1150 3233 529 
Q 2819 -91 2034 -91 
Q 1250 -91 836 529 
Q 422 1150 422 2328 
Q 422 3509 836 4129 
Q 1250 4750 2034 4750 
z
" transform="scale(0.015625)"/>
        <path id="DejaVuSans-36" d="M 2113 2584 
Q 1688 2584 1439 2293 
Q 1191 2003 1191 1497 
Q 1191 994 1439 701 
Q 1688 409 2113 409 
Q 2538 409 2786 701 
Q 3034 994 3034 1497 
Q 3034 2003 2786 2293 
Q 2538 2584 2113 2584 
z
M 3366 4563 
L 3366 3988 
Q 3128 4100 2886 4159 
Q 2644 4219 2406 4219 
Q 1781 4219 1451 3797 
Q 1122 3375 1075 2522 
Q 1259 2794 1537 2939 
Q 1816 3084 2150 3084 
Q 2853 3084 3261 2657 
Q 3669 2231 3669 1497 
Q 3669 778 3244 343 
Q 2819 -91 2113 -91 
Q 1303 -91 875 529 
Q 447 1150 447 2328 
Q 447 3434 972 4092 
Q 1497 4750 2381 4750 
Q 2619 4750 2861 4703 
Q 3103 4656 3366 4563 
z
" transform="scale(0.015625)"/>
        <path id="DejaVuSans-37" d="M 525 4666 
L 3525 4666 
L 3525 4397 
L 1831 0 
L 1172 0 
L 2766 4134 
L 525 4134 
L 525 4666 
z
" transform="scale(0.015625)"/>
        <path id="DejaVuSans-2e" d="M 684 794 
L 1344 794 
L 1344 0 
L 684 0 
L 684 794 
z
" transform="scale(0.015625)"/>
       </defs>
       <use xlink:href="#DejaVuSans-4e"/>
       <use xlink:href="#DejaVuSans-43" x="74.804688"/>
       <use xlink:href="#DejaVuSans-5f" x="144.628906"/>
       <use xlink:href="#DejaVuSans-30" x="194.628906"/>
       <use xlink:href="#DejaVuSans-30" x="258.251953"/>
       <use xlink:href="#DejaVuSans-30" x="321.875"/>
       <use xlink:href="#DejaVuSans-30" x="385.498047"/>
       <use xlink:href="#DejaVuSans-36" x="449.121094"/>
       <use xlink:href="#DejaVuSans-37" x="512.744141"/>
       <use xlink:href="#DejaVuSans-2e" x="576.367188"/>
       <use xlink:href="#DejaVuSans-37" x="608.154297"/>
      </g>
     </g>
    </g>
    <g id="xtick_2">
     <g id="text_2">
      <!-- NC_000068.8 -->
      <g transform="translate(98.261521 286.92756) scale(0.08 -0.08)">
       <defs>
        <path id="DejaVuSans-38" d="M 2034 2216 
Q 1584 2216 1326 1975 
Q 1069 1734 1069 1313 
Q 1069 891 1326 650 
Q 1584 409 2034 409 
Q 2484 409 2743 651 
Q 3003 894 3003 1313 
Q 3003 1734 2745 1975 
Q 2488 2216 2034 2216 
z
M 1403 2484 
Q 997 2584 770 2862 
Q 544 3141 544 3541 
Q 544 4100 942 4425 
Q 1341 4750 2034 4750 
Q 2731 4750 3128 4425 
Q 3525 4100 3525 3541 
Q 3525 3141 3298 2862 
Q 3072 2584 2669 2484 
Q 3125 2378 3379 2068 
Q 3634 1759 3634 1313 
Q 3634 634 3220 271 
Q 2806 -91 2034 -91 
Q 1263 -91 848 271 
Q 434 634 434 1313 
Q 434 1759 690 2068 
Q 947 2378 1403 2484 
z
M 1172 3481 
Q 1172 3119 1398 2916 
Q 1625 2713 2034 2713 
Q 2441 2713 2670 2916 
Q 2900 3119 2900 3481 
Q 2900 3844 2670 4047 
Q 2441 4250 2034 4250 
Q 1625 4250 1398 4047 
Q 1172 3844 1172 3481 
z
" transform="scale(0.015625)"/>
       </defs>
       <use xlink:href="#DejaVuSans-4e"/>
       <use xlink:href="#DejaVuSans-43" x="74.804688"/>
       <use xlink:href="#DejaVuSans-5f" x="144.628906"/>
       <use xlink:href="#DejaVuSans-30" x="194.628906"/>
       <use xlink:href="#DejaVuSans-30" x="258.251953"/>
       <use xlink:href="#DejaVuSans-30" x="321.875"/>
       <use xlink:href="#DejaVuSans-30" x="385.498047"/>
       <use xlink:href="#DejaVuSans-36" x="449.121094"/>
       <use xlink:href="#DejaVuSans-38" x="512.744141"/>
       <use xlink:href="#DejaVuSans-2e" x="576.367188"/>
       <use xlink:href="#DejaVuSans-38" x="608.154297"/>
      </g>
     </g>
    </g>
    <g id="xtick_3">
     <g id="text_3">
      <!-- NC_000069.7 -->
      <g transform="translate(139.497018 286.92756) scale(0.08 -0.08)">
       <defs>
        <path id="DejaVuSans-39" d="M 703 97 
L 703 672 
Q 941 559 1184 500 
Q 1428 441 1663 441 
Q 2288 441 2617 861 
Q 2947 1281 2994 2138 
Q 2813 1869 2534 1725 
Q 2256 1581 1919 1581 
Q 1219 1581 811 2004 
Q 403 2428 403 3163 
Q 403 3881 828 4315 
Q 1253 4750 1959 4750 
Q 2769 4750 3195 4129 
Q 3622 3509 3622 2328 
Q 3622 1225 3098 567 
Q 2575 -91 1691 -91 
Q 1453 -91 1209 -44 
Q 966 3 703 97 
z
M 1959 2075 
Q 2384 2075 2632 2365 
Q 2881 2656 2881 3163 
Q 2881 3666 2632 3958 
Q 2384 4250 1959 4250 
Q 1534 4250 1286 3958 
Q 1038 3666 1038 3163 
Q 1038 2656 1286 2365 
Q 1534 2075 1959 2075 
z
" transform="scale(0.015625)"/>
       </defs>
       <use xlink:href="#DejaVuSans-4e"/>
       <use xlink:href="#DejaVuSans-43" x="74.804688"/>
       <use xlink:href="#DejaVuSans-5f" x="144.628906"/>
       <use xlink:href="#DejaVuSans-30" x="194.628906"/>
       <use xlink:href="#DejaVuSans-30" x="258.251953"/>
       <use xlink:href="#DejaVuSans-30" x="321.875"/>
       <use xlink:href="#DejaVuSans-30" x="385.498047"/>
       <use xlink:href="#DejaVuSans-36" x="449.121094"/>
       <use xlink:href="#DejaVuSans-39" x="512.744141"/>
       <use xlink:href="#DejaVuSans-2e" x="576.367188"/>
       <use xlink:href="#DejaVuSans-37" x="608.154297"/>
      </g>
     </g>
    </g>
    <g id="xtick_4">
     <g id="text_4">
      <!-- NC_000070.7 -->
      <g transform="translate(180.732516 286.92756) scale(0.08 -0.08)">
       <use xlink:href="#DejaVuSans-4e"/>
       <use xlink:href="#DejaVuSans-43" x="74.804688"/>
       <use xlink:href="#DejaVuSans-5f" x="144.628906"/>
       <use xlink:href="#DejaVuSans-30" x="194.628906"/>
       <use xlink:href="#DejaVuSans-30" x="258.251953"/>
       <use xlink:href="#DejaVuSans-30" x="321.875"/>
       <use xlink:href="#DejaVuSans-30" x="385.498047"/>
       <use xlink:href="#DejaVuSans-37" x="449.121094"/>
       <use xlink:href="#DejaVuSans-30" x="512.744141"/>
       <use xlink:href="#DejaVuSans-2e" x="576.367188"/>
       <use xlink:href="#DejaVuSans-37" x="608.154297"/>
      </g>
     </g>
    </g>
    <g id="xtick_5">
     <g id="text_5">
      <!-- NC_000071.7 -->
      <g transform="translate(221.968014 286.92756) scale(0.08 -0.08)">
       <defs>
        <path id="DejaVuSans-31" d="M 794 531 
L 1825 531 
L 1825 4091 
L 703 3866 
L 703 4441 
L 1819 4666 
L 2450 4666 
L 2450 531 
L 3481 531 
L 3481 0 
L 794 0 
L 794 531 
z
" transform="scale(0.015625)"/>
       </defs>
       <use xlink:href="#DejaVuSans-4e"/>
       <use xlink:href="#DejaVuSans-43" x="74.804688"/>
       <use xlink:href="#DejaVuSans-5f" x="144.628906"/>
       <use xlink:href="#DejaVuSans-30" x="194.628906"/>
       <use xlink:href="#DejaVuSans-30" x="258.251953"/>
       <use xlink:href="#DejaVuSans-30" x="321.875"/>
       <use xlink:href="#DejaVuSans-30" x="385.498047"/>
       <use xlink:href="#DejaVuSans-37" x="449.121094"/>
       <use xlink:href="#DejaVuSans-31" x="512.744141"/>
       <use xlink:href="#DejaVuSans-2e" x="576.367188"/>
       <use xlink:href="#DejaVuSans-37" x="608.154297"/>
      </g>
     </g>
    </g>
    <g id="xtick_6">
     <g id="text_6">
      <!-- NC_000072.7 -->
      <g transform="translate(263.203512 286.92756) scale(0.08 -0.08)">
       <defs>
        <path id="DejaVuSans-32" d="M 1228 531 
L 3431 531 
L 3431 0 
L 469 0 
L 469 531 
Q 828 903 1448 1529 
Q 2069 2156 2228 2338 
Q 2531 2678 2651 2914 
Q 2772 3150 2772 3378 
Q 2772 3750 2511 3984 
Q 2250 4219 1831 4219 
Q 1534 4219 1204 4116 
Q 875 4013 500 3803 
L 500 4441 
Q 881 4594 1212 4672 
Q 1544 4750 1819 4750 
Q 2544 4750 2975 4387 
Q 3406 4025 3406 3419 
Q 3406 3131 3298 2873 
Q 3191 2616 2906 2266 
Q 2828 2175 2409 1742 
Q 1991 1309 1228 531 
z
" transform="scale(0.015625)"/>
       </defs>
       <use xlink:href="#DejaVuSans-4e"/>
       <use xlink:href="#DejaVuSans-43" x="74.804688"/>
       <use xlink:href="#DejaVuSans-5f" x="144.628906"/>
       <use xlink:href="#DejaVuSans-30" x="194.628906"/>
       <use xlink:href="#DejaVuSans-30" x="258.251953"/>
       <use xlink:href="#DejaVuSans-30" x="321.875"/>
       <use xlink:href="#DejaVuSans-30" x="385.498047"/>
       <use xlink:href="#DejaVuSans-37" x="449.121094"/>
       <use xlink:href="#DejaVuSans-32" x="512.744141"/>
       <use xlink:href="#DejaVuSans-2e" x="576.367188"/>
       <use xlink:href="#DejaVuSans-37" x="608.154297"/>
      </g>
     </g>
    </g>
    <g id="xtick_7">
     <g id="text_7">
      <!-- NC_000073.7 -->
      <g transform="translate(304.43901 286.92756) scale(0.08 -0.08)">
       <defs>
        <path id="DejaVuSans-33" d="M 2597 2516 
Q 3050 2419 3304 2112 
Q 3559 1806 3559 1356 
Q 3559 666 3084 287 
Q 2609 -91 1734 -91 
Q 1441 -91 1130 -33 
Q 819 25 488 141 
L 488 750 
Q 750 597 1062 519 
Q 1375 441 1716 441 
Q 2309 441 2620 675 
Q 2931 909 2931 1356 
Q 2931 1769 2642 2001 
Q 2353 2234 1838 2234 
L 1294 2234 
L 1294 2753 
L 1863 2753 
Q 2328 2753 2575 2939 
Q 2822 3125 2822 3475 
Q 2822 3834 2567 4026 
Q 2313 4219 1838 4219 
Q 1578 4219 1281 4162 
Q 984 4106 628 3988 
L 628 4550 
Q 988 4650 1302 4700 
Q 1616 4750 1894 4750 
Q 2613 4750 3031 4423 
Q 3450 4097 3450 3541 
Q 3450 3153 3228 2886 
Q 3006 2619 2597 2516 
z
" transform="scale(0.015625)"/>
       </defs>
       <use xlink:href="#DejaVuSans-4e"/>
       <use xlink:href="#DejaVuSans-43" x="74.804688"/>
       <use xlink:href="#DejaVuSans-5f" x="144.628906"/>
       <use xlink:href="#DejaVuSans-30" x="194.628906"/>
       <use xlink:href="#DejaVuSans-30" x="258.251953"/>
       <use xlink:href="#DejaVuSans-30" x="321.875"/>
       <use xlink:href="#DejaVuSans-30" x="385.498047"/>
       <use xlink:href="#DejaVuSans-37" x="449.121094"/>
       <use xlink:href="#DejaVuSans-33" x="512.744141"/>
       <use xlink:href="#DejaVuSans-2e" x="576.367188"/>
       <use xlink:href="#DejaVuSans-37" x="608.154297"/>
      </g>
     </g>
    </g>
    <g id="xtick_8">
     <g id="text_8">
      <!-- NC_000074.7 -->
      <g transform="translate(345.674508 286.92756) scale(0.08 -0.08)">
       <defs>
        <path id="DejaVuSans-34" d="M 2419 4116 
L 825 1625 
L 2419 1625 
L 2419 4116 
z
M 2253 4666 
L 3047 4666 
L 3047 1625 
L 3713 1625 
L 3713 1100 
L 3047 1100 
L 3047 0 
L 2419 0 
L 2419 1100 
L 313 1100 
L 313 1709 
L 2253 4666 
z
" transform="scale(0.015625)"/>
       </defs>
       <use xlink:href="#DejaVuSans-4e"/>
       <use xlink:href="#DejaVuSans-43" x="74.804688"/>
       <use xlink:href="#DejaVuSans-5f" x="144.628906"/>
       <use xlink:href="#DejaVuSans-30" x="194.628906"/>
       <use xlink:href="#DejaVuSans-30" x="258.251953"/>
       <use xlink:href="#DejaVuSans-30" x="321.875"/>
       <use xlink:href="#DejaVuSans-30" x="385.498047"/>
       <use xlink:href="#DejaVuSans-37" x="449.121094"/>
       <use xlink:href="#DejaVuSans-34" x="512.744141"/>
       <use xlink:href="#DejaVuSans-2e" x="576.367188"/>
       <use xlink:href="#DejaVuSans-37" x="608.154297"/>
      </g>
     </g>
    </g>
    <g id="xtick_9">
     <g id="text_9">
      <!-- NC_000075.7 -->
      <g transform="translate(386.910005 286.92756) scale(0.08 -0.08)">
       <defs>
        <path id="DejaVuSans-35" d="M 691 4666 
L 3169 4666 
L 3169 4134 
L 1269 4134 
L 1269 2991 
Q 1406 3038 1543 3061 
Q 1681 3084 1819 3084 
Q 2600 3084 3056 2656 
Q 3513 2228 3513 1497 
Q 3513 744 3044 326 
Q 2575 -91 1722 -91 
Q 1428 -91 1123 -41 
Q 819 9 494 109 
L 494 744 
Q 775 591 1075 516 
Q 1375 441 1709 441 
Q 2250 441 2565 725 
Q 2881 1009 2881 1497 
Q 2881 1984 2565 2268 
Q 2250 2553 1709 2553 
Q 1456 2553 1204 2497 
Q 953 2441 691 2322 
L 691 4666 
z
" transform="scale(0.015625)"/>
       </defs>
       <use xlink:href="#DejaVuSans-4e"/>
       <use xlink:href="#DejaVuSans-43" x="74.804688"/>
       <use xlink:href="#DejaVuSans-5f" x="144.628906"/>
       <use xlink:href="#DejaVuSans-30" x="194.628906"/>
       <use xlink:href="#DejaVuSans-30" x="258.251953"/>
       <use xlink:href="#DejaVuSans-30" x="321.875"/>
       <use xlink:href="#DejaVuSans-30" x="385.498047"/>
       <use xlink:href="#DejaVuSans-37" x="449.121094"/>
       <use xlink:href="#DejaVuSans-35" x="512.744141"/>
       <use xlink:href="#DejaVuSans-2e" x="576.367188"/>
       <use xlink:href="#DejaVuSans-37" x="608.154297"/>
      </g>
     </g>
    </g>
    <g id="xtick_10">
     <g id="text_10">
      <!-- NC_000076.7 -->
      <g transform="translate(428.145503 286.92756) scale(0.08 -0.08)">
       <use xlink:href="#DejaVuSans-4e"/>
       <use xlink:href="#DejaVuSans-43" x="74.804688"/>
       <use xlink:href="#DejaVuSans-5f" x="144.628906"/>
       <use xlink:href="#DejaVuSans-30" x="194.628906"/>
       <use xlink:href="#DejaVuSans-30" x="258.251953"/>
       <use xlink:href="#DejaVuSans-30" x="321.875"/>
       <use xlink:href="#DejaVuSans-30" x="385.498047"/>
       <use xlink:href="#DejaVuSans-37" x="449.121094"/>
       <use xlink:href="#DejaVuSans-36" x="512.744141"/>
       <use xlink:href="#DejaVuSans-2e" x="576.367188"/>
       <use xlink:href="#DejaVuSans-37" x="608.154297"/>
      </g>
     </g>
    </g>
    <g id="xtick_11">
     <g id="text_11">
      <!-- NC_000077.7 -->
      <g transform="translate(469.381001 286.92756) scale(0.08 -0.08)">
       <use xlink:href="#DejaVuSans-4e"/>
       <use xlink:href="#DejaVuSans-43" x="74.804688"/>
       <use xlink:href="#DejaVuSans-5f" x="144.628906"/>
       <use xlink:href="#DejaVuSans-30" x="194.628906"/>
       <use xlink:href="#DejaVuSans-30" x="258.251953"/>
       <use xlink:href="#DejaVuSans-30" x="321.875"/>
       <use xlink:href="#DejaVuSans-30" x="385.498047"/>
       <use xlink:href="#DejaVuSans-37" x="449.121094"/>
       <use xlink:href="#DejaVuSans-37" x="512.744141"/>
       <use xlink:href="#DejaVuSans-2e" x="576.367188"/>
       <use xlink:href="#DejaVuSans-37" x="608.154297"/>
      </g>
     </g>
    </g>
    <g id="xtick_12">
     <g id="text_12">
      <!-- NC_000078.7 -->
      <g transform="translate(510.616499 286.92756) scale(0.08 -0.08)">
       <use xlink:href="#DejaVuSans-4e"/>
       <use xlink:href="#DejaVuSans-43" x="74.804688"/>
       <use xlink:href="#DejaVuSans-5f" x="144.628906"/>
       <use xlink:href="#DejaVuSans-30" x="194.628906"/>
       <use xlink:href="#DejaVuSans-30" x="258.251953"/>
       <use xlink:href="#DejaVuSans-30" x="321.875"/>
       <use xlink:href="#DejaVuSans-30" x="385.498047"/>
       <use xlink:href="#DejaVuSans-37" x="449.121094"/>
       <use xlink:href="#DejaVuSans-38" x="512.744141"/>
       <use xlink:href="#DejaVuSans-2e" x="576.367188"/>
       <use xlink:href="#DejaVuSans-37" x="608.154297"/>
      </g>
     </g>
    </g>
    <g id="xtick_13">
     <g id="text_13">
      <!-- NC_000079.7 -->
      <g transform="translate(551.851997 286.92756) scale(0.08 -0.08)">
       <use xlink:href="#DejaVuSans-4e"/>
       <use xlink:href="#DejaVuSans-43" x="74.804688"/>
       <use xlink:href="#DejaVuSans-5f" x="144.628906"/>
       <use xlink:href="#DejaVuSans-30" x="194.628906"/>
       <use xlink:href="#DejaVuSans-30" x="258.251953"/>
       <use xlink:href="#DejaVuSans-30" x="321.875"/>
       <use xlink:href="#DejaVuSans-30" x="385.498047"/>
       <use xlink:href="#DejaVuSans-37" x="449.121094"/>
       <use xlink:href="#DejaVuSans-39" x="512.744141"/>
       <use xlink:href="#DejaVuSans-2e" x="576.367188"/>
       <use xlink:href="#DejaVuSans-37" x="608.154297"/>
      </g>
     </g>
    </g>
    <g id="xtick_14">
     <g id="text_14">
      <!-- NC_000080.7 -->
      <g transform="translate(593.087495 286.92756) scale(0.08 -0.08)">
       <use xlink:href="#DejaVuSans-4e"/>
       <use xlink:href="#DejaVuSans-43" x="74.804688"/>
       <use xlink:href="#DejaVuSans-5f" x="144.628906"/>
       <use xlink:href="#DejaVuSans-30" x="194.628906"/>
       <use xlink:href="#DejaVuSans-30" x="258.251953"/>
       <use xlink:href="#DejaVuSans-30" x="321.875"/>
       <use xlink:href="#DejaVuSans-30" x="385.498047"/>
       <use xlink:href="#DejaVuSans-38" x="449.121094"/>
       <use xlink:href="#DejaVuSans-30" x="512.744141"/>
       <use xlink:href="#DejaVuSans-2e" x="576.367188"/>
       <use xlink:href="#DejaVuSans-37" x="608.154297"/>
      </g>
     </g>
    </g>
    <g id="xtick_15">
     <g id="text_15">
      <!-- NC_000081.7 -->
      <g transform="translate(634.322992 286.92756) scale(0.08 -0.08)">
       <use xlink:href="#DejaVuSans-4e"/>
       <use xlink:href="#DejaVuSans-43" x="74.804688"/>
       <use xlink:href="#DejaVuSans-5f" x="144.628906"/>
       <use xlink:href="#DejaVuSans-30" x="194.628906"/>
       <use xlink:href="#DejaVuSans-30" x="258.251953"/>
       <use xlink:href="#DejaVuSans-30" x="321.875"/>
       <use xlink:href="#DejaVuSans-30" x="385.498047"/>
       <use xlink:href="#DejaVuSans-38" x="449.121094"/>
       <use xlink:href="#DejaVuSans-31" x="512.744141"/>
       <use xlink:href="#DejaVuSans-2e" x="576.367188"/>
       <use xlink:href="#DejaVuSans-37" x="608.154297"/>
      </g>
     </g>
    </g>
    <g id="xtick_16">
     <g id="text_16">
      <!-- NC_000082.7 -->
      <g transform="translate(675.55849 286.92756) scale(0.08 -0.08)">
       <use xlink:href="#DejaVuSans-4e"/>
       <use xlink:href="#DejaVuSans-43" x="74.804688"/>
       <use xlink:href="#DejaVuSans-5f" x="144.628906"/>
       <use xlink:href="#DejaVuSans-30" x="194.628906"/>
       <use xlink:href="#DejaVuSans-30" x="258.251953"/>
       <use xlink:href="#DejaVuSans-30" x="321.875"/>
       <use xlink:href="#DejaVuSans-30" x="385.498047"/>
       <use xlink:href="#DejaVuSans-38" x="449.121094"/>
       <use xlink:href="#DejaVuSans-32" x="512.744141"/>
       <use xlink:href="#DejaVuSans-2e" x="576.367188"/>
       <use xlink:href="#DejaVuSans-37" x="608.154297"/>
      </g>
     </g>
    </g>
    <g id="xtick_17">
     <g id="text_17">
      <!-- NC_000083.7 -->
      <g transform="translate(716.793988 286.92756) scale(0.08 -0.08)">
       <use xlink:href="#DejaVuSans-4e"/>
       <use xlink:href="#DejaVuSans-43" x="74.804688"/>
       <use xlink:href="#DejaVuSans-5f" x="144.628906"/>
       <use xlink:href="#DejaVuSans-30" x="194.628906"/>
       <use xlink:href="#DejaVuSans-30" x="258.251953"/>
       <use xlink:href="#DejaVuSans-30" x="321.875"/>
       <use xlink:href="#DejaVuSans-30" x="385.498047"/>
       <use xlink:href="#DejaVuSans-38" x="449.121094"/>
       <use xlink:href="#DejaVuSans-33" x="512.744141"/>
       <use xlink:href="#DejaVuSans-2e" x="576.367188"/>
       <use xlink:href="#DejaVuSans-37" x="608.154297"/>
      </g>
     </g>
    </g>
    <g id="xtick_18">
     <g id="text_18">
      <!-- NC_000084.7 -->
      <g transform="translate(758.029486 286.92756) scale(0.08 -0.08)">
       <use xlink:href="#DejaVuSans-4e"/>
       <use xlink:href="#DejaVuSans-43" x="74.804688"/>
       <use xlink:href="#DejaVuSans-5f" x="144.628906"/>
       <use xlink:href="#DejaVuSans-30" x="194.628906"/>
       <use xlink:href="#DejaVuSans-30" x="258.251953"/>
       <use xlink:href="#DejaVuSans-30" x="321.875"/>
       <use xlink:href="#DejaVuSans-30" x="385.498047"/>
       <use xlink:href="#DejaVuSans-38" x="449.121094"/>
       <use xlink:href="#DejaVuSans-34" x="512.744141"/>
       <use xlink:href="#DejaVuSans-2e" x="576.367188"/>
       <use xlink:href="#DejaVuSans-37" x="608.154297"/>
      </g>
     </g>
    </g>
    <g id="xtick_19">
     <g id="text_19">
      <!-- NC_000085.7 -->
      <g transform="translate(799.264984 286.92756) scale(0.08 -0.08)">
       <use xlink:href="#DejaVuSans-4e"/>
       <use xlink:href="#DejaVuSans-43" x="74.804688"/>
       <use xlink:href="#DejaVuSans-5f" x="144.628906"/>
       <use xlink:href="#DejaVuSans-30" x="194.628906"/>
       <use xlink:href="#DejaVuSans-30" x="258.251953"/>
       <use xlink:href="#DejaVuSans-30" x="321.875"/>
       <use xlink:href="#DejaVuSans-30" x="385.498047"/>
       <use xlink:href="#DejaVuSans-38" x="449.121094"/>
       <use xlink:href="#DejaVuSans-35" x="512.744141"/>
       <use xlink:href="#DejaVuSans-2e" x="576.367188"/>
       <use xlink:href="#DejaVuSans-37" x="608.154297"/>
      </g>
     </g>
    </g>
    <g id="xtick_20">
     <g id="text_20">
      <!-- NC_000086.8 -->
      <g transform="translate(840.500482 286.92756) scale(0.08 -0.08)">
       <use xlink:href="#DejaVuSans-4e"/>
       <use xlink:href="#DejaVuSans-43" x="74.804688"/>
       <use xlink:href="#DejaVuSans-5f" x="144.628906"/>
       <use xlink:href="#DejaVuSans-30" x="194.628906"/>
       <use xlink:href="#DejaVuSans-30" x="258.251953"/>
       <use xlink:href="#DejaVuSans-30" x="321.875"/>
       <use xlink:href="#DejaVuSans-30" x="385.498047"/>
       <use xlink:href="#DejaVuSans-38" x="449.121094"/>
       <use xlink:href="#DejaVuSans-36" x="512.744141"/>
       <use xlink:href="#DejaVuSans-2e" x="576.367188"/>
       <use xlink:href="#DejaVuSans-38" x="608.154297"/>
      </g>
     </g>
    </g>
    <g id="xtick_21">
     <g id="text_21">
      <!-- NW_023337853.1 -->
      <g transform="translate(872.939104 286.92756) scale(0.08 -0.08)">
       <defs>
        <path id="DejaVuSans-57" d="M 213 4666 
L 850 4666 
L 1831 722 
L 2809 4666 
L 3519 4666 
L 4500 722 
L 5478 4666 
L 6119 4666 
L 4947 0 
L 4153 0 
L 3169 4050 
L 2175 0 
L 1381 0 
L 213 4666 
z
" transform="scale(0.015625)"/>
       </defs>
       <use xlink:href="#DejaVuSans-4e"/>
       <use xlink:href="#DejaVuSans-57" x="74.804688"/>
       <use xlink:href="#DejaVuSans-5f" x="173.681641"/>
       <use xlink:href="#DejaVuSans-30" x="223.681641"/>
       <use xlink:href="#DejaVuSans-32" x="287.304688"/>
       <use xlink:href="#DejaVuSans-33" x="350.927734"/>
       <use xlink:href="#DejaVuSans-33" x="414.550781"/>
       <use xlink:href="#DejaVuSans-33" x="478.173828"/>
       <use xlink:href="#DejaVuSans-37" x="541.796875"/>
       <use xlink:href="#DejaVuSans-38" x="605.419922"/>
       <use xlink:href="#DejaVuSans-35" x="669.042969"/>
       <use xlink:href="#DejaVuSans-33" x="732.666016"/>
       <use xlink:href="#DejaVuSans-2e" x="796.289062"/>
       <use xlink:href="#DejaVuSans-31" x="828.076172"/>
      </g>
     </g>
    </g>
    <g id="xtick_22">
     <g id="text_22">
      <!-- NC_005089.1 -->
      <g transform="translate(922.971477 286.92756) scale(0.08 -0.08)">
       <use xlink:href="#DejaVuSans-4e"/>
       <use xlink:href="#DejaVuSans-43" x="74.804688"/>
       <use xlink:href="#DejaVuSans-5f" x="144.628906"/>
       <use xlink:href="#DejaVuSans-30" x="194.628906"/>
       <use xlink:href="#DejaVuSans-30" x="258.251953"/>
       <use xlink:href="#DejaVuSans-35" x="321.875"/>
       <use xlink:href="#DejaVuSans-30" x="385.498047"/>
       <use xlink:href="#DejaVuSans-38" x="449.121094"/>
       <use xlink:href="#DejaVuSans-39" x="512.744141"/>
       <use xlink:href="#DejaVuSans-2e" x="576.367188"/>
       <use xlink:href="#DejaVuSans-31" x="608.154297"/>
      </g>
     </g>
    </g>
    <g id="text_23">
     <!-- Chromosome Name -->
     <g transform="translate(467.326875 300.412247) scale(0.1 -0.1)">
      <defs>
       <path id="DejaVuSans-68" d="M 3513 2113 
L 3513 0 
L 2938 0 
L 2938 2094 
Q 2938 2591 2744 2837 
Q 2550 3084 2163 3084 
Q 1697 3084 1428 2787 
Q 1159 2491 1159 1978 
L 1159 0 
L 581 0 
L 581 4863 
L 1159 4863 
L 1159 2956 
Q 1366 3272 1645 3428 
Q 1925 3584 2291 3584 
Q 2894 3584 3203 3211 
Q 3513 2838 3513 2113 
z
" transform="scale(0.015625)"/>
       <path id="DejaVuSans-72" d="M 2631 2963 
Q 2534 3019 2420 3045 
Q 2306 3072 2169 3072 
Q 1681 3072 1420 2755 
Q 1159 2438 1159 1844 
L 1159 0 
L 581 0 
L 581 3500 
L 1159 3500 
L 1159 2956 
Q 1341 3275 1631 3429 
Q 1922 3584 2338 3584 
Q 2397 3584 2469 3576 
Q 2541 3569 2628 3553 
L 2631 2963 
z
" transform="scale(0.015625)"/>
       <path id="DejaVuSans-6f" d="M 1959 3097 
Q 1497 3097 1228 2736 
Q 959 2375 959 1747 
Q 959 1119 1226 758 
Q 1494 397 1959 397 
Q 2419 397 2687 759 
Q 2956 1122 2956 1747 
Q 2956 2369 2687 2733 
Q 2419 3097 1959 3097 
z
M 1959 3584 
Q 2709 3584 3137 3096 
Q 3566 2609 3566 1747 
Q 3566 888 3137 398 
Q 2709 -91 1959 -91 
Q 1206 -91 779 398 
Q 353 888 353 1747 
Q 353 2609 779 3096 
Q 1206 3584 1959 3584 
z
" transform="scale(0.015625)"/>
       <path id="DejaVuSans-6d" d="M 3328 2828 
Q 3544 3216 3844 3400 
Q 4144 3584 4550 3584 
Q 5097 3584 5394 3201 
Q 5691 2819 5691 2113 
L 5691 0 
L 5113 0 
L 5113 2094 
Q 5113 2597 4934 2840 
Q 4756 3084 4391 3084 
Q 3944 3084 3684 2787 
Q 3425 2491 3425 1978 
L 3425 0 
L 2847 0 
L 2847 2094 
Q 2847 2600 2669 2842 
Q 2491 3084 2119 3084 
Q 1678 3084 1418 2786 
Q 1159 2488 1159 1978 
L 1159 0 
L 581 0 
L 581 3500 
L 1159 3500 
L 1159 2956 
Q 1356 3278 1631 3431 
Q 1906 3584 2284 3584 
Q 2666 3584 2933 3390 
Q 3200 3197 3328 2828 
z
" transform="scale(0.015625)"/>
       <path id="DejaVuSans-73" d="M 2834 3397 
L 2834 2853 
Q 2591 2978 2328 3040 
Q 2066 3103 1784 3103 
Q 1356 3103 1142 2972 
Q 928 2841 928 2578 
Q 928 2378 1081 2264 
Q 1234 2150 1697 2047 
L 1894 2003 
Q 2506 1872 2764 1633 
Q 3022 1394 3022 966 
Q 3022 478 2636 193 
Q 2250 -91 1575 -91 
Q 1294 -91 989 -36 
Q 684 19 347 128 
L 347 722 
Q 666 556 975 473 
Q 1284 391 1588 391 
Q 1994 391 2212 530 
Q 2431 669 2431 922 
Q 2431 1156 2273 1281 
Q 2116 1406 1581 1522 
L 1381 1569 
Q 847 1681 609 1914 
Q 372 2147 372 2553 
Q 372 3047 722 3315 
Q 1072 3584 1716 3584 
Q 2034 3584 2315 3537 
Q 2597 3491 2834 3397 
z
" transform="scale(0.015625)"/>
       <path id="DejaVuSans-65" d="M 3597 1894 
L 3597 1613 
L 953 1613 
Q 991 1019 1311 708 
Q 1631 397 2203 397 
Q 2534 397 2845 478 
Q 3156 559 3463 722 
L 3463 178 
Q 3153 47 2828 -22 
Q 2503 -91 2169 -91 
Q 1331 -91 842 396 
Q 353 884 353 1716 
Q 353 2575 817 3079 
Q 1281 3584 2069 3584 
Q 2775 3584 3186 3129 
Q 3597 2675 3597 1894 
z
M 3022 2063 
Q 3016 2534 2758 2815 
Q 2500 3097 2075 3097 
Q 1594 3097 1305 2825 
Q 1016 2553 972 2059 
L 3022 2063 
z
" transform="scale(0.015625)"/>
       <path id="DejaVuSans-20" transform="scale(0.015625)"/>
       <path id="DejaVuSans-61" d="M 2194 1759 
Q 1497 1759 1228 1600 
Q 959 1441 959 1056 
Q 959 750 1161 570 
Q 1363 391 1709 391 
Q 2188 391 2477 730 
Q 2766 1069 2766 1631 
L 2766 1759 
L 2194 1759 
z
M 3341 1997 
L 3341 0 
L 2766 0 
L 2766 531 
Q 2569 213 2275 61 
Q 1981 -91 1556 -91 
Q 1019 -91 701 211 
Q 384 513 384 1019 
Q 384 1609 779 1909 
Q 1175 2209 1959 2209 
L 2766 2209 
L 2766 2266 
Q 2766 2663 2505 2880 
Q 2244 3097 1772 3097 
Q 1472 3097 1187 3025 
Q 903 2953 641 2809 
L 641 3341 
Q 956 3463 1253 3523 
Q 1550 3584 1831 3584 
Q 2591 3584 2966 3190 
Q 3341 2797 3341 1997 
z
" transform="scale(0.015625)"/>
      </defs>
      <use xlink:href="#DejaVuSans-43"/>
      <use xlink:href="#DejaVuSans-68" x="69.824219"/>
      <use xlink:href="#DejaVuSans-72" x="133.203125"/>
      <use xlink:href="#DejaVuSans-6f" x="172.066406"/>
      <use xlink:href="#DejaVuSans-6d" x="233.248047"/>
      <use xlink:href="#DejaVuSans-6f" x="330.660156"/>
      <use xlink:href="#DejaVuSans-73" x="391.841797"/>
      <use xlink:href="#DejaVuSans-6f" x="443.941406"/>
      <use xlink:href="#DejaVuSans-6d" x="505.123047"/>
      <use xlink:href="#DejaVuSans-65" x="602.535156"/>
      <use xlink:href="#DejaVuSans-20" x="664.058594"/>
      <use xlink:href="#DejaVuSans-4e" x="695.845703"/>
      <use xlink:href="#DejaVuSans-61" x="770.650391"/>
      <use xlink:href="#DejaVuSans-6d" x="831.929688"/>
      <use xlink:href="#DejaVuSans-65" x="929.341797"/>
     </g>
    </g>
   </g>
   <g id="matplotlib.axis_2">
    <g id="ytick_1">
     <g id="line2d_1">
      <path d="M 40.600625 265.169173 
L 993.140625 265.169173 
" clip-path="url(#p032ca3bb1d)" style="fill: none; stroke: #dedede; stroke-linecap: square"/>
     </g>
     <g id="text_24">
      <!-- 0.0 -->
      <g transform="translate(20.878125 268.208548) scale(0.08 -0.08)">
       <use xlink:href="#DejaVuSans-30"/>
       <use xlink:href="#DejaVuSans-2e" x="63.623047"/>
       <use xlink:href="#DejaVuSans-30" x="95.410156"/>
      </g>
     </g>
    </g>
    <g id="ytick_2">
     <g id="line2d_2">
      <path d="M 40.600625 234.867168 
L 993.140625 234.867168 
" clip-path="url(#p032ca3bb1d)" style="fill: none; stroke: #dedede; stroke-linecap: square"/>
     </g>
     <g id="text_25">
      <!-- 0.5 -->
      <g transform="translate(20.878125 237.906543) scale(0.08 -0.08)">
       <use xlink:href="#DejaVuSans-30"/>
       <use xlink:href="#DejaVuSans-2e" x="63.623047"/>
       <use xlink:href="#DejaVuSans-35" x="95.410156"/>
      </g>
     </g>
    </g>
    <g id="ytick_3">
     <g id="line2d_3">
      <path d="M 40.600625 204.565162 
L 993.140625 204.565162 
" clip-path="url(#p032ca3bb1d)" style="fill: none; stroke: #dedede; stroke-linecap: square"/>
     </g>
     <g id="text_26">
      <!-- 1.0 -->
      <g transform="translate(20.878125 207.604537) scale(0.08 -0.08)">
       <use xlink:href="#DejaVuSans-31"/>
       <use xlink:href="#DejaVuSans-2e" x="63.623047"/>
       <use xlink:href="#DejaVuSans-30" x="95.410156"/>
      </g>
     </g>
    </g>
    <g id="ytick_4">
     <g id="line2d_4">
      <path d="M 40.600625 174.263156 
L 993.140625 174.263156 
" clip-path="url(#p032ca3bb1d)" style="fill: none; stroke: #dedede; stroke-linecap: square"/>
     </g>
     <g id="text_27">
      <!-- 1.5 -->
      <g transform="translate(20.878125 177.302531) scale(0.08 -0.08)">
       <use xlink:href="#DejaVuSans-31"/>
       <use xlink:href="#DejaVuSans-2e" x="63.623047"/>
       <use xlink:href="#DejaVuSans-35" x="95.410156"/>
      </g>
     </g>
    </g>
    <g id="ytick_5">
     <g id="line2d_5">
      <path d="M 40.600625 143.961151 
L 993.140625 143.961151 
" clip-path="url(#p032ca3bb1d)" style="fill: none; stroke: #dedede; stroke-linecap: square"/>
     </g>
     <g id="text_28">
      <!-- 2.0 -->
      <g transform="translate(20.878125 147.000526) scale(0.08 -0.08)">
       <use xlink:href="#DejaVuSans-32"/>
       <use xlink:href="#DejaVuSans-2e" x="63.623047"/>
       <use xlink:href="#DejaVuSans-30" x="95.410156"/>
      </g>
     </g>
    </g>
    <g id="ytick_6">
     <g id="line2d_6">
      <path d="M 40.600625 113.659145 
L 993.140625 113.659145 
" clip-path="url(#p032ca3bb1d)" style="fill: none; stroke: #dedede; stroke-linecap: square"/>
     </g>
     <g id="text_29">
      <!-- 2.5 -->
      <g transform="translate(20.878125 116.69852) scale(0.08 -0.08)">
       <use xlink:href="#DejaVuSans-32"/>
       <use xlink:href="#DejaVuSans-2e" x="63.623047"/>
       <use xlink:href="#DejaVuSans-35" x="95.410156"/>
      </g>
     </g>
    </g>
    <g id="ytick_7">
     <g id="line2d_7">
      <path d="M 40.600625 83.357139 
L 993.140625 83.357139 
" clip-path="url(#p032ca3bb1d)" style="fill: none; stroke: #dedede; stroke-linecap: square"/>
     </g>
     <g id="text_30">
      <!-- 3.0 -->
      <g transform="translate(20.878125 86.396514) scale(0.08 -0.08)">
       <use xlink:href="#DejaVuSans-33"/>
       <use xlink:href="#DejaVuSans-2e" x="63.623047"/>
       <use xlink:href="#DejaVuSans-30" x="95.410156"/>
      </g>
     </g>
    </g>
    <g id="ytick_8">
     <g id="line2d_8">
      <path d="M 40.600625 53.055134 
L 993.140625 53.055134 
" clip-path="url(#p032ca3bb1d)" style="fill: none; stroke: #dedede; stroke-linecap: square"/>
     </g>
     <g id="text_31">
      <!-- 3.5 -->
      <g transform="translate(20.878125 56.094509) scale(0.08 -0.08)">
       <use xlink:href="#DejaVuSans-33"/>
       <use xlink:href="#DejaVuSans-2e" x="63.623047"/>
       <use xlink:href="#DejaVuSans-35" x="95.410156"/>
      </g>
     </g>
    </g>
    <g id="text_32">
     <!-- # mapped reads -->
     <g transform="translate(14.798438 194.500522) rotate(-90) scale(0.1 -0.1)">
      <defs>
       <path id="DejaVuSans-23" d="M 3272 2816 
L 2363 2816 
L 2100 1772 
L 3016 1772 
L 3272 2816 
z
M 2803 4594 
L 2478 3297 
L 3391 3297 
L 3719 4594 
L 4219 4594 
L 3897 3297 
L 4872 3297 
L 4872 2816 
L 3775 2816 
L 3519 1772 
L 4513 1772 
L 4513 1294 
L 3397 1294 
L 3072 0 
L 2572 0 
L 2894 1294 
L 1978 1294 
L 1656 0 
L 1153 0 
L 1478 1294 
L 494 1294 
L 494 1772 
L 1594 1772 
L 1856 2816 
L 850 2816 
L 850 3297 
L 1978 3297 
L 2297 4594 
L 2803 4594 
z
" transform="scale(0.015625)"/>
       <path id="DejaVuSans-70" d="M 1159 525 
L 1159 -1331 
L 581 -1331 
L 581 3500 
L 1159 3500 
L 1159 2969 
Q 1341 3281 1617 3432 
Q 1894 3584 2278 3584 
Q 2916 3584 3314 3078 
Q 3713 2572 3713 1747 
Q 3713 922 3314 415 
Q 2916 -91 2278 -91 
Q 1894 -91 1617 61 
Q 1341 213 1159 525 
z
M 3116 1747 
Q 3116 2381 2855 2742 
Q 2594 3103 2138 3103 
Q 1681 3103 1420 2742 
Q 1159 2381 1159 1747 
Q 1159 1113 1420 752 
Q 1681 391 2138 391 
Q 2594 391 2855 752 
Q 3116 1113 3116 1747 
z
" transform="scale(0.015625)"/>
       <path id="DejaVuSans-64" d="M 2906 2969 
L 2906 4863 
L 3481 4863 
L 3481 0 
L 2906 0 
L 2906 525 
Q 2725 213 2448 61 
Q 2172 -91 1784 -91 
Q 1150 -91 751 415 
Q 353 922 353 1747 
Q 353 2572 751 3078 
Q 1150 3584 1784 3584 
Q 2172 3584 2448 3432 
Q 2725 3281 2906 2969 
z
M 947 1747 
Q 947 1113 1208 752 
Q 1469 391 1925 391 
Q 2381 391 2643 752 
Q 2906 1113 2906 1747 
Q 2906 2381 2643 2742 
Q 2381 3103 1925 3103 
Q 1469 3103 1208 2742 
Q 947 2381 947 1747 
z
" transform="scale(0.015625)"/>
      </defs>
      <use xlink:href="#DejaVuSans-23"/>
      <use xlink:href="#DejaVuSans-20" x="83.789062"/>
      <use xlink:href="#DejaVuSans-6d" x="115.576172"/>
      <use xlink:href="#DejaVuSans-61" x="212.988281"/>
      <use xlink:href="#DejaVuSans-70" x="274.267578"/>
      <use xlink:href="#DejaVuSans-70" x="337.744141"/>
      <use xlink:href="#DejaVuSans-65" x="401.220703"/>
      <use xlink:href="#DejaVuSans-64" x="462.744141"/>
      <use xlink:href="#DejaVuSans-20" x="526.220703"/>
      <use xlink:href="#DejaVuSans-72" x="558.007812"/>
      <use xlink:href="#DejaVuSans-65" x="596.871094"/>
      <use xlink:href="#DejaVuSans-61" x="658.394531"/>
      <use xlink:href="#DejaVuSans-64" x="719.673828"/>
      <use xlink:href="#DejaVuSans-73" x="783.150391"/>
     </g>
    </g>
    <g id="text_33">
     <!-- 1e6 -->
     <g transform="translate(40.600625 28.48286) scale(0.1 -0.1)">
      <use xlink:href="#DejaVuSans-31"/>
      <use xlink:href="#DejaVuSans-65" x="63.623047"/>
      <use xlink:href="#DejaVuSans-36" x="125.146484"/>
     </g>
    </g>
   </g>
   <g id="line2d_9">
    <path d="M 83.897898 93.491281 
L 125.133396 68.490187 
L 166.368893 152.031726 
L 207.604391 104.865503 
L 248.839889 93.31353 
L 290.075387 139.552633 
L 331.310885 97.817862 
L 372.546383 135.265505 
L 413.78188 116.372811 
L 455.017378 146.618152 
L 496.252876 49.389318 
L 537.488374 158.928887 
L 578.723872 164.062774 
L 619.95937 179.989326 
L 661.194867 145.795331 
L 702.430365 181.09541 
L 743.665863 140.782228 
L 784.901361 192.742835 
L 826.136859 193.16985 
L 867.372357 180.054294 
L 908.607854 262.575261 
L 949.843352 207.919836 
" clip-path="url(#p032ca3bb1d)" style="fill: none; stroke: #7cb5ec; stroke-linecap: square"/>
   </g>
   <g id="line2d_10">
    <path d="M 83.897898 91.702372 
L 125.133396 63.505265 
L 166.368893 149.948342 
L 207.604391 100.209963 
L 248.839889 87.776141 
L 290.075387 137.729786 
L 331.310885 93.660185 
L 372.546383 132.195912 
L 413.78188 112.200346 
L 455.017378 143.71831 
L 496.252876 42.505915 
L 537.488374 156.898713 
L 578.723872 161.649037 
L 619.95937 178.06927 
L 661.194867 142.119092 
L 702.430365 180.263135 
L 743.665863 137.515732 
L 784.901361 191.719718 
L 826.136859 191.938074 
L 867.372357 173.668025 
L 908.607854 262.629562 
L 949.843352 213.154084 
" clip-path="url(#p032ca3bb1d)" style="fill: none; stroke: #434348; stroke-linecap: square"/>
   </g>
   <g id="line2d_11">
    <path d="M 83.897898 94.133139 
L 125.133396 69.143196 
L 166.368893 152.069361 
L 207.604391 103.596152 
L 248.839889 91.625769 
L 290.075387 142.014307 
L 331.310885 99.485867 
L 372.546383 135.881363 
L 413.78188 115.724954 
L 455.017378 146.903172 
L 496.252876 48.606496 
L 537.488374 159.253543 
L 578.723872 163.404493 
L 619.95937 180.42319 
L 661.194867 144.056057 
L 702.430365 181.937503 
L 743.665863 141.686076 
L 784.901361 193.357117 
L 826.136859 193.741104 
L 867.372357 176.555442 
L 908.607854 262.967005 
L 949.843352 211.715526 
" clip-path="url(#p032ca3bb1d)" style="fill: none; stroke: #90ed7d; stroke-linecap: square"/>
   </g>
   <g id="line2d_12">
    <path d="M 83.897898 109.204871 
L 125.133396 83.158237 
L 166.368893 161.705399 
L 207.604391 117.254417 
L 248.839889 105.583842 
L 290.075387 149.610414 
L 331.310885 113.008197 
L 372.546383 145.928781 
L 413.78188 128.12005 
L 455.017378 156.659206 
L 496.252876 67.396588 
L 537.488374 167.163093 
L 578.723872 172.677513 
L 619.95937 187.348229 
L 661.194867 155.387189 
L 702.430365 188.179292 
L 743.665863 151.604286 
L 784.901361 198.6953 
L 826.136859 199.424306 
L 867.372357 183.981131 
L 908.607854 262.78986 
L 949.843352 217.232431 
" clip-path="url(#p032ca3bb1d)" style="fill: none; stroke: #f7a35c; stroke-linecap: square"/>
   </g>
   <g id="line2d_13">
    <path d="M 83.897898 96.763656 
L 125.133396 75.170507 
L 166.368893 154.707393 
L 207.604391 112.771963 
L 248.839889 102.462614 
L 290.075387 143.063969 
L 331.310885 105.043558 
L 372.546383 142.080487 
L 413.78188 120.230317 
L 455.017378 153.000603 
L 496.252876 61.151163 
L 537.488374 159.986609 
L 578.723872 167.821314 
L 619.95937 182.083862 
L 661.194867 151.647618 
L 702.430365 182.471182 
L 743.665863 146.015566 
L 784.901361 195.423714 
L 826.136859 197.476735 
L 867.372357 180.632456 
L 908.607854 260.498301 
L 949.843352 209.537539 
" clip-path="url(#p032ca3bb1d)" style="fill: none; stroke: #8085e9; stroke-linecap: square"/>
   </g>
   <g id="line2d_14">
    <path d="M 83.897898 87.585299 
L 125.133396 64.625591 
L 166.368893 148.948073 
L 207.604391 105.741352 
L 248.839889 93.515523 
L 290.075387 136.675579 
L 331.310885 96.11792 
L 372.546383 134.68201 
L 413.78188 111.548368 
L 455.017378 146.724148 
L 496.252876 51.601486 
L 537.488374 155.198043 
L 578.723872 162.943903 
L 619.95937 177.253116 
L 661.194867 145.322196 
L 702.430365 178.77464 
L 743.665863 141.515415 
L 784.901361 193.518384 
L 826.136859 194.527441 
L 867.372357 175.939524 
L 908.607854 261.609415 
L 949.843352 203.291023 
" clip-path="url(#p032ca3bb1d)" style="fill: none; stroke: #f15c80; stroke-linecap: square"/>
   </g>
   <g id="line2d_15">
    <path d="M 83.897898 102.951992 
L 125.133396 79.615569 
L 166.368893 158.488781 
L 207.604391 117.074242 
L 248.839889 105.153554 
L 290.075387 145.785816 
L 331.310885 108.460533 
L 372.546383 144.985843 
L 413.78188 122.823926 
L 455.017378 153.937238 
L 496.252876 62.031012 
L 537.488374 164.008109 
L 578.723872 167.742528 
L 619.95937 184.228153 
L 661.194867 151.163453 
L 702.430365 185.254724 
L 743.665863 147.887139 
L 784.901361 196.917421 
L 826.136859 199.244433 
L 867.372357 179.453223 
L 908.607854 260.956225 
L 949.843352 213.887695 
" clip-path="url(#p032ca3bb1d)" style="fill: none; stroke: #e4d354; stroke-linecap: square"/>
   </g>
   <g id="line2d_16">
    <path d="M 83.897898 96.939832 
L 125.133396 75.190264 
L 166.368893 155.669603 
L 207.604391 112.73354 
L 248.839889 98.738013 
L 290.075387 145.117899 
L 331.310885 102.197472 
L 372.546383 141.348875 
L 413.78188 118.248263 
L 455.017378 149.989129 
L 496.252876 53.628751 
L 537.488374 161.842001 
L 578.723872 164.116712 
L 619.95937 182.745476 
L 661.194867 145.290863 
L 702.430365 183.408241 
L 743.665863 144.775184 
L 784.901361 194.499684 
L 826.136859 196.22308 
L 867.372357 180.360284 
L 908.607854 260.678053 
L 949.843352 207.796022 
" clip-path="url(#p032ca3bb1d)" style="fill: none; stroke: #2b908f; stroke-linecap: square"/>
   </g>
   <g id="line2d_17">
    <path d="M 40.600625 265.169173 
L 993.140625 265.169173 
" clip-path="url(#p032ca3bb1d)" style="fill: none; stroke: #dedede; stroke-width: 2; stroke-linecap: square"/>
   </g>
   <g id="text_34">
    <!-- Samtools idxstats: Mapped reads per contig -->
    <g transform="translate(340.591875 19.3575) scale(0.16 -0.16)">
     <defs>
      <path id="DejaVuSans-53" d="M 3425 4513 
L 3425 3897 
Q 3066 4069 2747 4153 
Q 2428 4238 2131 4238 
Q 1616 4238 1336 4038 
Q 1056 3838 1056 3469 
Q 1056 3159 1242 3001 
Q 1428 2844 1947 2747 
L 2328 2669 
Q 3034 2534 3370 2195 
Q 3706 1856 3706 1288 
Q 3706 609 3251 259 
Q 2797 -91 1919 -91 
Q 1588 -91 1214 -16 
Q 841 59 441 206 
L 441 856 
Q 825 641 1194 531 
Q 1563 422 1919 422 
Q 2459 422 2753 634 
Q 3047 847 3047 1241 
Q 3047 1584 2836 1778 
Q 2625 1972 2144 2069 
L 1759 2144 
Q 1053 2284 737 2584 
Q 422 2884 422 3419 
Q 422 4038 858 4394 
Q 1294 4750 2059 4750 
Q 2388 4750 2728 4690 
Q 3069 4631 3425 4513 
z
" transform="scale(0.015625)"/>
      <path id="DejaVuSans-74" d="M 1172 4494 
L 1172 3500 
L 2356 3500 
L 2356 3053 
L 1172 3053 
L 1172 1153 
Q 1172 725 1289 603 
Q 1406 481 1766 481 
L 2356 481 
L 2356 0 
L 1766 0 
Q 1100 0 847 248 
Q 594 497 594 1153 
L 594 3053 
L 172 3053 
L 172 3500 
L 594 3500 
L 594 4494 
L 1172 4494 
z
" transform="scale(0.015625)"/>
      <path id="DejaVuSans-6c" d="M 603 4863 
L 1178 4863 
L 1178 0 
L 603 0 
L 603 4863 
z
" transform="scale(0.015625)"/>
      <path id="DejaVuSans-69" d="M 603 3500 
L 1178 3500 
L 1178 0 
L 603 0 
L 603 3500 
z
M 603 4863 
L 1178 4863 
L 1178 4134 
L 603 4134 
L 603 4863 
z
" transform="scale(0.015625)"/>
      <path id="DejaVuSans-78" d="M 3513 3500 
L 2247 1797 
L 3578 0 
L 2900 0 
L 1881 1375 
L 863 0 
L 184 0 
L 1544 1831 
L 300 3500 
L 978 3500 
L 1906 2253 
L 2834 3500 
L 3513 3500 
z
" transform="scale(0.015625)"/>
      <path id="DejaVuSans-3a" d="M 750 794 
L 1409 794 
L 1409 0 
L 750 0 
L 750 794 
z
M 750 3309 
L 1409 3309 
L 1409 2516 
L 750 2516 
L 750 3309 
z
" transform="scale(0.015625)"/>
      <path id="DejaVuSans-4d" d="M 628 4666 
L 1569 4666 
L 2759 1491 
L 3956 4666 
L 4897 4666 
L 4897 0 
L 4281 0 
L 4281 4097 
L 3078 897 
L 2444 897 
L 1241 4097 
L 1241 0 
L 628 0 
L 628 4666 
z
" transform="scale(0.015625)"/>
      <path id="DejaVuSans-63" d="M 3122 3366 
L 3122 2828 
Q 2878 2963 2633 3030 
Q 2388 3097 2138 3097 
Q 1578 3097 1268 2742 
Q 959 2388 959 1747 
Q 959 1106 1268 751 
Q 1578 397 2138 397 
Q 2388 397 2633 464 
Q 2878 531 3122 666 
L 3122 134 
Q 2881 22 2623 -34 
Q 2366 -91 2075 -91 
Q 1284 -91 818 406 
Q 353 903 353 1747 
Q 353 2603 823 3093 
Q 1294 3584 2113 3584 
Q 2378 3584 2631 3529 
Q 2884 3475 3122 3366 
z
" transform="scale(0.015625)"/>
      <path id="DejaVuSans-6e" d="M 3513 2113 
L 3513 0 
L 2938 0 
L 2938 2094 
Q 2938 2591 2744 2837 
Q 2550 3084 2163 3084 
Q 1697 3084 1428 2787 
Q 1159 2491 1159 1978 
L 1159 0 
L 581 0 
L 581 3500 
L 1159 3500 
L 1159 2956 
Q 1366 3272 1645 3428 
Q 1925 3584 2291 3584 
Q 2894 3584 3203 3211 
Q 3513 2838 3513 2113 
z
" transform="scale(0.015625)"/>
      <path id="DejaVuSans-67" d="M 2906 1791 
Q 2906 2416 2648 2759 
Q 2391 3103 1925 3103 
Q 1463 3103 1205 2759 
Q 947 2416 947 1791 
Q 947 1169 1205 825 
Q 1463 481 1925 481 
Q 2391 481 2648 825 
Q 2906 1169 2906 1791 
z
M 3481 434 
Q 3481 -459 3084 -895 
Q 2688 -1331 1869 -1331 
Q 1566 -1331 1297 -1286 
Q 1028 -1241 775 -1147 
L 775 -588 
Q 1028 -725 1275 -790 
Q 1522 -856 1778 -856 
Q 2344 -856 2625 -561 
Q 2906 -266 2906 331 
L 2906 616 
Q 2728 306 2450 153 
Q 2172 0 1784 0 
Q 1141 0 747 490 
Q 353 981 353 1791 
Q 353 2603 747 3093 
Q 1141 3584 1784 3584 
Q 2172 3584 2450 3431 
Q 2728 3278 2906 2969 
L 2906 3500 
L 3481 3500 
L 3481 434 
z
" transform="scale(0.015625)"/>
     </defs>
     <use xlink:href="#DejaVuSans-53"/>
     <use xlink:href="#DejaVuSans-61" x="63.476562"/>
     <use xlink:href="#DejaVuSans-6d" x="124.755859"/>
     <use xlink:href="#DejaVuSans-74" x="222.167969"/>
     <use xlink:href="#DejaVuSans-6f" x="261.376953"/>
     <use xlink:href="#DejaVuSans-6f" x="322.558594"/>
     <use xlink:href="#DejaVuSans-6c" x="383.740234"/>
     <use xlink:href="#DejaVuSans-73" x="411.523438"/>
     <use xlink:href="#DejaVuSans-20" x="463.623047"/>
     <use xlink:href="#DejaVuSans-69" x="495.410156"/>
     <use xlink:href="#DejaVuSans-64" x="523.193359"/>
     <use xlink:href="#DejaVuSans-78" x="586.669922"/>
     <use xlink:href="#DejaVuSans-73" x="645.849609"/>
     <use xlink:href="#DejaVuSans-74" x="697.949219"/>
     <use xlink:href="#DejaVuSans-61" x="737.158203"/>
     <use xlink:href="#DejaVuSans-74" x="798.4375"/>
     <use xlink:href="#DejaVuSans-73" x="837.646484"/>
     <use xlink:href="#DejaVuSans-3a" x="889.746094"/>
     <use xlink:href="#DejaVuSans-20" x="923.4375"/>
     <use xlink:href="#DejaVuSans-4d" x="955.224609"/>
     <use xlink:href="#DejaVuSans-61" x="1041.503906"/>
     <use xlink:href="#DejaVuSans-70" x="1102.783203"/>
     <use xlink:href="#DejaVuSans-70" x="1166.259766"/>
     <use xlink:href="#DejaVuSans-65" x="1229.736328"/>
     <use xlink:href="#DejaVuSans-64" x="1291.259766"/>
     <use xlink:href="#DejaVuSans-20" x="1354.736328"/>
     <use xlink:href="#DejaVuSans-72" x="1386.523438"/>
     <use xlink:href="#DejaVuSans-65" x="1425.386719"/>
     <use xlink:href="#DejaVuSans-61" x="1486.910156"/>
     <use xlink:href="#DejaVuSans-64" x="1548.189453"/>
     <use xlink:href="#DejaVuSans-73" x="1611.666016"/>
     <use xlink:href="#DejaVuSans-20" x="1663.765625"/>
     <use xlink:href="#DejaVuSans-70" x="1695.552734"/>
     <use xlink:href="#DejaVuSans-65" x="1759.029297"/>
     <use xlink:href="#DejaVuSans-72" x="1820.552734"/>
     <use xlink:href="#DejaVuSans-20" x="1861.666016"/>
     <use xlink:href="#DejaVuSans-63" x="1893.453125"/>
     <use xlink:href="#DejaVuSans-6f" x="1948.433594"/>
     <use xlink:href="#DejaVuSans-6e" x="2009.615234"/>
     <use xlink:href="#DejaVuSans-74" x="2072.994141"/>
     <use xlink:href="#DejaVuSans-69" x="2112.203125"/>
     <use xlink:href="#DejaVuSans-67" x="2139.986328"/>
    </g>
   </g>
   <g id="legend_1">
    <g id="line2d_18">
     <path d="M 47.800625 303.490394 
L 55.800625 303.490394 
L 63.800625 303.490394 
" style="fill: none; stroke: #7cb5ec; stroke-linecap: square"/>
    </g>
    <g id="text_35">
     <!-- CONTROL_REP1 -->
     <g transform="translate(70.200625 306.290394) scale(0.08 -0.08)">
      <defs>
       <path id="DejaVuSans-4f" d="M 2522 4238 
Q 1834 4238 1429 3725 
Q 1025 3213 1025 2328 
Q 1025 1447 1429 934 
Q 1834 422 2522 422 
Q 3209 422 3611 934 
Q 4013 1447 4013 2328 
Q 4013 3213 3611 3725 
Q 3209 4238 2522 4238 
z
M 2522 4750 
Q 3503 4750 4090 4092 
Q 4678 3434 4678 2328 
Q 4678 1225 4090 567 
Q 3503 -91 2522 -91 
Q 1538 -91 948 565 
Q 359 1222 359 2328 
Q 359 3434 948 4092 
Q 1538 4750 2522 4750 
z
" transform="scale(0.015625)"/>
       <path id="DejaVuSans-54" d="M -19 4666 
L 3928 4666 
L 3928 4134 
L 2272 4134 
L 2272 0 
L 1638 0 
L 1638 4134 
L -19 4134 
L -19 4666 
z
" transform="scale(0.015625)"/>
       <path id="DejaVuSans-52" d="M 2841 2188 
Q 3044 2119 3236 1894 
Q 3428 1669 3622 1275 
L 4263 0 
L 3584 0 
L 2988 1197 
Q 2756 1666 2539 1819 
Q 2322 1972 1947 1972 
L 1259 1972 
L 1259 0 
L 628 0 
L 628 4666 
L 2053 4666 
Q 2853 4666 3247 4331 
Q 3641 3997 3641 3322 
Q 3641 2881 3436 2590 
Q 3231 2300 2841 2188 
z
M 1259 4147 
L 1259 2491 
L 2053 2491 
Q 2509 2491 2742 2702 
Q 2975 2913 2975 3322 
Q 2975 3731 2742 3939 
Q 2509 4147 2053 4147 
L 1259 4147 
z
" transform="scale(0.015625)"/>
       <path id="DejaVuSans-4c" d="M 628 4666 
L 1259 4666 
L 1259 531 
L 3531 531 
L 3531 0 
L 628 0 
L 628 4666 
z
" transform="scale(0.015625)"/>
       <path id="DejaVuSans-45" d="M 628 4666 
L 3578 4666 
L 3578 4134 
L 1259 4134 
L 1259 2753 
L 3481 2753 
L 3481 2222 
L 1259 2222 
L 1259 531 
L 3634 531 
L 3634 0 
L 628 0 
L 628 4666 
z
" transform="scale(0.015625)"/>
       <path id="DejaVuSans-50" d="M 1259 4147 
L 1259 2394 
L 2053 2394 
Q 2494 2394 2734 2622 
Q 2975 2850 2975 3272 
Q 2975 3691 2734 3919 
Q 2494 4147 2053 4147 
L 1259 4147 
z
M 628 4666 
L 2053 4666 
Q 2838 4666 3239 4311 
Q 3641 3956 3641 3272 
Q 3641 2581 3239 2228 
Q 2838 1875 2053 1875 
L 1259 1875 
L 1259 0 
L 628 0 
L 628 4666 
z
" transform="scale(0.015625)"/>
      </defs>
      <use xlink:href="#DejaVuSans-43"/>
      <use xlink:href="#DejaVuSans-4f" x="69.824219"/>
      <use xlink:href="#DejaVuSans-4e" x="148.535156"/>
      <use xlink:href="#DejaVuSans-54" x="223.339844"/>
      <use xlink:href="#DejaVuSans-52" x="284.423828"/>
      <use xlink:href="#DejaVuSans-4f" x="353.90625"/>
      <use xlink:href="#DejaVuSans-4c" x="432.617188"/>
      <use xlink:href="#DejaVuSans-5f" x="488.330078"/>
      <use xlink:href="#DejaVuSans-52" x="538.330078"/>
      <use xlink:href="#DejaVuSans-45" x="607.8125"/>
      <use xlink:href="#DejaVuSans-50" x="670.996094"/>
      <use xlink:href="#DejaVuSans-31" x="731.298828"/>
     </g>
    </g>
    <g id="line2d_19">
     <path d="M 47.800625 315.455394 
L 55.800625 315.455394 
L 63.800625 315.455394 
" style="fill: none; stroke: #434348; stroke-linecap: square"/>
    </g>
    <g id="text_36">
     <!-- CONTROL_REP2 -->
     <g transform="translate(70.200625 318.255394) scale(0.08 -0.08)">
      <use xlink:href="#DejaVuSans-43"/>
      <use xlink:href="#DejaVuSans-4f" x="69.824219"/>
      <use xlink:href="#DejaVuSans-4e" x="148.535156"/>
      <use xlink:href="#DejaVuSans-54" x="223.339844"/>
      <use xlink:href="#DejaVuSans-52" x="284.423828"/>
      <use xlink:href="#DejaVuSans-4f" x="353.90625"/>
      <use xlink:href="#DejaVuSans-4c" x="432.617188"/>
      <use xlink:href="#DejaVuSans-5f" x="488.330078"/>
      <use xlink:href="#DejaVuSans-52" x="538.330078"/>
      <use xlink:href="#DejaVuSans-45" x="607.8125"/>
      <use xlink:href="#DejaVuSans-50" x="670.996094"/>
      <use xlink:href="#DejaVuSans-32" x="731.298828"/>
     </g>
    </g>
    <g id="line2d_20">
     <path d="M 244.518437 303.490394 
L 252.518437 303.490394 
L 260.518437 303.490394 
" style="fill: none; stroke: #90ed7d; stroke-linecap: square"/>
    </g>
    <g id="text_37">
     <!-- CONTROL_REP3 -->
     <g transform="translate(266.918437 306.290394) scale(0.08 -0.08)">
      <use xlink:href="#DejaVuSans-43"/>
      <use xlink:href="#DejaVuSans-4f" x="69.824219"/>
      <use xlink:href="#DejaVuSans-4e" x="148.535156"/>
      <use xlink:href="#DejaVuSans-54" x="223.339844"/>
      <use xlink:href="#DejaVuSans-52" x="284.423828"/>
      <use xlink:href="#DejaVuSans-4f" x="353.90625"/>
      <use xlink:href="#DejaVuSans-4c" x="432.617188"/>
      <use xlink:href="#DejaVuSans-5f" x="488.330078"/>
      <use xlink:href="#DejaVuSans-52" x="538.330078"/>
      <use xlink:href="#DejaVuSans-45" x="607.8125"/>
      <use xlink:href="#DejaVuSans-50" x="670.996094"/>
      <use xlink:href="#DejaVuSans-33" x="731.298828"/>
     </g>
    </g>
    <g id="line2d_21">
     <path d="M 244.518437 315.455394 
L 252.518437 315.455394 
L 260.518437 315.455394 
" style="fill: none; stroke: #f7a35c; stroke-linecap: square"/>
    </g>
    <g id="text_38">
     <!-- CONTROL_REP4 -->
     <g transform="translate(266.918437 318.255394) scale(0.08 -0.08)">
      <use xlink:href="#DejaVuSans-43"/>
      <use xlink:href="#DejaVuSans-4f" x="69.824219"/>
      <use xlink:href="#DejaVuSans-4e" x="148.535156"/>
      <use xlink:href="#DejaVuSans-54" x="223.339844"/>
      <use xlink:href="#DejaVuSans-52" x="284.423828"/>
      <use xlink:href="#DejaVuSans-4f" x="353.90625"/>
      <use xlink:href="#DejaVuSans-4c" x="432.617188"/>
      <use xlink:href="#DejaVuSans-5f" x="488.330078"/>
      <use xlink:href="#DejaVuSans-52" x="538.330078"/>
      <use xlink:href="#DejaVuSans-45" x="607.8125"/>
      <use xlink:href="#DejaVuSans-50" x="670.996094"/>
      <use xlink:href="#DejaVuSans-34" x="731.298828"/>
     </g>
    </g>
    <g id="line2d_22">
     <path d="M 441.23625 303.490394 
L 449.23625 303.490394 
L 457.23625 303.490394 
" style="fill: none; stroke: #8085e9; stroke-linecap: square"/>
    </g>
    <g id="text_39">
     <!-- PREECLAMPSIA_REP1 -->
     <g transform="translate(463.63625 306.290394) scale(0.08 -0.08)">
      <defs>
       <path id="DejaVuSans-41" d="M 2188 4044 
L 1331 1722 
L 3047 1722 
L 2188 4044 
z
M 1831 4666 
L 2547 4666 
L 4325 0 
L 3669 0 
L 3244 1197 
L 1141 1197 
L 716 0 
L 50 0 
L 1831 4666 
z
" transform="scale(0.015625)"/>
       <path id="DejaVuSans-49" d="M 628 4666 
L 1259 4666 
L 1259 0 
L 628 0 
L 628 4666 
z
" transform="scale(0.015625)"/>
      </defs>
      <use xlink:href="#DejaVuSans-50"/>
      <use xlink:href="#DejaVuSans-52" x="60.302734"/>
      <use xlink:href="#DejaVuSans-45" x="129.785156"/>
      <use xlink:href="#DejaVuSans-45" x="192.96875"/>
      <use xlink:href="#DejaVuSans-43" x="256.152344"/>
      <use xlink:href="#DejaVuSans-4c" x="325.976562"/>
      <use xlink:href="#DejaVuSans-41" x="383.939453"/>
      <use xlink:href="#DejaVuSans-4d" x="452.347656"/>
      <use xlink:href="#DejaVuSans-50" x="538.626953"/>
      <use xlink:href="#DejaVuSans-53" x="598.929688"/>
      <use xlink:href="#DejaVuSans-49" x="662.40625"/>
      <use xlink:href="#DejaVuSans-41" x="691.898438"/>
      <use xlink:href="#DejaVuSans-5f" x="760.306641"/>
      <use xlink:href="#DejaVuSans-52" x="810.306641"/>
      <use xlink:href="#DejaVuSans-45" x="879.789062"/>
      <use xlink:href="#DejaVuSans-50" x="942.972656"/>
      <use xlink:href="#DejaVuSans-31" x="1003.275391"/>
     </g>
    </g>
    <g id="line2d_23">
     <path d="M 441.23625 315.455394 
L 449.23625 315.455394 
L 457.23625 315.455394 
" style="fill: none; stroke: #f15c80; stroke-linecap: square"/>
    </g>
    <g id="text_40">
     <!-- PREECLAMPSIA_REP2 -->
     <g transform="translate(463.63625 318.255394) scale(0.08 -0.08)">
      <use xlink:href="#DejaVuSans-50"/>
      <use xlink:href="#DejaVuSans-52" x="60.302734"/>
      <use xlink:href="#DejaVuSans-45" x="129.785156"/>
      <use xlink:href="#DejaVuSans-45" x="192.96875"/>
      <use xlink:href="#DejaVuSans-43" x="256.152344"/>
      <use xlink:href="#DejaVuSans-4c" x="325.976562"/>
      <use xlink:href="#DejaVuSans-41" x="383.939453"/>
      <use xlink:href="#DejaVuSans-4d" x="452.347656"/>
      <use xlink:href="#DejaVuSans-50" x="538.626953"/>
      <use xlink:href="#DejaVuSans-53" x="598.929688"/>
      <use xlink:href="#DejaVuSans-49" x="662.40625"/>
      <use xlink:href="#DejaVuSans-41" x="691.898438"/>
      <use xlink:href="#DejaVuSans-5f" x="760.306641"/>
      <use xlink:href="#DejaVuSans-52" x="810.306641"/>
      <use xlink:href="#DejaVuSans-45" x="879.789062"/>
      <use xlink:href="#DejaVuSans-50" x="942.972656"/>
      <use xlink:href="#DejaVuSans-32" x="1003.275391"/>
     </g>
    </g>
    <g id="line2d_24">
     <path d="M 659.711563 303.490394 
L 667.711563 303.490394 
L 675.711563 303.490394 
" style="fill: none; stroke: #e4d354; stroke-linecap: square"/>
    </g>
    <g id="text_41">
     <!-- PREECLAMPSIA_REP3 -->
     <g transform="translate(682.111562 306.290394) scale(0.08 -0.08)">
      <use xlink:href="#DejaVuSans-50"/>
      <use xlink:href="#DejaVuSans-52" x="60.302734"/>
      <use xlink:href="#DejaVuSans-45" x="129.785156"/>
      <use xlink:href="#DejaVuSans-45" x="192.96875"/>
      <use xlink:href="#DejaVuSans-43" x="256.152344"/>
      <use xlink:href="#DejaVuSans-4c" x="325.976562"/>
      <use xlink:href="#DejaVuSans-41" x="383.939453"/>
      <use xlink:href="#DejaVuSans-4d" x="452.347656"/>
      <use xlink:href="#DejaVuSans-50" x="538.626953"/>
      <use xlink:href="#DejaVuSans-53" x="598.929688"/>
      <use xlink:href="#DejaVuSans-49" x="662.40625"/>
      <use xlink:href="#DejaVuSans-41" x="691.898438"/>
      <use xlink:href="#DejaVuSans-5f" x="760.306641"/>
      <use xlink:href="#DejaVuSans-52" x="810.306641"/>
      <use xlink:href="#DejaVuSans-45" x="879.789062"/>
      <use xlink:href="#DejaVuSans-50" x="942.972656"/>
      <use xlink:href="#DejaVuSans-33" x="1003.275391"/>
     </g>
    </g>
    <g id="line2d_25">
     <path d="M 878.186875 303.490394 
L 886.186875 303.490394 
L 894.186875 303.490394 
" style="fill: none; stroke: #2b908f; stroke-linecap: square"/>
    </g>
    <g id="text_42">
     <!-- PREECLAMPSIA_REP4 -->
     <g transform="translate(900.586875 306.290394) scale(0.08 -0.08)">
      <use xlink:href="#DejaVuSans-50"/>
      <use xlink:href="#DejaVuSans-52" x="60.302734"/>
      <use xlink:href="#DejaVuSans-45" x="129.785156"/>
      <use xlink:href="#DejaVuSans-45" x="192.96875"/>
      <use xlink:href="#DejaVuSans-43" x="256.152344"/>
      <use xlink:href="#DejaVuSans-4c" x="325.976562"/>
      <use xlink:href="#DejaVuSans-41" x="383.939453"/>
      <use xlink:href="#DejaVuSans-4d" x="452.347656"/>
      <use xlink:href="#DejaVuSans-50" x="538.626953"/>
      <use xlink:href="#DejaVuSans-53" x="598.929688"/>
      <use xlink:href="#DejaVuSans-49" x="662.40625"/>
      <use xlink:href="#DejaVuSans-41" x="691.898438"/>
      <use xlink:href="#DejaVuSans-5f" x="760.306641"/>
      <use xlink:href="#DejaVuSans-52" x="810.306641"/>
      <use xlink:href="#DejaVuSans-45" x="879.789062"/>
      <use xlink:href="#DejaVuSans-50" x="942.972656"/>
      <use xlink:href="#DejaVuSans-34" x="1003.275391"/>
     </g>
    </g>
   </g>
  </g>
 </g>
 <defs>
  <clipPath id="p032ca3bb1d">
   <rect x="40.600625" y="31.48286" width="952.54" height="242.5072"/>
  </clipPath>
 </defs>
</svg>
