<?xml version="1.0" encoding="utf-8" standalone="no"?>
<!DOCTYPE svg PUBLIC "-//W3C//DTD SVG 1.1//EN"
  "http://www.w3.org/Graphics/SVG/1.1/DTD/svg11.dtd">
<svg xmlns:xlink="http://www.w3.org/1999/xlink" width="1000.358125pt" height="388.844525pt" viewBox="0 0 1000.358125 388.844525" xmlns="http://www.w3.org/2000/svg" version="1.1">
 <metadata>
  <rdf:RDF xmlns:dc="http://purl.org/dc/elements/1.1/" xmlns:cc="http://creativecommons.org/ns#" xmlns:rdf="http://www.w3.org/1999/02/22-rdf-syntax-ns#">
   <cc:Work>
    <dc:type rdf:resource="http://purl.org/dc/dcmitype/StillImage"/>
    <dc:date>2024-09-04T22:06:00.370421</dc:date>
    <dc:format>image/svg+xml</dc:format>
    <dc:creator>
     <cc:Agent>
      <dc:title>Matplotlib v3.8.1, https://matplotlib.org/</dc:title>
     </cc:Agent>
    </dc:creator>
   </cc:Work>
  </rdf:RDF>
 </metadata>
 <defs>
  <style type="text/css">*{stroke-linejoin: round; stroke-linecap: butt}</style>
 </defs>
 <g id="figure_1">
  <g id="axes_1">
   <g id="patch_1">
    <path d="M 32.968125 353.2239 
L 993.158125 353.2239 
L 993.158125 35.2559 
L 32.968125 35.2559 
z
" style="fill: #ffffff"/>
   </g>
   <g id="patch_2">
    <path d="M 680.807161 353.2239 
L 2346.678968 353.2239 
L 2346.678968 35.2559 
L 680.807161 35.2559 
z
" clip-path="url(#p75494a2195)" style="fill: #c3e6c3"/>
   </g>
   <g id="patch_3">
    <path d="M 495.710294 353.2239 
L 680.807161 353.2239 
L 680.807161 35.2559 
L 495.710294 35.2559 
z
" clip-path="url(#p75494a2195)" style="fill: #e6dcc3"/>
   </g>
   <g id="patch_4">
    <path d="M 32.968125 353.2239 
L 495.710294 353.2239 
L 495.710294 35.2559 
L 32.968125 35.2559 
z
" clip-path="url(#p75494a2195)" style="fill: #e6c3c3"/>
   </g>
   <g id="matplotlib.axis_1">
    <g id="xtick_1">
     <g id="text_1">
      <!-- 0 -->
      <g transform="translate(30.423125 366.30265) scale(0.08 -0.08)">
       <defs>
        <path id="DejaVuSans-30" d="M 2034 4250 
Q 1547 4250 1301 3770 
Q 1056 3291 1056 2328 
Q 1056 1369 1301 889 
Q 1547 409 2034 409 
Q 2525 409 2770 889 
Q 3016 1369 3016 2328 
Q 3016 3291 2770 3770 
Q 2525 4250 2034 4250 
z
M 2034 4750 
Q 2819 4750 3233 4129 
Q 3647 3509 3647 2328 
Q 3647 1150 3233 529 
Q 2819 -91 2034 -91 
Q 1250 -91 836 529 
Q 422 1150 422 2328 
Q 422 3509 836 4129 
Q 1250 4750 2034 4750 
z
" transform="scale(0.015625)"/>
       </defs>
       <use xlink:href="#DejaVuSans-30"/>
      </g>
     </g>
    </g>
    <g id="xtick_2">
     <g id="text_2">
      <!-- 5 -->
      <g transform="translate(146.108667 366.30265) scale(0.08 -0.08)">
       <defs>
        <path id="DejaVuSans-35" d="M 691 4666 
L 3169 4666 
L 3169 4134 
L 1269 4134 
L 1269 2991 
Q 1406 3038 1543 3061 
Q 1681 3084 1819 3084 
Q 2600 3084 3056 2656 
Q 3513 2228 3513 1497 
Q 3513 744 3044 326 
Q 2575 -91 1722 -91 
Q 1428 -91 1123 -41 
Q 819 9 494 109 
L 494 744 
Q 775 591 1075 516 
Q 1375 441 1709 441 
Q 2250 441 2565 725 
Q 2881 1009 2881 1497 
Q 2881 1984 2565 2268 
Q 2250 2553 1709 2553 
Q 1456 2553 1204 2497 
Q 953 2441 691 2322 
L 691 4666 
z
" transform="scale(0.015625)"/>
       </defs>
       <use xlink:href="#DejaVuSans-35"/>
      </g>
     </g>
    </g>
    <g id="xtick_3">
     <g id="text_3">
      <!-- 10 -->
      <g transform="translate(259.249209 366.30265) scale(0.08 -0.08)">
       <defs>
        <path id="DejaVuSans-31" d="M 794 531 
L 1825 531 
L 1825 4091 
L 703 3866 
L 703 4441 
L 1819 4666 
L 2450 4666 
L 2450 531 
L 3481 531 
L 3481 0 
L 794 0 
L 794 531 
z
" transform="scale(0.015625)"/>
       </defs>
       <use xlink:href="#DejaVuSans-31"/>
       <use xlink:href="#DejaVuSans-30" x="63.623047"/>
      </g>
     </g>
    </g>
    <g id="xtick_4">
     <g id="text_4">
      <!-- 15 -->
      <g transform="translate(374.934752 366.30265) scale(0.08 -0.08)">
       <use xlink:href="#DejaVuSans-31"/>
       <use xlink:href="#DejaVuSans-35" x="63.623047"/>
      </g>
     </g>
    </g>
    <g id="xtick_5">
     <g id="text_5">
      <!-- 20 -->
      <g transform="translate(490.620294 366.30265) scale(0.08 -0.08)">
       <defs>
        <path id="DejaVuSans-32" d="M 1228 531 
L 3431 531 
L 3431 0 
L 469 0 
L 469 531 
Q 828 903 1448 1529 
Q 2069 2156 2228 2338 
Q 2531 2678 2651 2914 
Q 2772 3150 2772 3378 
Q 2772 3750 2511 3984 
Q 2250 4219 1831 4219 
Q 1534 4219 1204 4116 
Q 875 4013 500 3803 
L 500 4441 
Q 881 4594 1212 4672 
Q 1544 4750 1819 4750 
Q 2544 4750 2975 4387 
Q 3406 4025 3406 3419 
Q 3406 3131 3298 2873 
Q 3191 2616 2906 2266 
Q 2828 2175 2409 1742 
Q 1991 1309 1228 531 
z
" transform="scale(0.015625)"/>
       </defs>
       <use xlink:href="#DejaVuSans-32"/>
       <use xlink:href="#DejaVuSans-30" x="63.623047"/>
      </g>
     </g>
    </g>
    <g id="xtick_6">
     <g id="text_6">
      <!-- 25 -->
      <g transform="translate(606.305836 366.30265) scale(0.08 -0.08)">
       <use xlink:href="#DejaVuSans-32"/>
       <use xlink:href="#DejaVuSans-35" x="63.623047"/>
      </g>
     </g>
    </g>
    <g id="xtick_7">
     <g id="text_7">
      <!-- 30 -->
      <g transform="translate(721.991378 366.30265) scale(0.08 -0.08)">
       <defs>
        <path id="DejaVuSans-33" d="M 2597 2516 
Q 3050 2419 3304 2112 
Q 3559 1806 3559 1356 
Q 3559 666 3084 287 
Q 2609 -91 1734 -91 
Q 1441 -91 1130 -33 
Q 819 25 488 141 
L 488 750 
Q 750 597 1062 519 
Q 1375 441 1716 441 
Q 2309 441 2620 675 
Q 2931 909 2931 1356 
Q 2931 1769 2642 2001 
Q 2353 2234 1838 2234 
L 1294 2234 
L 1294 2753 
L 1863 2753 
Q 2328 2753 2575 2939 
Q 2822 3125 2822 3475 
Q 2822 3834 2567 4026 
Q 2313 4219 1838 4219 
Q 1578 4219 1281 4162 
Q 984 4106 628 3988 
L 628 4550 
Q 988 4650 1302 4700 
Q 1616 4750 1894 4750 
Q 2613 4750 3031 4423 
Q 3450 4097 3450 3541 
Q 3450 3153 3228 2886 
Q 3006 2619 2597 2516 
z
" transform="scale(0.015625)"/>
       </defs>
       <use xlink:href="#DejaVuSans-33"/>
       <use xlink:href="#DejaVuSans-30" x="63.623047"/>
      </g>
     </g>
    </g>
    <g id="xtick_8">
     <g id="text_8">
      <!-- 35 -->
      <g transform="translate(837.67692 366.30265) scale(0.08 -0.08)">
       <use xlink:href="#DejaVuSans-33"/>
       <use xlink:href="#DejaVuSans-35" x="63.623047"/>
      </g>
     </g>
    </g>
    <g id="xtick_9">
     <g id="text_9">
      <!-- 40 -->
      <g transform="translate(953.362462 366.30265) scale(0.08 -0.08)">
       <defs>
        <path id="DejaVuSans-34" d="M 2419 4116 
L 825 1625 
L 2419 1625 
L 2419 4116 
z
M 2253 4666 
L 3047 4666 
L 3047 1625 
L 3713 1625 
L 3713 1100 
L 3047 1100 
L 3047 0 
L 2419 0 
L 2419 1100 
L 313 1100 
L 313 1709 
L 2253 4666 
z
" transform="scale(0.015625)"/>
       </defs>
       <use xlink:href="#DejaVuSans-34"/>
       <use xlink:href="#DejaVuSans-30" x="63.623047"/>
      </g>
     </g>
    </g>
    <g id="text_10">
     <!-- Mean Sequence Quality (Phred Score) -->
     <g transform="translate(418.270938 379.564837) scale(0.1 -0.1)">
      <defs>
       <path id="DejaVuSans-4d" d="M 628 4666 
L 1569 4666 
L 2759 1491 
L 3956 4666 
L 4897 4666 
L 4897 0 
L 4281 0 
L 4281 4097 
L 3078 897 
L 2444 897 
L 1241 4097 
L 1241 0 
L 628 0 
L 628 4666 
z
" transform="scale(0.015625)"/>
       <path id="DejaVuSans-65" d="M 3597 1894 
L 3597 1613 
L 953 1613 
Q 991 1019 1311 708 
Q 1631 397 2203 397 
Q 2534 397 2845 478 
Q 3156 559 3463 722 
L 3463 178 
Q 3153 47 2828 -22 
Q 2503 -91 2169 -91 
Q 1331 -91 842 396 
Q 353 884 353 1716 
Q 353 2575 817 3079 
Q 1281 3584 2069 3584 
Q 2775 3584 3186 3129 
Q 3597 2675 3597 1894 
z
M 3022 2063 
Q 3016 2534 2758 2815 
Q 2500 3097 2075 3097 
Q 1594 3097 1305 2825 
Q 1016 2553 972 2059 
L 3022 2063 
z
" transform="scale(0.015625)"/>
       <path id="DejaVuSans-61" d="M 2194 1759 
Q 1497 1759 1228 1600 
Q 959 1441 959 1056 
Q 959 750 1161 570 
Q 1363 391 1709 391 
Q 2188 391 2477 730 
Q 2766 1069 2766 1631 
L 2766 1759 
L 2194 1759 
z
M 3341 1997 
L 3341 0 
L 2766 0 
L 2766 531 
Q 2569 213 2275 61 
Q 1981 -91 1556 -91 
Q 1019 -91 701 211 
Q 384 513 384 1019 
Q 384 1609 779 1909 
Q 1175 2209 1959 2209 
L 2766 2209 
L 2766 2266 
Q 2766 2663 2505 2880 
Q 2244 3097 1772 3097 
Q 1472 3097 1187 3025 
Q 903 2953 641 2809 
L 641 3341 
Q 956 3463 1253 3523 
Q 1550 3584 1831 3584 
Q 2591 3584 2966 3190 
Q 3341 2797 3341 1997 
z
" transform="scale(0.015625)"/>
       <path id="DejaVuSans-6e" d="M 3513 2113 
L 3513 0 
L 2938 0 
L 2938 2094 
Q 2938 2591 2744 2837 
Q 2550 3084 2163 3084 
Q 1697 3084 1428 2787 
Q 1159 2491 1159 1978 
L 1159 0 
L 581 0 
L 581 3500 
L 1159 3500 
L 1159 2956 
Q 1366 3272 1645 3428 
Q 1925 3584 2291 3584 
Q 2894 3584 3203 3211 
Q 3513 2838 3513 2113 
z
" transform="scale(0.015625)"/>
       <path id="DejaVuSans-20" transform="scale(0.015625)"/>
       <path id="DejaVuSans-53" d="M 3425 4513 
L 3425 3897 
Q 3066 4069 2747 4153 
Q 2428 4238 2131 4238 
Q 1616 4238 1336 4038 
Q 1056 3838 1056 3469 
Q 1056 3159 1242 3001 
Q 1428 2844 1947 2747 
L 2328 2669 
Q 3034 2534 3370 2195 
Q 3706 1856 3706 1288 
Q 3706 609 3251 259 
Q 2797 -91 1919 -91 
Q 1588 -91 1214 -16 
Q 841 59 441 206 
L 441 856 
Q 825 641 1194 531 
Q 1563 422 1919 422 
Q 2459 422 2753 634 
Q 3047 847 3047 1241 
Q 3047 1584 2836 1778 
Q 2625 1972 2144 2069 
L 1759 2144 
Q 1053 2284 737 2584 
Q 422 2884 422 3419 
Q 422 4038 858 4394 
Q 1294 4750 2059 4750 
Q 2388 4750 2728 4690 
Q 3069 4631 3425 4513 
z
" transform="scale(0.015625)"/>
       <path id="DejaVuSans-71" d="M 947 1747 
Q 947 1113 1208 752 
Q 1469 391 1925 391 
Q 2381 391 2643 752 
Q 2906 1113 2906 1747 
Q 2906 2381 2643 2742 
Q 2381 3103 1925 3103 
Q 1469 3103 1208 2742 
Q 947 2381 947 1747 
z
M 2906 525 
Q 2725 213 2448 61 
Q 2172 -91 1784 -91 
Q 1150 -91 751 415 
Q 353 922 353 1747 
Q 353 2572 751 3078 
Q 1150 3584 1784 3584 
Q 2172 3584 2448 3432 
Q 2725 3281 2906 2969 
L 2906 3500 
L 3481 3500 
L 3481 -1331 
L 2906 -1331 
L 2906 525 
z
" transform="scale(0.015625)"/>
       <path id="DejaVuSans-75" d="M 544 1381 
L 544 3500 
L 1119 3500 
L 1119 1403 
Q 1119 906 1312 657 
Q 1506 409 1894 409 
Q 2359 409 2629 706 
Q 2900 1003 2900 1516 
L 2900 3500 
L 3475 3500 
L 3475 0 
L 2900 0 
L 2900 538 
Q 2691 219 2414 64 
Q 2138 -91 1772 -91 
Q 1169 -91 856 284 
Q 544 659 544 1381 
z
M 1991 3584 
L 1991 3584 
z
" transform="scale(0.015625)"/>
       <path id="DejaVuSans-63" d="M 3122 3366 
L 3122 2828 
Q 2878 2963 2633 3030 
Q 2388 3097 2138 3097 
Q 1578 3097 1268 2742 
Q 959 2388 959 1747 
Q 959 1106 1268 751 
Q 1578 397 2138 397 
Q 2388 397 2633 464 
Q 2878 531 3122 666 
L 3122 134 
Q 2881 22 2623 -34 
Q 2366 -91 2075 -91 
Q 1284 -91 818 406 
Q 353 903 353 1747 
Q 353 2603 823 3093 
Q 1294 3584 2113 3584 
Q 2378 3584 2631 3529 
Q 2884 3475 3122 3366 
z
" transform="scale(0.015625)"/>
       <path id="DejaVuSans-51" d="M 2522 4238 
Q 1834 4238 1429 3725 
Q 1025 3213 1025 2328 
Q 1025 1447 1429 934 
Q 1834 422 2522 422 
Q 3209 422 3611 934 
Q 4013 1447 4013 2328 
Q 4013 3213 3611 3725 
Q 3209 4238 2522 4238 
z
M 3406 84 
L 4238 -825 
L 3475 -825 
L 2784 -78 
Q 2681 -84 2626 -87 
Q 2572 -91 2522 -91 
Q 1538 -91 948 567 
Q 359 1225 359 2328 
Q 359 3434 948 4092 
Q 1538 4750 2522 4750 
Q 3503 4750 4090 4092 
Q 4678 3434 4678 2328 
Q 4678 1516 4351 937 
Q 4025 359 3406 84 
z
" transform="scale(0.015625)"/>
       <path id="DejaVuSans-6c" d="M 603 4863 
L 1178 4863 
L 1178 0 
L 603 0 
L 603 4863 
z
" transform="scale(0.015625)"/>
       <path id="DejaVuSans-69" d="M 603 3500 
L 1178 3500 
L 1178 0 
L 603 0 
L 603 3500 
z
M 603 4863 
L 1178 4863 
L 1178 4134 
L 603 4134 
L 603 4863 
z
" transform="scale(0.015625)"/>
       <path id="DejaVuSans-74" d="M 1172 4494 
L 1172 3500 
L 2356 3500 
L 2356 3053 
L 1172 3053 
L 1172 1153 
Q 1172 725 1289 603 
Q 1406 481 1766 481 
L 2356 481 
L 2356 0 
L 1766 0 
Q 1100 0 847 248 
Q 594 497 594 1153 
L 594 3053 
L 172 3053 
L 172 3500 
L 594 3500 
L 594 4494 
L 1172 4494 
z
" transform="scale(0.015625)"/>
       <path id="DejaVuSans-79" d="M 2059 -325 
Q 1816 -950 1584 -1140 
Q 1353 -1331 966 -1331 
L 506 -1331 
L 506 -850 
L 844 -850 
Q 1081 -850 1212 -737 
Q 1344 -625 1503 -206 
L 1606 56 
L 191 3500 
L 800 3500 
L 1894 763 
L 2988 3500 
L 3597 3500 
L 2059 -325 
z
" transform="scale(0.015625)"/>
       <path id="DejaVuSans-28" d="M 1984 4856 
Q 1566 4138 1362 3434 
Q 1159 2731 1159 2009 
Q 1159 1288 1364 580 
Q 1569 -128 1984 -844 
L 1484 -844 
Q 1016 -109 783 600 
Q 550 1309 550 2009 
Q 550 2706 781 3412 
Q 1013 4119 1484 4856 
L 1984 4856 
z
" transform="scale(0.015625)"/>
       <path id="DejaVuSans-50" d="M 1259 4147 
L 1259 2394 
L 2053 2394 
Q 2494 2394 2734 2622 
Q 2975 2850 2975 3272 
Q 2975 3691 2734 3919 
Q 2494 4147 2053 4147 
L 1259 4147 
z
M 628 4666 
L 2053 4666 
Q 2838 4666 3239 4311 
Q 3641 3956 3641 3272 
Q 3641 2581 3239 2228 
Q 2838 1875 2053 1875 
L 1259 1875 
L 1259 0 
L 628 0 
L 628 4666 
z
" transform="scale(0.015625)"/>
       <path id="DejaVuSans-68" d="M 3513 2113 
L 3513 0 
L 2938 0 
L 2938 2094 
Q 2938 2591 2744 2837 
Q 2550 3084 2163 3084 
Q 1697 3084 1428 2787 
Q 1159 2491 1159 1978 
L 1159 0 
L 581 0 
L 581 4863 
L 1159 4863 
L 1159 2956 
Q 1366 3272 1645 3428 
Q 1925 3584 2291 3584 
Q 2894 3584 3203 3211 
Q 3513 2838 3513 2113 
z
" transform="scale(0.015625)"/>
       <path id="DejaVuSans-72" d="M 2631 2963 
Q 2534 3019 2420 3045 
Q 2306 3072 2169 3072 
Q 1681 3072 1420 2755 
Q 1159 2438 1159 1844 
L 1159 0 
L 581 0 
L 581 3500 
L 1159 3500 
L 1159 2956 
Q 1341 3275 1631 3429 
Q 1922 3584 2338 3584 
Q 2397 3584 2469 3576 
Q 2541 3569 2628 3553 
L 2631 2963 
z
" transform="scale(0.015625)"/>
       <path id="DejaVuSans-64" d="M 2906 2969 
L 2906 4863 
L 3481 4863 
L 3481 0 
L 2906 0 
L 2906 525 
Q 2725 213 2448 61 
Q 2172 -91 1784 -91 
Q 1150 -91 751 415 
Q 353 922 353 1747 
Q 353 2572 751 3078 
Q 1150 3584 1784 3584 
Q 2172 3584 2448 3432 
Q 2725 3281 2906 2969 
z
M 947 1747 
Q 947 1113 1208 752 
Q 1469 391 1925 391 
Q 2381 391 2643 752 
Q 2906 1113 2906 1747 
Q 2906 2381 2643 2742 
Q 2381 3103 1925 3103 
Q 1469 3103 1208 2742 
Q 947 2381 947 1747 
z
" transform="scale(0.015625)"/>
       <path id="DejaVuSans-6f" d="M 1959 3097 
Q 1497 3097 1228 2736 
Q 959 2375 959 1747 
Q 959 1119 1226 758 
Q 1494 397 1959 397 
Q 2419 397 2687 759 
Q 2956 1122 2956 1747 
Q 2956 2369 2687 2733 
Q 2419 3097 1959 3097 
z
M 1959 3584 
Q 2709 3584 3137 3096 
Q 3566 2609 3566 1747 
Q 3566 888 3137 398 
Q 2709 -91 1959 -91 
Q 1206 -91 779 398 
Q 353 888 353 1747 
Q 353 2609 779 3096 
Q 1206 3584 1959 3584 
z
" transform="scale(0.015625)"/>
       <path id="DejaVuSans-29" d="M 513 4856 
L 1013 4856 
Q 1481 4119 1714 3412 
Q 1947 2706 1947 2009 
Q 1947 1309 1714 600 
Q 1481 -109 1013 -844 
L 513 -844 
Q 928 -128 1133 580 
Q 1338 1288 1338 2009 
Q 1338 2731 1133 3434 
Q 928 4138 513 4856 
z
" transform="scale(0.015625)"/>
      </defs>
      <use xlink:href="#DejaVuSans-4d"/>
      <use xlink:href="#DejaVuSans-65" x="86.279297"/>
      <use xlink:href="#DejaVuSans-61" x="147.802734"/>
      <use xlink:href="#DejaVuSans-6e" x="209.082031"/>
      <use xlink:href="#DejaVuSans-20" x="272.460938"/>
      <use xlink:href="#DejaVuSans-53" x="304.248047"/>
      <use xlink:href="#DejaVuSans-65" x="367.724609"/>
      <use xlink:href="#DejaVuSans-71" x="429.248047"/>
      <use xlink:href="#DejaVuSans-75" x="492.724609"/>
      <use xlink:href="#DejaVuSans-65" x="556.103516"/>
      <use xlink:href="#DejaVuSans-6e" x="617.626953"/>
      <use xlink:href="#DejaVuSans-63" x="681.005859"/>
      <use xlink:href="#DejaVuSans-65" x="735.986328"/>
      <use xlink:href="#DejaVuSans-20" x="797.509766"/>
      <use xlink:href="#DejaVuSans-51" x="829.296875"/>
      <use xlink:href="#DejaVuSans-75" x="908.007812"/>
      <use xlink:href="#DejaVuSans-61" x="971.386719"/>
      <use xlink:href="#DejaVuSans-6c" x="1032.666016"/>
      <use xlink:href="#DejaVuSans-69" x="1060.449219"/>
      <use xlink:href="#DejaVuSans-74" x="1088.232422"/>
      <use xlink:href="#DejaVuSans-79" x="1127.441406"/>
      <use xlink:href="#DejaVuSans-20" x="1186.621094"/>
      <use xlink:href="#DejaVuSans-28" x="1218.408203"/>
      <use xlink:href="#DejaVuSans-50" x="1257.421875"/>
      <use xlink:href="#DejaVuSans-68" x="1317.724609"/>
      <use xlink:href="#DejaVuSans-72" x="1381.103516"/>
      <use xlink:href="#DejaVuSans-65" x="1419.966797"/>
      <use xlink:href="#DejaVuSans-64" x="1481.490234"/>
      <use xlink:href="#DejaVuSans-20" x="1544.966797"/>
      <use xlink:href="#DejaVuSans-53" x="1576.753906"/>
      <use xlink:href="#DejaVuSans-63" x="1640.230469"/>
      <use xlink:href="#DejaVuSans-6f" x="1695.210938"/>
      <use xlink:href="#DejaVuSans-72" x="1756.392578"/>
      <use xlink:href="#DejaVuSans-65" x="1795.255859"/>
      <use xlink:href="#DejaVuSans-29" x="1856.779297"/>
     </g>
    </g>
   </g>
   <g id="matplotlib.axis_2">
    <g id="ytick_1">
     <g id="line2d_1">
      <path d="M 32.968125 353.2239 
L 993.158125 353.2239 
" clip-path="url(#p75494a2195)" style="fill: none; stroke: #dedede; stroke-linecap: square"/>
     </g>
     <g id="text_11">
      <!-- 0 -->
      <g transform="translate(20.878125 356.263275) scale(0.08 -0.08)">
       <use xlink:href="#DejaVuSans-30"/>
      </g>
     </g>
    </g>
    <g id="ytick_2">
     <g id="line2d_2">
      <path d="M 32.968125 317.818517 
L 993.158125 317.818517 
" clip-path="url(#p75494a2195)" style="fill: none; stroke: #dedede; stroke-linecap: square"/>
     </g>
     <g id="text_12">
      <!-- 1 -->
      <g transform="translate(20.878125 320.857892) scale(0.08 -0.08)">
       <use xlink:href="#DejaVuSans-31"/>
      </g>
     </g>
    </g>
    <g id="ytick_3">
     <g id="line2d_3">
      <path d="M 32.968125 282.413134 
L 993.158125 282.413134 
" clip-path="url(#p75494a2195)" style="fill: none; stroke: #dedede; stroke-linecap: square"/>
     </g>
     <g id="text_13">
      <!-- 2 -->
      <g transform="translate(20.878125 285.452509) scale(0.08 -0.08)">
       <use xlink:href="#DejaVuSans-32"/>
      </g>
     </g>
    </g>
    <g id="ytick_4">
     <g id="line2d_4">
      <path d="M 32.968125 247.007751 
L 993.158125 247.007751 
" clip-path="url(#p75494a2195)" style="fill: none; stroke: #dedede; stroke-linecap: square"/>
     </g>
     <g id="text_14">
      <!-- 3 -->
      <g transform="translate(20.878125 250.047126) scale(0.08 -0.08)">
       <use xlink:href="#DejaVuSans-33"/>
      </g>
     </g>
    </g>
    <g id="ytick_5">
     <g id="line2d_5">
      <path d="M 32.968125 211.602368 
L 993.158125 211.602368 
" clip-path="url(#p75494a2195)" style="fill: none; stroke: #dedede; stroke-linecap: square"/>
     </g>
     <g id="text_15">
      <!-- 4 -->
      <g transform="translate(20.878125 214.641743) scale(0.08 -0.08)">
       <use xlink:href="#DejaVuSans-34"/>
      </g>
     </g>
    </g>
    <g id="ytick_6">
     <g id="line2d_6">
      <path d="M 32.968125 176.196985 
L 993.158125 176.196985 
" clip-path="url(#p75494a2195)" style="fill: none; stroke: #dedede; stroke-linecap: square"/>
     </g>
     <g id="text_16">
      <!-- 5 -->
      <g transform="translate(20.878125 179.23636) scale(0.08 -0.08)">
       <use xlink:href="#DejaVuSans-35"/>
      </g>
     </g>
    </g>
    <g id="ytick_7">
     <g id="line2d_7">
      <path d="M 32.968125 140.791602 
L 993.158125 140.791602 
" clip-path="url(#p75494a2195)" style="fill: none; stroke: #dedede; stroke-linecap: square"/>
     </g>
     <g id="text_17">
      <!-- 6 -->
      <g transform="translate(20.878125 143.830977) scale(0.08 -0.08)">
       <defs>
        <path id="DejaVuSans-36" d="M 2113 2584 
Q 1688 2584 1439 2293 
Q 1191 2003 1191 1497 
Q 1191 994 1439 701 
Q 1688 409 2113 409 
Q 2538 409 2786 701 
Q 3034 994 3034 1497 
Q 3034 2003 2786 2293 
Q 2538 2584 2113 2584 
z
M 3366 4563 
L 3366 3988 
Q 3128 4100 2886 4159 
Q 2644 4219 2406 4219 
Q 1781 4219 1451 3797 
Q 1122 3375 1075 2522 
Q 1259 2794 1537 2939 
Q 1816 3084 2150 3084 
Q 2853 3084 3261 2657 
Q 3669 2231 3669 1497 
Q 3669 778 3244 343 
Q 2819 -91 2113 -91 
Q 1303 -91 875 529 
Q 447 1150 447 2328 
Q 447 3434 972 4092 
Q 1497 4750 2381 4750 
Q 2619 4750 2861 4703 
Q 3103 4656 3366 4563 
z
" transform="scale(0.015625)"/>
       </defs>
       <use xlink:href="#DejaVuSans-36"/>
      </g>
     </g>
    </g>
    <g id="ytick_8">
     <g id="line2d_8">
      <path d="M 32.968125 105.386219 
L 993.158125 105.386219 
" clip-path="url(#p75494a2195)" style="fill: none; stroke: #dedede; stroke-linecap: square"/>
     </g>
     <g id="text_18">
      <!-- 7 -->
      <g transform="translate(20.878125 108.425594) scale(0.08 -0.08)">
       <defs>
        <path id="DejaVuSans-37" d="M 525 4666 
L 3525 4666 
L 3525 4397 
L 1831 0 
L 1172 0 
L 2766 4134 
L 525 4134 
L 525 4666 
z
" transform="scale(0.015625)"/>
       </defs>
       <use xlink:href="#DejaVuSans-37"/>
      </g>
     </g>
    </g>
    <g id="ytick_9">
     <g id="line2d_9">
      <path d="M 32.968125 69.980836 
L 993.158125 69.980836 
" clip-path="url(#p75494a2195)" style="fill: none; stroke: #dedede; stroke-linecap: square"/>
     </g>
     <g id="text_19">
      <!-- 8 -->
      <g transform="translate(20.878125 73.020211) scale(0.08 -0.08)">
       <defs>
        <path id="DejaVuSans-38" d="M 2034 2216 
Q 1584 2216 1326 1975 
Q 1069 1734 1069 1313 
Q 1069 891 1326 650 
Q 1584 409 2034 409 
Q 2484 409 2743 651 
Q 3003 894 3003 1313 
Q 3003 1734 2745 1975 
Q 2488 2216 2034 2216 
z
M 1403 2484 
Q 997 2584 770 2862 
Q 544 3141 544 3541 
Q 544 4100 942 4425 
Q 1341 4750 2034 4750 
Q 2731 4750 3128 4425 
Q 3525 4100 3525 3541 
Q 3525 3141 3298 2862 
Q 3072 2584 2669 2484 
Q 3125 2378 3379 2068 
Q 3634 1759 3634 1313 
Q 3634 634 3220 271 
Q 2806 -91 2034 -91 
Q 1263 -91 848 271 
Q 434 634 434 1313 
Q 434 1759 690 2068 
Q 947 2378 1403 2484 
z
M 1172 3481 
Q 1172 3119 1398 2916 
Q 1625 2713 2034 2713 
Q 2441 2713 2670 2916 
Q 2900 3119 2900 3481 
Q 2900 3844 2670 4047 
Q 2441 4250 2034 4250 
Q 1625 4250 1398 4047 
Q 1172 3844 1172 3481 
z
" transform="scale(0.015625)"/>
       </defs>
       <use xlink:href="#DejaVuSans-38"/>
      </g>
     </g>
    </g>
    <g id="text_20">
     <!-- Count -->
     <g transform="translate(14.798437 209.088338) rotate(-90) scale(0.1 -0.1)">
      <defs>
       <path id="DejaVuSans-43" d="M 4122 4306 
L 4122 3641 
Q 3803 3938 3442 4084 
Q 3081 4231 2675 4231 
Q 1875 4231 1450 3742 
Q 1025 3253 1025 2328 
Q 1025 1406 1450 917 
Q 1875 428 2675 428 
Q 3081 428 3442 575 
Q 3803 722 4122 1019 
L 4122 359 
Q 3791 134 3420 21 
Q 3050 -91 2638 -91 
Q 1578 -91 968 557 
Q 359 1206 359 2328 
Q 359 3453 968 4101 
Q 1578 4750 2638 4750 
Q 3056 4750 3426 4639 
Q 3797 4528 4122 4306 
z
" transform="scale(0.015625)"/>
      </defs>
      <use xlink:href="#DejaVuSans-43"/>
      <use xlink:href="#DejaVuSans-6f" x="69.824219"/>
      <use xlink:href="#DejaVuSans-75" x="131.005859"/>
      <use xlink:href="#DejaVuSans-6e" x="194.384766"/>
      <use xlink:href="#DejaVuSans-74" x="257.763672"/>
     </g>
    </g>
    <g id="text_21">
     <!-- 1e6 -->
     <g transform="translate(32.968125 32.2559) scale(0.1 -0.1)">
      <use xlink:href="#DejaVuSans-31"/>
      <use xlink:href="#DejaVuSans-65" x="63.623047"/>
      <use xlink:href="#DejaVuSans-36" x="125.146484"/>
     </g>
    </g>
   </g>
   <g id="line2d_10">
    <path d="M 310.613426 353.223865 
L 333.750535 353.223829 
L 356.887643 353.223865 
L 380.024752 353.223404 
L 403.16186 353.222519 
L 426.298968 353.219049 
L 449.436077 353.207543 
L 472.573185 353.182547 
L 495.710294 353.124198 
L 518.847402 353.024461 
L 541.984511 352.853064 
L 565.121619 352.585895 
L 588.258727 352.194595 
L 611.395836 351.626905 
L 634.532944 350.806562 
L 657.670053 349.783665 
L 680.807161 348.417973 
L 703.94427 346.63163 
L 727.081378 344.359029 
L 750.218486 341.435784 
L 773.355595 337.712943 
L 796.492703 332.797118 
L 819.629812 326.263126 
L 842.76692 317.256279 
L 865.904029 304.406179 
L 889.041137 284.756121 
L 912.178245 251.241987 
L 935.315354 185.610285 
L 958.452462 130.534344 
" clip-path="url(#p75494a2195)" style="fill: none; stroke: #5cb85c; stroke-linecap: square"/>
   </g>
   <g id="line2d_11">
    <path d="M 403.16186 353.223581 
L 426.298968 353.222555 
L 449.436077 353.218341 
L 472.573185 353.206551 
L 495.710294 353.178617 
L 518.847402 353.110921 
L 541.984511 352.986047 
L 565.121619 352.756691 
L 588.258727 352.3946 
L 611.395836 351.858668 
L 634.532944 351.080671 
L 657.670053 350.030866 
L 680.807161 348.659226 
L 703.94427 346.843638 
L 727.081378 344.574152 
L 750.218486 341.625274 
L 773.355595 337.893405 
L 796.492703 332.921497 
L 819.629812 326.365518 
L 842.76692 317.340155 
L 865.904029 304.409047 
L 889.041137 284.723017 
L 912.178245 251.142321 
L 935.315354 185.213461 
L 958.452462 129.401903 
" clip-path="url(#p75494a2195)" style="fill: none; stroke: #5cb85c; stroke-linecap: square"/>
   </g>
   <g id="line2d_12">
    <path d="M 287.476318 353.223688 
L 310.613426 353.220784 
L 333.750535 353.208428 
L 356.887643 353.161055 
L 380.024752 353.100441 
L 403.16186 352.913395 
L 426.298968 352.37587 
L 449.436077 351.682527 
L 472.573185 351.244527 
L 495.710294 350.911893 
L 518.847402 350.498606 
L 541.984511 349.983458 
L 565.121619 349.361066 
L 588.258727 348.563666 
L 611.395836 347.629495 
L 634.532944 346.516173 
L 657.670053 345.196898 
L 680.807161 343.586519 
L 703.94427 341.54632 
L 727.081378 339.125264 
L 750.218486 336.209348 
L 773.355595 332.449119 
L 796.492703 327.537861 
L 819.629812 321.159794 
L 842.76692 312.456478 
L 865.904029 300.355803 
L 889.041137 282.493929 
L 912.178245 254.442386 
L 935.315354 205.385678 
L 958.452462 186.832195 
" clip-path="url(#p75494a2195)" style="fill: none; stroke: #5cb85c; stroke-linecap: square"/>
   </g>
   <g id="line2d_13">
    <path d="M 310.613426 353.223794 
L 333.750535 353.222519 
L 356.887643 353.214164 
L 380.024752 353.195363 
L 403.16186 353.117401 
L 426.298968 352.839964 
L 449.436077 352.379234 
L 472.573185 351.972886 
L 495.710294 351.425625 
L 518.847402 350.837613 
L 541.984511 350.244572 
L 565.121619 349.605895 
L 588.258727 348.853601 
L 611.395836 347.908702 
L 634.532944 346.766595 
L 657.670053 345.375341 
L 680.807161 343.741489 
L 703.94427 341.681851 
L 727.081378 339.20744 
L 750.218486 336.24408 
L 773.355595 332.421467 
L 796.492703 327.490807 
L 819.629812 321.039486 
L 842.76692 312.277079 
L 865.904029 300.11795 
L 889.041137 282.177334 
L 912.178245 254.033878 
L 935.315354 204.525469 
L 958.452462 185.13472 
" clip-path="url(#p75494a2195)" style="fill: none; stroke: #5cb85c; stroke-linecap: square"/>
   </g>
   <g id="line2d_14">
    <path d="M 356.887643 353.223865 
L 380.024752 353.223723 
L 403.16186 353.223015 
L 426.298968 353.218766 
L 449.436077 353.207259 
L 472.573185 353.176067 
L 495.710294 353.116834 
L 518.847402 352.999182 
L 541.984511 352.800487 
L 565.121619 352.473695 
L 588.258727 352.002627 
L 611.395836 351.312293 
L 634.532944 350.347 
L 657.670053 349.078284 
L 680.807161 347.441989 
L 703.94427 345.284809 
L 727.081378 342.724327 
L 750.218486 339.365206 
L 773.355595 335.234248 
L 796.492703 329.923794 
L 819.629812 323.014434 
L 842.76692 313.523879 
L 865.904029 300.313281 
L 889.041137 280.106119 
L 912.178245 245.693184 
L 935.315354 180.414014 
L 958.452462 154.587663 
" clip-path="url(#p75494a2195)" style="fill: none; stroke: #5cb85c; stroke-linecap: square"/>
   </g>
   <g id="line2d_15">
    <path d="M 356.887643 353.223865 
L 380.024752 353.2239 
L 403.16186 353.223688 
L 426.298968 353.222802 
L 449.436077 353.218271 
L 472.573185 353.206445 
L 495.710294 353.174439 
L 518.847402 353.097326 
L 541.984511 352.945224 
L 565.121619 352.663716 
L 588.258727 352.221538 
L 611.395836 351.564025 
L 634.532944 350.618878 
L 657.670053 349.343576 
L 680.807161 347.690641 
L 703.94427 345.530239 
L 727.081378 342.929006 
L 750.218486 339.565636 
L 773.355595 335.375622 
L 796.492703 330.040845 
L 819.629812 323.09576 
L 842.76692 313.573341 
L 865.904029 300.297561 
L 889.041137 280.025076 
L 912.178245 245.558821 
L 935.315354 179.999027 
L 958.452462 153.325249 
" clip-path="url(#p75494a2195)" style="fill: none; stroke: #5cb85c; stroke-linecap: square"/>
   </g>
   <g id="line2d_16">
    <path d="M 287.476318 353.223723 
L 310.613426 353.221492 
L 333.750535 353.214907 
L 356.887643 353.189167 
L 380.024752 353.146893 
L 403.16186 352.958289 
L 426.298968 352.418357 
L 449.436077 351.729191 
L 472.573185 351.230612 
L 495.710294 350.85089 
L 518.847402 350.404923 
L 541.984511 349.809263 
L 565.121619 349.096057 
L 588.258727 348.243283 
L 611.395836 347.189336 
L 634.532944 345.97355 
L 657.670053 344.470486 
L 680.807161 342.651357 
L 703.94427 340.482388 
L 727.081378 337.878641 
L 750.218486 334.682951 
L 773.355595 330.684444 
L 796.492703 325.496847 
L 819.629812 318.724824 
L 842.76692 309.563008 
L 865.904029 296.97335 
L 889.041137 278.715396 
L 912.178245 250.319641 
L 935.315354 203.038514 
L 958.452462 201.119967 
" clip-path="url(#p75494a2195)" style="fill: none; stroke: #5cb85c; stroke-linecap: square"/>
   </g>
   <g id="line2d_17">
    <path d="M 310.613426 353.223652 
L 333.750535 353.222661 
L 356.887643 353.218271 
L 380.024752 353.206374 
L 403.16186 353.127172 
L 426.298968 352.848497 
L 449.436077 352.389926 
L 472.573185 351.960919 
L 495.710294 351.413127 
L 518.847402 350.78677 
L 541.984511 350.131027 
L 565.121619 349.415732 
L 588.258727 348.551133 
L 611.395836 347.495132 
L 634.532944 346.23378 
L 657.670053 344.68922 
L 680.807161 342.83982 
L 703.94427 340.639906 
L 727.081378 337.974164 
L 750.218486 334.724623 
L 773.355595 330.644471 
L 796.492703 325.408334 
L 819.629812 318.601188 
L 842.76692 309.378653 
L 865.904029 296.693081 
L 889.041137 278.342011 
L 912.178245 249.855831 
L 935.315354 202.152777 
L 958.452462 199.234064 
" clip-path="url(#p75494a2195)" style="fill: none; stroke: #5cb85c; stroke-linecap: square"/>
   </g>
   <g id="line2d_18">
    <path d="M 333.750535 353.223865 
L 356.887643 353.223865 
L 380.024752 353.223723 
L 403.16186 353.223156 
L 426.298968 353.220112 
L 449.436077 353.210411 
L 472.573185 353.189238 
L 495.710294 353.131881 
L 518.847402 353.034871 
L 541.984511 352.872962 
L 565.121619 352.608059 
L 588.258727 352.213714 
L 611.395836 351.639757 
L 634.532944 350.813643 
L 657.670053 349.658543 
L 680.807161 348.231635 
L 703.94427 346.287561 
L 727.081378 343.867461 
L 750.218486 340.768782 
L 773.355595 336.736604 
L 796.492703 331.595495 
L 819.629812 324.756485 
L 842.76692 315.409251 
L 865.904029 302.110069 
L 889.041137 281.995704 
L 912.178245 247.559544 
L 935.315354 181.956414 
L 958.452462 153.982019 
" clip-path="url(#p75494a2195)" style="fill: none; stroke: #5cb85c; stroke-linecap: square"/>
   </g>
   <g id="line2d_19">
    <path d="M 380.024752 353.223865 
L 403.16186 353.223794 
L 426.298968 353.222732 
L 449.436077 353.219581 
L 472.573185 353.210977 
L 495.710294 353.182511 
L 518.847402 353.121897 
L 541.984511 352.995783 
L 565.121619 352.779315 
L 588.258727 352.412055 
L 611.395836 351.851375 
L 634.532944 351.049266 
L 657.670053 349.901565 
L 680.807161 348.457734 
L 703.94427 346.505516 
L 727.081378 344.070015 
L 750.218486 340.969106 
L 773.355595 336.896672 
L 796.492703 331.711164 
L 819.629812 324.835581 
L 842.76692 315.450074 
L 865.904029 302.108547 
L 889.041137 281.9586 
L 912.178245 247.428898 
L 935.315354 181.578922 
L 958.452462 152.718188 
" clip-path="url(#p75494a2195)" style="fill: none; stroke: #5cb85c; stroke-linecap: square"/>
   </g>
   <g id="line2d_20">
    <path d="M 287.476318 353.223794 
L 310.613426 353.220678 
L 333.750535 353.216536 
L 356.887643 353.19816 
L 380.024752 353.165658 
L 403.16186 352.993199 
L 426.298968 352.522307 
L 449.436077 351.931781 
L 472.573185 351.505748 
L 495.710294 351.154243 
L 518.847402 350.73915 
L 541.984511 350.23866 
L 565.121619 349.624589 
L 588.258727 348.826304 
L 611.395836 347.903816 
L 634.532944 346.764967 
L 657.670053 345.343087 
L 680.807161 343.692771 
L 703.94427 341.65073 
L 727.081378 339.174938 
L 750.218486 336.092439 
L 773.355595 332.178197 
L 796.492703 327.076281 
L 819.629812 320.439011 
L 842.76692 311.49816 
L 865.904029 298.823423 
L 889.041137 280.523584 
L 912.178245 252.076138 
L 935.315354 203.76482 
L 958.452462 197.629456 
" clip-path="url(#p75494a2195)" style="fill: none; stroke: #5cb85c; stroke-linecap: square"/>
   </g>
   <g id="line2d_21">
    <path d="M 310.613426 353.223794 
L 333.750535 353.222979 
L 356.887643 353.219864 
L 380.024752 353.210588 
L 403.16186 353.141016 
L 426.298968 352.892045 
L 449.436077 352.512004 
L 472.573185 352.126758 
L 495.710294 351.649175 
L 518.847402 351.109313 
L 541.984511 350.541942 
L 565.121619 349.912045 
L 588.258727 349.138756 
L 611.395836 348.197469 
L 634.532944 347.034791 
L 657.670053 345.57701 
L 680.807161 343.891785 
L 703.94427 341.799857 
L 727.081378 339.300875 
L 750.218486 336.147459 
L 773.355595 332.180534 
L 796.492703 327.030502 
L 819.629812 320.339522 
L 842.76692 311.302758 
L 865.904029 298.588402 
L 889.041137 280.2328 
L 912.178245 251.619337 
L 935.315354 202.874445 
L 958.452462 195.737605 
" clip-path="url(#p75494a2195)" style="fill: none; stroke: #5cb85c; stroke-linecap: square"/>
   </g>
   <g id="line2d_22">
    <path d="M 333.750535 353.223865 
L 356.887643 353.223794 
L 380.024752 353.223794 
L 403.16186 353.222909 
L 426.298968 353.220501 
L 449.436077 353.210481 
L 472.573185 353.185308 
L 495.710294 353.135457 
L 518.847402 353.035048 
L 541.984511 352.874945 
L 565.121619 352.626717 
L 588.258727 352.248942 
L 611.395836 351.697149 
L 634.532944 350.884419 
L 657.670053 349.872533 
L 680.807161 348.456424 
L 703.94427 346.694723 
L 727.081378 344.395993 
L 750.218486 341.497708 
L 773.355595 337.835729 
L 796.492703 333.037592 
L 819.629812 326.627164 
L 842.76692 317.904092 
L 865.904029 305.503852 
L 889.041137 286.698318 
L 912.178245 255.094942 
L 935.315354 195.749431 
L 958.452462 176.843204 
" clip-path="url(#p75494a2195)" style="fill: none; stroke: #5cb85c; stroke-linecap: square"/>
   </g>
   <g id="line2d_23">
    <path d="M 356.887643 353.223865 
L 380.024752 353.2239 
L 403.16186 353.223723 
L 426.298968 353.223192 
L 449.436077 353.219864 
L 472.573185 353.209702 
L 495.710294 353.183325 
L 518.847402 353.118498 
L 541.984511 352.996987 
L 565.121619 352.785829 
L 588.258727 352.435776 
L 611.395836 351.905864 
L 634.532944 351.116218 
L 657.670053 350.090417 
L 680.807161 348.670768 
L 703.94427 346.898056 
L 727.081378 344.580136 
L 750.218486 341.668574 
L 773.355595 337.972606 
L 796.492703 333.131876 
L 819.629812 326.713518 
L 842.76692 317.939568 
L 865.904029 305.485972 
L 889.041137 286.644077 
L 912.178245 254.989328 
L 935.315354 195.355121 
L 958.452462 175.711967 
" clip-path="url(#p75494a2195)" style="fill: none; stroke: #5cb85c; stroke-linecap: square"/>
   </g>
   <g id="line2d_24">
    <path d="M 287.476318 353.223829 
L 310.613426 353.221492 
L 333.750535 353.216429 
L 356.887643 353.194797 
L 380.024752 353.165198 
L 403.16186 353.015221 
L 426.298968 352.624133 
L 449.436077 352.135503 
L 472.573185 351.761906 
L 495.710294 351.459968 
L 518.847402 351.090655 
L 541.984511 350.640334 
L 565.121619 350.086204 
L 588.258727 349.413962 
L 611.395836 348.573545 
L 634.532944 347.552878 
L 657.670053 346.354654 
L 680.807161 344.803013 
L 703.94427 342.989443 
L 727.081378 340.698113 
L 750.218486 337.901017 
L 773.355595 334.331658 
L 796.492703 329.724108 
L 819.629812 323.502568 
L 842.76692 315.117794 
L 865.904029 303.434018 
L 889.041137 286.353187 
L 912.178245 259.49268 
L 935.315354 214.289035 
L 958.452462 208.305489 
" clip-path="url(#p75494a2195)" style="fill: none; stroke: #5cb85c; stroke-linecap: square"/>
   </g>
   <g id="line2d_25">
    <path d="M 310.613426 353.223758 
L 333.750535 353.223298 
L 356.887643 353.219262 
L 380.024752 353.210694 
L 403.16186 353.149301 
L 426.298968 352.949437 
L 449.436077 352.631426 
L 472.573185 352.312601 
L 495.710294 351.891949 
L 518.847402 351.427537 
L 541.984511 350.922515 
L 565.121619 350.370616 
L 588.258727 349.694904 
L 611.395836 348.852893 
L 634.532944 347.804858 
L 657.670053 346.576044 
L 680.807161 344.989989 
L 703.94427 343.149688 
L 727.081378 340.810737 
L 750.218486 337.96372 
L 773.355595 334.343909 
L 796.492703 329.67015 
L 819.629812 323.419259 
L 842.76692 314.963887 
L 865.904029 303.224701 
L 889.041137 286.073874 
L 912.178245 259.115259 
L 935.315354 213.471595 
L 958.452462 206.508666 
" clip-path="url(#p75494a2195)" style="fill: none; stroke: #5cb85c; stroke-linecap: square"/>
   </g>
   <g id="line2d_26">
    <path d="M 356.887643 353.223829 
L 380.024752 353.223723 
L 403.16186 353.223086 
L 426.298968 353.220395 
L 449.436077 353.210198 
L 472.573185 353.185096 
L 495.710294 353.133262 
L 518.847402 353.036924 
L 541.984511 352.883336 
L 565.121619 352.640348 
L 588.258727 352.276381 
L 611.395836 351.727137 
L 634.532944 350.750197 
L 657.670053 349.971986 
L 680.807161 348.811575 
L 703.94427 347.199957 
L 727.081378 345.140108 
L 750.218486 342.472418 
L 773.355595 339.084158 
L 796.492703 334.644819 
L 819.629812 328.670125 
L 842.76692 320.422725 
L 865.904029 308.464627 
L 889.041137 289.762229 
L 912.178245 257.148844 
L 935.315354 190.084392 
L 958.452462 126.65618 
" clip-path="url(#p75494a2195)" style="fill: none; stroke: #5cb85c; stroke-linecap: square"/>
   </g>
   <g id="line2d_27">
    <path d="M 380.024752 353.223865 
L 403.16186 353.223723 
L 426.298968 353.222802 
L 449.436077 353.219722 
L 472.573185 353.210588 
L 495.710294 353.182901 
L 518.847402 353.118923 
L 541.984511 353.00467 
L 565.121619 352.798752 
L 588.258727 352.4641 
L 611.395836 351.96669 
L 634.532944 351.251077 
L 657.670053 350.293326 
L 680.807161 349.039267 
L 703.94427 347.395147 
L 727.081378 345.331403 
L 750.218486 342.631919 
L 773.355595 339.223797 
L 796.492703 334.75585 
L 819.629812 328.756833 
L 842.76692 320.489322 
L 865.904029 308.498652 
L 889.041137 289.75575 
L 912.178245 257.121511 
L 935.315354 189.79205 
L 958.452462 125.492086 
" clip-path="url(#p75494a2195)" style="fill: none; stroke: #5cb85c; stroke-linecap: square"/>
   </g>
   <g id="line2d_28">
    <path d="M 264.339209 353.223865 
L 287.476318 353.223617 
L 310.613426 353.221032 
L 333.750535 353.207401 
L 356.887643 353.139069 
L 380.024752 353.091094 
L 403.16186 352.965441 
L 426.298968 352.594711 
L 449.436077 352.115959 
L 472.573185 351.778298 
L 495.710294 351.475511 
L 518.847402 351.123723 
L 541.984511 350.675066 
L 565.121619 350.125256 
L 588.258727 349.333273 
L 611.395836 348.38409 
L 634.532944 347.653359 
L 657.670053 346.45917 
L 680.807161 345.005355 
L 703.94427 343.196458 
L 727.081378 340.975195 
L 750.218486 338.28474 
L 773.355595 334.725083 
L 796.492703 330.155275 
L 819.629812 324.033684 
L 842.76692 315.66764 
L 865.904029 303.700585 
L 889.041137 285.859954 
L 912.178245 257.470042 
L 935.315354 205.52684 
L 958.452462 178.772868 
" clip-path="url(#p75494a2195)" style="fill: none; stroke: #5cb85c; stroke-linecap: square"/>
   </g>
   <g id="line2d_29">
    <path d="M 310.613426 353.223794 
L 333.750535 353.222059 
L 356.887643 353.211225 
L 380.024752 353.19423 
L 403.16186 353.137617 
L 426.298968 352.941648 
L 449.436077 352.622008 
L 472.573185 352.317947 
L 495.710294 351.886674 
L 518.847402 351.410755 
L 541.984511 350.933597 
L 565.121619 350.387893 
L 588.258727 349.721954 
L 611.395836 348.912693 
L 634.532944 347.917341 
L 657.670053 346.68311 
L 680.807161 345.173778 
L 703.94427 343.324909 
L 727.081378 341.090829 
L 750.218486 338.333493 
L 773.355595 334.759072 
L 796.492703 330.134173 
L 819.629812 323.959864 
L 842.76692 315.547934 
L 865.904029 303.527347 
L 889.041137 285.624331 
L 912.178245 257.127672 
L 935.315354 204.827123 
L 958.452462 176.981356 
" clip-path="url(#p75494a2195)" style="fill: none; stroke: #5cb85c; stroke-linecap: square"/>
   </g>
   <g id="line2d_30">
    <path d="M 333.750535 353.223865 
L 356.887643 353.223758 
L 380.024752 353.223652 
L 403.16186 353.222802 
L 426.298968 353.220607 
L 449.436077 353.210021 
L 472.573185 353.183786 
L 495.710294 353.133298 
L 518.847402 353.035083 
L 541.984511 352.870023 
L 565.121619 352.621831 
L 588.258727 352.21729 
L 611.395836 351.641173 
L 634.532944 350.788364 
L 657.670053 349.69586 
L 680.807161 348.241053 
L 703.94427 346.378198 
L 727.081378 343.977855 
L 750.218486 340.910864 
L 773.355595 336.941141 
L 796.492703 331.822656 
L 819.629812 324.97568 
L 842.76692 315.472167 
L 865.904029 301.754103 
L 889.041137 280.219629 
L 912.178245 242.925085 
L 935.315354 172.168844 
L 958.452462 159.837432 
" clip-path="url(#p75494a2195)" style="fill: none; stroke: #5cb85c; stroke-linecap: square"/>
   </g>
   <g id="line2d_31">
    <path d="M 356.887643 353.223865 
L 380.024752 353.223865 
L 403.16186 353.223688 
L 426.298968 353.222838 
L 449.436077 353.22043 
L 472.573185 353.209915 
L 495.710294 353.183715 
L 518.847402 353.125225 
L 541.984511 352.99897 
L 565.121619 352.780943 
L 588.258727 352.414214 
L 611.395836 351.867307 
L 634.532944 351.062401 
L 657.670053 349.939661 
L 680.807161 348.487014 
L 703.94427 346.582275 
L 727.081378 344.180551 
L 750.218486 341.089909 
L 773.355595 337.098731 
L 796.492703 331.940273 
L 819.629812 325.080586 
L 842.76692 315.506404 
L 865.904029 301.781436 
L 889.041137 280.172929 
L 912.178245 242.873181 
L 935.315354 171.748617 
L 958.452462 158.372924 
" clip-path="url(#p75494a2195)" style="fill: none; stroke: #5cb85c; stroke-linecap: square"/>
   </g>
   <g id="line2d_32">
    <path d="M 264.339209 353.223865 
L 287.476318 353.223829 
L 310.613426 353.220253 
L 333.750535 353.213455 
L 356.887643 353.190017 
L 380.024752 353.159745 
L 403.16186 353.046448 
L 426.298968 352.725038 
L 449.436077 352.299041 
L 472.573185 351.911493 
L 495.710294 351.561086 
L 518.847402 351.158031 
L 541.984511 350.688521 
L 565.121619 350.080539 
L 588.258727 349.343045 
L 611.395836 348.440633 
L 634.532944 347.408141 
L 657.670053 346.100762 
L 680.807161 344.461068 
L 703.94427 342.499043 
L 727.081378 340.115234 
L 750.218486 337.12571 
L 773.355595 333.197836 
L 796.492703 328.145488 
L 819.629812 321.352859 
L 842.76692 312.170756 
L 865.904029 298.893455 
L 889.041137 279.312366 
L 912.178245 248.442625 
L 935.315354 195.936583 
L 958.452462 188.160853 
" clip-path="url(#p75494a2195)" style="fill: none; stroke: #5cb85c; stroke-linecap: square"/>
   </g>
   <g id="line2d_33">
    <path d="M 310.613426 353.223723 
L 333.750535 353.222944 
L 356.887643 353.218129 
L 380.024752 353.209313 
L 403.16186 353.164313 
L 426.298968 353.00035 
L 449.436077 352.729499 
L 472.573185 352.421933 
L 495.710294 352.011584 
L 518.847402 351.518848 
L 541.984511 351.000619 
L 565.121619 350.376387 
L 588.258727 349.664668 
L 611.395836 348.757334 
L 634.532944 347.677647 
L 657.670053 346.316947 
L 680.807161 344.660896 
L 703.94427 342.666369 
L 727.081378 340.215325 
L 750.218486 337.193228 
L 773.355595 333.221664 
L 796.492703 328.122829 
L 819.629812 321.288528 
L 842.76692 312.027506 
L 865.904029 298.741211 
L 889.041137 279.047675 
L 912.178245 248.094413 
L 935.315354 195.148885 
L 958.452462 186.116901 
" clip-path="url(#p75494a2195)" style="fill: none; stroke: #5cb85c; stroke-linecap: square"/>
   </g>
   <g id="line2d_34">
    <path d="M 356.887643 353.223758 
L 380.024752 353.223334 
L 403.16186 353.220749 
L 426.298968 353.206587 
L 449.436077 353.168349 
L 472.573185 353.095662 
L 495.710294 352.979744 
L 518.847402 352.825023 
L 541.984511 352.591737 
L 565.121619 352.283002 
L 588.258727 351.879204 
L 611.395836 351.312399 
L 634.532944 350.53911 
L 657.670053 349.613047 
L 680.807161 348.401333 
L 703.94427 346.922627 
L 727.081378 345.144993 
L 750.218486 343.0582 
L 773.355595 340.472545 
L 796.492703 337.270943 
L 819.629812 333.028457 
L 842.76692 327.346389 
L 865.904029 318.840812 
L 889.041137 305.214413 
L 912.178245 279.708411 
L 935.315354 215.653204 
L 958.452462 51.669915 
" clip-path="url(#p75494a2195)" style="fill: none; stroke: #5cb85c; stroke-linecap: square"/>
   </g>
   <g id="line2d_35">
    <path d="M 356.887643 353.223865 
L 380.024752 353.2239 
L 403.16186 353.223758 
L 426.298968 353.222342 
L 449.436077 353.217527 
L 472.573185 353.207224 
L 495.710294 353.173978 
L 518.847402 353.109399 
L 541.984511 352.979709 
L 565.121619 352.751805 
L 588.258727 352.38412 
L 611.395836 351.847693 
L 634.532944 351.060454 
L 657.670053 350.083124 
L 680.807161 348.806406 
L 703.94427 347.268254 
L 727.081378 345.418288 
L 750.218486 343.255408 
L 773.355595 340.611405 
L 796.492703 337.357402 
L 819.629812 333.074944 
L 842.76692 327.376696 
L 865.904029 318.860108 
L 889.041137 305.22723 
L 912.178245 279.717474 
L 935.315354 215.615356 
L 958.452462 50.397233 
" clip-path="url(#p75494a2195)" style="fill: none; stroke: #5cb85c; stroke-linecap: square"/>
   </g>
   <g id="line2d_36">
    <path d="M 287.476318 353.223688 
L 310.613426 353.220536 
L 333.750535 353.167535 
L 356.887643 352.689208 
L 380.024752 351.908732 
L 403.16186 351.559812 
L 426.298968 351.045336 
L 449.436077 350.512981 
L 472.573185 350.183498 
L 495.710294 349.904893 
L 518.847402 349.57102 
L 541.984511 349.151325 
L 565.121619 348.600311 
L 588.258727 347.991268 
L 611.395836 347.241771 
L 634.532944 346.388891 
L 657.670053 345.300211 
L 680.807161 344.048949 
L 703.94427 342.506443 
L 727.081378 340.733554 
L 750.218486 338.569364 
L 773.355595 335.828633 
L 796.492703 332.351542 
L 819.629812 327.782017 
L 842.76692 321.55421 
L 865.904029 312.788403 
L 889.041137 299.117819 
L 912.178245 275.876132 
L 935.315354 226.771698 
L 958.452462 135.975868 
" clip-path="url(#p75494a2195)" style="fill: none; stroke: #5cb85c; stroke-linecap: square"/>
   </g>
   <g id="line2d_37">
    <path d="M 310.613426 353.223794 
L 333.750535 353.217421 
L 356.887643 353.115064 
L 380.024752 352.910244 
L 403.16186 352.766215 
L 426.298968 352.452665 
L 449.436077 352.026136 
L 472.573185 351.586472 
L 495.710294 350.775405 
L 518.847402 349.879968 
L 541.984511 349.184323 
L 565.121619 348.490731 
L 588.258727 347.859878 
L 611.395836 347.106168 
L 634.532944 346.288658 
L 657.670053 345.235985 
L 680.807161 344.015668 
L 703.94427 342.461053 
L 727.081378 340.701405 
L 750.218486 338.50613 
L 773.355595 335.765647 
L 796.492703 332.240617 
L 819.629812 327.640714 
L 842.76692 321.382635 
L 865.904029 312.568571 
L 889.041137 298.880602 
L 912.178245 275.544596 
L 935.315354 226.179083 
L 958.452462 134.137054 
" clip-path="url(#p75494a2195)" style="fill: none; stroke: #5cb85c; stroke-linecap: square"/>
   </g>
   <g id="line2d_38">
    <path d="M 333.750535 353.223865 
L 356.887643 353.223794 
L 380.024752 353.223581 
L 403.16186 353.221988 
L 426.298968 353.214836 
L 449.436077 353.191115 
L 472.573185 353.137652 
L 495.710294 353.051157 
L 518.847402 352.910421 
L 541.984511 352.711974 
L 565.121619 352.418144 
L 588.258727 352.009991 
L 611.395836 351.429555 
L 634.532944 350.622383 
L 657.670053 349.649762 
L 680.807161 348.370778 
L 703.94427 346.821899 
L 727.081378 344.850846 
L 750.218486 342.420549 
L 773.355595 339.485585 
L 796.492703 335.723833 
L 819.629812 330.841962 
L 842.76692 324.090297 
L 865.904029 314.238679 
L 889.041137 298.613929 
L 912.178245 270.304741 
L 935.315354 203.16353 
L 958.452462 71.373188 
" clip-path="url(#p75494a2195)" style="fill: none; stroke: #5cb85c; stroke-linecap: square"/>
   </g>
   <g id="line2d_39">
    <path d="M 356.887643 353.223865 
L 380.024752 353.223794 
L 403.16186 353.223829 
L 426.298968 353.223121 
L 449.436077 353.218908 
L 472.573185 353.207543 
L 495.710294 353.184706 
L 518.847402 353.122251 
L 541.984511 352.999217 
L 565.121619 352.776341 
L 588.258727 352.408125 
L 611.395836 351.863908 
L 634.532944 351.08977 
L 657.670053 350.072431 
L 680.807161 348.741295 
L 703.94427 347.12026 
L 727.081378 345.105729 
L 750.218486 342.634327 
L 773.355595 339.630534 
L 796.492703 335.828138 
L 819.629812 330.914756 
L 842.76692 324.146875 
L 865.904029 314.285697 
L 889.041137 298.609539 
L 912.178245 270.331259 
L 935.315354 203.102314 
L 958.452462 69.912149 
" clip-path="url(#p75494a2195)" style="fill: none; stroke: #5cb85c; stroke-linecap: square"/>
   </g>
   <g id="line2d_40">
    <path d="M 287.476318 353.223794 
L 310.613426 353.221032 
L 333.750535 353.192495 
L 356.887643 352.859118 
L 380.024752 352.326161 
L 403.16186 352.040971 
L 426.298968 351.565866 
L 449.436077 351.063145 
L 472.573185 350.715747 
L 495.710294 350.404746 
L 518.847402 350.008383 
L 541.984511 349.466752 
L 565.121619 348.852079 
L 588.258727 348.074116 
L 611.395836 347.177227 
L 634.532944 346.114641 
L 657.670053 344.882356 
L 680.807161 343.368104 
L 703.94427 341.568448 
L 727.081378 339.397071 
L 750.218486 336.864701 
L 773.355595 333.658744 
L 796.492703 329.580327 
L 819.629812 324.323548 
L 842.76692 317.287224 
L 865.904029 307.398252 
L 889.041137 292.721234 
L 912.178245 268.490427 
L 935.315354 220.463273 
L 958.452462 153.677851 
" clip-path="url(#p75494a2195)" style="fill: none; stroke: #5cb85c; stroke-linecap: square"/>
   </g>
   <g id="line2d_41">
    <path d="M 310.613426 353.223829 
L 333.750535 353.219687 
L 356.887643 353.146539 
L 380.024752 353.006688 
L 403.16186 352.895232 
L 426.298968 352.630612 
L 449.436077 352.266751 
L 472.573185 351.887842 
L 495.710294 351.210785 
L 518.847402 350.425175 
L 541.984511 349.70372 
L 565.121619 348.974298 
L 588.258727 348.167374 
L 611.395836 347.28401 
L 634.532944 346.191754 
L 657.670053 344.934898 
L 680.807161 343.42192 
L 703.94427 341.599817 
L 727.081378 339.428086 
L 750.218486 336.832376 
L 773.355595 333.594377 
L 796.492703 329.454602 
L 819.629812 324.173111 
L 842.76692 317.073942 
L 865.904029 307.148645 
L 889.041137 292.426449 
L 912.178245 268.056039 
L 935.315354 219.693631 
L 958.452462 151.576294 
" clip-path="url(#p75494a2195)" style="fill: none; stroke: #5cb85c; stroke-linecap: square"/>
   </g>
   <g id="line2d_42">
    <path d="M 32.968125 353.2239 
L 993.158125 353.2239 
" clip-path="url(#p75494a2195)" style="fill: none; stroke: #dedede; stroke-width: 2; stroke-linecap: square"/>
   </g>
   <g id="text_22">
    <!-- FastQC: Per Sequence Quality Scores -->
    <g transform="translate(364.870625 19.3575) scale(0.16 -0.16)">
     <defs>
      <path id="DejaVuSans-46" d="M 628 4666 
L 3309 4666 
L 3309 4134 
L 1259 4134 
L 1259 2759 
L 3109 2759 
L 3109 2228 
L 1259 2228 
L 1259 0 
L 628 0 
L 628 4666 
z
" transform="scale(0.015625)"/>
      <path id="DejaVuSans-73" d="M 2834 3397 
L 2834 2853 
Q 2591 2978 2328 3040 
Q 2066 3103 1784 3103 
Q 1356 3103 1142 2972 
Q 928 2841 928 2578 
Q 928 2378 1081 2264 
Q 1234 2150 1697 2047 
L 1894 2003 
Q 2506 1872 2764 1633 
Q 3022 1394 3022 966 
Q 3022 478 2636 193 
Q 2250 -91 1575 -91 
Q 1294 -91 989 -36 
Q 684 19 347 128 
L 347 722 
Q 666 556 975 473 
Q 1284 391 1588 391 
Q 1994 391 2212 530 
Q 2431 669 2431 922 
Q 2431 1156 2273 1281 
Q 2116 1406 1581 1522 
L 1381 1569 
Q 847 1681 609 1914 
Q 372 2147 372 2553 
Q 372 3047 722 3315 
Q 1072 3584 1716 3584 
Q 2034 3584 2315 3537 
Q 2597 3491 2834 3397 
z
" transform="scale(0.015625)"/>
      <path id="DejaVuSans-3a" d="M 750 794 
L 1409 794 
L 1409 0 
L 750 0 
L 750 794 
z
M 750 3309 
L 1409 3309 
L 1409 2516 
L 750 2516 
L 750 3309 
z
" transform="scale(0.015625)"/>
     </defs>
     <use xlink:href="#DejaVuSans-46"/>
     <use xlink:href="#DejaVuSans-61" x="48.394531"/>
     <use xlink:href="#DejaVuSans-73" x="109.673828"/>
     <use xlink:href="#DejaVuSans-74" x="161.773438"/>
     <use xlink:href="#DejaVuSans-51" x="200.982422"/>
     <use xlink:href="#DejaVuSans-43" x="279.693359"/>
     <use xlink:href="#DejaVuSans-3a" x="349.517578"/>
     <use xlink:href="#DejaVuSans-20" x="383.208984"/>
     <use xlink:href="#DejaVuSans-50" x="414.996094"/>
     <use xlink:href="#DejaVuSans-65" x="471.673828"/>
     <use xlink:href="#DejaVuSans-72" x="533.197266"/>
     <use xlink:href="#DejaVuSans-20" x="574.310547"/>
     <use xlink:href="#DejaVuSans-53" x="606.097656"/>
     <use xlink:href="#DejaVuSans-65" x="669.574219"/>
     <use xlink:href="#DejaVuSans-71" x="731.097656"/>
     <use xlink:href="#DejaVuSans-75" x="794.574219"/>
     <use xlink:href="#DejaVuSans-65" x="857.953125"/>
     <use xlink:href="#DejaVuSans-6e" x="919.476562"/>
     <use xlink:href="#DejaVuSans-63" x="982.855469"/>
     <use xlink:href="#DejaVuSans-65" x="1037.835938"/>
     <use xlink:href="#DejaVuSans-20" x="1099.359375"/>
     <use xlink:href="#DejaVuSans-51" x="1131.146484"/>
     <use xlink:href="#DejaVuSans-75" x="1209.857422"/>
     <use xlink:href="#DejaVuSans-61" x="1273.236328"/>
     <use xlink:href="#DejaVuSans-6c" x="1334.515625"/>
     <use xlink:href="#DejaVuSans-69" x="1362.298828"/>
     <use xlink:href="#DejaVuSans-74" x="1390.082031"/>
     <use xlink:href="#DejaVuSans-79" x="1429.291016"/>
     <use xlink:href="#DejaVuSans-20" x="1488.470703"/>
     <use xlink:href="#DejaVuSans-53" x="1520.257812"/>
     <use xlink:href="#DejaVuSans-63" x="1583.734375"/>
     <use xlink:href="#DejaVuSans-6f" x="1638.714844"/>
     <use xlink:href="#DejaVuSans-72" x="1699.896484"/>
     <use xlink:href="#DejaVuSans-65" x="1738.759766"/>
     <use xlink:href="#DejaVuSans-73" x="1800.283203"/>
    </g>
   </g>
  </g>
 </g>
 <defs>
  <clipPath id="p75494a2195">
   <rect x="32.968125" y="35.2559" width="960.19" height="317.968"/>
  </clipPath>
 </defs>
</svg>
