<?xml version="1.0" encoding="utf-8" standalone="no"?>
<!DOCTYPE svg PUBLIC "-//W3C//DTD SVG 1.1//EN"
  "http://www.w3.org/Graphics/SVG/1.1/DTD/svg11.dtd">
<svg xmlns:xlink="http://www.w3.org/1999/xlink" width="1000.358125pt" height="388.844525pt" viewBox="0 0 1000.358125 388.844525" xmlns="http://www.w3.org/2000/svg" version="1.1">
 <metadata>
  <rdf:RDF xmlns:dc="http://purl.org/dc/elements/1.1/" xmlns:cc="http://creativecommons.org/ns#" xmlns:rdf="http://www.w3.org/1999/02/22-rdf-syntax-ns#">
   <cc:Work>
    <dc:type rdf:resource="http://purl.org/dc/dcmitype/StillImage"/>
    <dc:date>2024-09-04T22:06:02.698897</dc:date>
    <dc:format>image/svg+xml</dc:format>
    <dc:creator>
     <cc:Agent>
      <dc:title>Matplotlib v3.8.1, https://matplotlib.org/</dc:title>
     </cc:Agent>
    </dc:creator>
   </cc:Work>
  </rdf:RDF>
 </metadata>
 <defs>
  <style type="text/css">*{stroke-linejoin: round; stroke-linecap: butt}</style>
 </defs>
 <g id="figure_1">
  <g id="axes_1">
   <g id="patch_1">
    <path d="M 32.968125 353.2239 
L 993.158125 353.2239 
L 993.158125 35.2559 
L 32.968125 35.2559 
z
" style="fill: #ffffff"/>
   </g>
   <g id="patch_2">
    <path d="M 32.968125 -918.6481 
L 955.884658 -918.6481 
L 955.884658 -6006.1361 
L 32.968125 -6006.1361 
z
" clip-path="url(#p638d296061)" style="fill: #e6c3c3"/>
   </g>
   <g id="patch_3">
    <path d="M 32.968125 35.2559 
L 955.884658 35.2559 
L 955.884658 -918.6481 
L 32.968125 -918.6481 
z
" clip-path="url(#p638d296061)" style="fill: #e6dcc3"/>
   </g>
   <g id="patch_4">
    <path d="M 32.968125 353.2239 
L 955.884658 353.2239 
L 955.884658 35.2559 
L 32.968125 35.2559 
z
" clip-path="url(#p638d296061)" style="fill: #c3e6c3"/>
   </g>
   <g id="matplotlib.axis_1">
    <g id="xtick_1">
     <g id="text_1">
      <!-- 0 -->
      <g transform="translate(67.696592 366.30265) scale(0.08 -0.08)">
       <defs>
        <path id="DejaVuSans-30" d="M 2034 4250 
Q 1547 4250 1301 3770 
Q 1056 3291 1056 2328 
Q 1056 1369 1301 889 
Q 1547 409 2034 409 
Q 2525 409 2770 889 
Q 3016 1369 3016 2328 
Q 3016 3291 2770 3770 
Q 2525 4250 2034 4250 
z
M 2034 4750 
Q 2819 4750 3233 4129 
Q 3647 3509 3647 2328 
Q 3647 1150 3233 529 
Q 2819 -91 2034 -91 
Q 1250 -91 836 529 
Q 422 1150 422 2328 
Q 422 3509 836 4129 
Q 1250 4750 2034 4750 
z
" transform="scale(0.015625)"/>
       </defs>
       <use xlink:href="#DejaVuSans-30"/>
      </g>
     </g>
    </g>
    <g id="xtick_2">
     <g id="text_2">
      <!-- 20 -->
      <g transform="translate(192.582249 366.30265) scale(0.08 -0.08)">
       <defs>
        <path id="DejaVuSans-32" d="M 1228 531 
L 3431 531 
L 3431 0 
L 469 0 
L 469 531 
Q 828 903 1448 1529 
Q 2069 2156 2228 2338 
Q 2531 2678 2651 2914 
Q 2772 3150 2772 3378 
Q 2772 3750 2511 3984 
Q 2250 4219 1831 4219 
Q 1534 4219 1204 4116 
Q 875 4013 500 3803 
L 500 4441 
Q 881 4594 1212 4672 
Q 1544 4750 1819 4750 
Q 2544 4750 2975 4387 
Q 3406 4025 3406 3419 
Q 3406 3131 3298 2873 
Q 3191 2616 2906 2266 
Q 2828 2175 2409 1742 
Q 1991 1309 1228 531 
z
" transform="scale(0.015625)"/>
       </defs>
       <use xlink:href="#DejaVuSans-32"/>
       <use xlink:href="#DejaVuSans-30" x="63.623047"/>
      </g>
     </g>
    </g>
    <g id="xtick_3">
     <g id="text_3">
      <!-- 40 -->
      <g transform="translate(320.012906 366.30265) scale(0.08 -0.08)">
       <defs>
        <path id="DejaVuSans-34" d="M 2419 4116 
L 825 1625 
L 2419 1625 
L 2419 4116 
z
M 2253 4666 
L 3047 4666 
L 3047 1625 
L 3713 1625 
L 3713 1100 
L 3047 1100 
L 3047 0 
L 2419 0 
L 2419 1100 
L 313 1100 
L 313 1709 
L 2253 4666 
z
" transform="scale(0.015625)"/>
       </defs>
       <use xlink:href="#DejaVuSans-34"/>
       <use xlink:href="#DejaVuSans-30" x="63.623047"/>
      </g>
     </g>
    </g>
    <g id="xtick_4">
     <g id="text_4">
      <!-- 60 -->
      <g transform="translate(447.443563 366.30265) scale(0.08 -0.08)">
       <defs>
        <path id="DejaVuSans-36" d="M 2113 2584 
Q 1688 2584 1439 2293 
Q 1191 2003 1191 1497 
Q 1191 994 1439 701 
Q 1688 409 2113 409 
Q 2538 409 2786 701 
Q 3034 994 3034 1497 
Q 3034 2003 2786 2293 
Q 2538 2584 2113 2584 
z
M 3366 4563 
L 3366 3988 
Q 3128 4100 2886 4159 
Q 2644 4219 2406 4219 
Q 1781 4219 1451 3797 
Q 1122 3375 1075 2522 
Q 1259 2794 1537 2939 
Q 1816 3084 2150 3084 
Q 2853 3084 3261 2657 
Q 3669 2231 3669 1497 
Q 3669 778 3244 343 
Q 2819 -91 2113 -91 
Q 1303 -91 875 529 
Q 447 1150 447 2328 
Q 447 3434 972 4092 
Q 1497 4750 2381 4750 
Q 2619 4750 2861 4703 
Q 3103 4656 3366 4563 
z
" transform="scale(0.015625)"/>
       </defs>
       <use xlink:href="#DejaVuSans-36"/>
       <use xlink:href="#DejaVuSans-30" x="63.623047"/>
      </g>
     </g>
    </g>
    <g id="xtick_5">
     <g id="text_5">
      <!-- 80 -->
      <g transform="translate(574.87422 366.30265) scale(0.08 -0.08)">
       <defs>
        <path id="DejaVuSans-38" d="M 2034 2216 
Q 1584 2216 1326 1975 
Q 1069 1734 1069 1313 
Q 1069 891 1326 650 
Q 1584 409 2034 409 
Q 2484 409 2743 651 
Q 3003 894 3003 1313 
Q 3003 1734 2745 1975 
Q 2488 2216 2034 2216 
z
M 1403 2484 
Q 997 2584 770 2862 
Q 544 3141 544 3541 
Q 544 4100 942 4425 
Q 1341 4750 2034 4750 
Q 2731 4750 3128 4425 
Q 3525 4100 3525 3541 
Q 3525 3141 3298 2862 
Q 3072 2584 2669 2484 
Q 3125 2378 3379 2068 
Q 3634 1759 3634 1313 
Q 3634 634 3220 271 
Q 2806 -91 2034 -91 
Q 1263 -91 848 271 
Q 434 634 434 1313 
Q 434 1759 690 2068 
Q 947 2378 1403 2484 
z
M 1172 3481 
Q 1172 3119 1398 2916 
Q 1625 2713 2034 2713 
Q 2441 2713 2670 2916 
Q 2900 3119 2900 3481 
Q 2900 3844 2670 4047 
Q 2441 4250 2034 4250 
Q 1625 4250 1398 4047 
Q 1172 3844 1172 3481 
z
" transform="scale(0.015625)"/>
       </defs>
       <use xlink:href="#DejaVuSans-38"/>
       <use xlink:href="#DejaVuSans-30" x="63.623047"/>
      </g>
     </g>
    </g>
    <g id="xtick_6">
     <g id="text_6">
      <!-- 100 -->
      <g transform="translate(699.759877 366.30265) scale(0.08 -0.08)">
       <defs>
        <path id="DejaVuSans-31" d="M 794 531 
L 1825 531 
L 1825 4091 
L 703 3866 
L 703 4441 
L 1819 4666 
L 2450 4666 
L 2450 531 
L 3481 531 
L 3481 0 
L 794 0 
L 794 531 
z
" transform="scale(0.015625)"/>
       </defs>
       <use xlink:href="#DejaVuSans-31"/>
       <use xlink:href="#DejaVuSans-30" x="63.623047"/>
       <use xlink:href="#DejaVuSans-30" x="127.246094"/>
      </g>
     </g>
    </g>
    <g id="xtick_7">
     <g id="text_7">
      <!-- 120 -->
      <g transform="translate(827.190534 366.30265) scale(0.08 -0.08)">
       <use xlink:href="#DejaVuSans-31"/>
       <use xlink:href="#DejaVuSans-32" x="63.623047"/>
       <use xlink:href="#DejaVuSans-30" x="127.246094"/>
      </g>
     </g>
    </g>
    <g id="xtick_8">
     <g id="text_8">
      <!-- 140 -->
      <g transform="translate(954.621191 366.30265) scale(0.08 -0.08)">
       <use xlink:href="#DejaVuSans-31"/>
       <use xlink:href="#DejaVuSans-34" x="63.623047"/>
       <use xlink:href="#DejaVuSans-30" x="127.246094"/>
      </g>
     </g>
    </g>
    <g id="text_9">
     <!-- Position (bp) -->
     <g transform="translate(481.76 379.564837) scale(0.1 -0.1)">
      <defs>
       <path id="DejaVuSans-50" d="M 1259 4147 
L 1259 2394 
L 2053 2394 
Q 2494 2394 2734 2622 
Q 2975 2850 2975 3272 
Q 2975 3691 2734 3919 
Q 2494 4147 2053 4147 
L 1259 4147 
z
M 628 4666 
L 2053 4666 
Q 2838 4666 3239 4311 
Q 3641 3956 3641 3272 
Q 3641 2581 3239 2228 
Q 2838 1875 2053 1875 
L 1259 1875 
L 1259 0 
L 628 0 
L 628 4666 
z
" transform="scale(0.015625)"/>
       <path id="DejaVuSans-6f" d="M 1959 3097 
Q 1497 3097 1228 2736 
Q 959 2375 959 1747 
Q 959 1119 1226 758 
Q 1494 397 1959 397 
Q 2419 397 2687 759 
Q 2956 1122 2956 1747 
Q 2956 2369 2687 2733 
Q 2419 3097 1959 3097 
z
M 1959 3584 
Q 2709 3584 3137 3096 
Q 3566 2609 3566 1747 
Q 3566 888 3137 398 
Q 2709 -91 1959 -91 
Q 1206 -91 779 398 
Q 353 888 353 1747 
Q 353 2609 779 3096 
Q 1206 3584 1959 3584 
z
" transform="scale(0.015625)"/>
       <path id="DejaVuSans-73" d="M 2834 3397 
L 2834 2853 
Q 2591 2978 2328 3040 
Q 2066 3103 1784 3103 
Q 1356 3103 1142 2972 
Q 928 2841 928 2578 
Q 928 2378 1081 2264 
Q 1234 2150 1697 2047 
L 1894 2003 
Q 2506 1872 2764 1633 
Q 3022 1394 3022 966 
Q 3022 478 2636 193 
Q 2250 -91 1575 -91 
Q 1294 -91 989 -36 
Q 684 19 347 128 
L 347 722 
Q 666 556 975 473 
Q 1284 391 1588 391 
Q 1994 391 2212 530 
Q 2431 669 2431 922 
Q 2431 1156 2273 1281 
Q 2116 1406 1581 1522 
L 1381 1569 
Q 847 1681 609 1914 
Q 372 2147 372 2553 
Q 372 3047 722 3315 
Q 1072 3584 1716 3584 
Q 2034 3584 2315 3537 
Q 2597 3491 2834 3397 
z
" transform="scale(0.015625)"/>
       <path id="DejaVuSans-69" d="M 603 3500 
L 1178 3500 
L 1178 0 
L 603 0 
L 603 3500 
z
M 603 4863 
L 1178 4863 
L 1178 4134 
L 603 4134 
L 603 4863 
z
" transform="scale(0.015625)"/>
       <path id="DejaVuSans-74" d="M 1172 4494 
L 1172 3500 
L 2356 3500 
L 2356 3053 
L 1172 3053 
L 1172 1153 
Q 1172 725 1289 603 
Q 1406 481 1766 481 
L 2356 481 
L 2356 0 
L 1766 0 
Q 1100 0 847 248 
Q 594 497 594 1153 
L 594 3053 
L 172 3053 
L 172 3500 
L 594 3500 
L 594 4494 
L 1172 4494 
z
" transform="scale(0.015625)"/>
       <path id="DejaVuSans-6e" d="M 3513 2113 
L 3513 0 
L 2938 0 
L 2938 2094 
Q 2938 2591 2744 2837 
Q 2550 3084 2163 3084 
Q 1697 3084 1428 2787 
Q 1159 2491 1159 1978 
L 1159 0 
L 581 0 
L 581 3500 
L 1159 3500 
L 1159 2956 
Q 1366 3272 1645 3428 
Q 1925 3584 2291 3584 
Q 2894 3584 3203 3211 
Q 3513 2838 3513 2113 
z
" transform="scale(0.015625)"/>
       <path id="DejaVuSans-20" transform="scale(0.015625)"/>
       <path id="DejaVuSans-28" d="M 1984 4856 
Q 1566 4138 1362 3434 
Q 1159 2731 1159 2009 
Q 1159 1288 1364 580 
Q 1569 -128 1984 -844 
L 1484 -844 
Q 1016 -109 783 600 
Q 550 1309 550 2009 
Q 550 2706 781 3412 
Q 1013 4119 1484 4856 
L 1984 4856 
z
" transform="scale(0.015625)"/>
       <path id="DejaVuSans-62" d="M 3116 1747 
Q 3116 2381 2855 2742 
Q 2594 3103 2138 3103 
Q 1681 3103 1420 2742 
Q 1159 2381 1159 1747 
Q 1159 1113 1420 752 
Q 1681 391 2138 391 
Q 2594 391 2855 752 
Q 3116 1113 3116 1747 
z
M 1159 2969 
Q 1341 3281 1617 3432 
Q 1894 3584 2278 3584 
Q 2916 3584 3314 3078 
Q 3713 2572 3713 1747 
Q 3713 922 3314 415 
Q 2916 -91 2278 -91 
Q 1894 -91 1617 61 
Q 1341 213 1159 525 
L 1159 0 
L 581 0 
L 581 4863 
L 1159 4863 
L 1159 2969 
z
" transform="scale(0.015625)"/>
       <path id="DejaVuSans-70" d="M 1159 525 
L 1159 -1331 
L 581 -1331 
L 581 3500 
L 1159 3500 
L 1159 2969 
Q 1341 3281 1617 3432 
Q 1894 3584 2278 3584 
Q 2916 3584 3314 3078 
Q 3713 2572 3713 1747 
Q 3713 922 3314 415 
Q 2916 -91 2278 -91 
Q 1894 -91 1617 61 
Q 1341 213 1159 525 
z
M 3116 1747 
Q 3116 2381 2855 2742 
Q 2594 3103 2138 3103 
Q 1681 3103 1420 2742 
Q 1159 2381 1159 1747 
Q 1159 1113 1420 752 
Q 1681 391 2138 391 
Q 2594 391 2855 752 
Q 3116 1113 3116 1747 
z
" transform="scale(0.015625)"/>
       <path id="DejaVuSans-29" d="M 513 4856 
L 1013 4856 
Q 1481 4119 1714 3412 
Q 1947 2706 1947 2009 
Q 1947 1309 1714 600 
Q 1481 -109 1013 -844 
L 513 -844 
Q 928 -128 1133 580 
Q 1338 1288 1338 2009 
Q 1338 2731 1133 3434 
Q 928 4138 513 4856 
z
" transform="scale(0.015625)"/>
      </defs>
      <use xlink:href="#DejaVuSans-50"/>
      <use xlink:href="#DejaVuSans-6f" x="56.677734"/>
      <use xlink:href="#DejaVuSans-73" x="117.859375"/>
      <use xlink:href="#DejaVuSans-69" x="169.958984"/>
      <use xlink:href="#DejaVuSans-74" x="197.742188"/>
      <use xlink:href="#DejaVuSans-69" x="236.951172"/>
      <use xlink:href="#DejaVuSans-6f" x="264.734375"/>
      <use xlink:href="#DejaVuSans-6e" x="325.916016"/>
      <use xlink:href="#DejaVuSans-20" x="389.294922"/>
      <use xlink:href="#DejaVuSans-28" x="421.082031"/>
      <use xlink:href="#DejaVuSans-62" x="460.095703"/>
      <use xlink:href="#DejaVuSans-70" x="523.572266"/>
      <use xlink:href="#DejaVuSans-29" x="587.048828"/>
     </g>
    </g>
   </g>
   <g id="matplotlib.axis_2">
    <g id="ytick_1">
     <g id="line2d_1">
      <path d="M 32.968125 353.2239 
L 993.158125 353.2239 
" clip-path="url(#p638d296061)" style="fill: none; stroke: #dedede; stroke-linecap: square"/>
     </g>
     <g id="text_10">
      <!-- 0 -->
      <g transform="translate(20.878125 356.263275) scale(0.08 -0.08)">
       <use xlink:href="#DejaVuSans-30"/>
      </g>
     </g>
    </g>
    <g id="ytick_2">
     <g id="line2d_2">
      <path d="M 32.968125 289.6303 
L 993.158125 289.6303 
" clip-path="url(#p638d296061)" style="fill: none; stroke: #dedede; stroke-linecap: square"/>
     </g>
     <g id="text_11">
      <!-- 1 -->
      <g transform="translate(20.878125 292.669675) scale(0.08 -0.08)">
       <use xlink:href="#DejaVuSans-31"/>
      </g>
     </g>
    </g>
    <g id="ytick_3">
     <g id="line2d_3">
      <path d="M 32.968125 226.0367 
L 993.158125 226.0367 
" clip-path="url(#p638d296061)" style="fill: none; stroke: #dedede; stroke-linecap: square"/>
     </g>
     <g id="text_12">
      <!-- 2 -->
      <g transform="translate(20.878125 229.076075) scale(0.08 -0.08)">
       <use xlink:href="#DejaVuSans-32"/>
      </g>
     </g>
    </g>
    <g id="ytick_4">
     <g id="line2d_4">
      <path d="M 32.968125 162.4431 
L 993.158125 162.4431 
" clip-path="url(#p638d296061)" style="fill: none; stroke: #dedede; stroke-linecap: square"/>
     </g>
     <g id="text_13">
      <!-- 3 -->
      <g transform="translate(20.878125 165.482475) scale(0.08 -0.08)">
       <defs>
        <path id="DejaVuSans-33" d="M 2597 2516 
Q 3050 2419 3304 2112 
Q 3559 1806 3559 1356 
Q 3559 666 3084 287 
Q 2609 -91 1734 -91 
Q 1441 -91 1130 -33 
Q 819 25 488 141 
L 488 750 
Q 750 597 1062 519 
Q 1375 441 1716 441 
Q 2309 441 2620 675 
Q 2931 909 2931 1356 
Q 2931 1769 2642 2001 
Q 2353 2234 1838 2234 
L 1294 2234 
L 1294 2753 
L 1863 2753 
Q 2328 2753 2575 2939 
Q 2822 3125 2822 3475 
Q 2822 3834 2567 4026 
Q 2313 4219 1838 4219 
Q 1578 4219 1281 4162 
Q 984 4106 628 3988 
L 628 4550 
Q 988 4650 1302 4700 
Q 1616 4750 1894 4750 
Q 2613 4750 3031 4423 
Q 3450 4097 3450 3541 
Q 3450 3153 3228 2886 
Q 3006 2619 2597 2516 
z
" transform="scale(0.015625)"/>
       </defs>
       <use xlink:href="#DejaVuSans-33"/>
      </g>
     </g>
    </g>
    <g id="ytick_5">
     <g id="line2d_5">
      <path d="M 32.968125 98.8495 
L 993.158125 98.8495 
" clip-path="url(#p638d296061)" style="fill: none; stroke: #dedede; stroke-linecap: square"/>
     </g>
     <g id="text_14">
      <!-- 4 -->
      <g transform="translate(20.878125 101.888875) scale(0.08 -0.08)">
       <use xlink:href="#DejaVuSans-34"/>
      </g>
     </g>
    </g>
    <g id="ytick_6">
     <g id="line2d_6">
      <path d="M 32.968125 35.2559 
L 993.158125 35.2559 
" clip-path="url(#p638d296061)" style="fill: none; stroke: #dedede; stroke-linecap: square"/>
     </g>
     <g id="text_15">
      <!-- 5 -->
      <g transform="translate(20.878125 38.295275) scale(0.08 -0.08)">
       <defs>
        <path id="DejaVuSans-35" d="M 691 4666 
L 3169 4666 
L 3169 4134 
L 1269 4134 
L 1269 2991 
Q 1406 3038 1543 3061 
Q 1681 3084 1819 3084 
Q 2600 3084 3056 2656 
Q 3513 2228 3513 1497 
Q 3513 744 3044 326 
Q 2575 -91 1722 -91 
Q 1428 -91 1123 -41 
Q 819 9 494 109 
L 494 744 
Q 775 591 1075 516 
Q 1375 441 1709 441 
Q 2250 441 2565 725 
Q 2881 1009 2881 1497 
Q 2881 1984 2565 2268 
Q 2250 2553 1709 2553 
Q 1456 2553 1204 2497 
Q 953 2441 691 2322 
L 691 4666 
z
" transform="scale(0.015625)"/>
       </defs>
       <use xlink:href="#DejaVuSans-35"/>
      </g>
     </g>
    </g>
    <g id="text_16">
     <!-- % of Sequences -->
     <g transform="translate(14.798437 234.257869) rotate(-90) scale(0.1 -0.1)">
      <defs>
       <path id="DejaVuSans-25" d="M 4653 2053 
Q 4381 2053 4226 1822 
Q 4072 1591 4072 1178 
Q 4072 772 4226 539 
Q 4381 306 4653 306 
Q 4919 306 5073 539 
Q 5228 772 5228 1178 
Q 5228 1588 5073 1820 
Q 4919 2053 4653 2053 
z
M 4653 2450 
Q 5147 2450 5437 2106 
Q 5728 1763 5728 1178 
Q 5728 594 5436 251 
Q 5144 -91 4653 -91 
Q 4153 -91 3862 251 
Q 3572 594 3572 1178 
Q 3572 1766 3864 2108 
Q 4156 2450 4653 2450 
z
M 1428 4353 
Q 1159 4353 1004 4120 
Q 850 3888 850 3481 
Q 850 3069 1003 2837 
Q 1156 2606 1428 2606 
Q 1700 2606 1854 2837 
Q 2009 3069 2009 3481 
Q 2009 3884 1853 4118 
Q 1697 4353 1428 4353 
z
M 4250 4750 
L 4750 4750 
L 1831 -91 
L 1331 -91 
L 4250 4750 
z
M 1428 4750 
Q 1922 4750 2215 4408 
Q 2509 4066 2509 3481 
Q 2509 2891 2217 2550 
Q 1925 2209 1428 2209 
Q 931 2209 642 2551 
Q 353 2894 353 3481 
Q 353 4063 643 4406 
Q 934 4750 1428 4750 
z
" transform="scale(0.015625)"/>
       <path id="DejaVuSans-66" d="M 2375 4863 
L 2375 4384 
L 1825 4384 
Q 1516 4384 1395 4259 
Q 1275 4134 1275 3809 
L 1275 3500 
L 2222 3500 
L 2222 3053 
L 1275 3053 
L 1275 0 
L 697 0 
L 697 3053 
L 147 3053 
L 147 3500 
L 697 3500 
L 697 3744 
Q 697 4328 969 4595 
Q 1241 4863 1831 4863 
L 2375 4863 
z
" transform="scale(0.015625)"/>
       <path id="DejaVuSans-53" d="M 3425 4513 
L 3425 3897 
Q 3066 4069 2747 4153 
Q 2428 4238 2131 4238 
Q 1616 4238 1336 4038 
Q 1056 3838 1056 3469 
Q 1056 3159 1242 3001 
Q 1428 2844 1947 2747 
L 2328 2669 
Q 3034 2534 3370 2195 
Q 3706 1856 3706 1288 
Q 3706 609 3251 259 
Q 2797 -91 1919 -91 
Q 1588 -91 1214 -16 
Q 841 59 441 206 
L 441 856 
Q 825 641 1194 531 
Q 1563 422 1919 422 
Q 2459 422 2753 634 
Q 3047 847 3047 1241 
Q 3047 1584 2836 1778 
Q 2625 1972 2144 2069 
L 1759 2144 
Q 1053 2284 737 2584 
Q 422 2884 422 3419 
Q 422 4038 858 4394 
Q 1294 4750 2059 4750 
Q 2388 4750 2728 4690 
Q 3069 4631 3425 4513 
z
" transform="scale(0.015625)"/>
       <path id="DejaVuSans-65" d="M 3597 1894 
L 3597 1613 
L 953 1613 
Q 991 1019 1311 708 
Q 1631 397 2203 397 
Q 2534 397 2845 478 
Q 3156 559 3463 722 
L 3463 178 
Q 3153 47 2828 -22 
Q 2503 -91 2169 -91 
Q 1331 -91 842 396 
Q 353 884 353 1716 
Q 353 2575 817 3079 
Q 1281 3584 2069 3584 
Q 2775 3584 3186 3129 
Q 3597 2675 3597 1894 
z
M 3022 2063 
Q 3016 2534 2758 2815 
Q 2500 3097 2075 3097 
Q 1594 3097 1305 2825 
Q 1016 2553 972 2059 
L 3022 2063 
z
" transform="scale(0.015625)"/>
       <path id="DejaVuSans-71" d="M 947 1747 
Q 947 1113 1208 752 
Q 1469 391 1925 391 
Q 2381 391 2643 752 
Q 2906 1113 2906 1747 
Q 2906 2381 2643 2742 
Q 2381 3103 1925 3103 
Q 1469 3103 1208 2742 
Q 947 2381 947 1747 
z
M 2906 525 
Q 2725 213 2448 61 
Q 2172 -91 1784 -91 
Q 1150 -91 751 415 
Q 353 922 353 1747 
Q 353 2572 751 3078 
Q 1150 3584 1784 3584 
Q 2172 3584 2448 3432 
Q 2725 3281 2906 2969 
L 2906 3500 
L 3481 3500 
L 3481 -1331 
L 2906 -1331 
L 2906 525 
z
" transform="scale(0.015625)"/>
       <path id="DejaVuSans-75" d="M 544 1381 
L 544 3500 
L 1119 3500 
L 1119 1403 
Q 1119 906 1312 657 
Q 1506 409 1894 409 
Q 2359 409 2629 706 
Q 2900 1003 2900 1516 
L 2900 3500 
L 3475 3500 
L 3475 0 
L 2900 0 
L 2900 538 
Q 2691 219 2414 64 
Q 2138 -91 1772 -91 
Q 1169 -91 856 284 
Q 544 659 544 1381 
z
M 1991 3584 
L 1991 3584 
z
" transform="scale(0.015625)"/>
       <path id="DejaVuSans-63" d="M 3122 3366 
L 3122 2828 
Q 2878 2963 2633 3030 
Q 2388 3097 2138 3097 
Q 1578 3097 1268 2742 
Q 959 2388 959 1747 
Q 959 1106 1268 751 
Q 1578 397 2138 397 
Q 2388 397 2633 464 
Q 2878 531 3122 666 
L 3122 134 
Q 2881 22 2623 -34 
Q 2366 -91 2075 -91 
Q 1284 -91 818 406 
Q 353 903 353 1747 
Q 353 2603 823 3093 
Q 1294 3584 2113 3584 
Q 2378 3584 2631 3529 
Q 2884 3475 3122 3366 
z
" transform="scale(0.015625)"/>
      </defs>
      <use xlink:href="#DejaVuSans-25"/>
      <use xlink:href="#DejaVuSans-20" x="95.019531"/>
      <use xlink:href="#DejaVuSans-6f" x="126.806641"/>
      <use xlink:href="#DejaVuSans-66" x="187.988281"/>
      <use xlink:href="#DejaVuSans-20" x="223.193359"/>
      <use xlink:href="#DejaVuSans-53" x="254.980469"/>
      <use xlink:href="#DejaVuSans-65" x="318.457031"/>
      <use xlink:href="#DejaVuSans-71" x="379.980469"/>
      <use xlink:href="#DejaVuSans-75" x="443.457031"/>
      <use xlink:href="#DejaVuSans-65" x="506.835938"/>
      <use xlink:href="#DejaVuSans-6e" x="568.359375"/>
      <use xlink:href="#DejaVuSans-63" x="631.738281"/>
      <use xlink:href="#DejaVuSans-65" x="686.71875"/>
      <use xlink:href="#DejaVuSans-73" x="748.242188"/>
     </g>
    </g>
   </g>
   <g id="line2d_7">
    <path d="M 76.613125 353.206496 
L 82.984658 353.205896 
L 89.356191 353.204696 
L 95.727724 353.204395 
L 102.099256 353.204095 
L 108.470789 353.203795 
L 114.842322 353.203795 
L 121.213855 353.203495 
L 127.585388 353.201695 
L 133.956921 353.199744 
L 146.699986 353.195393 
L 159.443052 353.192093 
L 172.186118 353.187742 
L 184.929183 353.184291 
L 197.672249 353.18099 
L 210.415315 353.172438 
L 223.15838 353.162536 
L 235.901446 353.156384 
L 248.644512 353.147232 
L 261.387578 353.13913 
L 274.130643 353.129378 
L 286.873709 353.116325 
L 299.616775 353.104622 
L 312.35984 353.092169 
L 325.102906 353.078216 
L 337.845972 353.061112 
L 350.589037 353.044608 
L 363.332103 353.029005 
L 376.075169 353.0095 
L 388.818234 352.987595 
L 401.5613 352.96584 
L 414.304366 352.946936 
L 427.047432 352.92443 
L 439.790497 352.896074 
L 452.533563 352.870268 
L 465.276629 352.840261 
L 478.019694 352.813405 
L 490.76276 352.784298 
L 503.505826 352.754891 
L 516.248891 352.715432 
L 528.991957 352.680474 
L 541.735023 352.642965 
L 554.478089 352.597655 
L 567.221154 352.546793 
L 579.96422 352.496231 
L 592.707286 352.443119 
L 605.450351 352.386406 
L 618.193417 352.311988 
L 630.936483 352.230369 
L 643.679548 352.143799 
L 656.422614 352.052278 
L 669.16568 351.951755 
L 681.908745 351.840879 
L 694.651811 351.722952 
L 707.394877 351.575317 
L 720.137943 351.41493 
L 732.881008 351.246591 
L 745.624074 351.045694 
L 758.36714 350.822743 
L 771.110205 350.571434 
L 783.853271 350.29327 
L 796.596337 349.976996 
L 809.339402 349.613312 
L 822.082468 349.208668 
L 834.825534 348.758713 
L 847.568599 348.266599 
L 860.311665 347.728274 
L 873.054731 347.126184 
L 885.797797 346.491837 
L 898.540862 345.804677 
L 911.283928 345.016244 
L 924.026994 344.184001 
L 936.770059 343.259186 
L 949.513125 342.255153 
" clip-path="url(#p638d296061)" style="fill: none; stroke: #7cb5ec; stroke-linecap: square"/>
   </g>
   <g id="line2d_8">
    <path d="M 76.613125 353.087968 
L 82.984658 352.681974 
L 89.356191 352.424214 
L 95.727724 352.14635 
L 102.099256 351.88739 
L 108.470789 351.657836 
L 114.842322 351.302554 
L 121.213855 350.660105 
L 127.585388 349.73319 
L 133.956921 348.590374 
L 146.699986 347.847252 
L 159.443052 347.024761 
L 172.186118 346.167462 
L 184.929183 345.356823 
L 197.672249 344.491873 
L 210.415315 343.627522 
L 223.15838 342.779675 
L 235.901446 341.974438 
L 248.644512 341.142645 
L 261.387578 340.337858 
L 274.130643 339.52557 
L 286.873709 338.730985 
L 299.616775 337.912995 
L 312.35984 336.955473 
L 325.102906 336.097724 
L 337.845972 335.30779 
L 350.589037 334.563467 
L 363.332103 333.783286 
L 376.075169 333.040914 
L 388.818234 332.293891 
L 401.5613 331.493905 
L 414.304366 330.769837 
L 427.047432 330.080277 
L 439.790497 329.316899 
L 452.533563 328.649844 
L 465.276629 327.934178 
L 478.019694 327.136593 
L 490.76276 326.340808 
L 503.505826 325.608788 
L 516.248891 324.827557 
L 528.991957 324.046176 
L 541.735023 323.351214 
L 554.478089 322.660004 
L 567.221154 321.949889 
L 579.96422 321.182911 
L 592.707286 320.452091 
L 605.450351 319.75623 
L 618.193417 319.063669 
L 630.936483 318.377559 
L 643.679548 317.617033 
L 656.422614 316.762284 
L 669.16568 315.940544 
L 681.908745 315.23508 
L 694.651811 314.529466 
L 707.394877 313.800747 
L 720.137943 313.130991 
L 732.881008 312.465587 
L 745.624074 311.777977 
L 758.36714 311.109422 
L 771.110205 310.389555 
L 783.853271 309.645082 
L 796.596337 308.969625 
L 809.339402 308.293118 
L 822.082468 307.713083 
L 834.825534 307.040177 
L 847.568599 306.392027 
L 860.311665 305.67621 
L 873.054731 304.969096 
L 885.797797 304.283887 
L 898.540862 303.622684 
L 911.283928 302.949327 
L 924.026994 302.199003 
L 936.770059 301.520996 
L 949.513125 300.882447 
" clip-path="url(#p638d296061)" style="fill: none; stroke: #434348; stroke-linecap: square"/>
   </g>
   <g id="line2d_9">
    <path d="M 76.613125 353.206196 
L 82.984658 353.204996 
L 89.356191 353.203195 
L 95.727724 353.199294 
L 102.099256 353.198394 
L 108.470789 353.194793 
L 114.842322 353.193593 
L 121.213855 353.190892 
L 127.585388 353.186091 
L 133.956921 353.175139 
L 146.699986 353.159835 
L 159.443052 353.13748 
L 172.186118 353.115275 
L 184.929183 353.091419 
L 197.672249 353.061112 
L 210.415315 353.016402 
L 223.15838 352.959689 
L 235.901446 352.908677 
L 248.644512 352.851213 
L 261.387578 352.788799 
L 274.130643 352.70898 
L 286.873709 352.637114 
L 299.616775 352.563597 
L 312.35984 352.485128 
L 325.102906 352.403059 
L 337.845972 352.31769 
L 350.589037 352.237271 
L 363.332103 352.149501 
L 376.075169 352.055729 
L 388.818234 351.967508 
L 401.5613 351.878988 
L 414.304366 351.794218 
L 427.047432 351.710049 
L 439.790497 351.613876 
L 452.533563 351.518904 
L 465.276629 351.41343 
L 478.019694 351.313506 
L 490.76276 351.215984 
L 503.505826 351.120412 
L 516.248891 351.007585 
L 528.991957 350.89626 
L 541.735023 350.781783 
L 554.478089 350.664906 
L 567.221154 350.542477 
L 579.96422 350.413748 
L 592.707286 350.289519 
L 605.450351 350.16709 
L 618.193417 350.012254 
L 630.936483 349.855918 
L 643.679548 349.697181 
L 656.422614 349.527042 
L 669.16568 349.351201 
L 681.908745 349.17356 
L 694.651811 348.990517 
L 707.394877 348.770566 
L 720.137943 348.534111 
L 732.881008 348.283703 
L 745.624074 348.01229 
L 758.36714 347.721522 
L 771.110205 347.393846 
L 783.853271 347.040664 
L 796.596337 346.654775 
L 809.339402 346.221174 
L 822.082468 345.748564 
L 834.825534 345.234845 
L 847.568599 344.671464 
L 860.311665 344.064723 
L 873.054731 343.406671 
L 885.797797 342.701507 
L 898.540862 341.942181 
L 911.283928 341.087432 
L 924.026994 340.177771 
L 936.770059 339.171037 
L 949.513125 338.093187 
" clip-path="url(#p638d296061)" style="fill: none; stroke: #90ed7d; stroke-linecap: square"/>
   </g>
   <g id="line2d_10">
    <path d="M 76.613125 352.427215 
L 82.984658 351.705848 
L 89.356191 351.442987 
L 95.727724 351.233238 
L 102.099256 351.02619 
L 108.470789 350.866553 
L 114.842322 350.697013 
L 121.213855 350.155988 
L 127.585388 349.446923 
L 133.956921 348.655189 
L 146.699986 348.166676 
L 159.443052 347.513874 
L 172.186118 346.742845 
L 184.929183 346.046384 
L 197.672249 345.38683 
L 210.415315 344.726227 
L 223.15838 343.996758 
L 235.901446 343.352058 
L 248.644512 342.665048 
L 261.387578 341.89732 
L 274.130643 341.168301 
L 286.873709 340.485042 
L 299.616775 339.813486 
L 312.35984 339.042607 
L 325.102906 338.32184 
L 337.845972 337.642032 
L 350.589037 336.965525 
L 363.332103 336.305522 
L 376.075169 335.662323 
L 388.818234 335.027225 
L 401.5613 334.363321 
L 414.304366 333.693716 
L 427.047432 333.058468 
L 439.790497 332.42082 
L 452.533563 331.81663 
L 465.276629 331.21274 
L 478.019694 330.576742 
L 490.76276 329.941794 
L 503.505826 329.286592 
L 516.248891 328.617737 
L 528.991957 327.969587 
L 541.735023 327.308983 
L 554.478089 326.644929 
L 567.221154 326.010132 
L 579.96422 325.348028 
L 592.707286 324.601154 
L 605.450351 323.928998 
L 618.193417 323.33441 
L 630.936483 322.698113 
L 643.679548 322.021756 
L 656.422614 321.337447 
L 669.16568 320.681344 
L 681.908745 320.009788 
L 694.651811 319.341983 
L 707.394877 318.672828 
L 720.137943 318.028578 
L 732.881008 317.422888 
L 745.624074 316.824999 
L 758.36714 316.229961 
L 771.110205 315.653527 
L 783.853271 315.067791 
L 796.596337 314.421591 
L 809.339402 313.790094 
L 822.082468 313.191305 
L 834.825534 312.579913 
L 847.568599 311.883752 
L 860.311665 311.216097 
L 873.054731 310.533888 
L 885.797797 309.882887 
L 898.540862 309.197378 
L 911.283928 308.538425 
L 924.026994 307.904828 
L 936.770059 307.327944 
L 949.513125 306.704399 
" clip-path="url(#p638d296061)" style="fill: none; stroke: #f7a35c; stroke-linecap: square"/>
   </g>
   <g id="line2d_11">
    <path d="M 76.613125 353.211555 
L 82.984658 353.210967 
L 89.356191 353.210379 
L 95.727724 353.209203 
L 102.099256 353.209203 
L 108.470789 353.208616 
L 114.842322 353.208322 
L 121.213855 353.208322 
L 127.585388 353.208028 
L 133.956921 353.206999 
L 146.699986 353.206558 
L 159.443052 353.204501 
L 172.186118 353.201414 
L 184.929183 353.197446 
L 197.672249 353.194801 
L 210.415315 353.190539 
L 223.15838 353.186277 
L 235.901446 353.18128 
L 248.644512 353.175254 
L 261.387578 353.168347 
L 274.130643 353.160852 
L 286.873709 353.150711 
L 299.616775 353.142481 
L 312.35984 353.130136 
L 325.102906 353.116615 
L 337.845972 353.10765 
L 350.589037 353.098832 
L 363.332103 353.083695 
L 376.075169 353.071497 
L 388.818234 353.06018 
L 401.5613 353.047101 
L 414.304366 353.030493 
L 427.047432 353.016973 
L 439.790497 353.000806 
L 452.533563 352.985816 
L 465.276629 352.972148 
L 478.019694 352.95319 
L 490.76276 352.931292 
L 503.505826 352.909835 
L 516.248891 352.889847 
L 528.991957 352.863688 
L 541.735023 352.835176 
L 554.478089 352.804461 
L 567.221154 352.778154 
L 579.96422 352.742588 
L 592.707286 352.702173 
L 605.450351 352.662051 
L 618.193417 352.61076 
L 630.936483 352.555648 
L 643.679548 352.49745 
L 656.422614 352.426612 
L 669.16568 352.35842 
L 681.908745 352.286701 
L 694.651811 352.183531 
L 707.394877 352.070956 
L 720.137943 351.939128 
L 732.881008 351.790105 
L 745.624074 351.61889 
L 758.36714 351.421809 
L 771.110205 351.220173 
L 783.853271 350.978856 
L 796.596337 350.701532 
L 809.339402 350.413039 
L 822.082468 350.085012 
L 834.825534 349.703636 
L 847.568599 349.295513 
L 860.311665 348.830955 
L 873.054731 348.302467 
L 885.797797 347.722542 
L 898.540862 347.140118 
L 911.283928 346.489795 
L 924.026994 345.804936 
L 936.770059 345.046448 
L 949.513125 344.212419 
" clip-path="url(#p638d296061)" style="fill: none; stroke: #8085e9; stroke-linecap: square"/>
   </g>
   <g id="line2d_12">
    <path d="M 76.613125 353.098979 
L 82.984658 352.720102 
L 89.356191 352.469085 
L 95.727724 352.201314 
L 102.099256 351.977045 
L 108.470789 351.761888 
L 114.842322 351.437976 
L 121.213855 350.846881 
L 127.585388 349.967733 
L 133.956921 348.853 
L 146.699986 348.137572 
L 159.443052 347.402598 
L 172.186118 346.608103 
L 184.929183 345.835505 
L 197.672249 345.017936 
L 210.415315 344.218297 
L 223.15838 343.420863 
L 235.901446 342.652674 
L 248.644512 341.859942 
L 261.387578 341.088521 
L 274.130643 340.326505 
L 286.873709 339.61431 
L 299.616775 338.86655 
L 312.35984 337.980642 
L 325.102906 337.192613 
L 337.845972 336.466016 
L 350.589037 335.76646 
L 363.332103 335.045301 
L 376.075169 334.363528 
L 388.818234 333.634432 
L 401.5613 332.905043 
L 414.304366 332.209749 
L 427.047432 331.568392 
L 439.790497 330.875596 
L 452.533563 330.192942 
L 465.276629 329.535712 
L 478.019694 328.821019 
L 490.76276 328.072965 
L 503.505826 327.350924 
L 516.248891 326.591112 
L 528.991957 325.815722 
L 541.735023 325.13248 
L 554.478089 324.438215 
L 567.221154 323.764232 
L 579.96422 323.082165 
L 592.707286 322.384814 
L 605.450351 321.681731 
L 618.193417 321.016271 
L 630.936483 320.375061 
L 643.679548 319.646112 
L 656.422614 318.878806 
L 669.16568 318.140598 
L 681.908745 317.455592 
L 694.651811 316.773378 
L 707.394877 316.129523 
L 720.137943 315.459801 
L 732.881008 314.802718 
L 745.624074 314.160332 
L 758.36714 313.4984 
L 771.110205 312.837937 
L 783.853271 312.135442 
L 796.596337 311.466014 
L 809.339402 310.810548 
L 822.082468 310.23415 
L 834.825534 309.631885 
L 847.568599 308.993027 
L 860.311665 308.34388 
L 873.054731 307.671219 
L 885.797797 307.034712 
L 898.540862 306.394089 
L 911.283928 305.733039 
L 924.026994 305.011879 
L 936.770059 304.324522 
L 949.513125 303.694775 
" clip-path="url(#p638d296061)" style="fill: none; stroke: #f15c80; stroke-linecap: square"/>
   </g>
   <g id="line2d_13">
    <path d="M 76.613125 353.211261 
L 82.984658 353.210673 
L 89.356191 353.209791 
L 95.727724 353.206558 
L 102.099256 353.206264 
L 108.470789 353.204207 
L 114.842322 353.203619 
L 121.213855 353.200679 
L 127.585388 353.19774 
L 133.956921 353.188481 
L 146.699986 353.175842 
L 159.443052 353.1585 
L 172.186118 353.141452 
L 184.929183 353.114705 
L 197.672249 353.086193 
L 210.415315 353.053714 
L 223.15838 353.008449 
L 235.901446 352.955982 
L 248.644512 352.903221 
L 261.387578 352.84664 
L 274.130643 352.779917 
L 286.873709 352.715987 
L 299.616775 352.647795 
L 312.35984 352.576958 
L 325.102906 352.504798 
L 337.845972 352.431315 
L 350.589037 352.358567 
L 363.332103 352.274062 
L 376.075169 352.197346 
L 388.818234 352.12548 
L 401.5613 352.053467 
L 414.304366 351.981748 
L 427.047432 351.909294 
L 439.790497 351.829639 
L 452.533563 351.755274 
L 465.276629 351.680763 
L 478.019694 351.597874 
L 490.76276 351.513663 
L 503.505826 351.42857 
L 516.248891 351.346122 
L 528.991957 351.252064 
L 541.735023 351.167853 
L 554.478089 351.073648 
L 567.221154 350.983411 
L 579.96422 350.878037 
L 592.707286 350.779129 
L 605.450351 350.676695 
L 618.193417 350.545013 
L 630.936483 350.419652 
L 643.679548 350.291351 
L 656.422614 350.152469 
L 669.16568 350.021229 
L 681.908745 349.884551 
L 694.651811 349.709515 
L 707.394877 349.523604 
L 720.137943 349.32667 
L 732.881008 349.105781 
L 745.624074 348.871665 
L 758.36714 348.621383 
L 771.110205 348.347586 
L 783.853271 348.042339 
L 796.596337 347.708139 
L 809.339402 347.358802 
L 822.082468 346.960673 
L 834.825534 346.516543 
L 847.568599 346.043902 
L 860.311665 345.519823 
L 873.054731 344.936664 
L 885.797797 344.302214 
L 898.540862 343.66071 
L 911.283928 342.945723 
L 924.026994 342.199433 
L 936.770059 341.373487 
L 949.513125 340.480378 
" clip-path="url(#p638d296061)" style="fill: none; stroke: #e4d354; stroke-linecap: square"/>
   </g>
   <g id="line2d_14">
    <path d="M 76.613125 352.521111 
L 82.984658 351.864176 
L 89.356191 351.637555 
L 95.727724 351.452084 
L 102.099256 351.283956 
L 108.470789 351.151687 
L 114.842322 351.019418 
L 121.213855 350.525614 
L 127.585388 349.935401 
L 133.956921 349.22203 
L 146.699986 348.781281 
L 159.443052 348.189451 
L 172.186118 347.488426 
L 184.929183 346.870436 
L 197.672249 346.258619 
L 210.415315 345.641511 
L 223.15838 344.914179 
L 235.901446 344.293984 
L 248.644512 343.678052 
L 261.387578 343.015385 
L 274.130643 342.352277 
L 286.873709 341.757654 
L 299.616775 341.171409 
L 312.35984 340.488902 
L 325.102906 339.849602 
L 337.845972 339.228526 
L 350.589037 338.625967 
L 363.332103 338.031345 
L 376.075169 337.446275 
L 388.818234 336.867966 
L 401.5613 336.252622 
L 414.304366 335.646683 
L 427.047432 335.059703 
L 439.790497 334.453912 
L 452.533563 333.876043 
L 465.276629 333.34491 
L 478.019694 332.746908 
L 490.76276 332.170656 
L 503.505826 331.602047 
L 516.248891 331.02168 
L 528.991957 330.447339 
L 541.735023 329.858595 
L 554.478089 329.265443 
L 567.221154 328.711677 
L 579.96422 328.125432 
L 592.707286 327.497889 
L 605.450351 326.906647 
L 618.193417 326.326281 
L 630.936483 325.719607 
L 643.679548 325.079572 
L 656.422614 324.466873 
L 669.16568 323.895031 
L 681.908745 323.314223 
L 694.651811 322.714898 
L 707.394877 322.137912 
L 720.137943 321.603398 
L 732.881008 321.029939 
L 745.624074 320.460595 
L 758.36714 319.937692 
L 771.110205 319.398181 
L 783.853271 318.842946 
L 796.596337 318.244356 
L 809.339402 317.640475 
L 822.082468 317.0726 
L 834.825534 316.493262 
L 847.568599 315.876448 
L 860.311665 315.250081 
L 873.054731 314.630622 
L 885.797797 314.046287 
L 898.540862 313.421537 
L 911.283928 312.801784 
L 924.026994 312.204075 
L 936.770059 311.633114 
L 949.513125 311.030997 
" clip-path="url(#p638d296061)" style="fill: none; stroke: #2b908f; stroke-linecap: square"/>
   </g>
   <g id="line2d_15">
    <path d="M 76.613125 353.218471 
L 82.984658 353.21817 
L 89.356191 353.21817 
L 95.727724 353.21817 
L 102.099256 353.21817 
L 108.470789 353.217868 
L 114.842322 353.217868 
L 121.213855 353.217566 
L 127.585388 353.216661 
L 133.956921 353.215757 
L 146.699986 353.214399 
L 159.443052 353.213645 
L 172.186118 353.211233 
L 184.929183 353.207312 
L 197.672249 353.202637 
L 210.415315 353.196756 
L 223.15838 353.190874 
L 235.901446 353.185596 
L 248.644512 353.179866 
L 261.387578 353.173683 
L 274.130643 353.165539 
L 286.873709 353.156793 
L 299.616775 353.148951 
L 312.35984 353.140506 
L 325.102906 353.127386 
L 337.845972 353.118791 
L 350.589037 353.106425 
L 363.332103 353.093456 
L 376.075169 353.083201 
L 388.818234 353.070685 
L 401.5613 353.056358 
L 414.304366 353.040373 
L 427.047432 353.028158 
L 439.790497 353.012776 
L 452.533563 352.997244 
L 465.276629 352.98156 
L 478.019694 352.962107 
L 490.76276 352.940693 
L 503.505826 352.916263 
L 516.248891 352.890928 
L 528.991957 352.865141 
L 541.735023 352.841616 
L 554.478089 352.813868 
L 567.221154 352.782652 
L 579.96422 352.747666 
L 592.707286 352.713886 
L 605.450351 352.676336 
L 618.193417 352.627325 
L 630.936483 352.574846 
L 643.679548 352.517088 
L 656.422614 352.447418 
L 669.16568 352.377144 
L 681.908745 352.301441 
L 694.651811 352.213674 
L 707.394877 352.109921 
L 720.137943 351.992597 
L 732.881008 351.855668 
L 745.624074 351.70185 
L 758.36714 351.528578 
L 771.110205 351.334193 
L 783.853271 351.097131 
L 796.596337 350.838957 
L 809.339402 350.5369 
L 822.082468 350.213579 
L 834.825534 349.852407 
L 847.568599 349.449915 
L 860.311665 349.007913 
L 873.054731 348.527003 
L 885.797797 347.963153 
L 898.540862 347.364768 
L 911.283928 346.709833 
L 924.026994 345.9896 
L 936.770059 345.191703 
L 949.513125 344.325192 
" clip-path="url(#p638d296061)" style="fill: none; stroke: #f45b5b; stroke-linecap: square"/>
   </g>
   <g id="line2d_16">
    <path d="M 76.613125 353.113211 
L 82.984658 352.737713 
L 89.356191 352.495825 
L 95.727724 352.214729 
L 102.099256 351.993049 
L 108.470789 351.781926 
L 114.842322 351.458907 
L 121.213855 350.880428 
L 127.585388 349.979534 
L 133.956921 348.86646 
L 146.699986 348.150299 
L 159.443052 347.382261 
L 172.186118 346.602009 
L 184.929183 345.872577 
L 197.672249 345.072117 
L 210.415315 344.297746 
L 223.15838 343.542225 
L 235.901446 342.792736 
L 248.644512 342.03254 
L 261.387578 341.272948 
L 274.130643 340.502045 
L 286.873709 339.764168 
L 299.616775 338.989194 
L 312.35984 338.140779 
L 325.102906 337.366407 
L 337.845972 336.645873 
L 350.589037 335.95761 
L 363.332103 335.230138 
L 376.075169 334.523025 
L 388.818234 333.789974 
L 401.5613 333.049533 
L 414.304366 332.362326 
L 427.047432 331.722622 
L 439.790497 331.021691 
L 452.533563 330.386963 
L 465.276629 329.736552 
L 478.019694 329.023708 
L 490.76276 328.307547 
L 503.505826 327.617927 
L 516.248891 326.875224 
L 528.991957 326.175802 
L 541.735023 325.510461 
L 554.478089 324.830492 
L 567.221154 324.148111 
L 579.96422 323.49981 
L 592.707286 322.817881 
L 605.450351 322.140778 
L 618.193417 321.478 
L 630.936483 320.803461 
L 643.679548 320.069504 
L 656.422614 319.294983 
L 669.16568 318.541573 
L 681.908745 317.852556 
L 694.651811 317.166404 
L 707.394877 316.507548 
L 720.137943 315.866185 
L 732.881008 315.199336 
L 745.624074 314.546662 
L 758.36714 313.906656 
L 771.110205 313.25534 
L 783.853271 312.564966 
L 796.596337 311.916666 
L 809.339402 311.307122 
L 822.082468 310.763026 
L 834.825534 310.154688 
L 847.568599 309.51423 
L 860.311665 308.877994 
L 873.054731 308.238742 
L 885.797797 307.61261 
L 898.540862 306.961746 
L 911.283928 306.339384 
L 924.026994 305.638001 
L 936.770059 304.982613 
L 949.513125 304.370355 
" clip-path="url(#p638d296061)" style="fill: none; stroke: #91e8e1; stroke-linecap: square"/>
   </g>
   <g id="line2d_17">
    <path d="M 76.613125 353.218471 
L 82.984658 353.217265 
L 89.356191 353.215757 
L 95.727724 353.212439 
L 102.099256 353.211534 
L 108.470789 353.207613 
L 114.842322 353.206105 
L 121.213855 353.204597 
L 127.585388 353.199168 
L 133.956921 353.191176 
L 146.699986 353.177604 
L 159.443052 353.159357 
L 172.186118 353.138395 
L 184.929183 353.11487 
L 197.672249 353.079431 
L 210.415315 353.037659 
L 223.15838 352.988346 
L 235.901446 352.942955 
L 248.644512 352.889722 
L 261.387578 352.823821 
L 274.130643 352.768476 
L 286.873709 352.706798 
L 299.616775 352.645723 
L 312.35984 352.58133 
L 325.102906 352.505778 
L 337.845972 352.435353 
L 350.589037 352.363571 
L 363.332103 352.293448 
L 376.075169 352.229659 
L 388.818234 352.156218 
L 401.5613 352.077047 
L 414.304366 351.994859 
L 427.047432 351.916743 
L 439.790497 351.840588 
L 452.533563 351.766996 
L 465.276629 351.689635 
L 478.019694 351.615892 
L 490.76276 351.533856 
L 503.505826 351.447295 
L 516.248891 351.355004 
L 528.991957 351.259546 
L 541.735023 351.162731 
L 554.478089 351.050684 
L 567.221154 350.941503 
L 579.96422 350.832171 
L 592.707286 350.727364 
L 605.450351 350.623159 
L 618.193417 350.502215 
L 630.936483 350.389113 
L 643.679548 350.269376 
L 656.422614 350.121891 
L 669.16568 349.978629 
L 681.908745 349.843661 
L 694.651811 349.696025 
L 707.394877 349.531348 
L 720.137943 349.350084 
L 732.881008 349.147405 
L 745.624074 348.939901 
L 758.36714 348.71234 
L 771.110205 348.449642 
L 783.853271 348.14125 
L 796.596337 347.825621 
L 809.339402 347.469727 
L 822.082468 347.082767 
L 834.825534 346.653282 
L 847.568599 346.18519 
L 860.311665 345.678946 
L 873.054731 345.133795 
L 885.797797 344.508417 
L 898.540862 343.831615 
L 911.283928 343.107763 
L 924.026994 342.314692 
L 936.770059 341.448633 
L 949.513125 340.525721 
" clip-path="url(#p638d296061)" style="fill: none; stroke: #7cb5ec; stroke-linecap: square"/>
   </g>
   <g id="line2d_18">
    <path d="M 76.613125 352.602895 
L 82.984658 351.961683 
L 89.356191 351.733367 
L 95.727724 351.535816 
L 102.099256 351.365711 
L 108.470789 351.240243 
L 114.842322 351.104822 
L 121.213855 350.600539 
L 127.585388 350.00698 
L 133.956921 349.341036 
L 146.699986 348.915169 
L 159.443052 348.339857 
L 172.186118 347.640586 
L 184.929183 347.03255 
L 197.672249 346.456333 
L 210.415315 345.81678 
L 223.15838 345.098658 
L 235.901446 344.48459 
L 248.644512 343.876102 
L 261.387578 343.199451 
L 274.130643 342.52295 
L 286.873709 341.930447 
L 299.616775 341.329197 
L 312.35984 340.665666 
L 325.102906 340.040137 
L 337.845972 339.449443 
L 350.589037 338.837486 
L 363.332103 338.231713 
L 376.075169 337.646749 
L 388.818234 337.087574 
L 401.5613 336.470791 
L 414.304366 335.875573 
L 427.047432 335.278697 
L 439.790497 334.675788 
L 452.533563 334.098214 
L 465.276629 333.564222 
L 478.019694 332.999768 
L 490.76276 332.426266 
L 503.505826 331.845827 
L 516.248891 331.257094 
L 528.991957 330.651169 
L 541.735023 330.010259 
L 554.478089 329.413533 
L 567.221154 328.866119 
L 579.96422 328.261401 
L 592.707286 327.610085 
L 605.450351 326.975508 
L 618.193417 326.375464 
L 630.936483 325.796835 
L 643.679548 325.174171 
L 656.422614 324.571564 
L 669.16568 323.979061 
L 681.908745 323.383391 
L 694.651811 322.788324 
L 707.394877 322.200345 
L 720.137943 321.637851 
L 732.881008 321.110193 
L 745.624074 320.558105 
L 758.36714 319.990333 
L 771.110205 319.447896 
L 783.853271 318.871831 
L 796.596337 318.275105 
L 809.339402 317.692253 
L 822.082468 317.13745 
L 834.825534 316.581441 
L 847.568599 315.969937 
L 860.311665 315.3806 
L 873.054731 314.801368 
L 885.797797 314.210071 
L 898.540862 313.607766 
L 911.283928 312.97153 
L 924.026994 312.391995 
L 936.770059 311.832367 
L 949.513125 311.235943 
" clip-path="url(#p638d296061)" style="fill: none; stroke: #434348; stroke-linecap: square"/>
   </g>
   <g id="line2d_19">
    <path d="M 76.613125 353.210753 
L 82.984658 353.210753 
L 89.356191 353.210753 
L 95.727724 353.210096 
L 102.099256 353.209767 
L 108.470789 353.209438 
L 114.842322 353.209438 
L 121.213855 353.208452 
L 127.585388 353.207795 
L 133.956921 353.205659 
L 146.699986 353.204673 
L 159.443052 353.203358 
L 172.186118 353.201222 
L 184.929183 353.199414 
L 197.672249 353.195963 
L 210.415315 353.193333 
L 223.15838 353.189882 
L 235.901446 353.182159 
L 248.644512 353.176735 
L 261.387578 353.170655 
L 274.130643 353.158823 
L 286.873709 353.151263 
L 299.616775 353.139102 
L 312.35984 353.130557 
L 325.102906 353.116753 
L 337.845972 353.105578 
L 350.589037 353.094403 
L 363.332103 353.084378 
L 376.075169 353.071724 
L 388.818234 353.060714 
L 401.5613 353.046581 
L 414.304366 353.031462 
L 427.047432 353.017 
L 439.790497 353.001388 
L 452.533563 352.985448 
L 465.276629 352.964906 
L 478.019694 352.945021 
L 490.76276 352.922014 
L 503.505826 352.902458 
L 516.248891 352.880272 
L 528.991957 352.859237 
L 541.735023 352.835408 
L 554.478089 352.807143 
L 567.221154 352.770002 
L 579.96422 352.732698 
L 592.707286 352.691285 
L 605.450351 352.647243 
L 618.193417 352.6009 
L 630.936483 352.542068 
L 643.679548 352.47584 
L 656.422614 352.402053 
L 669.16568 352.326787 
L 681.908745 352.229664 
L 694.651811 352.122352 
L 707.394877 352.002387 
L 720.137943 351.862536 
L 732.881008 351.719563 
L 745.624074 351.554241 
L 758.36714 351.362131 
L 771.110205 351.156546 
L 783.853271 350.908398 
L 796.596337 350.646939 
L 809.339402 350.343738 
L 822.082468 349.988442 
L 834.825534 349.590583 
L 847.568599 349.16791 
L 860.311665 348.676544 
L 873.054731 348.124373 
L 885.797797 347.52438 
L 898.540862 346.888726 
L 911.283928 346.166796 
L 924.026994 345.412491 
L 936.770059 344.565172 
L 949.513125 343.643573 
" clip-path="url(#p638d296061)" style="fill: none; stroke: #90ed7d; stroke-linecap: square"/>
   </g>
   <g id="line2d_20">
    <path d="M 76.613125 353.125298 
L 82.984658 352.780849 
L 89.356191 352.531057 
L 95.727724 352.253657 
L 102.099256 352.039034 
L 108.470789 351.81192 
L 114.842322 351.474373 
L 121.213855 350.891965 
L 127.585388 349.965435 
L 133.956921 348.869968 
L 146.699986 348.128481 
L 159.443052 347.377135 
L 172.186118 346.579938 
L 184.929183 345.825962 
L 197.672249 345.017919 
L 210.415315 344.243401 
L 223.15838 343.489754 
L 235.901446 342.706854 
L 248.644512 341.922805 
L 261.387578 341.119199 
L 274.130643 340.344188 
L 286.873709 339.593992 
L 299.616775 338.844124 
L 312.35984 337.953091 
L 325.102906 337.140119 
L 337.845972 336.410957 
L 350.589037 335.726824 
L 363.332103 335.033324 
L 376.075169 334.349355 
L 388.818234 333.600309 
L 401.5613 332.865561 
L 414.304366 332.18833 
L 427.047432 331.553498 
L 439.790497 330.873638 
L 452.533563 330.211854 
L 465.276629 329.553029 
L 478.019694 328.799382 
L 490.76276 328.054609 
L 503.505826 327.354371 
L 516.248891 326.603681 
L 528.991957 325.867947 
L 541.735023 325.221611 
L 554.478089 324.578398 
L 567.221154 323.914478 
L 579.96422 323.231331 
L 592.707286 322.554922 
L 605.450351 321.870132 
L 618.193417 321.196516 
L 630.936483 320.546401 
L 643.679548 319.832523 
L 656.422614 319.054718 
L 669.16568 318.352508 
L 681.908745 317.677906 
L 694.651811 316.988186 
L 707.394877 316.343329 
L 720.137943 315.698473 
L 732.881008 315.067749 
L 745.624074 314.43226 
L 758.36714 313.797921 
L 771.110205 313.150599 
L 783.853271 312.465316 
L 796.596337 311.812571 
L 809.339402 311.19483 
L 822.082468 310.609463 
L 834.825534 310.027876 
L 847.568599 309.405369 
L 860.311665 308.755747 
L 873.054731 308.08246 
L 885.797797 307.449272 
L 898.540862 306.840405 
L 911.283928 306.223978 
L 924.026994 305.514866 
L 936.770059 304.864093 
L 949.513125 304.251611 
" clip-path="url(#p638d296061)" style="fill: none; stroke: #f7a35c; stroke-linecap: square"/>
   </g>
   <g id="line2d_21">
    <path d="M 76.613125 353.210753 
L 82.984658 353.210096 
L 89.356191 353.208781 
L 95.727724 353.20648 
L 102.099256 353.205823 
L 108.470789 353.203522 
L 114.842322 353.202536 
L 121.213855 353.198921 
L 127.585388 353.195963 
L 133.956921 353.18791 
L 146.699986 353.177721 
L 159.443052 353.160959 
L 172.186118 353.143704 
L 184.929183 353.122833 
L 197.672249 353.093745 
L 210.415315 353.058249 
L 223.15838 353.013549 
L 235.901446 352.96622 
L 248.644512 352.914947 
L 261.387578 352.858744 
L 274.130643 352.793996 
L 286.873709 352.732534 
L 299.616775 352.665156 
L 312.35984 352.596463 
L 325.102906 352.518732 
L 337.845972 352.452176 
L 350.589037 352.378553 
L 363.332103 352.300657 
L 376.075169 352.224405 
L 388.818234 352.15144 
L 401.5613 352.076338 
L 414.304366 351.991212 
L 427.047432 351.907564 
L 439.790497 351.832956 
L 452.533563 351.758018 
L 465.276629 351.680944 
L 478.019694 351.606828 
L 490.76276 351.51973 
L 503.505826 351.438548 
L 516.248891 351.354408 
L 528.991957 351.271418 
L 541.735023 351.18284 
L 554.478089 351.097057 
L 567.221154 350.993689 
L 579.96422 350.894265 
L 592.707286 350.778572 
L 605.450351 350.66633 
L 618.193417 350.548172 
L 630.936483 350.428207 
L 643.679548 350.30101 
L 656.422614 350.16609 
L 669.16568 350.025582 
L 681.908745 349.873571 
L 694.651811 349.705783 
L 707.394877 349.52337 
L 720.137943 349.318442 
L 732.881008 349.103819 
L 745.624074 348.87687 
L 758.36714 348.619848 
L 771.110205 348.346063 
L 783.853271 348.03596 
L 796.596337 347.716325 
L 809.339402 347.355771 
L 822.082468 346.942793 
L 834.825534 346.497277 
L 847.568599 346.013963 
L 860.311665 345.464586 
L 873.054731 344.856869 
L 885.797797 344.197387 
L 898.540862 343.499121 
L 911.283928 342.717865 
L 924.026994 341.910315 
L 936.770059 341.006136 
L 949.513125 340.026361 
" clip-path="url(#p638d296061)" style="fill: none; stroke: #8085e9; stroke-linecap: square"/>
   </g>
   <g id="line2d_22">
    <path d="M 76.613125 352.648393 
L 82.984658 351.994334 
L 89.356191 351.771165 
L 95.727724 351.572318 
L 102.099256 351.384645 
L 108.470789 351.246931 
L 114.842322 351.085882 
L 121.213855 350.588599 
L 127.585388 349.95919 
L 133.956921 349.248763 
L 146.699986 348.819188 
L 159.443052 348.241873 
L 172.186118 347.529146 
L 184.929183 346.8953 
L 197.672249 346.271478 
L 210.415315 345.639111 
L 223.15838 344.948898 
L 235.901446 344.342003 
L 248.644512 343.742996 
L 261.387578 343.092388 
L 274.130643 342.448353 
L 286.873709 341.817136 
L 299.616775 341.206626 
L 312.35984 340.513126 
L 325.102906 339.86679 
L 337.845972 339.240175 
L 350.589037 338.618326 
L 363.332103 337.997462 
L 376.075169 337.39369 
L 388.818234 336.786795 
L 401.5613 336.201264 
L 414.304366 335.596998 
L 427.047432 334.976299 
L 439.790497 334.385345 
L 452.533563 333.771548 
L 465.276629 333.212311 
L 478.019694 332.612811 
L 490.76276 332.03977 
L 503.505826 331.490557 
L 516.248891 330.923596 
L 528.991957 330.352526 
L 541.735023 329.751055 
L 554.478089 329.155828 
L 567.221154 328.583608 
L 579.96422 327.997255 
L 592.707286 327.351577 
L 605.450351 326.746161 
L 618.193417 326.172298 
L 630.936483 325.603693 
L 643.679548 324.96426 
L 656.422614 324.363939 
L 669.16568 323.794512 
L 681.908745 323.21687 
L 694.651811 322.607838 
L 707.394877 322.019514 
L 720.137943 321.448444 
L 732.881008 320.904654 
L 745.624074 320.359057 
L 758.36714 319.787166 
L 771.110205 319.262439 
L 783.853271 318.700408 
L 796.596337 318.102552 
L 809.339402 317.545944 
L 822.082468 316.98342 
L 834.825534 316.414816 
L 847.568599 315.819425 
L 860.311665 315.228635 
L 873.054731 314.624698 
L 885.797797 314.015174 
L 898.540862 313.407128 
L 911.283928 312.776898 
L 924.026994 312.230479 
L 936.770059 311.677158 
L 949.513125 311.08834 
" clip-path="url(#p638d296061)" style="fill: none; stroke: #f15c80; stroke-linecap: square"/>
   </g>
   <g id="line2d_23">
    <path d="M 76.613125 353.181846 
L 82.984658 353.179976 
L 89.356191 353.178107 
L 95.727724 353.174992 
L 102.099256 353.173746 
L 108.470789 353.172812 
L 114.842322 353.169385 
L 121.213855 353.167516 
L 127.585388 353.166893 
L 133.956921 353.163155 
L 146.699986 353.158793 
L 159.443052 353.15194 
L 172.186118 353.144308 
L 184.929183 353.13761 
L 197.672249 353.13029 
L 210.415315 353.118452 
L 223.15838 353.106926 
L 235.901446 353.096958 
L 248.644512 353.077021 
L 261.387578 353.059888 
L 274.130643 353.037614 
L 286.873709 353.014251 
L 299.616775 352.991043 
L 312.35984 352.964253 
L 325.102906 352.939643 
L 337.845972 352.908024 
L 350.589037 352.880611 
L 363.332103 352.842139 
L 376.075169 352.808184 
L 388.818234 352.775008 
L 401.5613 352.738093 
L 414.304366 352.698842 
L 427.047432 352.65523 
L 439.790497 352.610372 
L 452.533563 352.562399 
L 465.276629 352.515205 
L 478.019694 352.460534 
L 490.76276 352.405707 
L 503.505826 352.343404 
L 516.248891 352.268485 
L 528.991957 352.188114 
L 541.735023 352.114753 
L 554.478089 352.02893 
L 567.221154 351.931426 
L 579.96422 351.822864 
L 592.707286 351.709472 
L 605.450351 351.587982 
L 618.193417 351.446398 
L 630.936483 351.277558 
L 643.679548 351.099839 
L 656.422614 350.889255 
L 669.16568 350.643781 
L 681.908745 350.391455 
L 694.651811 350.099566 
L 707.394877 349.776837 
L 720.137943 349.423423 
L 732.881008 349.031071 
L 745.624074 348.582802 
L 758.36714 348.068647 
L 771.110205 347.482065 
L 783.853271 346.85265 
L 796.596337 346.16467 
L 809.339402 345.382613 
L 822.082468 344.508036 
L 834.825534 343.570845 
L 847.568599 342.538486 
L 860.311665 341.379964 
L 873.054731 340.114592 
L 885.797797 338.756233 
L 898.540862 337.294296 
L 911.283928 335.743265 
L 924.026994 334.076663 
L 936.770059 332.299784 
L 949.513125 330.395807 
" clip-path="url(#p638d296061)" style="fill: none; stroke: #e4d354; stroke-linecap: square"/>
   </g>
   <g id="line2d_24">
    <path d="M 76.613125 353.113312 
L 82.984658 352.747906 
L 89.356191 352.517074 
L 95.727724 352.235153 
L 102.099256 352.0227 
L 108.470789 351.833299 
L 114.842322 351.531442 
L 121.213855 350.946106 
L 127.585388 350.016235 
L 133.956921 348.876404 
L 146.699986 348.166618 
L 159.443052 347.444839 
L 172.186118 346.685834 
L 184.929183 345.939913 
L 197.672249 345.151002 
L 210.415315 344.36988 
L 223.15838 343.649814 
L 235.901446 342.922739 
L 248.644512 342.182737 
L 261.387578 341.410025 
L 274.130643 340.684508 
L 286.873709 339.991855 
L 299.616775 339.245311 
L 312.35984 338.391605 
L 325.102906 337.599424 
L 337.845972 336.891975 
L 350.589037 336.213963 
L 363.332103 335.523336 
L 376.075169 334.856072 
L 388.818234 334.128218 
L 401.5613 333.432451 
L 414.304366 332.733101 
L 427.047432 332.096832 
L 439.790497 331.445144 
L 452.533563 330.842519 
L 465.276629 330.179616 
L 478.019694 329.459551 
L 490.76276 328.694783 
L 503.505826 327.997146 
L 516.248891 327.267735 
L 528.991957 326.530069 
L 541.735023 325.900186 
L 554.478089 325.288528 
L 567.221154 324.656932 
L 579.96422 323.989045 
L 592.707286 323.311657 
L 605.450351 322.650779 
L 618.193417 322.004386 
L 630.936483 321.37466 
L 643.679548 320.663161 
L 656.422614 319.911943 
L 669.16568 319.198264 
L 681.908745 318.546887 
L 694.651811 317.876975 
L 707.394877 317.207219 
L 720.137943 316.579362 
L 732.881008 315.959603 
L 745.624074 315.33159 
L 758.36714 314.693297 
L 771.110205 314.074629 
L 783.853271 313.435869 
L 796.596337 312.814242 
L 809.339402 312.22766 
L 822.082468 311.677993 
L 834.825534 311.105741 
L 847.568599 310.520716 
L 860.311665 309.896441 
L 873.054731 309.280733 
L 885.797797 308.678576 
L 898.540862 308.07268 
L 911.283928 307.465538 
L 924.026994 306.794536 
L 936.770059 306.20297 
L 949.513125 305.612962 
" clip-path="url(#p638d296061)" style="fill: none; stroke: #2b908f; stroke-linecap: square"/>
   </g>
   <g id="line2d_25">
    <path d="M 76.613125 353.180599 
L 82.984658 353.178107 
L 89.356191 353.175927 
L 95.727724 353.170943 
L 102.099256 353.169073 
L 108.470789 353.167204 
L 114.842322 353.164712 
L 121.213855 353.160974 
L 127.585388 353.157236 
L 133.956921 353.148202 
L 146.699986 353.137455 
L 159.443052 353.119698 
L 172.186118 353.097892 
L 184.929183 353.074685 
L 197.672249 353.045246 
L 210.415315 353.008332 
L 223.15838 352.970794 
L 235.901446 352.92765 
L 248.644512 352.869708 
L 261.387578 352.815193 
L 274.130643 352.750398 
L 286.873709 352.679528 
L 299.616775 352.601806 
L 312.35984 352.522214 
L 325.102906 352.43826 
L 337.845972 352.348233 
L 350.589037 352.262255 
L 363.332103 352.174719 
L 376.075169 352.089987 
L 388.818234 352.006346 
L 401.5613 351.917253 
L 414.304366 351.819593 
L 427.047432 351.718818 
L 439.790497 351.619289 
L 452.533563 351.521318 
L 465.276629 351.417583 
L 478.019694 351.312759 
L 490.76276 351.20186 
L 503.505826 351.078188 
L 516.248891 350.935047 
L 528.991957 350.791439 
L 541.735023 350.656242 
L 554.478089 350.510142 
L 567.221154 350.340522 
L 579.96422 350.170124 
L 592.707286 350.002061 
L 605.450351 349.827458 
L 618.193417 349.616251 
L 630.936483 349.393518 
L 643.679548 349.165022 
L 656.422614 348.892291 
L 669.16568 348.588409 
L 681.908745 348.27705 
L 694.651811 347.927531 
L 707.394877 347.549975 
L 720.137943 347.134415 
L 732.881008 346.671193 
L 745.624074 346.156727 
L 758.36714 345.589615 
L 771.110205 344.942443 
L 783.853271 344.254931 
L 796.596337 343.51633 
L 809.339402 342.676175 
L 822.082468 341.756741 
L 834.825534 340.75382 
L 847.568599 339.671151 
L 860.311665 338.463565 
L 873.054731 337.153958 
L 885.797797 335.735321 
L 898.540862 334.214352 
L 911.283928 332.599461 
L 924.026994 330.858251 
L 936.770059 328.997107 
L 949.513125 327.024442 
" clip-path="url(#p638d296061)" style="fill: none; stroke: #f45b5b; stroke-linecap: square"/>
   </g>
   <g id="line2d_26">
    <path d="M 76.613125 352.731707 
L 82.984658 352.182819 
L 89.356191 351.989991 
L 95.727724 351.822396 
L 102.099256 351.662278 
L 108.470789 351.553871 
L 114.842322 351.416493 
L 121.213855 351.007163 
L 127.585388 350.484442 
L 133.956921 349.863905 
L 146.699986 349.480742 
L 159.443052 348.974843 
L 172.186118 348.353371 
L 184.929183 347.81009 
L 197.672249 347.26821 
L 210.415315 346.694557 
L 223.15838 346.070282 
L 235.901446 345.52996 
L 248.644512 344.991507 
L 261.387578 344.373929 
L 274.130643 343.790774 
L 286.873709 343.230671 
L 299.616775 342.663715 
L 312.35984 342.035546 
L 325.102906 341.433233 
L 337.845972 340.840421 
L 350.589037 340.269415 
L 363.332103 339.690776 
L 376.075169 339.14547 
L 388.818234 338.60951 
L 401.5613 338.080402 
L 414.304366 337.533694 
L 427.047432 336.978264 
L 439.790497 336.329068 
L 452.533563 335.780335 
L 465.276629 335.285494 
L 478.019694 334.718382 
L 490.76276 334.1832 
L 503.505826 333.613285 
L 516.248891 333.059568 
L 528.991957 332.492144 
L 541.735023 331.9431 
L 554.478089 331.409164 
L 567.221154 330.875384 
L 579.96422 330.308895 
L 592.707286 329.707828 
L 605.450351 329.15193 
L 618.193417 328.615814 
L 630.936483 328.065835 
L 643.679548 327.500903 
L 656.422614 326.945162 
L 669.16568 326.382566 
L 681.908745 325.855328 
L 694.651811 325.284322 
L 707.394877 324.756617 
L 720.137943 324.260374 
L 732.881008 323.773633 
L 745.624074 323.232844 
L 758.36714 322.713393 
L 771.110205 322.235218 
L 783.853271 321.706267 
L 796.596337 321.128252 
L 809.339402 320.56955 
L 822.082468 320.064118 
L 834.825534 319.54825 
L 847.568599 318.987524 
L 860.311665 318.425396 
L 873.054731 317.860776 
L 885.797797 317.324816 
L 898.540862 316.748047 
L 911.283928 316.159284 
L 924.026994 315.645597 
L 936.770059 315.138296 
L 949.513125 314.602646 
" clip-path="url(#p638d296061)" style="fill: none; stroke: #91e8e1; stroke-linecap: square"/>
   </g>
   <g id="line2d_27">
    <path d="M 76.613125 353.204545 
L 82.984658 353.204545 
L 89.356191 353.203949 
L 95.727724 353.203056 
L 102.099256 353.203056 
L 108.470789 353.20246 
L 114.842322 353.201567 
L 121.213855 353.200376 
L 127.585388 353.199483 
L 133.956921 353.197249 
L 146.699986 353.195761 
L 159.443052 353.193229 
L 172.186118 353.189358 
L 184.929183 353.185934 
L 197.672249 353.180574 
L 210.415315 353.175661 
L 223.15838 353.166877 
L 235.901446 353.155561 
L 248.644512 353.143501 
L 261.387578 353.134271 
L 274.130643 353.119829 
L 286.873709 353.109258 
L 299.616775 353.093029 
L 312.35984 353.080671 
L 325.102906 353.065634 
L 337.845972 353.053276 
L 350.589037 353.035559 
L 363.332103 353.014864 
L 376.075169 352.99938 
L 388.818234 352.978982 
L 401.5613 352.962754 
L 414.304366 352.943101 
L 427.047432 352.921065 
L 439.790497 352.898435 
L 452.533563 352.876697 
L 465.276629 352.853024 
L 478.019694 352.824438 
L 490.76276 352.792428 
L 503.505826 352.75208 
L 516.248891 352.71456 
L 528.991957 352.675254 
L 541.735023 352.625675 
L 554.478089 352.575203 
L 567.221154 352.530537 
L 579.96422 352.479618 
L 592.707286 352.421254 
L 605.450351 352.35366 
L 618.193417 352.272815 
L 630.936483 352.195692 
L 643.679548 352.105616 
L 656.422614 351.994398 
L 669.16568 351.868738 
L 681.908745 351.728189 
L 694.651811 351.572752 
L 707.394877 351.402724 
L 720.137943 351.20411 
L 732.881008 350.969912 
L 745.624074 350.709807 
L 758.36714 350.427668 
L 771.110205 350.107414 
L 783.853271 349.707654 
L 796.596337 349.267696 
L 809.339402 348.767885 
L 822.082468 348.216857 
L 834.825534 347.594215 
L 847.568599 346.916187 
L 860.311665 346.172649 
L 873.054731 345.321318 
L 885.797797 344.427256 
L 898.540862 343.440289 
L 911.283928 342.384686 
L 924.026994 341.207443 
L 936.770059 339.948908 
L 949.513125 338.541635 
" clip-path="url(#p638d296061)" style="fill: none; stroke: #7cb5ec; stroke-linecap: square"/>
   </g>
   <g id="line2d_28">
    <path d="M 76.613125 353.136355 
L 82.984658 352.826969 
L 89.356191 352.607511 
L 95.727724 352.349938 
L 102.099256 352.152515 
L 108.470789 351.955687 
L 114.842322 351.684417 
L 121.213855 351.149915 
L 127.585388 350.348907 
L 133.956921 349.271716 
L 146.699986 348.600983 
L 159.443052 347.903451 
L 172.186118 347.170336 
L 184.929183 346.496626 
L 197.672249 345.767232 
L 210.415315 345.034414 
L 223.15838 344.367553 
L 235.901446 343.687589 
L 248.644512 342.991993 
L 261.387578 342.31739 
L 274.130643 341.639213 
L 286.873709 340.999002 
L 299.616775 340.311446 
L 312.35984 339.545128 
L 325.102906 338.834941 
L 337.845972 338.18148 
L 350.589037 337.584595 
L 363.332103 336.986966 
L 376.075169 336.381296 
L 388.818234 335.765354 
L 401.5613 335.130354 
L 414.304366 334.528408 
L 427.047432 333.945816 
L 439.790497 333.317069 
L 452.533563 332.727331 
L 465.276629 332.12732 
L 478.019694 331.464925 
L 490.76276 330.803721 
L 503.505826 330.195968 
L 516.248891 329.546824 
L 528.991957 328.862692 
L 541.735023 328.257916 
L 554.478089 327.651651 
L 567.221154 327.026478 
L 579.96422 326.4287 
L 592.707286 325.813651 
L 605.450351 325.197709 
L 618.193417 324.592784 
L 630.936483 323.979075 
L 643.679548 323.342735 
L 656.422614 322.646246 
L 669.16568 321.979087 
L 681.908745 321.359125 
L 694.651811 320.765366 
L 707.394877 320.171608 
L 720.137943 319.597354 
L 732.881008 319.003894 
L 745.624074 318.433957 
L 758.36714 317.851217 
L 771.110205 317.27458 
L 783.853271 316.714024 
L 796.596337 316.144385 
L 809.339402 315.612563 
L 822.082468 315.104713 
L 834.825534 314.595224 
L 847.568599 314.069953 
L 860.311665 313.49957 
L 873.054731 312.926805 
L 885.797797 312.394984 
L 898.540862 311.846636 
L 911.283928 311.278337 
L 924.026994 310.641997 
L 936.770059 310.07355 
L 949.513125 309.530115 
" clip-path="url(#p638d296061)" style="fill: none; stroke: #434348; stroke-linecap: square"/>
   </g>
   <g id="line2d_29">
    <path d="M 76.613125 353.20514 
L 82.984658 353.20514 
L 89.356191 353.204247 
L 95.727724 353.201865 
L 102.099256 353.201567 
L 108.470789 353.199483 
L 114.842322 353.197696 
L 121.213855 353.194718 
L 127.585388 353.192038 
L 133.956921 353.185934 
L 146.699986 353.17849 
L 159.443052 353.167919 
L 172.186118 353.15035 
L 184.929183 353.134271 
L 197.672249 353.112533 
L 210.415315 353.084989 
L 223.15838 353.045981 
L 235.901446 353.00206 
L 248.644512 352.958585 
L 261.387578 352.909601 
L 274.130643 352.853322 
L 286.873709 352.795405 
L 299.616775 352.737191 
L 312.35984 352.672277 
L 325.102906 352.607809 
L 337.845972 352.542597 
L 350.589037 352.475002 
L 363.332103 352.403984 
L 376.075169 352.340856 
L 388.818234 352.276686 
L 401.5613 352.214451 
L 414.304366 352.148048 
L 427.047432 352.073307 
L 439.790497 352.004224 
L 452.533563 351.934397 
L 465.276629 351.863676 
L 478.019694 351.788935 
L 490.76276 351.712705 
L 503.505826 351.62918 
L 516.248891 351.54357 
L 528.991957 351.448134 
L 541.735023 351.350465 
L 554.478089 351.244607 
L 567.221154 351.142471 
L 579.96422 351.045844 
L 592.707286 350.939539 
L 605.450351 350.823557 
L 618.193417 350.68941 
L 630.936483 350.567026 
L 643.679548 350.43139 
L 656.422614 350.271338 
L 669.16568 350.093121 
L 681.908745 349.901951 
L 694.651811 349.692319 
L 707.394877 349.475392 
L 720.137943 349.221243 
L 732.881008 348.930171 
L 745.624074 348.618254 
L 758.36714 348.284302 
L 771.110205 347.915809 
L 783.853271 347.465577 
L 796.596337 346.982292 
L 809.339402 346.439751 
L 822.082468 345.837506 
L 834.825534 345.167816 
L 847.568599 344.44542 
L 860.311665 343.659897 
L 873.054731 342.765984 
L 885.797797 341.824874 
L 898.540862 340.781479 
L 911.283928 339.662748 
L 924.026994 338.431757 
L 936.770059 337.118879 
L 949.513125 335.654732 
" clip-path="url(#p638d296061)" style="fill: none; stroke: #90ed7d; stroke-linecap: square"/>
   </g>
   <g id="line2d_30">
    <path d="M 76.613125 352.728109 
L 82.984658 352.205816 
L 89.356191 352.007202 
L 95.727724 351.837174 
L 102.099256 351.682928 
L 108.470789 351.58109 
L 114.842322 351.457514 
L 121.213855 351.084703 
L 127.585388 350.594272 
L 133.956921 350.024335 
L 146.699986 349.698126 
L 159.443052 349.219159 
L 172.186118 348.613787 
L 184.929183 348.086432 
L 197.672249 347.601212 
L 210.415315 347.087555 
L 223.15838 346.493499 
L 235.901446 345.97731 
L 248.644512 345.446084 
L 261.387578 344.887612 
L 274.130643 344.335691 
L 286.873709 343.809081 
L 299.616775 343.313885 
L 312.35984 342.744991 
L 325.102906 342.232078 
L 337.845972 341.702043 
L 350.589037 341.160097 
L 363.332103 340.663562 
L 376.075169 340.167175 
L 388.818234 339.670491 
L 401.5613 339.169488 
L 414.304366 338.643176 
L 427.047432 338.114927 
L 439.790497 337.577895 
L 452.533563 337.067066 
L 465.276629 336.588397 
L 478.019694 336.083822 
L 490.76276 335.563911 
L 503.505826 335.056507 
L 516.248891 334.549252 
L 528.991957 334.041847 
L 541.735023 333.564816 
L 554.478089 333.094633 
L 567.221154 332.608669 
L 579.96422 332.120769 
L 592.707286 331.567656 
L 605.450351 331.066059 
L 618.193417 330.589325 
L 630.936483 330.120929 
L 643.679548 329.594765 
L 656.422614 329.07679 
L 669.16568 328.583679 
L 681.908745 328.074786 
L 694.651811 327.539838 
L 707.394877 327.039282 
L 720.137943 326.56776 
L 732.881008 326.116039 
L 745.624074 325.650174 
L 758.36714 325.191604 
L 771.110205 324.728568 
L 783.853271 324.263746 
L 796.596337 323.747259 
L 809.339402 323.230922 
L 822.082468 322.766695 
L 834.825534 322.276412 
L 847.568599 321.767966 
L 860.311665 321.259371 
L 873.054731 320.756433 
L 885.797797 320.277913 
L 898.540862 319.776017 
L 911.283928 319.28782 
L 924.026994 318.821359 
L 936.770059 318.354154 
L 949.513125 317.864319 
" clip-path="url(#p638d296061)" style="fill: none; stroke: #f7a35c; stroke-linecap: square"/>
   </g>
   <g id="line2d_31">
    <path d="M 76.613125 353.20807 
L 82.984658 353.207753 
L 89.356191 353.207753 
L 95.727724 353.207436 
L 102.099256 353.20712 
L 108.470789 353.20712 
L 114.842322 353.206803 
L 121.213855 353.205537 
L 127.585388 353.204904 
L 133.956921 353.204429 
L 146.699986 353.203004 
L 159.443052 353.201421 
L 172.186118 353.199521 
L 184.929183 353.196355 
L 197.672249 353.193981 
L 210.415315 353.187648 
L 223.15838 353.181158 
L 235.901446 353.175776 
L 248.644512 353.170552 
L 261.387578 353.16422 
L 274.130643 353.155196 
L 286.873709 353.145065 
L 299.616775 353.136042 
L 312.35984 353.128285 
L 325.102906 353.120211 
L 337.845972 353.108655 
L 350.589037 353.09235 
L 363.332103 353.076678 
L 376.075169 353.061797 
L 388.818234 353.045175 
L 401.5613 353.030295 
L 414.304366 353.009557 
L 427.047432 352.992144 
L 439.790497 352.972356 
L 452.533563 352.953359 
L 465.276629 352.933888 
L 478.019694 352.913467 
L 490.76276 352.883864 
L 503.505826 352.849987 
L 516.248891 352.817851 
L 528.991957 352.786982 
L 541.735023 352.756588 
L 554.478089 352.72097 
L 567.221154 352.673479 
L 579.96422 352.62393 
L 592.707286 352.577072 
L 605.450351 352.518341 
L 618.193417 352.449637 
L 630.936483 352.379509 
L 643.679548 352.297349 
L 656.422614 352.198568 
L 669.16568 352.08174 
L 681.908745 351.942749 
L 694.651811 351.791886 
L 707.394877 351.615694 
L 720.137943 351.409741 
L 732.881008 351.175769 
L 745.624074 350.901903 
L 758.36714 350.596061 
L 771.110205 350.249534 
L 783.853271 349.871506 
L 796.596337 349.426989 
L 809.339402 348.921526 
L 822.082468 348.369205 
L 834.825534 347.762427 
L 847.568599 347.044521 
L 860.311665 346.22435 
L 873.054731 345.326611 
L 885.797797 344.391511 
L 898.540862 343.346866 
L 911.283928 342.191409 
L 924.026994 340.910416 
L 936.770059 339.524469 
L 949.513125 338.021218 
" clip-path="url(#p638d296061)" style="fill: none; stroke: #8085e9; stroke-linecap: square"/>
   </g>
   <g id="line2d_32">
    <path d="M 76.613125 353.11752 
L 82.984658 352.823075 
L 89.356191 352.600184 
L 95.727724 352.346582 
L 102.099256 352.134138 
L 108.470789 351.940058 
L 114.842322 351.631366 
L 121.213855 351.075721 
L 127.585388 350.232279 
L 133.956921 349.194758 
L 146.699986 348.512153 
L 159.443052 347.822424 
L 172.186118 347.103885 
L 184.929183 346.414947 
L 197.672249 345.689442 
L 210.415315 344.961088 
L 223.15838 344.288139 
L 235.901446 343.620573 
L 248.644512 342.913748 
L 261.387578 342.211038 
L 274.130643 341.512445 
L 286.873709 340.834747 
L 299.616775 340.131879 
L 312.35984 339.349227 
L 325.102906 338.637019 
L 337.845972 337.960746 
L 350.589037 337.322466 
L 363.332103 336.646985 
L 376.075169 336.047331 
L 388.818234 335.397178 
L 401.5613 334.730087 
L 414.304366 334.086583 
L 427.047432 333.479489 
L 439.790497 332.840259 
L 452.533563 332.239972 
L 465.276629 331.640002 
L 478.019694 331.005046 
L 490.76276 330.335264 
L 503.505826 329.703158 
L 516.248891 329.017387 
L 528.991957 328.334623 
L 541.735023 327.741618 
L 554.478089 327.133891 
L 567.221154 326.522681 
L 579.96422 325.864138 
L 592.707286 325.225383 
L 605.450351 324.583937 
L 618.193417 323.966553 
L 630.936483 323.333972 
L 643.679548 322.67258 
L 656.422614 321.942959 
L 669.16568 321.25418 
L 681.908745 320.619225 
L 694.651811 319.992818 
L 707.394877 319.376383 
L 720.137943 318.788761 
L 732.881008 318.179925 
L 745.624074 317.589136 
L 758.36714 316.994548 
L 771.110205 316.392361 
L 783.853271 315.757564 
L 796.596337 315.172791 
L 809.339402 314.604481 
L 822.082468 314.106616 
L 834.825534 313.549705 
L 847.568599 312.975221 
L 860.311665 312.383007 
L 873.054731 311.762932 
L 885.797797 311.175151 
L 898.540862 310.615073 
L 911.283928 310.013361 
L 924.026994 309.362101 
L 936.770059 308.736643 
L 949.513125 308.164692 
" clip-path="url(#p638d296061)" style="fill: none; stroke: #f15c80; stroke-linecap: square"/>
   </g>
   <g id="line2d_33">
    <path d="M 76.613125 353.209336 
L 82.984658 353.209019 
L 89.356191 353.208386 
L 95.727724 353.205853 
L 102.099256 353.204904 
L 108.470789 353.202371 
L 114.842322 353.200471 
L 121.213855 353.197938 
L 127.585388 353.195405 
L 133.956921 353.190973 
L 146.699986 353.183533 
L 159.443052 353.168969 
L 172.186118 353.153297 
L 184.929183 353.131134 
L 197.672249 353.104381 
L 210.415315 353.069396 
L 223.15838 353.02697 
L 235.901446 352.979321 
L 248.644512 352.93183 
L 261.387578 352.878323 
L 274.130643 352.814844 
L 286.873709 352.752789 
L 299.616775 352.690734 
L 312.35984 352.623613 
L 325.102906 352.55016 
L 337.845972 352.484306 
L 350.589037 352.40088 
L 363.332103 352.321253 
L 376.075169 352.244634 
L 388.818234 352.162791 
L 401.5613 352.082373 
L 414.304366 351.998789 
L 427.047432 351.917104 
L 439.790497 351.831462 
L 452.533563 351.747719 
L 465.276629 351.656853 
L 478.019694 351.56947 
L 490.76276 351.471321 
L 503.505826 351.370007 
L 516.248891 351.272017 
L 528.991957 351.170545 
L 541.735023 351.066697 
L 554.478089 350.959843 
L 567.221154 350.837316 
L 579.96422 350.712572 
L 592.707286 350.598752 
L 605.450351 350.465935 
L 618.193417 350.324887 
L 630.936483 350.189379 
L 643.679548 350.033292 
L 656.422614 349.861216 
L 669.16568 349.667927 
L 681.908745 349.470681 
L 694.651811 349.245415 
L 707.394877 349.004635 
L 720.137943 348.727604 
L 732.881008 348.432051 
L 745.624074 348.097556 
L 758.36714 347.732825 
L 771.110205 347.315695 
L 783.853271 346.858514 
L 796.596337 346.345294 
L 809.339402 345.779517 
L 822.082468 345.149627 
L 834.825534 344.479053 
L 847.568599 343.700991 
L 860.311665 342.822565 
L 873.054731 341.859763 
L 885.797797 340.860709 
L 898.540862 339.759549 
L 911.283928 338.541087 
L 924.026994 337.20548 
L 936.770059 335.763809 
L 949.513125 334.210377 
" clip-path="url(#p638d296061)" style="fill: none; stroke: #e4d354; stroke-linecap: square"/>
   </g>
   <g id="line2d_34">
    <path d="M 76.613125 352.616648 
L 82.984658 352.05657 
L 89.356191 351.842227 
L 95.727724 351.672209 
L 102.099256 351.526253 
L 108.470789 351.414807 
L 114.842322 351.286581 
L 121.213855 350.88544 
L 127.585388 350.364938 
L 133.956921 349.782539 
L 146.699986 349.418441 
L 159.443052 348.932607 
L 172.186118 348.358915 
L 184.929183 347.83493 
L 197.672249 347.338965 
L 210.415315 346.80849 
L 223.15838 346.228782 
L 235.901446 345.709072 
L 248.644512 345.184929 
L 261.387578 344.628808 
L 274.130643 344.073796 
L 286.873709 343.57514 
L 299.616775 343.075534 
L 312.35984 342.518305 
L 325.102906 341.975957 
L 337.845972 341.459888 
L 350.589037 340.948409 
L 363.332103 340.436772 
L 376.075169 339.941598 
L 388.818234 339.443892 
L 401.5613 338.946502 
L 414.304366 338.423942 
L 427.047432 337.921328 
L 439.790497 337.437394 
L 452.533563 336.938263 
L 465.276629 336.442457 
L 478.019694 335.945225 
L 490.76276 335.422507 
L 503.505826 334.936832 
L 516.248891 334.427569 
L 528.991957 333.925905 
L 541.735023 333.43089 
L 554.478089 332.923369 
L 567.221154 332.408249 
L 579.96422 331.893446 
L 592.707286 331.334951 
L 605.450351 330.818248 
L 618.193417 330.344445 
L 630.936483 329.831542 
L 643.679548 329.3017 
L 656.422614 328.792912 
L 669.16568 328.302804 
L 681.908745 327.80209 
L 694.651811 327.274306 
L 707.394877 326.757445 
L 720.137943 326.265279 
L 732.881008 325.803508 
L 745.624074 325.348227 
L 758.36714 324.89817 
L 771.110205 324.444314 
L 783.853271 323.954997 
L 796.596337 323.441619 
L 809.339402 322.937105 
L 822.082468 322.447947 
L 834.825534 321.969396 
L 847.568599 321.449685 
L 860.311665 320.908287 
L 873.054731 320.39665 
L 885.797797 319.887862 
L 898.540862 319.357862 
L 911.283928 318.832611 
L 924.026994 318.343453 
L 936.770059 317.872025 
L 949.513125 317.374635 
" clip-path="url(#p638d296061)" style="fill: none; stroke: #2b908f; stroke-linecap: square"/>
   </g>
   <g id="line2d_35">
    <path d="M 76.613125 353.20239 
L 82.984658 353.201468 
L 89.356191 353.201161 
L 95.727724 353.201161 
L 102.099256 353.201161 
L 108.470789 353.201161 
L 114.842322 353.201161 
L 121.213855 353.200239 
L 127.585388 353.200239 
L 133.956921 353.197935 
L 146.699986 353.197627 
L 159.443052 353.196091 
L 172.186118 353.193479 
L 184.929183 353.191482 
L 197.672249 353.188409 
L 210.415315 353.183646 
L 223.15838 353.178115 
L 235.901446 353.173659 
L 248.644512 353.167206 
L 261.387578 353.159985 
L 274.130643 353.152457 
L 286.873709 353.141548 
L 299.616775 353.132022 
L 312.35984 353.122804 
L 325.102906 353.110666 
L 337.845972 353.098682 
L 350.589037 353.090539 
L 363.332103 353.079169 
L 376.075169 353.067954 
L 388.818234 353.053511 
L 401.5613 353.040913 
L 414.304366 353.026931 
L 427.047432 353.008187 
L 439.790497 352.98975 
L 452.533563 352.978534 
L 465.276629 352.964092 
L 478.019694 352.944733 
L 490.76276 352.923684 
L 503.505826 352.90033 
L 516.248891 352.874365 
L 528.991957 352.845019 
L 541.735023 352.81045 
L 554.478089 352.781719 
L 567.221154 352.750683 
L 579.96422 352.714424 
L 592.707286 352.67586 
L 605.450351 352.628231 
L 618.193417 352.570154 
L 630.936483 352.511771 
L 643.679548 352.436332 
L 656.422614 352.35567 
L 669.16568 352.258569 
L 681.908745 352.160853 
L 694.651811 352.040705 
L 707.394877 351.892594 
L 720.137943 351.736187 
L 732.881008 351.551202 
L 745.624074 351.343786 
L 758.36714 351.106717 
L 771.110205 350.823555 
L 783.853271 350.498295 
L 796.596337 350.139696 
L 809.339402 349.739766 
L 822.082468 349.273771 
L 834.825534 348.793487 
L 847.568599 348.231619 
L 860.311665 347.577259 
L 873.054731 346.849304 
L 885.797797 346.054976 
L 898.540862 345.194736 
L 911.283928 344.249532 
L 924.026994 343.227661 
L 936.770059 342.132195 
L 949.513125 340.937784 
" clip-path="url(#p638d296061)" style="fill: none; stroke: #f45b5b; stroke-linecap: square"/>
   </g>
   <g id="line2d_36">
    <path d="M 76.613125 353.140626 
L 82.984658 352.81552 
L 89.356191 352.600729 
L 95.727724 352.328169 
L 102.099256 352.112763 
L 108.470789 351.906268 
L 114.842322 351.607282 
L 121.213855 351.046489 
L 127.585388 350.127404 
L 133.956921 349.032092 
L 146.699986 348.294458 
L 159.443052 347.582482 
L 172.186118 346.8175 
L 184.929183 346.097535 
L 197.672249 345.321644 
L 210.415315 344.562654 
L 223.15838 343.809809 
L 235.901446 343.071868 
L 248.644512 342.321789 
L 261.387578 341.589225 
L 274.130643 340.873562 
L 286.873709 340.150217 
L 299.616775 339.447306 
L 312.35984 338.611494 
L 325.102906 337.873092 
L 337.845972 337.18616 
L 350.589037 336.542247 
L 363.332103 335.867914 
L 376.075169 335.235217 
L 388.818234 334.5426 
L 401.5613 333.857051 
L 414.304366 333.22082 
L 427.047432 332.604717 
L 439.790497 331.936222 
L 452.533563 331.31766 
L 465.276629 330.71139 
L 478.019694 330.021692 
L 490.76276 329.303263 
L 503.505826 328.618328 
L 516.248891 327.887762 
L 528.991957 327.186694 
L 541.735023 326.550156 
L 554.478089 325.90271 
L 567.221154 325.252345 
L 579.96422 324.594604 
L 592.707286 323.905521 
L 605.450351 323.24901 
L 618.193417 322.595264 
L 630.936483 321.953195 
L 643.679548 321.276711 
L 656.422614 320.51096 
L 669.16568 319.790381 
L 681.908745 319.160757 
L 694.651811 318.534359 
L 707.394877 317.905196 
L 720.137943 317.325506 
L 732.881008 316.716009 
L 745.624074 316.11189 
L 758.36714 315.477964 
L 771.110205 314.833591 
L 783.853271 314.172777 
L 796.596337 313.558364 
L 809.339402 312.994345 
L 822.082468 312.440928 
L 834.825534 311.890737 
L 847.568599 311.301828 
L 860.311665 310.666366 
L 873.054731 310.04258 
L 885.797797 309.464426 
L 898.540862 308.888423 
L 911.283928 308.314571 
L 924.026994 307.629944 
L 936.770059 307.011843 
L 949.513125 306.464878 
" clip-path="url(#p638d296061)" style="fill: none; stroke: #91e8e1; stroke-linecap: square"/>
   </g>
   <g id="line2d_37">
    <path d="M 76.613125 353.20239 
L 82.984658 353.20239 
L 89.356191 353.201468 
L 95.727724 353.19901 
L 102.099256 353.198703 
L 108.470789 353.197166 
L 114.842322 353.19563 
L 121.213855 353.192557 
L 127.585388 353.191021 
L 133.956921 353.182263 
L 146.699986 353.172123 
L 159.443052 353.15599 
L 172.186118 353.135095 
L 184.929183 353.113278 
L 197.672249 353.083471 
L 210.415315 353.04798 
L 223.15838 353.007419 
L 235.901446 352.957639 
L 248.644512 352.90325 
L 261.387578 352.8421 
L 274.130643 352.778954 
L 286.873709 352.707049 
L 299.616775 352.629614 
L 312.35984 352.550796 
L 325.102906 352.469058 
L 337.845972 352.390086 
L 350.589037 352.314955 
L 363.332103 352.233218 
L 376.075169 352.156397 
L 388.818234 352.078501 
L 401.5613 352.002755 
L 414.304366 351.921325 
L 427.047432 351.832213 
L 439.790497 351.745866 
L 452.533563 351.672272 
L 465.276629 351.597602 
L 478.019694 351.511102 
L 490.76276 351.425984 
L 503.505826 351.338101 
L 516.248891 351.23808 
L 528.991957 351.134372 
L 541.735023 351.028052 
L 554.478089 350.927878 
L 567.221154 350.828779 
L 579.96422 350.720769 
L 592.707286 350.620133 
L 605.450351 350.508436 
L 618.193417 350.382757 
L 630.936483 350.262455 
L 643.679548 350.122641 
L 656.422614 349.967924 
L 669.16568 349.806139 
L 681.908745 349.648657 
L 694.651811 349.46444 
L 707.394877 349.250264 
L 720.137943 349.022874 
L 732.881008 348.77843 
L 745.624074 348.51263 
L 758.36714 348.215025 
L 771.110205 347.8638 
L 783.853271 347.470631 
L 796.596337 347.051036 
L 809.339402 346.596102 
L 822.082468 346.067882 
L 834.825534 345.529368 
L 847.568599 344.910038 
L 860.311665 344.200213 
L 873.054731 343.413414 
L 885.797797 342.557168 
L 898.540862 341.630708 
L 911.283928 340.632498 
L 924.026994 339.549324 
L 936.770059 338.395935 
L 949.513125 337.153127 
" clip-path="url(#p638d296061)" style="fill: none; stroke: #7cb5ec; stroke-linecap: square"/>
   </g>
   <g id="line2d_38">
    <path d="M 76.613125 352.609333 
L 82.984658 352.068514 
L 89.356191 351.871853 
L 95.727724 351.717904 
L 102.099256 351.569178 
L 108.470789 351.449031 
L 114.842322 351.319357 
L 121.213855 350.902681 
L 127.585388 350.402423 
L 133.956921 349.805832 
L 146.699986 349.415121 
L 159.443052 348.900268 
L 172.186118 348.287698 
L 184.929183 347.772537 
L 197.672249 347.282113 
L 210.415315 346.752202 
L 223.15838 346.152692 
L 235.901446 345.628006 
L 248.644512 345.11515 
L 261.387578 344.544678 
L 274.130643 344.012002 
L 286.873709 343.516046 
L 299.616775 343.011487 
L 312.35984 342.46022 
L 325.102906 341.947518 
L 337.845972 341.43374 
L 350.589037 340.906134 
L 363.332103 340.370692 
L 376.075169 339.8964 
L 388.818234 339.397065 
L 401.5613 338.919393 
L 414.304366 338.390558 
L 427.047432 337.883079 
L 439.790497 337.3756 
L 452.533563 336.879952 
L 465.276629 336.414725 
L 478.019694 335.924608 
L 490.76276 335.422967 
L 503.505826 334.940532 
L 516.248891 334.440889 
L 528.991957 333.947546 
L 541.735023 333.455277 
L 554.478089 332.94319 
L 567.221154 332.455223 
L 579.96422 331.93361 
L 592.707286 331.373278 
L 605.450351 330.853508 
L 618.193417 330.332202 
L 630.936483 329.815505 
L 643.679548 329.272227 
L 656.422614 328.734481 
L 669.16568 328.224852 
L 681.908745 327.715068 
L 694.651811 327.20129 
L 707.394877 326.677218 
L 720.137943 326.182799 
L 732.881008 325.716804 
L 745.624074 325.251116 
L 758.36714 324.779282 
L 771.110205 324.333567 
L 783.853271 323.870184 
L 796.596337 323.336125 
L 809.339402 322.81405 
L 822.082468 322.33054 
L 834.825534 321.84918 
L 847.568599 321.308054 
L 860.311665 320.760628 
L 873.054731 320.209362 
L 885.797797 319.691743 
L 898.540862 319.14063 
L 911.283928 318.617633 
L 924.026994 318.150562 
L 936.770059 317.679189 
L 949.513125 317.157115 
" clip-path="url(#p638d296061)" style="fill: none; stroke: #434348; stroke-linecap: square"/>
   </g>
   <g id="line2d_39">
    <path d="M 32.968125 353.2239 
L 993.158125 353.2239 
" clip-path="url(#p638d296061)" style="fill: none; stroke: #dedede; stroke-width: 2; stroke-linecap: square"/>
   </g>
   <g id="text_17">
    <!-- FastQC: Adapter Content -->
    <g transform="translate(413.765625 19.3575) scale(0.16 -0.16)">
     <defs>
      <path id="DejaVuSans-46" d="M 628 4666 
L 3309 4666 
L 3309 4134 
L 1259 4134 
L 1259 2759 
L 3109 2759 
L 3109 2228 
L 1259 2228 
L 1259 0 
L 628 0 
L 628 4666 
z
" transform="scale(0.015625)"/>
      <path id="DejaVuSans-61" d="M 2194 1759 
Q 1497 1759 1228 1600 
Q 959 1441 959 1056 
Q 959 750 1161 570 
Q 1363 391 1709 391 
Q 2188 391 2477 730 
Q 2766 1069 2766 1631 
L 2766 1759 
L 2194 1759 
z
M 3341 1997 
L 3341 0 
L 2766 0 
L 2766 531 
Q 2569 213 2275 61 
Q 1981 -91 1556 -91 
Q 1019 -91 701 211 
Q 384 513 384 1019 
Q 384 1609 779 1909 
Q 1175 2209 1959 2209 
L 2766 2209 
L 2766 2266 
Q 2766 2663 2505 2880 
Q 2244 3097 1772 3097 
Q 1472 3097 1187 3025 
Q 903 2953 641 2809 
L 641 3341 
Q 956 3463 1253 3523 
Q 1550 3584 1831 3584 
Q 2591 3584 2966 3190 
Q 3341 2797 3341 1997 
z
" transform="scale(0.015625)"/>
      <path id="DejaVuSans-51" d="M 2522 4238 
Q 1834 4238 1429 3725 
Q 1025 3213 1025 2328 
Q 1025 1447 1429 934 
Q 1834 422 2522 422 
Q 3209 422 3611 934 
Q 4013 1447 4013 2328 
Q 4013 3213 3611 3725 
Q 3209 4238 2522 4238 
z
M 3406 84 
L 4238 -825 
L 3475 -825 
L 2784 -78 
Q 2681 -84 2626 -87 
Q 2572 -91 2522 -91 
Q 1538 -91 948 567 
Q 359 1225 359 2328 
Q 359 3434 948 4092 
Q 1538 4750 2522 4750 
Q 3503 4750 4090 4092 
Q 4678 3434 4678 2328 
Q 4678 1516 4351 937 
Q 4025 359 3406 84 
z
" transform="scale(0.015625)"/>
      <path id="DejaVuSans-43" d="M 4122 4306 
L 4122 3641 
Q 3803 3938 3442 4084 
Q 3081 4231 2675 4231 
Q 1875 4231 1450 3742 
Q 1025 3253 1025 2328 
Q 1025 1406 1450 917 
Q 1875 428 2675 428 
Q 3081 428 3442 575 
Q 3803 722 4122 1019 
L 4122 359 
Q 3791 134 3420 21 
Q 3050 -91 2638 -91 
Q 1578 -91 968 557 
Q 359 1206 359 2328 
Q 359 3453 968 4101 
Q 1578 4750 2638 4750 
Q 3056 4750 3426 4639 
Q 3797 4528 4122 4306 
z
" transform="scale(0.015625)"/>
      <path id="DejaVuSans-3a" d="M 750 794 
L 1409 794 
L 1409 0 
L 750 0 
L 750 794 
z
M 750 3309 
L 1409 3309 
L 1409 2516 
L 750 2516 
L 750 3309 
z
" transform="scale(0.015625)"/>
      <path id="DejaVuSans-41" d="M 2188 4044 
L 1331 1722 
L 3047 1722 
L 2188 4044 
z
M 1831 4666 
L 2547 4666 
L 4325 0 
L 3669 0 
L 3244 1197 
L 1141 1197 
L 716 0 
L 50 0 
L 1831 4666 
z
" transform="scale(0.015625)"/>
      <path id="DejaVuSans-64" d="M 2906 2969 
L 2906 4863 
L 3481 4863 
L 3481 0 
L 2906 0 
L 2906 525 
Q 2725 213 2448 61 
Q 2172 -91 1784 -91 
Q 1150 -91 751 415 
Q 353 922 353 1747 
Q 353 2572 751 3078 
Q 1150 3584 1784 3584 
Q 2172 3584 2448 3432 
Q 2725 3281 2906 2969 
z
M 947 1747 
Q 947 1113 1208 752 
Q 1469 391 1925 391 
Q 2381 391 2643 752 
Q 2906 1113 2906 1747 
Q 2906 2381 2643 2742 
Q 2381 3103 1925 3103 
Q 1469 3103 1208 2742 
Q 947 2381 947 1747 
z
" transform="scale(0.015625)"/>
      <path id="DejaVuSans-72" d="M 2631 2963 
Q 2534 3019 2420 3045 
Q 2306 3072 2169 3072 
Q 1681 3072 1420 2755 
Q 1159 2438 1159 1844 
L 1159 0 
L 581 0 
L 581 3500 
L 1159 3500 
L 1159 2956 
Q 1341 3275 1631 3429 
Q 1922 3584 2338 3584 
Q 2397 3584 2469 3576 
Q 2541 3569 2628 3553 
L 2631 2963 
z
" transform="scale(0.015625)"/>
     </defs>
     <use xlink:href="#DejaVuSans-46"/>
     <use xlink:href="#DejaVuSans-61" x="48.394531"/>
     <use xlink:href="#DejaVuSans-73" x="109.673828"/>
     <use xlink:href="#DejaVuSans-74" x="161.773438"/>
     <use xlink:href="#DejaVuSans-51" x="200.982422"/>
     <use xlink:href="#DejaVuSans-43" x="279.693359"/>
     <use xlink:href="#DejaVuSans-3a" x="349.517578"/>
     <use xlink:href="#DejaVuSans-20" x="383.208984"/>
     <use xlink:href="#DejaVuSans-41" x="414.996094"/>
     <use xlink:href="#DejaVuSans-64" x="481.654297"/>
     <use xlink:href="#DejaVuSans-61" x="545.130859"/>
     <use xlink:href="#DejaVuSans-70" x="606.410156"/>
     <use xlink:href="#DejaVuSans-74" x="669.886719"/>
     <use xlink:href="#DejaVuSans-65" x="709.095703"/>
     <use xlink:href="#DejaVuSans-72" x="770.619141"/>
     <use xlink:href="#DejaVuSans-20" x="811.732422"/>
     <use xlink:href="#DejaVuSans-43" x="843.519531"/>
     <use xlink:href="#DejaVuSans-6f" x="913.34375"/>
     <use xlink:href="#DejaVuSans-6e" x="974.525391"/>
     <use xlink:href="#DejaVuSans-74" x="1037.904297"/>
     <use xlink:href="#DejaVuSans-65" x="1077.113281"/>
     <use xlink:href="#DejaVuSans-6e" x="1138.636719"/>
     <use xlink:href="#DejaVuSans-74" x="1202.015625"/>
    </g>
   </g>
  </g>
 </g>
 <defs>
  <clipPath id="p638d296061">
   <rect x="32.968125" y="35.2559" width="960.19" height="317.968"/>
  </clipPath>
 </defs>
</svg>
