<?xml version="1.0" encoding="utf-8" standalone="no"?>
<!DOCTYPE svg PUBLIC "-//W3C//DTD SVG 1.1//EN"
  "http://www.w3.org/Graphics/SVG/1.1/DTD/svg11.dtd">
<svg xmlns:xlink="http://www.w3.org/1999/xlink" width="1000.358125pt" height="388.844525pt" viewBox="0 0 1000.358125 388.844525" xmlns="http://www.w3.org/2000/svg" version="1.1">
 <metadata>
  <rdf:RDF xmlns:dc="http://purl.org/dc/elements/1.1/" xmlns:cc="http://creativecommons.org/ns#" xmlns:rdf="http://www.w3.org/1999/02/22-rdf-syntax-ns#">
   <cc:Work>
    <dc:type rdf:resource="http://purl.org/dc/dcmitype/StillImage"/>
    <dc:date>2024-08-21T12:01:26.192676</dc:date>
    <dc:format>image/svg+xml</dc:format>
    <dc:creator>
     <cc:Agent>
      <dc:title>Matplotlib v3.8.1, https://matplotlib.org/</dc:title>
     </cc:Agent>
    </dc:creator>
   </cc:Work>
  </rdf:RDF>
 </metadata>
 <defs>
  <style type="text/css">*{stroke-linejoin: round; stroke-linecap: butt}</style>
 </defs>
 <g id="figure_1">
  <g id="axes_1">
   <g id="patch_1">
    <path d="M 32.968125 353.2239 
L 993.158125 353.2239 
L 993.158125 35.2559 
L 32.968125 35.2559 
z
" style="fill: #ffffff"/>
   </g>
   <g id="patch_2">
    <path d="M 32.968125 -918.6481 
L 993.158125 -918.6481 
L 993.158125 -6006.1361 
L 32.968125 -6006.1361 
z
" clip-path="url(#pa9985461f5)" style="fill: #e6c3c3"/>
   </g>
   <g id="patch_3">
    <path d="M 32.968125 35.2559 
L 993.158125 35.2559 
L 993.158125 -918.6481 
L 32.968125 -918.6481 
z
" clip-path="url(#pa9985461f5)" style="fill: #e6dcc3"/>
   </g>
   <g id="patch_4">
    <path d="M 32.968125 353.2239 
L 993.158125 353.2239 
L 993.158125 35.2559 
L 32.968125 35.2559 
z
" clip-path="url(#pa9985461f5)" style="fill: #c3e6c3"/>
   </g>
   <g id="matplotlib.axis_1">
    <g id="xtick_1">
     <g id="text_1">
      <!-- 0 -->
      <g transform="translate(30.423125 366.30265) scale(0.08 -0.08)">
       <defs>
        <path id="DejaVuSans-30" d="M 2034 4250 
Q 1547 4250 1301 3770 
Q 1056 3291 1056 2328 
Q 1056 1369 1301 889 
Q 1547 409 2034 409 
Q 2525 409 2770 889 
Q 3016 1369 3016 2328 
Q 3016 3291 2770 3770 
Q 2525 4250 2034 4250 
z
M 2034 4750 
Q 2819 4750 3233 4129 
Q 3647 3509 3647 2328 
Q 3647 1150 3233 529 
Q 2819 -91 2034 -91 
Q 1250 -91 836 529 
Q 422 1150 422 2328 
Q 422 3509 836 4129 
Q 1250 4750 2034 4750 
z
" transform="scale(0.015625)"/>
       </defs>
       <use xlink:href="#DejaVuSans-30"/>
      </g>
     </g>
    </g>
    <g id="xtick_2">
     <g id="text_2">
      <!-- 20 -->
      <g transform="translate(149.845734 366.30265) scale(0.08 -0.08)">
       <defs>
        <path id="DejaVuSans-32" d="M 1228 531 
L 3431 531 
L 3431 0 
L 469 0 
L 469 531 
Q 828 903 1448 1529 
Q 2069 2156 2228 2338 
Q 2531 2678 2651 2914 
Q 2772 3150 2772 3378 
Q 2772 3750 2511 3984 
Q 2250 4219 1831 4219 
Q 1534 4219 1204 4116 
Q 875 4013 500 3803 
L 500 4441 
Q 881 4594 1212 4672 
Q 1544 4750 1819 4750 
Q 2544 4750 2975 4387 
Q 3406 4025 3406 3419 
Q 3406 3131 3298 2873 
Q 3191 2616 2906 2266 
Q 2828 2175 2409 1742 
Q 1991 1309 1228 531 
z
" transform="scale(0.015625)"/>
       </defs>
       <use xlink:href="#DejaVuSans-32"/>
       <use xlink:href="#DejaVuSans-30" x="63.623047"/>
      </g>
     </g>
    </g>
    <g id="xtick_3">
     <g id="text_3">
      <!-- 40 -->
      <g transform="translate(271.813343 366.30265) scale(0.08 -0.08)">
       <defs>
        <path id="DejaVuSans-34" d="M 2419 4116 
L 825 1625 
L 2419 1625 
L 2419 4116 
z
M 2253 4666 
L 3047 4666 
L 3047 1625 
L 3713 1625 
L 3713 1100 
L 3047 1100 
L 3047 0 
L 2419 0 
L 2419 1100 
L 313 1100 
L 313 1709 
L 2253 4666 
z
" transform="scale(0.015625)"/>
       </defs>
       <use xlink:href="#DejaVuSans-34"/>
       <use xlink:href="#DejaVuSans-30" x="63.623047"/>
      </g>
     </g>
    </g>
    <g id="xtick_4">
     <g id="text_4">
      <!-- 60 -->
      <g transform="translate(393.780951 366.30265) scale(0.08 -0.08)">
       <defs>
        <path id="DejaVuSans-36" d="M 2113 2584 
Q 1688 2584 1439 2293 
Q 1191 2003 1191 1497 
Q 1191 994 1439 701 
Q 1688 409 2113 409 
Q 2538 409 2786 701 
Q 3034 994 3034 1497 
Q 3034 2003 2786 2293 
Q 2538 2584 2113 2584 
z
M 3366 4563 
L 3366 3988 
Q 3128 4100 2886 4159 
Q 2644 4219 2406 4219 
Q 1781 4219 1451 3797 
Q 1122 3375 1075 2522 
Q 1259 2794 1537 2939 
Q 1816 3084 2150 3084 
Q 2853 3084 3261 2657 
Q 3669 2231 3669 1497 
Q 3669 778 3244 343 
Q 2819 -91 2113 -91 
Q 1303 -91 875 529 
Q 447 1150 447 2328 
Q 447 3434 972 4092 
Q 1497 4750 2381 4750 
Q 2619 4750 2861 4703 
Q 3103 4656 3366 4563 
z
" transform="scale(0.015625)"/>
       </defs>
       <use xlink:href="#DejaVuSans-36"/>
       <use xlink:href="#DejaVuSans-30" x="63.623047"/>
      </g>
     </g>
    </g>
    <g id="xtick_5">
     <g id="text_5">
      <!-- 80 -->
      <g transform="translate(515.74856 366.30265) scale(0.08 -0.08)">
       <defs>
        <path id="DejaVuSans-38" d="M 2034 2216 
Q 1584 2216 1326 1975 
Q 1069 1734 1069 1313 
Q 1069 891 1326 650 
Q 1584 409 2034 409 
Q 2484 409 2743 651 
Q 3003 894 3003 1313 
Q 3003 1734 2745 1975 
Q 2488 2216 2034 2216 
z
M 1403 2484 
Q 997 2584 770 2862 
Q 544 3141 544 3541 
Q 544 4100 942 4425 
Q 1341 4750 2034 4750 
Q 2731 4750 3128 4425 
Q 3525 4100 3525 3541 
Q 3525 3141 3298 2862 
Q 3072 2584 2669 2484 
Q 3125 2378 3379 2068 
Q 3634 1759 3634 1313 
Q 3634 634 3220 271 
Q 2806 -91 2034 -91 
Q 1263 -91 848 271 
Q 434 634 434 1313 
Q 434 1759 690 2068 
Q 947 2378 1403 2484 
z
M 1172 3481 
Q 1172 3119 1398 2916 
Q 1625 2713 2034 2713 
Q 2441 2713 2670 2916 
Q 2900 3119 2900 3481 
Q 2900 3844 2670 4047 
Q 2441 4250 2034 4250 
Q 1625 4250 1398 4047 
Q 1172 3844 1172 3481 
z
" transform="scale(0.015625)"/>
       </defs>
       <use xlink:href="#DejaVuSans-38"/>
       <use xlink:href="#DejaVuSans-30" x="63.623047"/>
      </g>
     </g>
    </g>
    <g id="xtick_6">
     <g id="text_6">
      <!-- 100 -->
      <g transform="translate(635.171169 366.30265) scale(0.08 -0.08)">
       <defs>
        <path id="DejaVuSans-31" d="M 794 531 
L 1825 531 
L 1825 4091 
L 703 3866 
L 703 4441 
L 1819 4666 
L 2450 4666 
L 2450 531 
L 3481 531 
L 3481 0 
L 794 0 
L 794 531 
z
" transform="scale(0.015625)"/>
       </defs>
       <use xlink:href="#DejaVuSans-31"/>
       <use xlink:href="#DejaVuSans-30" x="63.623047"/>
       <use xlink:href="#DejaVuSans-30" x="127.246094"/>
      </g>
     </g>
    </g>
    <g id="xtick_7">
     <g id="text_7">
      <!-- 120 -->
      <g transform="translate(757.138778 366.30265) scale(0.08 -0.08)">
       <use xlink:href="#DejaVuSans-31"/>
       <use xlink:href="#DejaVuSans-32" x="63.623047"/>
       <use xlink:href="#DejaVuSans-30" x="127.246094"/>
      </g>
     </g>
    </g>
    <g id="xtick_8">
     <g id="text_8">
      <!-- 140 -->
      <g transform="translate(879.106386 366.30265) scale(0.08 -0.08)">
       <use xlink:href="#DejaVuSans-31"/>
       <use xlink:href="#DejaVuSans-34" x="63.623047"/>
       <use xlink:href="#DejaVuSans-30" x="127.246094"/>
      </g>
     </g>
    </g>
    <g id="text_9">
     <!-- Position in Read (bp) -->
     <g transform="translate(461.46 379.564837) scale(0.1 -0.1)">
      <defs>
       <path id="DejaVuSans-50" d="M 1259 4147 
L 1259 2394 
L 2053 2394 
Q 2494 2394 2734 2622 
Q 2975 2850 2975 3272 
Q 2975 3691 2734 3919 
Q 2494 4147 2053 4147 
L 1259 4147 
z
M 628 4666 
L 2053 4666 
Q 2838 4666 3239 4311 
Q 3641 3956 3641 3272 
Q 3641 2581 3239 2228 
Q 2838 1875 2053 1875 
L 1259 1875 
L 1259 0 
L 628 0 
L 628 4666 
z
" transform="scale(0.015625)"/>
       <path id="DejaVuSans-6f" d="M 1959 3097 
Q 1497 3097 1228 2736 
Q 959 2375 959 1747 
Q 959 1119 1226 758 
Q 1494 397 1959 397 
Q 2419 397 2687 759 
Q 2956 1122 2956 1747 
Q 2956 2369 2687 2733 
Q 2419 3097 1959 3097 
z
M 1959 3584 
Q 2709 3584 3137 3096 
Q 3566 2609 3566 1747 
Q 3566 888 3137 398 
Q 2709 -91 1959 -91 
Q 1206 -91 779 398 
Q 353 888 353 1747 
Q 353 2609 779 3096 
Q 1206 3584 1959 3584 
z
" transform="scale(0.015625)"/>
       <path id="DejaVuSans-73" d="M 2834 3397 
L 2834 2853 
Q 2591 2978 2328 3040 
Q 2066 3103 1784 3103 
Q 1356 3103 1142 2972 
Q 928 2841 928 2578 
Q 928 2378 1081 2264 
Q 1234 2150 1697 2047 
L 1894 2003 
Q 2506 1872 2764 1633 
Q 3022 1394 3022 966 
Q 3022 478 2636 193 
Q 2250 -91 1575 -91 
Q 1294 -91 989 -36 
Q 684 19 347 128 
L 347 722 
Q 666 556 975 473 
Q 1284 391 1588 391 
Q 1994 391 2212 530 
Q 2431 669 2431 922 
Q 2431 1156 2273 1281 
Q 2116 1406 1581 1522 
L 1381 1569 
Q 847 1681 609 1914 
Q 372 2147 372 2553 
Q 372 3047 722 3315 
Q 1072 3584 1716 3584 
Q 2034 3584 2315 3537 
Q 2597 3491 2834 3397 
z
" transform="scale(0.015625)"/>
       <path id="DejaVuSans-69" d="M 603 3500 
L 1178 3500 
L 1178 0 
L 603 0 
L 603 3500 
z
M 603 4863 
L 1178 4863 
L 1178 4134 
L 603 4134 
L 603 4863 
z
" transform="scale(0.015625)"/>
       <path id="DejaVuSans-74" d="M 1172 4494 
L 1172 3500 
L 2356 3500 
L 2356 3053 
L 1172 3053 
L 1172 1153 
Q 1172 725 1289 603 
Q 1406 481 1766 481 
L 2356 481 
L 2356 0 
L 1766 0 
Q 1100 0 847 248 
Q 594 497 594 1153 
L 594 3053 
L 172 3053 
L 172 3500 
L 594 3500 
L 594 4494 
L 1172 4494 
z
" transform="scale(0.015625)"/>
       <path id="DejaVuSans-6e" d="M 3513 2113 
L 3513 0 
L 2938 0 
L 2938 2094 
Q 2938 2591 2744 2837 
Q 2550 3084 2163 3084 
Q 1697 3084 1428 2787 
Q 1159 2491 1159 1978 
L 1159 0 
L 581 0 
L 581 3500 
L 1159 3500 
L 1159 2956 
Q 1366 3272 1645 3428 
Q 1925 3584 2291 3584 
Q 2894 3584 3203 3211 
Q 3513 2838 3513 2113 
z
" transform="scale(0.015625)"/>
       <path id="DejaVuSans-20" transform="scale(0.015625)"/>
       <path id="DejaVuSans-52" d="M 2841 2188 
Q 3044 2119 3236 1894 
Q 3428 1669 3622 1275 
L 4263 0 
L 3584 0 
L 2988 1197 
Q 2756 1666 2539 1819 
Q 2322 1972 1947 1972 
L 1259 1972 
L 1259 0 
L 628 0 
L 628 4666 
L 2053 4666 
Q 2853 4666 3247 4331 
Q 3641 3997 3641 3322 
Q 3641 2881 3436 2590 
Q 3231 2300 2841 2188 
z
M 1259 4147 
L 1259 2491 
L 2053 2491 
Q 2509 2491 2742 2702 
Q 2975 2913 2975 3322 
Q 2975 3731 2742 3939 
Q 2509 4147 2053 4147 
L 1259 4147 
z
" transform="scale(0.015625)"/>
       <path id="DejaVuSans-65" d="M 3597 1894 
L 3597 1613 
L 953 1613 
Q 991 1019 1311 708 
Q 1631 397 2203 397 
Q 2534 397 2845 478 
Q 3156 559 3463 722 
L 3463 178 
Q 3153 47 2828 -22 
Q 2503 -91 2169 -91 
Q 1331 -91 842 396 
Q 353 884 353 1716 
Q 353 2575 817 3079 
Q 1281 3584 2069 3584 
Q 2775 3584 3186 3129 
Q 3597 2675 3597 1894 
z
M 3022 2063 
Q 3016 2534 2758 2815 
Q 2500 3097 2075 3097 
Q 1594 3097 1305 2825 
Q 1016 2553 972 2059 
L 3022 2063 
z
" transform="scale(0.015625)"/>
       <path id="DejaVuSans-61" d="M 2194 1759 
Q 1497 1759 1228 1600 
Q 959 1441 959 1056 
Q 959 750 1161 570 
Q 1363 391 1709 391 
Q 2188 391 2477 730 
Q 2766 1069 2766 1631 
L 2766 1759 
L 2194 1759 
z
M 3341 1997 
L 3341 0 
L 2766 0 
L 2766 531 
Q 2569 213 2275 61 
Q 1981 -91 1556 -91 
Q 1019 -91 701 211 
Q 384 513 384 1019 
Q 384 1609 779 1909 
Q 1175 2209 1959 2209 
L 2766 2209 
L 2766 2266 
Q 2766 2663 2505 2880 
Q 2244 3097 1772 3097 
Q 1472 3097 1187 3025 
Q 903 2953 641 2809 
L 641 3341 
Q 956 3463 1253 3523 
Q 1550 3584 1831 3584 
Q 2591 3584 2966 3190 
Q 3341 2797 3341 1997 
z
" transform="scale(0.015625)"/>
       <path id="DejaVuSans-64" d="M 2906 2969 
L 2906 4863 
L 3481 4863 
L 3481 0 
L 2906 0 
L 2906 525 
Q 2725 213 2448 61 
Q 2172 -91 1784 -91 
Q 1150 -91 751 415 
Q 353 922 353 1747 
Q 353 2572 751 3078 
Q 1150 3584 1784 3584 
Q 2172 3584 2448 3432 
Q 2725 3281 2906 2969 
z
M 947 1747 
Q 947 1113 1208 752 
Q 1469 391 1925 391 
Q 2381 391 2643 752 
Q 2906 1113 2906 1747 
Q 2906 2381 2643 2742 
Q 2381 3103 1925 3103 
Q 1469 3103 1208 2742 
Q 947 2381 947 1747 
z
" transform="scale(0.015625)"/>
       <path id="DejaVuSans-28" d="M 1984 4856 
Q 1566 4138 1362 3434 
Q 1159 2731 1159 2009 
Q 1159 1288 1364 580 
Q 1569 -128 1984 -844 
L 1484 -844 
Q 1016 -109 783 600 
Q 550 1309 550 2009 
Q 550 2706 781 3412 
Q 1013 4119 1484 4856 
L 1984 4856 
z
" transform="scale(0.015625)"/>
       <path id="DejaVuSans-62" d="M 3116 1747 
Q 3116 2381 2855 2742 
Q 2594 3103 2138 3103 
Q 1681 3103 1420 2742 
Q 1159 2381 1159 1747 
Q 1159 1113 1420 752 
Q 1681 391 2138 391 
Q 2594 391 2855 752 
Q 3116 1113 3116 1747 
z
M 1159 2969 
Q 1341 3281 1617 3432 
Q 1894 3584 2278 3584 
Q 2916 3584 3314 3078 
Q 3713 2572 3713 1747 
Q 3713 922 3314 415 
Q 2916 -91 2278 -91 
Q 1894 -91 1617 61 
Q 1341 213 1159 525 
L 1159 0 
L 581 0 
L 581 4863 
L 1159 4863 
L 1159 2969 
z
" transform="scale(0.015625)"/>
       <path id="DejaVuSans-70" d="M 1159 525 
L 1159 -1331 
L 581 -1331 
L 581 3500 
L 1159 3500 
L 1159 2969 
Q 1341 3281 1617 3432 
Q 1894 3584 2278 3584 
Q 2916 3584 3314 3078 
Q 3713 2572 3713 1747 
Q 3713 922 3314 415 
Q 2916 -91 2278 -91 
Q 1894 -91 1617 61 
Q 1341 213 1159 525 
z
M 3116 1747 
Q 3116 2381 2855 2742 
Q 2594 3103 2138 3103 
Q 1681 3103 1420 2742 
Q 1159 2381 1159 1747 
Q 1159 1113 1420 752 
Q 1681 391 2138 391 
Q 2594 391 2855 752 
Q 3116 1113 3116 1747 
z
" transform="scale(0.015625)"/>
       <path id="DejaVuSans-29" d="M 513 4856 
L 1013 4856 
Q 1481 4119 1714 3412 
Q 1947 2706 1947 2009 
Q 1947 1309 1714 600 
Q 1481 -109 1013 -844 
L 513 -844 
Q 928 -128 1133 580 
Q 1338 1288 1338 2009 
Q 1338 2731 1133 3434 
Q 928 4138 513 4856 
z
" transform="scale(0.015625)"/>
      </defs>
      <use xlink:href="#DejaVuSans-50"/>
      <use xlink:href="#DejaVuSans-6f" x="56.677734"/>
      <use xlink:href="#DejaVuSans-73" x="117.859375"/>
      <use xlink:href="#DejaVuSans-69" x="169.958984"/>
      <use xlink:href="#DejaVuSans-74" x="197.742188"/>
      <use xlink:href="#DejaVuSans-69" x="236.951172"/>
      <use xlink:href="#DejaVuSans-6f" x="264.734375"/>
      <use xlink:href="#DejaVuSans-6e" x="325.916016"/>
      <use xlink:href="#DejaVuSans-20" x="389.294922"/>
      <use xlink:href="#DejaVuSans-69" x="421.082031"/>
      <use xlink:href="#DejaVuSans-6e" x="448.865234"/>
      <use xlink:href="#DejaVuSans-20" x="512.244141"/>
      <use xlink:href="#DejaVuSans-52" x="544.03125"/>
      <use xlink:href="#DejaVuSans-65" x="609.013672"/>
      <use xlink:href="#DejaVuSans-61" x="670.537109"/>
      <use xlink:href="#DejaVuSans-64" x="731.816406"/>
      <use xlink:href="#DejaVuSans-20" x="795.292969"/>
      <use xlink:href="#DejaVuSans-28" x="827.080078"/>
      <use xlink:href="#DejaVuSans-62" x="866.09375"/>
      <use xlink:href="#DejaVuSans-70" x="929.570312"/>
      <use xlink:href="#DejaVuSans-29" x="993.046875"/>
     </g>
    </g>
   </g>
   <g id="matplotlib.axis_2">
    <g id="ytick_1">
     <g id="line2d_1">
      <path d="M 32.968125 353.2239 
L 993.158125 353.2239 
" clip-path="url(#pa9985461f5)" style="fill: none; stroke: #dedede; stroke-linecap: square"/>
     </g>
     <g id="text_10">
      <!-- 0 -->
      <g transform="translate(20.878125 356.263275) scale(0.08 -0.08)">
       <use xlink:href="#DejaVuSans-30"/>
      </g>
     </g>
    </g>
    <g id="ytick_2">
     <g id="line2d_2">
      <path d="M 32.968125 289.6303 
L 993.158125 289.6303 
" clip-path="url(#pa9985461f5)" style="fill: none; stroke: #dedede; stroke-linecap: square"/>
     </g>
     <g id="text_11">
      <!-- 1 -->
      <g transform="translate(20.878125 292.669675) scale(0.08 -0.08)">
       <use xlink:href="#DejaVuSans-31"/>
      </g>
     </g>
    </g>
    <g id="ytick_3">
     <g id="line2d_3">
      <path d="M 32.968125 226.0367 
L 993.158125 226.0367 
" clip-path="url(#pa9985461f5)" style="fill: none; stroke: #dedede; stroke-linecap: square"/>
     </g>
     <g id="text_12">
      <!-- 2 -->
      <g transform="translate(20.878125 229.076075) scale(0.08 -0.08)">
       <use xlink:href="#DejaVuSans-32"/>
      </g>
     </g>
    </g>
    <g id="ytick_4">
     <g id="line2d_4">
      <path d="M 32.968125 162.4431 
L 993.158125 162.4431 
" clip-path="url(#pa9985461f5)" style="fill: none; stroke: #dedede; stroke-linecap: square"/>
     </g>
     <g id="text_13">
      <!-- 3 -->
      <g transform="translate(20.878125 165.482475) scale(0.08 -0.08)">
       <defs>
        <path id="DejaVuSans-33" d="M 2597 2516 
Q 3050 2419 3304 2112 
Q 3559 1806 3559 1356 
Q 3559 666 3084 287 
Q 2609 -91 1734 -91 
Q 1441 -91 1130 -33 
Q 819 25 488 141 
L 488 750 
Q 750 597 1062 519 
Q 1375 441 1716 441 
Q 2309 441 2620 675 
Q 2931 909 2931 1356 
Q 2931 1769 2642 2001 
Q 2353 2234 1838 2234 
L 1294 2234 
L 1294 2753 
L 1863 2753 
Q 2328 2753 2575 2939 
Q 2822 3125 2822 3475 
Q 2822 3834 2567 4026 
Q 2313 4219 1838 4219 
Q 1578 4219 1281 4162 
Q 984 4106 628 3988 
L 628 4550 
Q 988 4650 1302 4700 
Q 1616 4750 1894 4750 
Q 2613 4750 3031 4423 
Q 3450 4097 3450 3541 
Q 3450 3153 3228 2886 
Q 3006 2619 2597 2516 
z
" transform="scale(0.015625)"/>
       </defs>
       <use xlink:href="#DejaVuSans-33"/>
      </g>
     </g>
    </g>
    <g id="ytick_5">
     <g id="line2d_5">
      <path d="M 32.968125 98.8495 
L 993.158125 98.8495 
" clip-path="url(#pa9985461f5)" style="fill: none; stroke: #dedede; stroke-linecap: square"/>
     </g>
     <g id="text_14">
      <!-- 4 -->
      <g transform="translate(20.878125 101.888875) scale(0.08 -0.08)">
       <use xlink:href="#DejaVuSans-34"/>
      </g>
     </g>
    </g>
    <g id="ytick_6">
     <g id="line2d_6">
      <path d="M 32.968125 35.2559 
L 993.158125 35.2559 
" clip-path="url(#pa9985461f5)" style="fill: none; stroke: #dedede; stroke-linecap: square"/>
     </g>
     <g id="text_15">
      <!-- 5 -->
      <g transform="translate(20.878125 38.295275) scale(0.08 -0.08)">
       <defs>
        <path id="DejaVuSans-35" d="M 691 4666 
L 3169 4666 
L 3169 4134 
L 1269 4134 
L 1269 2991 
Q 1406 3038 1543 3061 
Q 1681 3084 1819 3084 
Q 2600 3084 3056 2656 
Q 3513 2228 3513 1497 
Q 3513 744 3044 326 
Q 2575 -91 1722 -91 
Q 1428 -91 1123 -41 
Q 819 9 494 109 
L 494 744 
Q 775 591 1075 516 
Q 1375 441 1709 441 
Q 2250 441 2565 725 
Q 2881 1009 2881 1497 
Q 2881 1984 2565 2268 
Q 2250 2553 1709 2553 
Q 1456 2553 1204 2497 
Q 953 2441 691 2322 
L 691 4666 
z
" transform="scale(0.015625)"/>
       </defs>
       <use xlink:href="#DejaVuSans-35"/>
      </g>
     </g>
    </g>
    <g id="text_16">
     <!-- Percentage N-Count -->
     <g transform="translate(14.798438 244.344588) rotate(-90) scale(0.1 -0.1)">
      <defs>
       <path id="DejaVuSans-72" d="M 2631 2963 
Q 2534 3019 2420 3045 
Q 2306 3072 2169 3072 
Q 1681 3072 1420 2755 
Q 1159 2438 1159 1844 
L 1159 0 
L 581 0 
L 581 3500 
L 1159 3500 
L 1159 2956 
Q 1341 3275 1631 3429 
Q 1922 3584 2338 3584 
Q 2397 3584 2469 3576 
Q 2541 3569 2628 3553 
L 2631 2963 
z
" transform="scale(0.015625)"/>
       <path id="DejaVuSans-63" d="M 3122 3366 
L 3122 2828 
Q 2878 2963 2633 3030 
Q 2388 3097 2138 3097 
Q 1578 3097 1268 2742 
Q 959 2388 959 1747 
Q 959 1106 1268 751 
Q 1578 397 2138 397 
Q 2388 397 2633 464 
Q 2878 531 3122 666 
L 3122 134 
Q 2881 22 2623 -34 
Q 2366 -91 2075 -91 
Q 1284 -91 818 406 
Q 353 903 353 1747 
Q 353 2603 823 3093 
Q 1294 3584 2113 3584 
Q 2378 3584 2631 3529 
Q 2884 3475 3122 3366 
z
" transform="scale(0.015625)"/>
       <path id="DejaVuSans-67" d="M 2906 1791 
Q 2906 2416 2648 2759 
Q 2391 3103 1925 3103 
Q 1463 3103 1205 2759 
Q 947 2416 947 1791 
Q 947 1169 1205 825 
Q 1463 481 1925 481 
Q 2391 481 2648 825 
Q 2906 1169 2906 1791 
z
M 3481 434 
Q 3481 -459 3084 -895 
Q 2688 -1331 1869 -1331 
Q 1566 -1331 1297 -1286 
Q 1028 -1241 775 -1147 
L 775 -588 
Q 1028 -725 1275 -790 
Q 1522 -856 1778 -856 
Q 2344 -856 2625 -561 
Q 2906 -266 2906 331 
L 2906 616 
Q 2728 306 2450 153 
Q 2172 0 1784 0 
Q 1141 0 747 490 
Q 353 981 353 1791 
Q 353 2603 747 3093 
Q 1141 3584 1784 3584 
Q 2172 3584 2450 3431 
Q 2728 3278 2906 2969 
L 2906 3500 
L 3481 3500 
L 3481 434 
z
" transform="scale(0.015625)"/>
       <path id="DejaVuSans-4e" d="M 628 4666 
L 1478 4666 
L 3547 763 
L 3547 4666 
L 4159 4666 
L 4159 0 
L 3309 0 
L 1241 3903 
L 1241 0 
L 628 0 
L 628 4666 
z
" transform="scale(0.015625)"/>
       <path id="DejaVuSans-2d" d="M 313 2009 
L 1997 2009 
L 1997 1497 
L 313 1497 
L 313 2009 
z
" transform="scale(0.015625)"/>
       <path id="DejaVuSans-43" d="M 4122 4306 
L 4122 3641 
Q 3803 3938 3442 4084 
Q 3081 4231 2675 4231 
Q 1875 4231 1450 3742 
Q 1025 3253 1025 2328 
Q 1025 1406 1450 917 
Q 1875 428 2675 428 
Q 3081 428 3442 575 
Q 3803 722 4122 1019 
L 4122 359 
Q 3791 134 3420 21 
Q 3050 -91 2638 -91 
Q 1578 -91 968 557 
Q 359 1206 359 2328 
Q 359 3453 968 4101 
Q 1578 4750 2638 4750 
Q 3056 4750 3426 4639 
Q 3797 4528 4122 4306 
z
" transform="scale(0.015625)"/>
       <path id="DejaVuSans-75" d="M 544 1381 
L 544 3500 
L 1119 3500 
L 1119 1403 
Q 1119 906 1312 657 
Q 1506 409 1894 409 
Q 2359 409 2629 706 
Q 2900 1003 2900 1516 
L 2900 3500 
L 3475 3500 
L 3475 0 
L 2900 0 
L 2900 538 
Q 2691 219 2414 64 
Q 2138 -91 1772 -91 
Q 1169 -91 856 284 
Q 544 659 544 1381 
z
M 1991 3584 
L 1991 3584 
z
" transform="scale(0.015625)"/>
      </defs>
      <use xlink:href="#DejaVuSans-50"/>
      <use xlink:href="#DejaVuSans-65" x="56.677734"/>
      <use xlink:href="#DejaVuSans-72" x="118.201172"/>
      <use xlink:href="#DejaVuSans-63" x="157.064453"/>
      <use xlink:href="#DejaVuSans-65" x="212.044922"/>
      <use xlink:href="#DejaVuSans-6e" x="273.568359"/>
      <use xlink:href="#DejaVuSans-74" x="336.947266"/>
      <use xlink:href="#DejaVuSans-61" x="376.15625"/>
      <use xlink:href="#DejaVuSans-67" x="437.435547"/>
      <use xlink:href="#DejaVuSans-65" x="500.912109"/>
      <use xlink:href="#DejaVuSans-20" x="562.435547"/>
      <use xlink:href="#DejaVuSans-4e" x="594.222656"/>
      <use xlink:href="#DejaVuSans-2d" x="669.027344"/>
      <use xlink:href="#DejaVuSans-43" x="705.111328"/>
      <use xlink:href="#DejaVuSans-6f" x="774.935547"/>
      <use xlink:href="#DejaVuSans-75" x="836.117188"/>
      <use xlink:href="#DejaVuSans-6e" x="899.496094"/>
      <use xlink:href="#DejaVuSans-74" x="962.875"/>
     </g>
    </g>
   </g>
   <g id="line2d_7">
    <path d="M 39.066505 352.798401 
L 45.164886 353.203495 
L 51.263266 352.734786 
L 57.361647 352.676573 
L 63.460027 353.206196 
L 69.558408 353.2239 
L 75.656788 353.221499 
L 81.755169 353.2239 
L 87.853549 353.218199 
L 106.14869 353.22282 
L 136.640592 353.219399 
L 167.132495 353.219819 
L 197.624397 353.215378 
L 228.116299 353.213338 
L 258.608201 353.188912 
L 289.100103 353.207456 
L 319.592006 353.147442 
L 350.083908 353.143241 
L 380.57581 353.196834 
L 411.067712 353.176069 
L 441.559614 353.186271 
L 472.051517 353.190172 
L 502.543419 353.18195 
L 533.035321 353.193773 
L 563.527223 353.192273 
L 594.019125 353.203555 
L 624.511028 353.195033 
L 655.00293 353.200014 
L 685.494832 353.13796 
L 715.986734 353.154104 
L 746.478636 353.210397 
L 776.970538 353.192513 
L 807.462441 353.171208 
L 837.954343 353.205656 
L 868.446245 353.204455 
L 898.938147 353.200855 
L 929.430049 353.200134 
L 947.725191 353.207396 
" clip-path="url(#pa9985461f5)" style="fill: none; stroke: #5cb85c; stroke-linecap: square"/>
   </g>
   <g id="line2d_8">
    <path d="M 39.066505 352.797761 
L 45.164886 353.203465 
L 51.263266 352.735252 
L 57.361647 352.677252 
L 63.460027 353.206169 
L 69.558408 353.2239 
L 75.656788 353.221496 
L 81.755169 353.2239 
L 87.853549 353.21819 
L 106.14869 353.222818 
L 136.640592 353.219392 
L 167.132495 353.219933 
L 197.624397 353.215425 
L 228.116299 353.213562 
L 258.608201 353.189037 
L 289.100103 353.20773 
L 319.592006 353.148035 
L 350.083908 353.144243 
L 380.57581 353.197507 
L 411.067712 353.177122 
L 441.559614 353.187521 
L 472.051517 353.191186 
L 502.543419 353.183065 
L 533.035321 353.19485 
L 563.527223 353.193463 
L 594.019125 353.204408 
L 624.511028 353.196161 
L 655.00293 353.201271 
L 685.494832 353.139926 
L 715.986734 353.155979 
L 746.478636 353.211853 
L 776.970538 353.194192 
L 807.462441 353.173073 
L 837.954343 353.207186 
L 868.446245 353.205959 
L 898.938147 353.202953 
L 929.430049 353.202269 
L 947.725191 353.2239 
" clip-path="url(#pa9985461f5)" style="fill: none; stroke: #5cb85c; stroke-linecap: square"/>
   </g>
   <g id="line2d_9">
    <path d="M 39.066505 336.232155 
L 45.164886 353.171388 
L 51.263266 353.175889 
L 57.361647 353.09487 
L 63.460027 353.134779 
L 69.558408 353.185491 
L 75.656788 353.17949 
L 81.755169 353.221499 
L 87.853549 353.015652 
L 106.14869 353.188852 
L 136.640592 353.156504 
L 167.132495 353.13874 
L 197.624397 353.079446 
L 228.116299 353.134659 
L 258.608201 353.127458 
L 289.100103 353.211537 
L 319.592006 353.067444 
L 350.083908 353.206016 
L 380.57581 353.207996 
L 411.067712 353.13904 
L 441.559614 353.141201 
L 472.051517 353.213278 
L 502.543419 353.157705 
L 533.035321 353.071045 
L 563.527223 353.141621 
L 594.019125 353.124337 
L 624.511028 353.069244 
L 655.00293 353.13712 
L 685.494832 353.129678 
L 715.986734 353.117975 
L 746.478636 353.071345 
L 776.970538 353.088329 
L 807.462441 353.088569 
L 837.954343 353.168747 
L 868.446245 353.163106 
L 898.938147 353.158245 
L 929.430049 353.145702 
L 947.725191 353.153084 
" clip-path="url(#pa9985461f5)" style="fill: none; stroke: #5cb85c; stroke-linecap: square"/>
   </g>
   <g id="line2d_10">
    <path d="M 39.066505 336.220707 
L 45.164886 353.171309 
L 51.263266 353.176117 
L 57.361647 353.095577 
L 63.460027 353.135847 
L 69.558408 353.185734 
L 75.656788 353.179723 
L 81.755169 353.221796 
L 87.853549 353.017141 
L 106.14869 353.1891 
L 136.640592 353.156944 
L 167.132495 353.139685 
L 197.624397 353.082484 
L 228.116299 353.137657 
L 258.608201 353.130956 
L 289.100103 353.214152 
L 319.592006 353.070826 
L 350.083908 353.208666 
L 380.57581 353.211432 
L 411.067712 353.143881 
L 441.559614 353.145239 
L 472.051517 353.216604 
L 502.543419 353.16292 
L 533.035321 353.080418 
L 563.527223 353.151104 
L 594.019125 353.13567 
L 624.511028 353.080579 
L 655.00293 353.14875 
L 685.494832 353.144282 
L 715.986734 353.139132 
L 746.478636 353.095534 
L 776.970538 353.111886 
L 807.462441 353.115604 
L 837.954343 353.189737 
L 868.446245 353.185537 
L 898.938147 353.18721 
L 929.430049 353.181579 
L 947.725191 353.2239 
" clip-path="url(#pa9985461f5)" style="fill: none; stroke: #5cb85c; stroke-linecap: square"/>
   </g>
   <g id="line2d_11">
    <path d="M 39.066505 353.203619 
L 45.164886 353.18804 
L 51.263266 353.2239 
L 57.361647 352.327999 
L 63.460027 353.198622 
L 69.558408 353.2239 
L 75.656788 353.219785 
L 81.755169 353.2239 
L 87.853549 353.211555 
L 106.14869 353.2239 
L 136.640592 353.221019 
L 167.132495 353.218786 
L 197.624397 353.216199 
L 228.116299 353.222665 
L 258.608201 353.178106 
L 289.100103 353.201032 
L 319.592006 353.207028 
L 350.083908 353.205911 
L 380.57581 353.212084 
L 411.067712 353.179046 
L 441.559614 353.201326 
L 472.051517 353.190745 
L 502.543419 353.203148 
L 533.035321 353.198034 
L 563.527223 353.205794 
L 594.019125 353.200209 
L 624.511028 353.203501 
L 655.00293 353.206617 
L 685.494832 353.093865 
L 715.986734 353.128608 
L 746.478636 353.218315 
L 776.970538 353.210085 
L 807.462441 353.159764 
L 837.954343 353.209321 
L 868.446245 353.210732 
L 898.938147 353.206793 
L 929.430049 353.1968 
L 947.725191 353.2239 
" clip-path="url(#pa9985461f5)" style="fill: none; stroke: #5cb85c; stroke-linecap: square"/>
   </g>
   <g id="line2d_12">
    <path d="M 39.066505 353.203594 
L 45.164886 353.187997 
L 51.263266 353.2239 
L 57.361647 352.328682 
L 63.460027 353.198591 
L 69.558408 353.2239 
L 75.656788 353.21978 
L 81.755169 353.2239 
L 87.853549 353.21154 
L 106.14869 353.2239 
L 136.640592 353.221016 
L 167.132495 353.218779 
L 197.624397 353.216248 
L 228.116299 353.222664 
L 258.608201 353.178223 
L 289.100103 353.201061 
L 319.592006 353.207123 
L 350.083908 353.205945 
L 380.57581 353.212066 
L 411.067712 353.179153 
L 441.559614 353.201407 
L 472.051517 353.190747 
L 502.543419 353.203112 
L 533.035321 353.198104 
L 563.527223 353.205876 
L 594.019125 353.200159 
L 624.511028 353.203455 
L 655.00293 353.206692 
L 685.494832 353.095341 
L 715.986734 353.128972 
L 746.478636 353.218297 
L 776.970538 353.210269 
L 807.462441 353.160196 
L 837.954343 353.209483 
L 868.446245 353.210945 
L 898.938147 353.206999 
L 929.430049 353.196016 
L 947.725191 353.2239 
" clip-path="url(#pa9985461f5)" style="fill: none; stroke: #5cb85c; stroke-linecap: square"/>
   </g>
   <g id="line2d_13">
    <path d="M 39.066505 342.657965 
L 45.164886 353.174814 
L 51.263266 353.219197 
L 57.361647 353.158059 
L 63.460027 353.215964 
L 69.558408 353.154238 
L 75.656788 353.219197 
L 81.755169 353.2239 
L 87.853549 353.162175 
L 106.14869 353.214259 
L 136.640592 353.183867 
L 167.132495 353.212613 
L 197.624397 353.208028 
L 228.116299 353.214729 
L 258.608201 353.214083 
L 289.100103 353.215023 
L 319.592006 353.200679 
L 350.083908 353.216023 
L 380.57581 353.217198 
L 411.067712 353.220255 
L 441.559614 353.220608 
L 472.051517 353.221255 
L 502.543419 353.217845 
L 533.035321 353.213789 
L 563.527223 353.209556 
L 594.019125 353.190392 
L 624.511028 353.205265 
L 655.00293 353.220079 
L 685.494832 353.213318 
L 715.986734 353.219373 
L 746.478636 353.207028 
L 776.970538 353.21226 
L 807.462441 353.212143 
L 837.954343 353.221666 
L 868.446245 353.218844 
L 898.938147 353.188158 
L 929.430049 353.176048 
L 947.725191 353.2239 
" clip-path="url(#pa9985461f5)" style="fill: none; stroke: #5cb85c; stroke-linecap: square"/>
   </g>
   <g id="line2d_14">
    <path d="M 39.066505 342.655204 
L 45.164886 353.174754 
L 51.263266 353.219486 
L 57.361647 353.15798 
L 63.460027 353.216249 
L 69.558408 353.154154 
L 75.656788 353.219486 
L 81.755169 353.2239 
L 87.853549 353.162394 
L 106.14869 353.214306 
L 136.640592 353.183995 
L 167.132495 353.212716 
L 197.624397 353.208121 
L 228.116299 353.214772 
L 258.608201 353.214121 
L 289.100103 353.215003 
L 319.592006 353.200795 
L 350.083908 353.216117 
L 380.57581 353.217176 
L 411.067712 353.220301 
L 441.559614 353.220654 
L 472.051517 353.221243 
L 502.543419 353.217876 
L 533.035321 353.213916 
L 563.527223 353.209597 
L 594.019125 353.190669 
L 624.511028 353.205382 
L 655.00293 353.220111 
L 685.494832 353.213415 
L 715.986734 353.219453 
L 746.478636 353.207223 
L 776.970538 353.212313 
L 807.462441 353.212235 
L 837.954343 353.221633 
L 868.446245 353.218993 
L 898.938147 353.193475 
L 929.430049 353.185926 
L 947.725191 353.2239 
" clip-path="url(#pa9985461f5)" style="fill: none; stroke: #5cb85c; stroke-linecap: square"/>
   </g>
   <g id="line2d_15">
    <path d="M 39.066505 353.102052 
L 45.164886 353.192231 
L 51.263266 353.2239 
L 57.361647 352.51362 
L 63.460027 353.202184 
L 69.558408 353.2239 
L 75.656788 353.222392 
L 81.755169 353.2239 
L 87.853549 353.216058 
L 106.14869 353.223116 
L 136.640592 353.21823 
L 167.132495 353.218411 
L 197.624397 353.217506 
L 228.116299 353.222271 
L 258.608201 353.18065 
L 289.100103 353.206286 
L 319.592006 353.151213 
L 350.083908 353.157909 
L 380.57581 353.206769 
L 411.067712 353.181072 
L 441.559614 353.202908 
L 472.051517 353.1938 
L 502.543419 353.203753 
L 533.035321 353.200978 
L 563.527223 353.207191 
L 594.019125 353.200013 
L 624.511028 353.203934 
L 655.00293 353.205804 
L 685.494832 353.114236 
L 715.986734 353.143673 
L 746.478636 353.217627 
L 776.970538 353.209725 
L 807.462441 353.17124 
L 837.954343 353.21081 
L 868.446245 353.209242 
L 898.938147 353.206769 
L 929.430049 353.198022 
L 947.725191 353.2239 
" clip-path="url(#pa9985461f5)" style="fill: none; stroke: #5cb85c; stroke-linecap: square"/>
   </g>
   <g id="line2d_16">
    <path d="M 39.066505 353.101923 
L 45.164886 353.1925 
L 51.263266 353.2239 
L 57.361647 352.513173 
L 63.460027 353.202162 
L 69.558408 353.2239 
L 75.656788 353.22239 
L 81.755169 353.2239 
L 87.853549 353.21605 
L 106.14869 353.223115 
L 136.640592 353.218224 
L 167.132495 353.218465 
L 197.624397 353.217499 
L 228.116299 353.22233 
L 258.608201 353.180722 
L 289.100103 353.206326 
L 319.592006 353.151547 
L 350.083908 353.158127 
L 380.57581 353.206806 
L 411.067712 353.181435 
L 441.559614 353.203119 
L 472.051517 353.193874 
L 502.543419 353.204083 
L 533.035321 353.201181 
L 563.527223 353.207403 
L 594.019125 353.200209 
L 624.511028 353.204255 
L 655.00293 353.205884 
L 685.494832 353.114872 
L 715.986734 353.144119 
L 746.478636 353.21791 
L 776.970538 353.209857 
L 807.462441 353.172422 
L 837.954343 353.211112 
L 868.446245 353.20946 
L 898.938147 353.207237 
L 929.430049 353.197729 
L 947.725191 353.2239 
" clip-path="url(#pa9985461f5)" style="fill: none; stroke: #5cb85c; stroke-linecap: square"/>
   </g>
   <g id="line2d_17">
    <path d="M 39.066505 337.074454 
L 45.164886 353.153023 
L 51.263266 353.171119 
L 57.361647 353.166595 
L 63.460027 353.134022 
L 69.558408 353.1675 
L 75.656788 353.170817 
L 81.755169 353.2239 
L 87.853549 352.997093 
L 106.14869 353.188733 
L 136.640592 353.153324 
L 167.132495 353.145241 
L 197.624397 353.097105 
L 228.116299 353.148318 
L 258.608201 353.139933 
L 289.100103 353.215455 
L 319.592006 353.089384 
L 350.083908 353.216239 
L 380.57581 353.2163 
L 411.067712 353.157245 
L 441.559614 353.158934 
L 472.051517 353.221306 
L 502.543419 353.172446 
L 533.035321 353.107179 
L 563.527223 353.16195 
L 594.019125 353.1488 
L 624.511028 353.094994 
L 655.00293 353.166293 
L 685.494832 353.151273 
L 715.986734 353.154591 
L 746.478636 353.109954 
L 776.970538 353.139933 
L 807.462441 353.133177 
L 837.954343 353.212982 
L 868.446245 353.197841 
L 898.938147 353.195971 
L 929.430049 353.186682 
L 947.725191 353.2239 
" clip-path="url(#pa9985461f5)" style="fill: none; stroke: #5cb85c; stroke-linecap: square"/>
   </g>
   <g id="line2d_18">
    <path d="M 39.066505 337.0704 
L 45.164886 353.15325 
L 51.263266 353.171365 
L 57.361647 353.166836 
L 63.460027 353.134531 
L 69.558408 353.16744 
L 75.656788 353.171063 
L 81.755169 353.2239 
L 87.853549 352.998363 
L 106.14869 353.188937 
L 136.640592 353.153612 
L 167.132495 353.145514 
L 197.624397 353.097416 
L 228.116299 353.1485 
L 258.608201 353.140202 
L 289.100103 353.215498 
L 319.592006 353.089728 
L 350.083908 353.21634 
L 380.57581 353.216398 
L 411.067712 353.157508 
L 441.559614 353.159242 
L 472.051517 353.221417 
L 502.543419 353.172952 
L 533.035321 353.108883 
L 563.527223 353.163217 
L 594.019125 353.150393 
L 624.511028 353.098717 
L 655.00293 353.168406 
L 685.494832 353.155429 
L 715.986734 353.158903 
L 746.478636 353.115146 
L 776.970538 353.144632 
L 807.462441 353.138533 
L 837.954343 353.21375 
L 868.446245 353.200222 
L 898.938147 353.198962 
L 929.430049 353.19259 
L 947.725191 353.2239 
" clip-path="url(#pa9985461f5)" style="fill: none; stroke: #5cb85c; stroke-linecap: square"/>
   </g>
   <g id="line2d_19">
    <path d="M 39.066505 352.699338 
L 45.164886 353.20648 
L 51.263266 353.2239 
L 57.361647 352.548477 
L 63.460027 353.205823 
L 69.558408 353.2239 
L 75.656788 353.222585 
L 81.755169 353.2239 
L 87.853549 353.213382 
L 106.14869 353.221928 
L 136.640592 353.220087 
L 167.132495 353.220153 
L 197.624397 353.217327 
L 228.116299 353.222848 
L 258.608201 353.18814 
L 289.100103 353.207006 
L 319.592006 353.134895 
L 350.083908 353.134041 
L 380.57581 353.208913 
L 411.067712 353.182882 
L 441.559614 353.204377 
L 472.051517 353.197672 
L 502.543419 353.192742 
L 533.035321 353.194582 
L 563.527223 353.200564 
L 594.019125 353.206678 
L 624.511028 353.200433 
L 655.00293 353.207598 
L 685.494832 353.122471 
L 715.986734 353.151198 
L 746.478636 353.220022 
L 776.970538 353.211936 
L 807.462441 353.175388 
L 837.954343 353.212396 
L 868.446245 353.21049 
L 898.938147 353.203588 
L 929.430049 353.200104 
L 947.725191 353.2239 
" clip-path="url(#pa9985461f5)" style="fill: none; stroke: #5cb85c; stroke-linecap: square"/>
   </g>
   <g id="line2d_20">
    <path d="M 39.066505 352.698788 
L 45.164886 353.206791 
L 51.263266 353.2239 
L 57.361647 352.548756 
L 63.460027 353.205804 
L 69.558408 353.2239 
L 75.656788 353.222584 
L 81.755169 353.2239 
L 87.853549 353.213371 
L 106.14869 353.221926 
L 136.640592 353.220083 
L 167.132495 353.220215 
L 197.624397 353.21732 
L 228.116299 353.222847 
L 258.608201 353.188166 
L 289.100103 353.207118 
L 319.592006 353.135313 
L 350.083908 353.134453 
L 380.57581 353.209024 
L 411.067712 353.183087 
L 441.559614 353.204546 
L 472.051517 353.197961 
L 502.543419 353.192889 
L 533.035321 353.194927 
L 563.527223 353.200654 
L 594.019125 353.206776 
L 624.511028 353.200779 
L 655.00293 353.207692 
L 685.494832 353.123929 
L 715.986734 353.151785 
L 746.478636 353.220207 
L 776.970538 353.212092 
L 807.462441 353.176113 
L 837.954343 353.212473 
L 868.446245 353.210674 
L 898.938147 353.203948 
L 929.430049 353.199772 
L 947.725191 353.2239 
" clip-path="url(#pa9985461f5)" style="fill: none; stroke: #5cb85c; stroke-linecap: square"/>
   </g>
   <g id="line2d_21">
    <path d="M 39.066505 331.101244 
L 45.164886 353.161123 
L 51.263266 353.161781 
L 57.361647 353.092102 
L 63.460027 353.114781 
L 69.558408 353.173942 
L 75.656788 353.164081 
L 81.755169 353.2239 
L 87.853549 352.955703 
L 106.14869 353.182487 
L 136.640592 353.139037 
L 167.132495 353.12142 
L 197.624397 353.049769 
L 228.116299 353.123523 
L 258.608201 353.111822 
L 289.100103 353.215815 
L 319.592006 353.043524 
L 350.083908 353.215552 
L 380.57581 353.218313 
L 411.067712 353.131346 
L 441.559614 353.132134 
L 472.051517 353.221928 
L 502.543419 353.154024 
L 533.035321 353.059892 
L 563.527223 353.137788 
L 594.019125 353.124509 
L 624.511028 353.047994 
L 655.00293 353.142126 
L 685.494832 353.130162 
L 715.986734 353.1322 
L 746.478636 353.064756 
L 776.970538 353.098281 
L 807.462441 353.099333 
L 837.954343 353.203785 
L 868.446245 353.191361 
L 898.938147 353.186497 
L 929.430049 353.189389 
L 947.725191 353.2239 
" clip-path="url(#pa9985461f5)" style="fill: none; stroke: #5cb85c; stroke-linecap: square"/>
   </g>
   <g id="line2d_22">
    <path d="M 39.066505 331.098445 
L 45.164886 353.161058 
L 51.263266 353.162045 
L 57.361647 353.091964 
L 63.460027 353.115324 
L 69.558408 353.173889 
L 75.656788 353.164348 
L 81.755169 353.2239 
L 87.853549 352.957725 
L 106.14869 353.182707 
L 136.640592 353.139342 
L 167.132495 353.121962 
L 197.624397 353.05059 
L 228.116299 353.124026 
L 258.608201 353.11228 
L 289.100103 353.21593 
L 319.592006 353.04442 
L 350.083908 353.215727 
L 380.57581 353.218428 
L 411.067712 353.132692 
L 441.559614 353.133586 
L 472.051517 353.221986 
L 502.543419 353.155644 
L 533.035321 353.06331 
L 563.527223 353.139876 
L 594.019125 353.127018 
L 624.511028 353.052982 
L 655.00293 353.14471 
L 685.494832 353.134728 
L 715.986734 353.137243 
L 746.478636 353.070983 
L 776.970538 353.103604 
L 807.462441 353.105819 
L 837.954343 353.204646 
L 868.446245 353.193692 
L 898.938147 353.191087 
L 929.430049 353.196759 
L 947.725191 353.2239 
" clip-path="url(#pa9985461f5)" style="fill: none; stroke: #5cb85c; stroke-linecap: square"/>
   </g>
   <g id="line2d_23">
    <path d="M 39.066505 352.708344 
L 45.164886 353.204586 
L 51.263266 352.715197 
L 57.361647 352.622989 
L 63.460027 353.205521 
L 69.558408 353.2239 
L 75.656788 353.221408 
L 81.755169 353.2239 
L 87.853549 353.217358 
L 106.14869 353.222779 
L 136.640592 353.220411 
L 167.132495 353.220785 
L 197.624397 353.217109 
L 228.116299 353.216735 
L 258.608201 353.188387 
L 289.100103 353.211128 
L 319.592006 353.147704 
L 350.083908 353.142283 
L 380.57581 353.199041 
L 411.067712 353.183465 
L 441.559614 353.201035 
L 472.051517 353.18901 
L 502.543419 353.19306 
L 533.035321 353.201222 
L 563.527223 353.200163 
L 594.019125 353.202842 
L 624.511028 353.197172 
L 655.00293 353.202032 
L 685.494832 353.128265 
L 715.986734 353.147018 
L 746.478636 353.212935 
L 776.970538 353.191627 
L 807.462441 353.171192 
L 837.954343 353.207141 
L 868.446245 353.207826 
L 898.938147 353.200474 
L 929.430049 353.201346 
L 947.725191 353.204898 
" clip-path="url(#pa9985461f5)" style="fill: none; stroke: #5cb85c; stroke-linecap: square"/>
   </g>
   <g id="line2d_24">
    <path d="M 39.066505 352.708889 
L 45.164886 353.204548 
L 51.263266 352.715131 
L 57.361647 352.625239 
L 63.460027 353.205797 
L 69.558408 353.2239 
L 75.656788 353.221403 
L 81.755169 353.2239 
L 87.853549 353.217345 
L 106.14869 353.222776 
L 136.640592 353.220404 
L 167.132495 353.220779 
L 197.624397 353.217095 
L 228.116299 353.216783 
L 258.608201 353.188439 
L 289.100103 353.211163 
L 319.592006 353.148038 
L 350.083908 353.142976 
L 380.57581 353.199609 
L 411.067712 353.184681 
L 441.559614 353.201978 
L 472.051517 353.190358 
L 502.543419 353.193978 
L 533.035321 353.202284 
L 563.527223 353.201344 
L 594.019125 353.203715 
L 624.511028 353.198585 
L 655.00293 353.20308 
L 685.494832 353.130336 
L 715.986734 353.148944 
L 746.478636 353.214448 
L 776.970538 353.193395 
L 807.462441 353.173561 
L 837.954343 353.208839 
L 868.446245 353.209132 
L 898.938147 353.202416 
L 929.430049 353.202241 
L 947.725191 353.2239 
" clip-path="url(#pa9985461f5)" style="fill: none; stroke: #5cb85c; stroke-linecap: square"/>
   </g>
   <g id="line2d_25">
    <path d="M 39.066505 334.509979 
L 45.164886 353.155678 
L 51.263266 353.171254 
L 57.361647 353.10459 
L 63.460027 353.133872 
L 69.558408 353.177173 
L 75.656788 353.172189 
L 81.755169 353.2239 
L 87.853549 353.003659 
L 106.14869 353.185833 
L 136.640592 353.151006 
L 167.132495 353.133623 
L 197.624397 353.068392 
L 228.116299 353.128826 
L 258.608201 353.122782 
L 289.100103 353.208324 
L 319.592006 353.056804 
L 350.083908 353.205957 
L 380.57581 353.209882 
L 411.067712 353.14247 
L 441.559614 353.143405 
L 472.051517 353.215427 
L 502.543419 353.160102 
L 533.035321 353.076304 
L 563.527223 353.148389 
L 594.019125 353.136551 
L 624.511028 353.073376 
L 655.00293 353.15113 
L 685.494832 353.139729 
L 715.986734 353.14085 
L 746.478636 353.088267 
L 776.970538 353.106771 
L 807.462441 353.113499 
L 837.954343 353.195988 
L 868.446245 353.187204 
L 898.938147 353.190755 
L 929.430049 353.180226 
L 947.725191 353.219227 
" clip-path="url(#pa9985461f5)" style="fill: none; stroke: #5cb85c; stroke-linecap: square"/>
   </g>
   <g id="line2d_26">
    <path d="M 39.066505 334.504339 
L 45.164886 353.155544 
L 51.263266 353.171463 
L 57.361647 353.105916 
L 63.460027 353.134319 
L 69.558408 353.177081 
L 75.656788 353.172711 
L 81.755169 353.2239 
L 87.853549 353.004474 
L 106.14869 353.186133 
L 136.640592 353.151486 
L 167.132495 353.134375 
L 197.624397 353.070604 
L 228.116299 353.130841 
L 258.608201 353.12501 
L 289.100103 353.210028 
L 319.592006 353.059269 
L 350.083908 353.20777 
L 380.57581 353.211643 
L 411.067712 353.145454 
L 441.559614 353.146054 
L 472.051517 353.217578 
L 502.543419 353.163163 
L 533.035321 353.081968 
L 563.527223 353.151967 
L 594.019125 353.14084 
L 624.511028 353.079832 
L 655.00293 353.155243 
L 685.494832 353.145398 
L 715.986734 353.147091 
L 746.478636 353.095986 
L 776.970538 353.114408 
L 807.462441 353.121866 
L 837.954343 353.197657 
L 868.446245 353.191674 
L 898.938147 353.196847 
L 929.430049 353.188144 
L 947.725191 353.2239 
" clip-path="url(#pa9985461f5)" style="fill: none; stroke: #5cb85c; stroke-linecap: square"/>
   </g>
   <g id="line2d_27">
    <path d="M 39.066505 352.713816 
L 45.164886 353.192634 
L 51.263266 353.2239 
L 57.361647 352.492869 
L 63.460027 353.207523 
L 69.558408 353.2239 
L 75.656788 353.221518 
L 81.755169 353.2239 
L 87.853549 353.215562 
L 106.14869 353.222411 
L 136.640592 353.217051 
L 167.132495 353.219017 
L 197.624397 353.217825 
L 228.116299 353.222709 
L 258.608201 353.182391 
L 289.100103 353.205438 
L 319.592006 353.127064 
L 350.083908 353.126171 
L 380.57581 353.205915 
L 411.067712 353.17715 
L 441.559614 353.20252 
L 472.051517 353.193825 
L 502.543419 353.190609 
L 533.035321 353.193229 
L 563.527223 353.200555 
L 594.019125 353.203771 
L 624.511028 353.19716 
L 655.00293 353.207939 
L 685.494832 353.11962 
L 715.986734 353.144871 
L 746.478636 353.219553 
L 776.970538 353.209428 
L 807.462441 353.171373 
L 837.954343 353.211334 
L 868.446245 353.210202 
L 898.938147 353.203711 
L 929.430049 353.196684 
L 947.725191 353.2239 
" clip-path="url(#pa9985461f5)" style="fill: none; stroke: #5cb85c; stroke-linecap: square"/>
   </g>
   <g id="line2d_28">
    <path d="M 39.066505 352.71394 
L 45.164886 353.192903 
L 51.263266 353.2239 
L 57.361647 352.49398 
L 63.460027 353.207507 
L 69.558408 353.2239 
L 75.656788 353.221516 
L 81.755169 353.2239 
L 87.853549 353.215555 
L 106.14869 353.22241 
L 136.640592 353.217105 
L 167.132495 353.219072 
L 197.624397 353.21782 
L 228.116299 353.222708 
L 258.608201 353.182408 
L 289.100103 353.205478 
L 319.592006 353.127793 
L 350.083908 353.126774 
L 380.57581 353.206191 
L 411.067712 353.177448 
L 441.559614 353.20261 
L 472.051517 353.19408 
L 502.543419 353.190737 
L 533.035321 353.19324 
L 563.527223 353.200634 
L 594.019125 353.203852 
L 624.511028 353.197344 
L 655.00293 353.207963 
L 685.494832 353.119895 
L 715.986734 353.144826 
L 746.478636 353.219658 
L 776.970538 353.209613 
L 807.462441 353.172217 
L 837.954343 353.211387 
L 868.446245 353.210291 
L 898.938147 353.203764 
L 929.430049 353.196014 
L 947.725191 353.2239 
" clip-path="url(#pa9985461f5)" style="fill: none; stroke: #5cb85c; stroke-linecap: square"/>
   </g>
   <g id="line2d_29">
    <path d="M 39.066505 331.089583 
L 45.164886 353.149755 
L 51.263266 353.156306 
L 57.361647 353.094071 
L 63.460027 353.11164 
L 69.558408 353.16375 
L 75.656788 353.160177 
L 81.755169 353.2239 
L 87.853549 352.927914 
L 106.14869 353.180842 
L 136.640592 353.13171 
L 167.132495 353.112712 
L 197.624397 353.034874 
L 228.116299 353.114439 
L 258.608201 353.10354 
L 289.100103 353.215086 
L 319.592006 353.027787 
L 350.083908 353.215801 
L 380.57581 353.216992 
L 411.067712 353.124087 
L 441.559614 353.12504 
L 472.051517 353.22122 
L 502.543419 353.148087 
L 533.035321 353.04613 
L 563.527223 353.131055 
L 594.019125 353.115511 
L 624.511028 353.033981 
L 655.00293 353.135164 
L 685.494832 353.122419 
L 715.986734 353.123789 
L 746.478636 353.050775 
L 776.970538 353.089724 
L 807.462441 353.090141 
L 837.954343 353.204128 
L 868.446245 353.189537 
L 898.938147 353.185606 
L 929.430049 353.184118 
L 947.725191 353.2239 
" clip-path="url(#pa9985461f5)" style="fill: none; stroke: #5cb85c; stroke-linecap: square"/>
   </g>
   <g id="line2d_30">
    <path d="M 39.066505 331.08637 
L 45.164886 353.150282 
L 51.263266 353.157137 
L 57.361647 353.093951 
L 63.460027 353.112728 
L 69.558408 353.163992 
L 75.656788 353.16131 
L 81.755169 353.2239 
L 87.853549 352.930024 
L 106.14869 353.18116 
L 136.640592 353.132101 
L 167.132495 353.113376 
L 197.624397 353.036144 
L 228.116299 353.115066 
L 258.608201 353.104247 
L 289.100103 353.21519 
L 319.592006 353.028882 
L 350.083908 353.215902 
L 380.57581 353.217093 
L 411.067712 353.125477 
L 441.559614 353.126882 
L 472.051517 353.221211 
L 502.543419 353.14978 
L 533.035321 353.050327 
L 563.527223 353.133225 
L 594.019125 353.118169 
L 624.511028 353.039933 
L 655.00293 353.138366 
L 685.494832 353.128242 
L 715.986734 353.12943 
L 746.478636 353.05886 
L 776.970538 353.096597 
L 807.462441 353.098453 
L 837.954343 353.205141 
L 868.446245 353.192075 
L 898.938147 353.190852 
L 929.430049 353.193137 
L 947.725191 353.2239 
" clip-path="url(#pa9985461f5)" style="fill: none; stroke: #5cb85c; stroke-linecap: square"/>
   </g>
   <g id="line2d_31">
    <path d="M 39.066505 349.730141 
L 45.164886 353.2239 
L 51.263266 352.09013 
L 57.361647 353.2239 
L 63.460027 353.2239 
L 69.558408 353.2239 
L 75.656788 353.2239 
L 81.755169 353.2239 
L 87.853549 353.2239 
L 106.14869 353.2239 
L 136.640592 353.221114 
L 167.132495 353.223583 
L 197.624397 353.216111 
L 228.116299 353.210666 
L 258.608201 353.201358 
L 289.100103 353.216238 
L 319.592006 353.208323 
L 350.083908 353.204144 
L 380.57581 353.217125 
L 411.067712 353.221051 
L 441.559614 353.217758 
L 472.051517 353.204904 
L 502.543419 353.212755 
L 533.035321 353.205917 
L 563.527223 353.216808 
L 594.019125 353.216808 
L 624.511028 353.212565 
L 655.00293 353.218328 
L 685.494832 353.211679 
L 715.986734 353.219088 
L 746.478636 353.220354 
L 776.970538 353.185147 
L 807.462441 353.214022 
L 837.954343 353.18616 
L 868.446245 353.162985 
L 898.938147 353.200028 
L 929.430049 353.201738 
L 947.725191 353.2239 
" clip-path="url(#pa9985461f5)" style="fill: none; stroke: #5cb85c; stroke-linecap: square"/>
   </g>
   <g id="line2d_32">
    <path d="M 39.066505 349.716777 
L 45.164886 353.2239 
L 51.263266 352.086902 
L 57.361647 353.2239 
L 63.460027 353.2239 
L 69.558408 353.2239 
L 75.656788 353.2239 
L 81.755169 353.2239 
L 87.853549 353.2239 
L 106.14869 353.2239 
L 136.640592 353.221099 
L 167.132495 353.223582 
L 197.624397 353.216133 
L 228.116299 353.210912 
L 258.608201 353.201617 
L 289.100103 353.21626 
L 319.592006 353.208491 
L 350.083908 353.204478 
L 380.57581 353.217341 
L 411.067712 353.221098 
L 441.559614 353.217849 
L 472.051517 353.205173 
L 502.543419 353.212943 
L 533.035321 353.206125 
L 563.527223 353.217018 
L 594.019125 353.21689 
L 624.511028 353.212553 
L 655.00293 353.218353 
L 685.494832 353.211845 
L 715.986734 353.219114 
L 746.478636 353.220453 
L 776.970538 353.185317 
L 807.462441 353.214183 
L 837.954343 353.186591 
L 868.446245 353.162825 
L 898.938147 353.200062 
L 929.430049 353.201503 
L 947.725191 353.2239 
" clip-path="url(#pa9985461f5)" style="fill: none; stroke: #5cb85c; stroke-linecap: square"/>
   </g>
   <g id="line2d_33">
    <path d="M 39.066505 349.571837 
L 45.164886 353.127968 
L 51.263266 353.026021 
L 57.361647 353.2239 
L 63.460027 353.171027 
L 69.558408 353.2239 
L 75.656788 353.041851 
L 81.755169 353.217884 
L 87.853549 352.385524 
L 106.14869 353.160009 
L 136.640592 353.210666 
L 167.132495 353.165708 
L 197.624397 353.20693 
L 228.116299 353.178245 
L 258.608201 353.184831 
L 289.100103 353.175586 
L 319.592006 353.216935 
L 350.083908 353.176789 
L 380.57581 353.217378 
L 411.067712 353.181728 
L 441.559614 353.179828 
L 472.051517 353.174319 
L 502.543419 353.141709 
L 533.035321 353.204334 
L 563.527223 353.192746 
L 594.019125 353.167354 
L 624.511028 353.144178 
L 655.00293 353.123472 
L 685.494832 353.15412 
L 715.986734 353.126638 
L 746.478636 353.112264 
L 776.970538 353.122206 
L 807.462441 353.15431 
L 837.954343 353.154246 
L 868.446245 353.185464 
L 898.938147 353.122459 
L 929.430049 353.157413 
L 947.725191 353.074461 
" clip-path="url(#pa9985461f5)" style="fill: none; stroke: #5cb85c; stroke-linecap: square"/>
   </g>
   <g id="line2d_34">
    <path d="M 39.066505 349.558578 
L 45.164886 353.129044 
L 51.263266 353.025275 
L 57.361647 353.2239 
L 63.460027 353.171697 
L 69.558408 353.2239 
L 75.656788 353.042146 
L 81.755169 353.217852 
L 87.853549 352.387067 
L 106.14869 353.159984 
L 136.640592 353.210786 
L 167.132495 353.165763 
L 197.624397 353.207079 
L 228.116299 353.178509 
L 258.608201 353.184988 
L 289.100103 353.17539 
L 319.592006 353.217002 
L 350.083908 353.177248 
L 380.57581 353.217442 
L 411.067712 353.18212 
L 441.559614 353.180048 
L 472.051517 353.175094 
L 502.543419 353.141878 
L 533.035321 353.204859 
L 563.527223 353.194326 
L 594.019125 353.169526 
L 624.511028 353.146865 
L 655.00293 353.127563 
L 685.494832 353.159005 
L 715.986734 353.130044 
L 746.478636 353.119575 
L 776.970538 353.13006 
L 807.462441 353.160512 
L 837.954343 353.159619 
L 868.446245 353.192055 
L 898.938147 353.1332 
L 929.430049 353.171492 
L 947.725191 353.2239 
" clip-path="url(#pa9985461f5)" style="fill: none; stroke: #5cb85c; stroke-linecap: square"/>
   </g>
   <g id="line2d_35">
    <path d="M 39.066505 351.195829 
L 45.164886 353.2239 
L 51.263266 352.344147 
L 57.361647 353.2239 
L 63.460027 353.2239 
L 69.558408 353.2239 
L 75.656788 353.2239 
L 81.755169 353.2239 
L 87.853549 353.2239 
L 106.14869 353.2239 
L 136.640592 353.222056 
L 167.132495 353.223654 
L 197.624397 353.212408 
L 228.116299 353.21671 
L 258.608201 353.211609 
L 289.100103 353.216771 
L 319.592006 353.21548 
L 350.083908 353.208167 
L 380.57581 353.216034 
L 411.067712 353.219844 
L 441.559614 353.215173 
L 472.051517 353.208229 
L 502.543419 353.212531 
L 533.035321 353.207307 
L 563.527223 353.216771 
L 594.019125 353.212469 
L 624.511028 353.206508 
L 655.00293 353.215665 
L 685.494832 353.216341 
L 715.986734 353.217017 
L 746.478636 353.216955 
L 776.970538 353.181679 
L 807.462441 353.20534 
L 837.954343 353.182785 
L 868.446245 353.155314 
L 898.938147 353.217816 
L 929.430049 353.213883 
L 947.725191 353.2239 
" clip-path="url(#pa9985461f5)" style="fill: none; stroke: #5cb85c; stroke-linecap: square"/>
   </g>
   <g id="line2d_36">
    <path d="M 39.066505 351.190898 
L 45.164886 353.2239 
L 51.263266 352.342521 
L 57.361647 353.2239 
L 63.460027 353.2239 
L 69.558408 353.2239 
L 75.656788 353.2239 
L 81.755169 353.2239 
L 87.853549 353.2239 
L 106.14869 353.2239 
L 136.640592 353.222049 
L 167.132495 353.223653 
L 197.624397 353.212362 
L 228.116299 353.216804 
L 258.608201 353.211806 
L 289.100103 353.216742 
L 319.592006 353.215569 
L 350.083908 353.20841 
L 380.57581 353.216185 
L 411.067712 353.21995 
L 441.559614 353.21532 
L 472.051517 353.208467 
L 502.543419 353.212788 
L 533.035321 353.207724 
L 563.527223 353.217046 
L 594.019125 353.21266 
L 624.511028 353.206543 
L 655.00293 353.215744 
L 685.494832 353.216484 
L 715.986734 353.2171 
L 746.478636 353.217282 
L 776.970538 353.182069 
L 807.462441 353.205323 
L 837.954343 353.182933 
L 868.446245 353.155263 
L 898.938147 353.218176 
L 929.430049 353.214664 
L 947.725191 353.2239 
" clip-path="url(#pa9985461f5)" style="fill: none; stroke: #5cb85c; stroke-linecap: square"/>
   </g>
   <g id="line2d_37">
    <path d="M 39.066505 351.097806 
L 45.164886 353.169818 
L 51.263266 353.097914 
L 57.361647 353.2239 
L 63.460027 353.135402 
L 69.558408 353.2239 
L 75.656788 353.122496 
L 81.755169 353.218676 
L 87.853549 351.825453 
L 106.14869 353.150336 
L 136.640592 353.205217 
L 167.132495 353.163181 
L 197.624397 353.199502 
L 228.116299 353.194708 
L 258.608201 353.166192 
L 289.100103 353.155683 
L 319.592006 353.217754 
L 350.083908 353.187948 
L 380.57581 353.21671 
L 411.067712 353.202513 
L 441.559614 353.179528 
L 472.051517 353.17455 
L 502.543419 353.102523 
L 533.035321 353.189116 
L 563.527223 353.192373 
L 594.019125 353.148861 
L 624.511028 353.129072 
L 655.00293 353.122374 
L 685.494832 353.142962 
L 715.986734 353.095087 
L 746.478636 353.095394 
L 776.970538 353.115183 
L 807.462441 353.153532 
L 837.954343 353.144191 
L 868.446245 353.194892 
L 898.938147 353.101724 
L 929.430049 353.150828 
L 947.725191 353.065956 
" clip-path="url(#pa9985461f5)" style="fill: none; stroke: #5cb85c; stroke-linecap: square"/>
   </g>
   <g id="line2d_38">
    <path d="M 39.066505 351.092796 
L 45.164886 353.170221 
L 51.263266 353.098341 
L 57.361647 353.2239 
L 63.460027 353.135361 
L 69.558408 353.2239 
L 75.656788 353.12333 
L 81.755169 353.218656 
L 87.853549 351.824862 
L 106.14869 353.150231 
L 136.640592 353.205143 
L 167.132495 353.163115 
L 197.624397 353.199513 
L 228.116299 353.194931 
L 258.608201 353.166244 
L 289.100103 353.155828 
L 319.592006 353.217962 
L 350.083908 353.188562 
L 380.57581 353.216717 
L 411.067712 353.203209 
L 441.559614 353.180328 
L 472.051517 353.174728 
L 502.543419 353.103741 
L 533.035321 353.189705 
L 563.527223 353.19366 
L 594.019125 353.151326 
L 624.511028 353.131683 
L 655.00293 353.12569 
L 685.494832 353.147519 
L 715.986734 353.097145 
L 746.478636 353.101202 
L 776.970538 353.121759 
L 807.462441 353.157535 
L 837.954343 353.148282 
L 868.446245 353.199072 
L 898.938147 353.112884 
L 929.430049 353.165568 
L 947.725191 353.2239 
" clip-path="url(#pa9985461f5)" style="fill: none; stroke: #5cb85c; stroke-linecap: square"/>
   </g>
   <g id="line2d_39">
    <path d="M 32.968125 353.2239 
L 993.158125 353.2239 
" clip-path="url(#pa9985461f5)" style="fill: none; stroke: #dedede; stroke-width: 2; stroke-linecap: square"/>
   </g>
   <g id="text_17">
    <!-- FastQC: Per Base N Content -->
    <g transform="translate(402.209375 19.3575) scale(0.16 -0.16)">
     <defs>
      <path id="DejaVuSans-46" d="M 628 4666 
L 3309 4666 
L 3309 4134 
L 1259 4134 
L 1259 2759 
L 3109 2759 
L 3109 2228 
L 1259 2228 
L 1259 0 
L 628 0 
L 628 4666 
z
" transform="scale(0.015625)"/>
      <path id="DejaVuSans-51" d="M 2522 4238 
Q 1834 4238 1429 3725 
Q 1025 3213 1025 2328 
Q 1025 1447 1429 934 
Q 1834 422 2522 422 
Q 3209 422 3611 934 
Q 4013 1447 4013 2328 
Q 4013 3213 3611 3725 
Q 3209 4238 2522 4238 
z
M 3406 84 
L 4238 -825 
L 3475 -825 
L 2784 -78 
Q 2681 -84 2626 -87 
Q 2572 -91 2522 -91 
Q 1538 -91 948 567 
Q 359 1225 359 2328 
Q 359 3434 948 4092 
Q 1538 4750 2522 4750 
Q 3503 4750 4090 4092 
Q 4678 3434 4678 2328 
Q 4678 1516 4351 937 
Q 4025 359 3406 84 
z
" transform="scale(0.015625)"/>
      <path id="DejaVuSans-3a" d="M 750 794 
L 1409 794 
L 1409 0 
L 750 0 
L 750 794 
z
M 750 3309 
L 1409 3309 
L 1409 2516 
L 750 2516 
L 750 3309 
z
" transform="scale(0.015625)"/>
      <path id="DejaVuSans-42" d="M 1259 2228 
L 1259 519 
L 2272 519 
Q 2781 519 3026 730 
Q 3272 941 3272 1375 
Q 3272 1813 3026 2020 
Q 2781 2228 2272 2228 
L 1259 2228 
z
M 1259 4147 
L 1259 2741 
L 2194 2741 
Q 2656 2741 2882 2914 
Q 3109 3088 3109 3444 
Q 3109 3797 2882 3972 
Q 2656 4147 2194 4147 
L 1259 4147 
z
M 628 4666 
L 2241 4666 
Q 2963 4666 3353 4366 
Q 3744 4066 3744 3513 
Q 3744 3084 3544 2831 
Q 3344 2578 2956 2516 
Q 3422 2416 3680 2098 
Q 3938 1781 3938 1306 
Q 3938 681 3513 340 
Q 3088 0 2303 0 
L 628 0 
L 628 4666 
z
" transform="scale(0.015625)"/>
     </defs>
     <use xlink:href="#DejaVuSans-46"/>
     <use xlink:href="#DejaVuSans-61" x="48.394531"/>
     <use xlink:href="#DejaVuSans-73" x="109.673828"/>
     <use xlink:href="#DejaVuSans-74" x="161.773438"/>
     <use xlink:href="#DejaVuSans-51" x="200.982422"/>
     <use xlink:href="#DejaVuSans-43" x="279.693359"/>
     <use xlink:href="#DejaVuSans-3a" x="349.517578"/>
     <use xlink:href="#DejaVuSans-20" x="383.208984"/>
     <use xlink:href="#DejaVuSans-50" x="414.996094"/>
     <use xlink:href="#DejaVuSans-65" x="471.673828"/>
     <use xlink:href="#DejaVuSans-72" x="533.197266"/>
     <use xlink:href="#DejaVuSans-20" x="574.310547"/>
     <use xlink:href="#DejaVuSans-42" x="606.097656"/>
     <use xlink:href="#DejaVuSans-61" x="674.701172"/>
     <use xlink:href="#DejaVuSans-73" x="735.980469"/>
     <use xlink:href="#DejaVuSans-65" x="788.080078"/>
     <use xlink:href="#DejaVuSans-20" x="849.603516"/>
     <use xlink:href="#DejaVuSans-4e" x="881.390625"/>
     <use xlink:href="#DejaVuSans-20" x="956.195312"/>
     <use xlink:href="#DejaVuSans-43" x="987.982422"/>
     <use xlink:href="#DejaVuSans-6f" x="1057.806641"/>
     <use xlink:href="#DejaVuSans-6e" x="1118.988281"/>
     <use xlink:href="#DejaVuSans-74" x="1182.367188"/>
     <use xlink:href="#DejaVuSans-65" x="1221.576172"/>
     <use xlink:href="#DejaVuSans-6e" x="1283.099609"/>
     <use xlink:href="#DejaVuSans-74" x="1346.478516"/>
    </g>
   </g>
  </g>
 </g>
 <defs>
  <clipPath id="pa9985461f5">
   <rect x="32.968125" y="35.2559" width="960.19" height="317.968"/>
  </clipPath>
 </defs>
</svg>
