<?xml version="1.0" encoding="utf-8" standalone="no"?>
<!DOCTYPE svg PUBLIC "-//W3C//DTD SVG 1.1//EN"
  "http://www.w3.org/Graphics/SVG/1.1/DTD/svg11.dtd">
<svg xmlns:xlink="http://www.w3.org/1999/xlink" width="1000.198125pt" height="388.844525pt" viewBox="0 0 1000.198125 388.844525" xmlns="http://www.w3.org/2000/svg" version="1.1">
 <metadata>
  <rdf:RDF xmlns:dc="http://purl.org/dc/elements/1.1/" xmlns:cc="http://creativecommons.org/ns#" xmlns:rdf="http://www.w3.org/1999/02/22-rdf-syntax-ns#">
   <cc:Work>
    <dc:type rdf:resource="http://purl.org/dc/dcmitype/StillImage"/>
    <dc:date>2024-08-21T12:01:23.044118</dc:date>
    <dc:format>image/svg+xml</dc:format>
    <dc:creator>
     <cc:Agent>
      <dc:title>Matplotlib v3.8.1, https://matplotlib.org/</dc:title>
     </cc:Agent>
    </dc:creator>
   </cc:Work>
  </rdf:RDF>
 </metadata>
 <defs>
  <style type="text/css">*{stroke-linejoin: round; stroke-linecap: butt}</style>
 </defs>
 <g id="figure_1">
  <g id="axes_1">
   <g id="patch_1">
    <path d="M 53.328125 353.2239 
L 992.998125 353.2239 
L 992.998125 35.2559 
L 53.328125 35.2559 
z
" style="fill: #ffffff"/>
   </g>
   <g id="matplotlib.axis_1">
    <g id="xtick_1">
     <g id="text_1">
      <!-- 0 -->
      <g transform="translate(87.762207 366.30265) scale(0.08 -0.08)">
       <defs>
        <path id="DejaVuSans-30" d="M 2034 4250 
Q 1547 4250 1301 3770 
Q 1056 3291 1056 2328 
Q 1056 1369 1301 889 
Q 1547 409 2034 409 
Q 2525 409 2770 889 
Q 3016 1369 3016 2328 
Q 3016 3291 2770 3770 
Q 2525 4250 2034 4250 
z
M 2034 4750 
Q 2819 4750 3233 4129 
Q 3647 3509 3647 2328 
Q 3647 1150 3233 529 
Q 2819 -91 2034 -91 
Q 1250 -91 836 529 
Q 422 1150 422 2328 
Q 422 3509 836 4129 
Q 1250 4750 2034 4750 
z
" transform="scale(0.015625)"/>
       </defs>
       <use xlink:href="#DejaVuSans-30"/>
      </g>
     </g>
    </g>
    <g id="xtick_2">
     <g id="text_2">
      <!-- 20 -->
      <g transform="translate(199.881026 366.30265) scale(0.08 -0.08)">
       <defs>
        <path id="DejaVuSans-32" d="M 1228 531 
L 3431 531 
L 3431 0 
L 469 0 
L 469 531 
Q 828 903 1448 1529 
Q 2069 2156 2228 2338 
Q 2531 2678 2651 2914 
Q 2772 3150 2772 3378 
Q 2772 3750 2511 3984 
Q 2250 4219 1831 4219 
Q 1534 4219 1204 4116 
Q 875 4013 500 3803 
L 500 4441 
Q 881 4594 1212 4672 
Q 1544 4750 1819 4750 
Q 2544 4750 2975 4387 
Q 3406 4025 3406 3419 
Q 3406 3131 3298 2873 
Q 3191 2616 2906 2266 
Q 2828 2175 2409 1742 
Q 1991 1309 1228 531 
z
" transform="scale(0.015625)"/>
       </defs>
       <use xlink:href="#DejaVuSans-32"/>
       <use xlink:href="#DejaVuSans-30" x="63.623047"/>
      </g>
     </g>
    </g>
    <g id="xtick_3">
     <g id="text_3">
      <!-- 40 -->
      <g transform="translate(314.544846 366.30265) scale(0.08 -0.08)">
       <defs>
        <path id="DejaVuSans-34" d="M 2419 4116 
L 825 1625 
L 2419 1625 
L 2419 4116 
z
M 2253 4666 
L 3047 4666 
L 3047 1625 
L 3713 1625 
L 3713 1100 
L 3047 1100 
L 3047 0 
L 2419 0 
L 2419 1100 
L 313 1100 
L 313 1709 
L 2253 4666 
z
" transform="scale(0.015625)"/>
       </defs>
       <use xlink:href="#DejaVuSans-34"/>
       <use xlink:href="#DejaVuSans-30" x="63.623047"/>
      </g>
     </g>
    </g>
    <g id="xtick_4">
     <g id="text_4">
      <!-- 60 -->
      <g transform="translate(429.208665 366.30265) scale(0.08 -0.08)">
       <defs>
        <path id="DejaVuSans-36" d="M 2113 2584 
Q 1688 2584 1439 2293 
Q 1191 2003 1191 1497 
Q 1191 994 1439 701 
Q 1688 409 2113 409 
Q 2538 409 2786 701 
Q 3034 994 3034 1497 
Q 3034 2003 2786 2293 
Q 2538 2584 2113 2584 
z
M 3366 4563 
L 3366 3988 
Q 3128 4100 2886 4159 
Q 2644 4219 2406 4219 
Q 1781 4219 1451 3797 
Q 1122 3375 1075 2522 
Q 1259 2794 1537 2939 
Q 1816 3084 2150 3084 
Q 2853 3084 3261 2657 
Q 3669 2231 3669 1497 
Q 3669 778 3244 343 
Q 2819 -91 2113 -91 
Q 1303 -91 875 529 
Q 447 1150 447 2328 
Q 447 3434 972 4092 
Q 1497 4750 2381 4750 
Q 2619 4750 2861 4703 
Q 3103 4656 3366 4563 
z
" transform="scale(0.015625)"/>
       </defs>
       <use xlink:href="#DejaVuSans-36"/>
       <use xlink:href="#DejaVuSans-30" x="63.623047"/>
      </g>
     </g>
    </g>
    <g id="xtick_5">
     <g id="text_5">
      <!-- 80 -->
      <g transform="translate(543.872484 366.30265) scale(0.08 -0.08)">
       <defs>
        <path id="DejaVuSans-38" d="M 2034 2216 
Q 1584 2216 1326 1975 
Q 1069 1734 1069 1313 
Q 1069 891 1326 650 
Q 1584 409 2034 409 
Q 2484 409 2743 651 
Q 3003 894 3003 1313 
Q 3003 1734 2745 1975 
Q 2488 2216 2034 2216 
z
M 1403 2484 
Q 997 2584 770 2862 
Q 544 3141 544 3541 
Q 544 4100 942 4425 
Q 1341 4750 2034 4750 
Q 2731 4750 3128 4425 
Q 3525 4100 3525 3541 
Q 3525 3141 3298 2862 
Q 3072 2584 2669 2484 
Q 3125 2378 3379 2068 
Q 3634 1759 3634 1313 
Q 3634 634 3220 271 
Q 2806 -91 2034 -91 
Q 1263 -91 848 271 
Q 434 634 434 1313 
Q 434 1759 690 2068 
Q 947 2378 1403 2484 
z
M 1172 3481 
Q 1172 3119 1398 2916 
Q 1625 2713 2034 2713 
Q 2441 2713 2670 2916 
Q 2900 3119 2900 3481 
Q 2900 3844 2670 4047 
Q 2441 4250 2034 4250 
Q 1625 4250 1398 4047 
Q 1172 3844 1172 3481 
z
" transform="scale(0.015625)"/>
       </defs>
       <use xlink:href="#DejaVuSans-38"/>
       <use xlink:href="#DejaVuSans-30" x="63.623047"/>
      </g>
     </g>
    </g>
    <g id="xtick_6">
     <g id="text_6">
      <!-- 100 -->
      <g transform="translate(655.991304 366.30265) scale(0.08 -0.08)">
       <defs>
        <path id="DejaVuSans-31" d="M 794 531 
L 1825 531 
L 1825 4091 
L 703 3866 
L 703 4441 
L 1819 4666 
L 2450 4666 
L 2450 531 
L 3481 531 
L 3481 0 
L 794 0 
L 794 531 
z
" transform="scale(0.015625)"/>
       </defs>
       <use xlink:href="#DejaVuSans-31"/>
       <use xlink:href="#DejaVuSans-30" x="63.623047"/>
       <use xlink:href="#DejaVuSans-30" x="127.246094"/>
      </g>
     </g>
    </g>
    <g id="xtick_7">
     <g id="text_7">
      <!-- 120 -->
      <g transform="translate(770.655123 366.30265) scale(0.08 -0.08)">
       <use xlink:href="#DejaVuSans-31"/>
       <use xlink:href="#DejaVuSans-32" x="63.623047"/>
       <use xlink:href="#DejaVuSans-30" x="127.246094"/>
      </g>
     </g>
    </g>
    <g id="xtick_8">
     <g id="text_8">
      <!-- 140 -->
      <g transform="translate(885.318943 366.30265) scale(0.08 -0.08)">
       <use xlink:href="#DejaVuSans-31"/>
       <use xlink:href="#DejaVuSans-34" x="63.623047"/>
       <use xlink:href="#DejaVuSans-30" x="127.246094"/>
      </g>
     </g>
    </g>
    <g id="text_9">
     <!-- Length Trimmed (bp) -->
     <g transform="translate(470.735781 379.564837) scale(0.1 -0.1)">
      <defs>
       <path id="DejaVuSans-4c" d="M 628 4666 
L 1259 4666 
L 1259 531 
L 3531 531 
L 3531 0 
L 628 0 
L 628 4666 
z
" transform="scale(0.015625)"/>
       <path id="DejaVuSans-65" d="M 3597 1894 
L 3597 1613 
L 953 1613 
Q 991 1019 1311 708 
Q 1631 397 2203 397 
Q 2534 397 2845 478 
Q 3156 559 3463 722 
L 3463 178 
Q 3153 47 2828 -22 
Q 2503 -91 2169 -91 
Q 1331 -91 842 396 
Q 353 884 353 1716 
Q 353 2575 817 3079 
Q 1281 3584 2069 3584 
Q 2775 3584 3186 3129 
Q 3597 2675 3597 1894 
z
M 3022 2063 
Q 3016 2534 2758 2815 
Q 2500 3097 2075 3097 
Q 1594 3097 1305 2825 
Q 1016 2553 972 2059 
L 3022 2063 
z
" transform="scale(0.015625)"/>
       <path id="DejaVuSans-6e" d="M 3513 2113 
L 3513 0 
L 2938 0 
L 2938 2094 
Q 2938 2591 2744 2837 
Q 2550 3084 2163 3084 
Q 1697 3084 1428 2787 
Q 1159 2491 1159 1978 
L 1159 0 
L 581 0 
L 581 3500 
L 1159 3500 
L 1159 2956 
Q 1366 3272 1645 3428 
Q 1925 3584 2291 3584 
Q 2894 3584 3203 3211 
Q 3513 2838 3513 2113 
z
" transform="scale(0.015625)"/>
       <path id="DejaVuSans-67" d="M 2906 1791 
Q 2906 2416 2648 2759 
Q 2391 3103 1925 3103 
Q 1463 3103 1205 2759 
Q 947 2416 947 1791 
Q 947 1169 1205 825 
Q 1463 481 1925 481 
Q 2391 481 2648 825 
Q 2906 1169 2906 1791 
z
M 3481 434 
Q 3481 -459 3084 -895 
Q 2688 -1331 1869 -1331 
Q 1566 -1331 1297 -1286 
Q 1028 -1241 775 -1147 
L 775 -588 
Q 1028 -725 1275 -790 
Q 1522 -856 1778 -856 
Q 2344 -856 2625 -561 
Q 2906 -266 2906 331 
L 2906 616 
Q 2728 306 2450 153 
Q 2172 0 1784 0 
Q 1141 0 747 490 
Q 353 981 353 1791 
Q 353 2603 747 3093 
Q 1141 3584 1784 3584 
Q 2172 3584 2450 3431 
Q 2728 3278 2906 2969 
L 2906 3500 
L 3481 3500 
L 3481 434 
z
" transform="scale(0.015625)"/>
       <path id="DejaVuSans-74" d="M 1172 4494 
L 1172 3500 
L 2356 3500 
L 2356 3053 
L 1172 3053 
L 1172 1153 
Q 1172 725 1289 603 
Q 1406 481 1766 481 
L 2356 481 
L 2356 0 
L 1766 0 
Q 1100 0 847 248 
Q 594 497 594 1153 
L 594 3053 
L 172 3053 
L 172 3500 
L 594 3500 
L 594 4494 
L 1172 4494 
z
" transform="scale(0.015625)"/>
       <path id="DejaVuSans-68" d="M 3513 2113 
L 3513 0 
L 2938 0 
L 2938 2094 
Q 2938 2591 2744 2837 
Q 2550 3084 2163 3084 
Q 1697 3084 1428 2787 
Q 1159 2491 1159 1978 
L 1159 0 
L 581 0 
L 581 4863 
L 1159 4863 
L 1159 2956 
Q 1366 3272 1645 3428 
Q 1925 3584 2291 3584 
Q 2894 3584 3203 3211 
Q 3513 2838 3513 2113 
z
" transform="scale(0.015625)"/>
       <path id="DejaVuSans-20" transform="scale(0.015625)"/>
       <path id="DejaVuSans-54" d="M -19 4666 
L 3928 4666 
L 3928 4134 
L 2272 4134 
L 2272 0 
L 1638 0 
L 1638 4134 
L -19 4134 
L -19 4666 
z
" transform="scale(0.015625)"/>
       <path id="DejaVuSans-72" d="M 2631 2963 
Q 2534 3019 2420 3045 
Q 2306 3072 2169 3072 
Q 1681 3072 1420 2755 
Q 1159 2438 1159 1844 
L 1159 0 
L 581 0 
L 581 3500 
L 1159 3500 
L 1159 2956 
Q 1341 3275 1631 3429 
Q 1922 3584 2338 3584 
Q 2397 3584 2469 3576 
Q 2541 3569 2628 3553 
L 2631 2963 
z
" transform="scale(0.015625)"/>
       <path id="DejaVuSans-69" d="M 603 3500 
L 1178 3500 
L 1178 0 
L 603 0 
L 603 3500 
z
M 603 4863 
L 1178 4863 
L 1178 4134 
L 603 4134 
L 603 4863 
z
" transform="scale(0.015625)"/>
       <path id="DejaVuSans-6d" d="M 3328 2828 
Q 3544 3216 3844 3400 
Q 4144 3584 4550 3584 
Q 5097 3584 5394 3201 
Q 5691 2819 5691 2113 
L 5691 0 
L 5113 0 
L 5113 2094 
Q 5113 2597 4934 2840 
Q 4756 3084 4391 3084 
Q 3944 3084 3684 2787 
Q 3425 2491 3425 1978 
L 3425 0 
L 2847 0 
L 2847 2094 
Q 2847 2600 2669 2842 
Q 2491 3084 2119 3084 
Q 1678 3084 1418 2786 
Q 1159 2488 1159 1978 
L 1159 0 
L 581 0 
L 581 3500 
L 1159 3500 
L 1159 2956 
Q 1356 3278 1631 3431 
Q 1906 3584 2284 3584 
Q 2666 3584 2933 3390 
Q 3200 3197 3328 2828 
z
" transform="scale(0.015625)"/>
       <path id="DejaVuSans-64" d="M 2906 2969 
L 2906 4863 
L 3481 4863 
L 3481 0 
L 2906 0 
L 2906 525 
Q 2725 213 2448 61 
Q 2172 -91 1784 -91 
Q 1150 -91 751 415 
Q 353 922 353 1747 
Q 353 2572 751 3078 
Q 1150 3584 1784 3584 
Q 2172 3584 2448 3432 
Q 2725 3281 2906 2969 
z
M 947 1747 
Q 947 1113 1208 752 
Q 1469 391 1925 391 
Q 2381 391 2643 752 
Q 2906 1113 2906 1747 
Q 2906 2381 2643 2742 
Q 2381 3103 1925 3103 
Q 1469 3103 1208 2742 
Q 947 2381 947 1747 
z
" transform="scale(0.015625)"/>
       <path id="DejaVuSans-28" d="M 1984 4856 
Q 1566 4138 1362 3434 
Q 1159 2731 1159 2009 
Q 1159 1288 1364 580 
Q 1569 -128 1984 -844 
L 1484 -844 
Q 1016 -109 783 600 
Q 550 1309 550 2009 
Q 550 2706 781 3412 
Q 1013 4119 1484 4856 
L 1984 4856 
z
" transform="scale(0.015625)"/>
       <path id="DejaVuSans-62" d="M 3116 1747 
Q 3116 2381 2855 2742 
Q 2594 3103 2138 3103 
Q 1681 3103 1420 2742 
Q 1159 2381 1159 1747 
Q 1159 1113 1420 752 
Q 1681 391 2138 391 
Q 2594 391 2855 752 
Q 3116 1113 3116 1747 
z
M 1159 2969 
Q 1341 3281 1617 3432 
Q 1894 3584 2278 3584 
Q 2916 3584 3314 3078 
Q 3713 2572 3713 1747 
Q 3713 922 3314 415 
Q 2916 -91 2278 -91 
Q 1894 -91 1617 61 
Q 1341 213 1159 525 
L 1159 0 
L 581 0 
L 581 4863 
L 1159 4863 
L 1159 2969 
z
" transform="scale(0.015625)"/>
       <path id="DejaVuSans-70" d="M 1159 525 
L 1159 -1331 
L 581 -1331 
L 581 3500 
L 1159 3500 
L 1159 2969 
Q 1341 3281 1617 3432 
Q 1894 3584 2278 3584 
Q 2916 3584 3314 3078 
Q 3713 2572 3713 1747 
Q 3713 922 3314 415 
Q 2916 -91 2278 -91 
Q 1894 -91 1617 61 
Q 1341 213 1159 525 
z
M 3116 1747 
Q 3116 2381 2855 2742 
Q 2594 3103 2138 3103 
Q 1681 3103 1420 2742 
Q 1159 2381 1159 1747 
Q 1159 1113 1420 752 
Q 1681 391 2138 391 
Q 2594 391 2855 752 
Q 3116 1113 3116 1747 
z
" transform="scale(0.015625)"/>
       <path id="DejaVuSans-29" d="M 513 4856 
L 1013 4856 
Q 1481 4119 1714 3412 
Q 1947 2706 1947 2009 
Q 1947 1309 1714 600 
Q 1481 -109 1013 -844 
L 513 -844 
Q 928 -128 1133 580 
Q 1338 1288 1338 2009 
Q 1338 2731 1133 3434 
Q 928 4138 513 4856 
z
" transform="scale(0.015625)"/>
      </defs>
      <use xlink:href="#DejaVuSans-4c"/>
      <use xlink:href="#DejaVuSans-65" x="53.962891"/>
      <use xlink:href="#DejaVuSans-6e" x="115.486328"/>
      <use xlink:href="#DejaVuSans-67" x="178.865234"/>
      <use xlink:href="#DejaVuSans-74" x="242.341797"/>
      <use xlink:href="#DejaVuSans-68" x="281.550781"/>
      <use xlink:href="#DejaVuSans-20" x="344.929688"/>
      <use xlink:href="#DejaVuSans-54" x="376.716797"/>
      <use xlink:href="#DejaVuSans-72" x="423.050781"/>
      <use xlink:href="#DejaVuSans-69" x="464.164062"/>
      <use xlink:href="#DejaVuSans-6d" x="491.947266"/>
      <use xlink:href="#DejaVuSans-6d" x="589.359375"/>
      <use xlink:href="#DejaVuSans-65" x="686.771484"/>
      <use xlink:href="#DejaVuSans-64" x="748.294922"/>
      <use xlink:href="#DejaVuSans-20" x="811.771484"/>
      <use xlink:href="#DejaVuSans-28" x="843.558594"/>
      <use xlink:href="#DejaVuSans-62" x="882.572266"/>
      <use xlink:href="#DejaVuSans-70" x="946.048828"/>
      <use xlink:href="#DejaVuSans-29" x="1009.525391"/>
     </g>
    </g>
   </g>
   <g id="matplotlib.axis_2">
    <g id="ytick_1">
     <g id="line2d_1">
      <path d="M 53.328125 353.2239 
L 992.998125 353.2239 
" clip-path="url(#p18819311f5)" style="fill: none; stroke: #dedede; stroke-linecap: square"/>
     </g>
     <g id="text_10">
      <!-- 0 -->
      <g transform="translate(41.238125 356.263275) scale(0.08 -0.08)">
       <use xlink:href="#DejaVuSans-30"/>
      </g>
     </g>
    </g>
    <g id="ytick_2">
     <g id="line2d_2">
      <path d="M 53.328125 299.909293 
L 992.998125 299.909293 
" clip-path="url(#p18819311f5)" style="fill: none; stroke: #dedede; stroke-linecap: square"/>
     </g>
     <g id="text_11">
      <!-- 5000 -->
      <g transform="translate(25.968125 302.948668) scale(0.08 -0.08)">
       <defs>
        <path id="DejaVuSans-35" d="M 691 4666 
L 3169 4666 
L 3169 4134 
L 1269 4134 
L 1269 2991 
Q 1406 3038 1543 3061 
Q 1681 3084 1819 3084 
Q 2600 3084 3056 2656 
Q 3513 2228 3513 1497 
Q 3513 744 3044 326 
Q 2575 -91 1722 -91 
Q 1428 -91 1123 -41 
Q 819 9 494 109 
L 494 744 
Q 775 591 1075 516 
Q 1375 441 1709 441 
Q 2250 441 2565 725 
Q 2881 1009 2881 1497 
Q 2881 1984 2565 2268 
Q 2250 2553 1709 2553 
Q 1456 2553 1204 2497 
Q 953 2441 691 2322 
L 691 4666 
z
" transform="scale(0.015625)"/>
       </defs>
       <use xlink:href="#DejaVuSans-35"/>
       <use xlink:href="#DejaVuSans-30" x="63.623047"/>
       <use xlink:href="#DejaVuSans-30" x="127.246094"/>
       <use xlink:href="#DejaVuSans-30" x="190.869141"/>
      </g>
     </g>
    </g>
    <g id="ytick_3">
     <g id="line2d_3">
      <path d="M 53.328125 246.594687 
L 992.998125 246.594687 
" clip-path="url(#p18819311f5)" style="fill: none; stroke: #dedede; stroke-linecap: square"/>
     </g>
     <g id="text_12">
      <!-- 10000 -->
      <g transform="translate(20.878125 249.634062) scale(0.08 -0.08)">
       <use xlink:href="#DejaVuSans-31"/>
       <use xlink:href="#DejaVuSans-30" x="63.623047"/>
       <use xlink:href="#DejaVuSans-30" x="127.246094"/>
       <use xlink:href="#DejaVuSans-30" x="190.869141"/>
       <use xlink:href="#DejaVuSans-30" x="254.492188"/>
      </g>
     </g>
    </g>
    <g id="ytick_4">
     <g id="line2d_4">
      <path d="M 53.328125 193.28008 
L 992.998125 193.28008 
" clip-path="url(#p18819311f5)" style="fill: none; stroke: #dedede; stroke-linecap: square"/>
     </g>
     <g id="text_13">
      <!-- 15000 -->
      <g transform="translate(20.878125 196.319455) scale(0.08 -0.08)">
       <use xlink:href="#DejaVuSans-31"/>
       <use xlink:href="#DejaVuSans-35" x="63.623047"/>
       <use xlink:href="#DejaVuSans-30" x="127.246094"/>
       <use xlink:href="#DejaVuSans-30" x="190.869141"/>
       <use xlink:href="#DejaVuSans-30" x="254.492188"/>
      </g>
     </g>
    </g>
    <g id="ytick_5">
     <g id="line2d_5">
      <path d="M 53.328125 139.965473 
L 992.998125 139.965473 
" clip-path="url(#p18819311f5)" style="fill: none; stroke: #dedede; stroke-linecap: square"/>
     </g>
     <g id="text_14">
      <!-- 20000 -->
      <g transform="translate(20.878125 143.004848) scale(0.08 -0.08)">
       <use xlink:href="#DejaVuSans-32"/>
       <use xlink:href="#DejaVuSans-30" x="63.623047"/>
       <use xlink:href="#DejaVuSans-30" x="127.246094"/>
       <use xlink:href="#DejaVuSans-30" x="190.869141"/>
       <use xlink:href="#DejaVuSans-30" x="254.492188"/>
      </g>
     </g>
    </g>
    <g id="ytick_6">
     <g id="line2d_6">
      <path d="M 53.328125 86.650867 
L 992.998125 86.650867 
" clip-path="url(#p18819311f5)" style="fill: none; stroke: #dedede; stroke-linecap: square"/>
     </g>
     <g id="text_15">
      <!-- 25000 -->
      <g transform="translate(20.878125 89.690242) scale(0.08 -0.08)">
       <use xlink:href="#DejaVuSans-32"/>
       <use xlink:href="#DejaVuSans-35" x="63.623047"/>
       <use xlink:href="#DejaVuSans-30" x="127.246094"/>
       <use xlink:href="#DejaVuSans-30" x="190.869141"/>
       <use xlink:href="#DejaVuSans-30" x="254.492188"/>
      </g>
     </g>
    </g>
    <g id="text_16">
     <!-- Observed / Expected -->
     <g transform="translate(14.798438 246.489119) rotate(-90) scale(0.1 -0.1)">
      <defs>
       <path id="DejaVuSans-4f" d="M 2522 4238 
Q 1834 4238 1429 3725 
Q 1025 3213 1025 2328 
Q 1025 1447 1429 934 
Q 1834 422 2522 422 
Q 3209 422 3611 934 
Q 4013 1447 4013 2328 
Q 4013 3213 3611 3725 
Q 3209 4238 2522 4238 
z
M 2522 4750 
Q 3503 4750 4090 4092 
Q 4678 3434 4678 2328 
Q 4678 1225 4090 567 
Q 3503 -91 2522 -91 
Q 1538 -91 948 565 
Q 359 1222 359 2328 
Q 359 3434 948 4092 
Q 1538 4750 2522 4750 
z
" transform="scale(0.015625)"/>
       <path id="DejaVuSans-73" d="M 2834 3397 
L 2834 2853 
Q 2591 2978 2328 3040 
Q 2066 3103 1784 3103 
Q 1356 3103 1142 2972 
Q 928 2841 928 2578 
Q 928 2378 1081 2264 
Q 1234 2150 1697 2047 
L 1894 2003 
Q 2506 1872 2764 1633 
Q 3022 1394 3022 966 
Q 3022 478 2636 193 
Q 2250 -91 1575 -91 
Q 1294 -91 989 -36 
Q 684 19 347 128 
L 347 722 
Q 666 556 975 473 
Q 1284 391 1588 391 
Q 1994 391 2212 530 
Q 2431 669 2431 922 
Q 2431 1156 2273 1281 
Q 2116 1406 1581 1522 
L 1381 1569 
Q 847 1681 609 1914 
Q 372 2147 372 2553 
Q 372 3047 722 3315 
Q 1072 3584 1716 3584 
Q 2034 3584 2315 3537 
Q 2597 3491 2834 3397 
z
" transform="scale(0.015625)"/>
       <path id="DejaVuSans-76" d="M 191 3500 
L 800 3500 
L 1894 563 
L 2988 3500 
L 3597 3500 
L 2284 0 
L 1503 0 
L 191 3500 
z
" transform="scale(0.015625)"/>
       <path id="DejaVuSans-2f" d="M 1625 4666 
L 2156 4666 
L 531 -594 
L 0 -594 
L 1625 4666 
z
" transform="scale(0.015625)"/>
       <path id="DejaVuSans-45" d="M 628 4666 
L 3578 4666 
L 3578 4134 
L 1259 4134 
L 1259 2753 
L 3481 2753 
L 3481 2222 
L 1259 2222 
L 1259 531 
L 3634 531 
L 3634 0 
L 628 0 
L 628 4666 
z
" transform="scale(0.015625)"/>
       <path id="DejaVuSans-78" d="M 3513 3500 
L 2247 1797 
L 3578 0 
L 2900 0 
L 1881 1375 
L 863 0 
L 184 0 
L 1544 1831 
L 300 3500 
L 978 3500 
L 1906 2253 
L 2834 3500 
L 3513 3500 
z
" transform="scale(0.015625)"/>
       <path id="DejaVuSans-63" d="M 3122 3366 
L 3122 2828 
Q 2878 2963 2633 3030 
Q 2388 3097 2138 3097 
Q 1578 3097 1268 2742 
Q 959 2388 959 1747 
Q 959 1106 1268 751 
Q 1578 397 2138 397 
Q 2388 397 2633 464 
Q 2878 531 3122 666 
L 3122 134 
Q 2881 22 2623 -34 
Q 2366 -91 2075 -91 
Q 1284 -91 818 406 
Q 353 903 353 1747 
Q 353 2603 823 3093 
Q 1294 3584 2113 3584 
Q 2378 3584 2631 3529 
Q 2884 3475 3122 3366 
z
" transform="scale(0.015625)"/>
      </defs>
      <use xlink:href="#DejaVuSans-4f"/>
      <use xlink:href="#DejaVuSans-62" x="78.710938"/>
      <use xlink:href="#DejaVuSans-73" x="142.1875"/>
      <use xlink:href="#DejaVuSans-65" x="194.287109"/>
      <use xlink:href="#DejaVuSans-72" x="255.810547"/>
      <use xlink:href="#DejaVuSans-76" x="296.923828"/>
      <use xlink:href="#DejaVuSans-65" x="356.103516"/>
      <use xlink:href="#DejaVuSans-64" x="417.626953"/>
      <use xlink:href="#DejaVuSans-20" x="481.103516"/>
      <use xlink:href="#DejaVuSans-2f" x="512.890625"/>
      <use xlink:href="#DejaVuSans-20" x="546.582031"/>
      <use xlink:href="#DejaVuSans-45" x="578.369141"/>
      <use xlink:href="#DejaVuSans-78" x="641.552734"/>
      <use xlink:href="#DejaVuSans-70" x="700.732422"/>
      <use xlink:href="#DejaVuSans-65" x="764.208984"/>
      <use xlink:href="#DejaVuSans-63" x="825.732422"/>
      <use xlink:href="#DejaVuSans-74" x="880.712891"/>
      <use xlink:href="#DejaVuSans-65" x="919.921875"/>
      <use xlink:href="#DejaVuSans-64" x="981.445312"/>
     </g>
    </g>
   </g>
   <g id="line2d_7">
    <path d="M 96.040398 353.213859 
L 136.172735 353.152682 
L 141.905925 352.924467 
L 147.639116 351.958602 
L 153.372307 349.031908 
L 159.105498 338.123563 
L 164.838689 289.815061 
L 170.57188 291.272327 
L 176.305071 294.115773 
L 182.038262 302.539481 
L 187.771453 299.091803 
L 193.504644 300.406896 
L 204.971026 308.119743 
L 210.704217 310.856559 
L 216.437408 311.105361 
L 222.170599 314.055436 
L 227.90379 315.2639 
L 233.636981 313.237945 
L 239.370172 318.071803 
L 245.103363 319.244724 
L 250.836554 320.950791 
L 256.569745 321.874911 
L 262.302936 322.194799 
L 268.036127 325.500305 
L 273.769318 327.0642 
L 279.502509 327.846147 
L 285.2357 327.384087 
L 290.968891 330.156447 
L 296.702082 331.826971 
L 302.435273 331.435997 
L 308.168464 335.096934 
L 313.901655 335.096934 
L 319.634846 336.340941 
L 325.368037 335.985511 
L 331.101228 337.798207 
L 336.834418 337.158432 
L 342.567609 341.032627 
L 348.3008 335.16802 
L 354.033991 344.622477 
L 359.767182 343.449555 
L 365.500373 342.774237 
L 371.233564 341.53023 
L 376.966755 342.489893 
L 382.699946 343.058582 
L 394.166328 345.226709 
L 399.899519 345.013451 
L 405.63271 343.804986 
L 411.365901 345.973113 
L 417.099092 345.653226 
L 422.832283 345.795398 
L 428.565474 346.221915 
L 434.298665 346.470716 
L 445.765047 346.257458 
L 451.498238 345.902027 
L 457.231429 346.612889 
L 462.96462 346.683975 
L 468.697811 347.856896 
L 474.431002 348.532215 
L 480.164193 348.887645 
L 485.897384 348.24787 
L 491.630575 347.039406 
L 497.363766 319.067009 
L 503.096957 317.183226 
L 508.830148 344.19596 
L 514.563339 348.496672 
L 520.29653 350.45154 
L 526.02972 350.771428 
L 531.762911 350.806971 
L 537.496102 351.055773 
L 543.229293 351.446746 
L 548.962484 351.055773 
L 554.695675 351.055773 
L 560.428866 351.233488 
L 566.162057 350.9136 
L 571.895248 351.37566 
L 577.628439 351.446746 
L 583.36163 351.162402 
L 589.094821 351.304574 
L 594.828012 352.050979 
L 600.561203 351.979893 
L 606.294394 351.660005 
L 612.027585 351.588919 
L 617.760776 351.873263 
L 623.493967 351.731091 
L 629.227158 351.304574 
L 634.960349 351.944349 
L 640.69354 351.446746 
L 646.426731 352.193151 
L 657.893113 351.979893 
L 663.626304 352.193151 
L 669.359495 351.83772 
L 675.092686 351.802177 
L 680.825877 352.015436 
L 686.559068 352.050979 
L 692.292259 351.517833 
L 698.02545 351.873263 
L 703.758641 351.269031 
L 709.491832 351.83772 
L 715.225022 351.873263 
L 720.958213 352.29978 
L 732.424595 351.944349 
L 738.157786 352.086522 
L 743.890977 351.944349 
L 749.624168 352.228694 
L 761.09055 352.264237 
L 778.290123 351.766634 
L 784.023314 352.122065 
L 795.489696 352.335323 
L 801.222887 351.731091 
L 812.689269 352.335323 
L 818.42246 352.157608 
L 824.155651 352.193151 
L 829.888842 352.548582 
L 835.622033 351.979893 
L 841.355224 351.908806 
L 847.088415 352.406409 
L 852.821606 352.370866 
L 858.554797 352.548582 
L 864.287988 352.477496 
L 870.021179 352.264237 
L 875.75437 352.655211 
L 881.487561 352.513039 
L 887.220752 352.513039 
L 898.687134 352.193151 
L 910.153515 352.655211 
L 915.886706 352.228694 
L 921.619897 352.406409 
L 927.353088 352.228694 
L 933.086279 351.126859 
L 938.81947 351.873263 
L 944.552661 347.892439 
L 950.285852 312.384911 
L 950.285852 312.384911 
" clip-path="url(#p18819311f5)" style="fill: none; stroke: #7cb5ec; stroke-linecap: square"/>
   </g>
   <g id="line2d_8">
    <path d="M 96.040398 353.213848 
L 136.172735 353.148857 
L 141.905925 352.866006 
L 147.639116 351.674081 
L 153.372307 348.277141 
L 159.105498 335.892552 
L 164.838689 281.924499 
L 170.57188 275.811091 
L 176.305071 294.115773 
L 182.038262 294.648919 
L 187.771453 289.45963 
L 193.504644 301.366559 
L 199.237835 294.648919 
L 204.971026 304.707608 
L 210.704217 308.0842 
L 216.437408 304.03229 
L 222.170599 308.048657 
L 227.90379 303.996746 
L 233.636981 310.536672 
L 239.370172 313.237945 
L 245.103363 315.441615 
L 250.836554 313.486746 
L 256.569745 316.578994 
L 262.302936 314.162065 
L 268.036127 322.230342 
L 273.769318 321.483937 
L 279.502509 322.159256 
L 285.2357 321.448394 
L 290.968891 323.01229 
L 296.702082 326.424424 
L 302.435273 326.779855 
L 308.168464 328.663638 
L 313.901655 330.902851 
L 319.634846 330.547421 
L 325.368037 328.130492 
L 331.101228 329.054612 
L 336.834418 335.025848 
L 342.567609 332.928806 
L 348.3008 332.751091 
L 354.033991 336.09214 
L 359.767182 337.83375 
L 365.500373 335.807795 
L 371.233564 337.158432 
L 376.966755 337.656035 
L 382.699946 332.928806 
L 388.433137 341.139256 
L 394.166328 340.499481 
L 399.899519 341.565773 
L 405.63271 338.366896 
L 411.365901 341.139256 
L 417.099092 341.494687 
L 434.298665 340.925997 
L 440.031856 339.717533 
L 445.765047 339.966334 
L 451.498238 299.624949 
L 457.231429 270.870604 
L 462.96462 327.348544 
L 468.697811 340.357308 
L 474.431002 343.982702 
L 480.164193 344.835735 
L 485.897384 345.973113 
L 491.630575 345.688769 
L 497.363766 345.653226 
L 503.096957 345.048994 
L 508.830148 345.830941 
L 514.563339 344.906821 
L 520.29653 344.764649 
L 526.02972 343.947158 
L 531.762911 345.58214 
L 537.496102 345.795398 
L 543.229293 345.297795 
L 548.962484 345.47551 
L 554.695675 344.871278 
L 560.428866 345.866484 
L 566.162057 346.0442 
L 571.895248 345.93757 
L 577.628439 346.790604 
L 583.36163 345.617683 
L 589.094821 346.186372 
L 594.828012 346.50626 
L 600.561203 345.795398 
L 606.294394 345.902027 
L 617.760776 346.50626 
L 623.493967 346.115286 
L 629.227158 346.115286 
L 634.960349 346.364087 
L 640.69354 345.47551 
L 646.426731 347.608095 
L 652.159922 344.65802 
L 657.893113 346.50626 
L 669.359495 347.537009 
L 675.092686 345.759855 
L 680.825877 346.150829 
L 686.559068 345.902027 
L 692.292259 346.719518 
L 698.02545 346.897233 
L 703.758641 346.186372 
L 709.491832 346.364087 
L 715.225022 346.0442 
L 720.958213 346.008657 
L 726.691404 346.50626 
L 732.424595 346.683975 
L 738.157786 347.394836 
L 743.890977 346.364087 
L 749.624168 346.541803 
L 755.357359 347.039406 
L 761.09055 347.146035 
L 766.823741 346.541803 
L 772.556932 346.826147 
L 778.290123 346.683975 
L 784.023314 347.679181 
L 789.756505 346.968319 
L 795.489696 348.283413 
L 801.222887 346.39963 
L 806.956078 347.78581 
L 812.689269 348.532215 
L 818.42246 347.394836 
L 824.155651 348.425585 
L 829.888842 349.029818 
L 835.622033 349.243076 
L 841.355224 349.17199 
L 847.088415 349.598507 
L 852.821606 349.847308 
L 858.554797 351.02023 
L 864.287988 349.562964 
L 870.021179 349.349705 
L 875.75437 349.918394 
L 881.487561 349.847308 
L 887.220752 351.48229 
L 892.953943 351.553376 
L 898.687134 350.344911 
L 904.420325 351.83772 
L 910.153515 351.766634 
L 915.886706 352.548582 
L 921.619897 351.197945 
L 927.353088 351.446746 
L 933.086279 349.420791 
L 938.81947 350.522627 
L 944.552661 346.293001 
L 950.285852 312.811428 
L 950.285852 312.811428 
" clip-path="url(#p18819311f5)" style="fill: none; stroke: #434348; stroke-linecap: square"/>
   </g>
   <g id="line2d_9">
    <path d="M 96.040398 353.213886 
L 136.172735 353.16595 
L 141.905925 352.965276 
L 147.639116 352.101188 
L 153.372307 349.817917 
L 159.105498 340.33817 
L 164.838689 299.305061 
L 170.57188 301.757533 
L 176.305071 305.205211 
L 182.038262 306.982364 
L 187.771453 308.937233 
L 193.504644 310.181241 
L 199.237835 310.856559 
L 204.971026 314.446409 
L 210.704217 316.116934 
L 216.437408 317.076597 
L 222.170599 316.401278 
L 227.90379 316.401278 
L 233.636981 319.244724 
L 239.370172 322.621316 
L 245.103363 323.82978 
L 250.836554 324.611728 
L 256.569745 326.850941 
L 262.302936 327.41963 
L 273.769318 330.582964 
L 279.502509 332.644462 
L 285.2357 332.822177 
L 290.968891 334.634874 
L 296.702082 334.670417 
L 302.435273 334.848132 
L 308.168464 334.563788 
L 313.901655 337.229518 
L 319.634846 339.397645 
L 325.368037 338.900042 
L 331.101228 340.428394 
L 336.834418 338.224724 
L 342.567609 341.316971 
L 348.3008 338.402439 
L 354.033991 345.404424 
L 359.767182 344.19596 
L 365.500373 342.205548 
L 371.233564 344.551391 
L 376.966755 344.053788 
L 382.699946 345.830941 
L 388.433137 345.439967 
L 394.166328 345.866484 
L 399.899519 347.32375 
L 405.63271 347.643638 
L 411.365901 348.496672 
L 417.099092 347.78581 
L 422.832283 348.034612 
L 428.565474 348.461128 
L 434.298665 347.714724 
L 440.031856 348.958731 
L 445.765047 348.994275 
L 451.498238 348.176784 
L 457.231429 348.603301 
L 462.96462 349.705136 
L 468.697811 348.852102 
L 474.431002 350.167196 
L 480.164193 349.491878 
L 485.897384 349.776222 
L 491.630575 349.420791 
L 497.363766 339.362102 
L 503.096957 331.507084 
L 508.830148 345.546597 
L 514.563339 349.562964 
L 520.29653 350.664799 
L 526.02972 351.517833 
L 531.762911 351.553376 
L 537.496102 351.37566 
L 548.962484 352.193151 
L 554.695675 351.979893 
L 560.428866 352.122065 
L 566.162057 351.944349 
L 571.895248 352.122065 
L 577.628439 351.802177 
L 583.36163 351.908806 
L 589.094821 352.264237 
L 594.828012 352.015436 
L 600.561203 352.193151 
L 606.294394 352.015436 
L 612.027585 351.588919 
L 617.760776 351.517833 
L 623.493967 352.086522 
L 629.227158 351.908806 
L 634.960349 352.29978 
L 640.69354 351.37566 
L 646.426731 352.050979 
L 652.159922 352.050979 
L 657.893113 352.584125 
L 663.626304 351.979893 
L 669.359495 352.335323 
L 675.092686 352.406409 
L 680.825877 352.157608 
L 686.559068 352.29978 
L 692.292259 351.695548 
L 698.02545 351.660005 
L 703.758641 351.83772 
L 715.225022 352.370866 
L 720.958213 351.731091 
L 726.691404 352.441952 
L 732.424595 352.264237 
L 743.890977 352.264237 
L 749.624168 352.477496 
L 766.823741 351.908806 
L 772.556932 352.015436 
L 778.290123 352.513039 
L 789.756505 351.873263 
L 795.489696 352.584125 
L 806.956078 352.157608 
L 812.689269 352.441952 
L 824.155651 352.406409 
L 829.888842 352.619668 
L 835.622033 352.264237 
L 841.355224 352.193151 
L 847.088415 352.441952 
L 852.821606 352.228694 
L 864.287988 352.548582 
L 870.021179 352.797383 
L 875.75437 352.904012 
L 881.487561 351.979893 
L 887.220752 352.797383 
L 892.953943 352.939555 
L 904.420325 352.690754 
L 910.153515 352.868469 
L 915.886706 352.868469 
L 927.353088 352.477496 
L 933.086279 351.908806 
L 938.81947 352.441952 
L 944.552661 351.02023 
L 950.285852 335.061391 
L 950.285852 335.061391 
" clip-path="url(#p18819311f5)" style="fill: none; stroke: #90ed7d; stroke-linecap: square"/>
   </g>
   <g id="line2d_10">
    <path d="M 96.040398 353.213866 
L 136.172735 353.160394 
L 141.905925 352.90608 
L 147.639116 351.825815 
L 153.372307 348.987439 
L 159.105498 337.877496 
L 164.838689 291.556672 
L 170.57188 286.687271 
L 176.305071 303.605773 
L 182.038262 302.290679 
L 187.771453 298.309855 
L 193.504644 312.065024 
L 199.237835 302.112964 
L 204.971026 312.846971 
L 210.704217 312.989143 
L 216.437408 311.780679 
L 222.170599 310.394499 
L 227.90379 306.662477 
L 233.636981 315.334986 
L 239.370172 316.543451 
L 245.103363 319.280267 
L 250.836554 317.076597 
L 256.569745 321.945997 
L 262.302936 318.000717 
L 268.036127 326.637683 
L 273.769318 324.043039 
L 279.502509 326.993114 
L 285.2357 327.455173 
L 290.968891 328.557009 
L 296.702082 327.775061 
L 302.435273 330.547421 
L 308.168464 329.054612 
L 313.901655 333.426409 
L 319.634846 332.85772 
L 325.368037 331.507084 
L 331.101228 333.568582 
L 336.834418 336.767458 
L 342.567609 333.639668 
L 348.3008 334.279443 
L 354.033991 337.407233 
L 359.767182 338.651241 
L 365.500373 336.234312 
L 371.233564 339.68199 
L 376.966755 339.184387 
L 382.699946 334.457158 
L 388.433137 341.494687 
L 394.166328 341.601316 
L 399.899519 343.7339 
L 405.63271 341.032627 
L 411.365901 343.27184 
L 417.099092 343.378469 
L 422.832283 344.302589 
L 428.565474 343.200754 
L 434.298665 343.129668 
L 440.031856 342.632065 
L 445.765047 342.774237 
L 451.498238 327.561803 
L 457.231429 297.812252 
L 462.96462 332.680005 
L 468.697811 343.485099 
L 474.431002 345.795398 
L 480.164193 345.048994 
L 485.897384 347.643638 
L 491.630575 347.039406 
L 497.363766 347.003863 
L 503.096957 347.501466 
L 508.830148 346.186372 
L 514.563339 346.079743 
L 520.29653 345.795398 
L 526.02972 346.541803 
L 531.762911 346.470716 
L 537.496102 347.359293 
L 543.229293 346.221915 
L 548.962484 346.221915 
L 554.695675 346.790604 
L 560.428866 346.790604 
L 566.162057 346.470716 
L 571.895248 345.759855 
L 577.628439 347.039406 
L 583.36163 347.110492 
L 589.094821 346.435173 
L 594.828012 346.541803 
L 600.561203 347.181578 
L 606.294394 347.537009 
L 612.027585 347.394836 
L 617.760776 346.612889 
L 623.493967 347.146035 
L 629.227158 346.221915 
L 634.960349 347.039406 
L 640.69354 347.039406 
L 646.426731 347.465922 
L 652.159922 345.724312 
L 657.893113 346.86169 
L 663.626304 347.181578 
L 669.359495 346.719518 
L 680.825877 347.181578 
L 686.559068 346.470716 
L 703.758641 346.683975 
L 715.225022 346.435173 
L 720.958213 347.252664 
L 726.691404 346.648432 
L 732.424595 347.537009 
L 738.157786 347.537009 
L 743.890977 347.679181 
L 749.624168 347.288207 
L 755.357359 347.821353 
L 761.09055 346.150829 
L 766.823741 345.297795 
L 772.556932 347.039406 
L 778.290123 347.146035 
L 784.023314 348.496672 
L 789.756505 348.425585 
L 795.489696 348.070155 
L 801.222887 346.470716 
L 806.956078 347.501466 
L 812.689269 347.821353 
L 818.42246 348.70993 
L 824.155651 349.420791 
L 829.888842 349.598507 
L 835.622033 348.212327 
L 847.088415 349.882851 
L 852.821606 350.131653 
L 858.554797 350.593713 
L 864.287988 350.700342 
L 870.021179 350.09611 
L 875.75437 349.882851 
L 881.487561 350.238282 
L 887.220752 351.126859 
L 892.953943 351.553376 
L 898.687134 350.344911 
L 904.420325 351.802177 
L 915.886706 352.513039 
L 921.619897 351.660005 
L 927.353088 352.193151 
L 933.086279 349.17199 
L 938.81947 351.517833 
L 944.552661 350.842514 
L 950.285852 339.006672 
L 950.285852 339.006672 
" clip-path="url(#p18819311f5)" style="fill: none; stroke: #f7a35c; stroke-linecap: square"/>
   </g>
   <g id="line2d_11">
    <path d="M 96.040398 353.213892 
L 136.172735 353.163509 
L 141.905925 352.948972 
L 147.639116 352.140102 
L 153.372307 349.265824 
L 159.105498 339.887046 
L 164.838689 299.091803 
L 170.57188 302.432851 
L 176.305071 302.788282 
L 182.038262 305.809443 
L 187.771453 307.124537 
L 193.504644 309.861353 
L 199.237835 313.309031 
L 204.971026 314.019893 
L 210.704217 318.03626 
L 216.437408 315.157271 
L 222.170599 318.711578 
L 227.90379 320.808619 
L 239.370172 324.185211 
L 245.103363 326.424424 
L 250.836554 325.820192 
L 256.569745 328.166035 
L 262.302936 329.090155 
L 268.036127 331.364911 
L 273.769318 331.898057 
L 279.502509 333.035436 
L 285.2357 333.31978 
L 290.968891 332.50229 
L 296.702082 335.985511 
L 302.435273 335.985511 
L 308.168464 337.300604 
L 313.901655 336.660829 
L 319.634846 336.803001 
L 325.368037 340.96154 
L 331.101228 342.596522 
L 336.834418 341.743488 
L 342.567609 342.134462 
L 348.3008 340.854911 
L 354.033991 346.897233 
L 359.767182 344.19596 
L 365.500373 344.338132 
L 376.966755 345.653226 
L 382.699946 345.404424 
L 388.433137 347.679181 
L 394.166328 346.39963 
L 399.899519 347.537009 
L 405.63271 346.826147 
L 411.365901 348.603301 
L 417.099092 348.141241 
L 422.832283 347.892439 
L 428.565474 348.923188 
L 434.298665 348.318956 
L 440.031856 349.243076 
L 445.765047 349.17199 
L 451.498238 348.958731 
L 457.231429 349.669593 
L 462.96462 349.918394 
L 468.697811 348.70993 
L 474.431002 350.415997 
L 485.897384 349.491878 
L 491.630575 349.740679 
L 497.363766 343.485099 
L 503.096957 333.497496 
L 508.830148 346.221915 
L 514.563339 350.09611 
L 520.29653 350.771428 
L 526.02972 351.233488 
L 537.496102 351.340117 
L 543.229293 351.731091 
L 548.962484 351.731091 
L 554.695675 351.944349 
L 560.428866 351.588919 
L 566.162057 351.588919 
L 571.895248 352.086522 
L 577.628439 351.588919 
L 583.36163 352.122065 
L 589.094821 352.335323 
L 600.561203 351.944349 
L 606.294394 352.015436 
L 612.027585 351.908806 
L 617.760776 352.086522 
L 623.493967 352.122065 
L 629.227158 351.766634 
L 634.960349 351.802177 
L 640.69354 351.48229 
L 646.426731 352.050979 
L 663.626304 352.335323 
L 669.359495 352.477496 
L 680.825877 352.335323 
L 686.559068 352.477496 
L 692.292259 351.83772 
L 698.02545 352.157608 
L 703.758641 351.411203 
L 709.491832 352.406409 
L 715.225022 352.584125 
L 720.958213 351.979893 
L 726.691404 351.944349 
L 732.424595 352.584125 
L 738.157786 352.370866 
L 743.890977 352.370866 
L 749.624168 352.584125 
L 755.357359 352.193151 
L 761.09055 352.441952 
L 766.823741 352.548582 
L 772.556932 352.29978 
L 778.290123 352.228694 
L 784.023314 352.406409 
L 789.756505 352.157608 
L 795.489696 352.584125 
L 801.222887 352.548582 
L 806.956078 352.832926 
L 812.689269 352.335323 
L 818.42246 352.513039 
L 829.888842 352.406409 
L 835.622033 352.228694 
L 841.355224 351.695548 
L 847.088415 352.690754 
L 852.821606 351.731091 
L 858.554797 352.584125 
L 864.287988 352.513039 
L 870.021179 352.832926 
L 875.75437 352.868469 
L 881.487561 352.29978 
L 887.220752 352.797383 
L 892.953943 352.477496 
L 898.687134 352.797383 
L 910.153515 353.010642 
L 921.619897 352.619668 
L 927.353088 352.726297 
L 933.086279 352.122065 
L 938.81947 352.797383 
L 944.552661 352.228694 
L 950.285852 343.094125 
L 950.285852 343.094125 
" clip-path="url(#p18819311f5)" style="fill: none; stroke: #8085e9; stroke-linecap: square"/>
   </g>
   <g id="line2d_12">
    <path d="M 96.040398 353.213833 
L 136.172735 353.157277 
L 141.905925 352.891944 
L 147.639116 351.824458 
L 153.372307 348.47037 
L 159.105498 337.533001 
L 164.838689 291.663301 
L 170.57188 286.7939 
L 176.305071 302.681653 
L 182.038262 299.305061 
L 187.771453 297.279106 
L 193.504644 312.669256 
L 199.237835 304.138919 
L 204.971026 311.816222 
L 210.704217 313.380117 
L 216.437408 310.785473 
L 222.170599 311.176447 
L 227.90379 311.069818 
L 233.636981 318.960379 
L 239.370172 319.955585 
L 245.103363 323.154462 
L 250.836554 318.356147 
L 256.569745 322.763488 
L 262.302936 319.991128 
L 268.036127 328.237121 
L 273.769318 326.14008 
L 279.502509 328.023863 
L 285.2357 328.770267 
L 290.968891 327.668432 
L 296.702082 330.334162 
L 302.435273 330.973937 
L 308.168464 332.50229 
L 313.901655 333.035436 
L 319.634846 333.355323 
L 325.368037 333.213151 
L 331.101228 334.350529 
L 336.834418 338.864499 
L 342.567609 336.056597 
L 348.3008 335.736709 
L 354.033991 340.819368 
L 359.767182 338.722327 
L 365.500373 337.83375 
L 371.233564 341.174799 
L 376.966755 341.245885 
L 382.699946 336.412027 
L 388.433137 343.7339 
L 394.166328 342.383263 
L 399.899519 343.7339 
L 405.63271 342.063376 
L 411.365901 343.7339 
L 417.099092 343.236297 
L 422.832283 342.489893 
L 428.565474 342.880866 
L 434.298665 343.804986 
L 440.031856 342.738694 
L 445.765047 343.129668 
L 451.498238 334.208357 
L 457.231429 300.406896 
L 462.96462 335.345735 
L 468.697811 345.084537 
L 474.431002 345.546597 
L 480.164193 345.368881 
L 485.897384 346.932776 
L 491.630575 346.86169 
L 497.363766 346.470716 
L 503.096957 346.968319 
L 508.830148 346.648432 
L 514.563339 345.262252 
L 520.29653 344.835735 
L 526.02972 345.973113 
L 531.762911 345.866484 
L 537.496102 345.368881 
L 543.229293 346.755061 
L 548.962484 346.435173 
L 554.695675 346.435173 
L 560.428866 347.394836 
L 566.162057 346.221915 
L 571.895248 345.93757 
L 577.628439 347.003863 
L 583.36163 347.537009 
L 589.094821 347.359293 
L 594.828012 346.435173 
L 600.561203 347.927982 
L 606.294394 346.932776 
L 617.760776 347.750267 
L 623.493967 347.181578 
L 629.227158 347.394836 
L 634.960349 346.435173 
L 640.69354 345.973113 
L 646.426731 346.470716 
L 652.159922 345.830941 
L 657.893113 347.537009 
L 663.626304 346.683975 
L 669.359495 347.643638 
L 675.092686 348.105698 
L 680.825877 346.932776 
L 686.559068 348.034612 
L 692.292259 347.537009 
L 703.758641 347.359293 
L 709.491832 346.541803 
L 720.958213 347.963525 
L 726.691404 347.217121 
L 732.424595 347.394836 
L 738.157786 347.999069 
L 743.890977 347.608095 
L 749.624168 347.359293 
L 755.357359 347.572552 
L 761.09055 346.968319 
L 766.823741 347.217121 
L 772.556932 349.17199 
L 778.290123 347.537009 
L 784.023314 347.288207 
L 789.756505 346.790604 
L 795.489696 349.314162 
L 801.222887 346.897233 
L 806.956078 348.105698 
L 812.689269 348.532215 
L 818.42246 348.283413 
L 824.155651 349.63405 
L 829.888842 348.354499 
L 835.622033 348.24787 
L 858.554797 350.664799 
L 864.287988 350.771428 
L 870.021179 349.100904 
L 875.75437 349.740679 
L 881.487561 350.55817 
L 887.220752 351.197945 
L 892.953943 351.553376 
L 898.687134 350.45154 
L 904.420325 351.873263 
L 910.153515 351.624462 
L 915.886706 352.477496 
L 921.619897 351.588919 
L 927.353088 352.264237 
L 933.086279 349.669593 
L 938.81947 351.233488 
L 944.552661 351.126859 
L 950.285852 346.008657 
L 950.285852 346.008657 
" clip-path="url(#p18819311f5)" style="fill: none; stroke: #f15c80; stroke-linecap: square"/>
   </g>
   <g id="line2d_13">
    <path d="M 96.040398 353.213883 
L 136.172735 353.159171 
L 141.905925 352.935365 
L 147.639116 352.090172 
L 153.372307 349.466379 
L 159.105498 340.20625 
L 164.838689 298.380941 
L 170.57188 303.321428 
L 176.305071 304.245548 
L 182.038262 309.00832 
L 187.771453 310.74993 
L 193.504644 309.114949 
L 199.237835 312.278282 
L 204.971026 314.233151 
L 210.704217 318.071803 
L 216.437408 316.436821 
L 222.170599 319.884499 
L 227.90379 320.666447 
L 233.636981 321.199593 
L 239.370172 324.114125 
L 245.103363 324.540642 
L 250.836554 328.201578 
L 256.569745 328.557009 
L 262.302936 329.090155 
L 268.036127 331.151653 
L 273.769318 332.111316 
L 279.502509 333.604125 
L 285.2357 332.751091 
L 290.968891 335.63008 
L 302.435273 337.940379 
L 308.168464 339.255473 
L 313.901655 337.336147 
L 319.634846 339.077758 
L 325.368037 341.459143 
L 331.101228 339.966334 
L 336.834418 341.174799 
L 342.567609 343.449555 
L 348.3008 339.824162 
L 354.033991 347.288207 
L 359.767182 345.155623 
L 365.500373 344.942364 
L 371.233564 343.414012 
L 376.966755 345.013451 
L 382.699946 345.93757 
L 388.433137 346.541803 
L 394.166328 346.079743 
L 405.63271 346.612889 
L 411.365901 347.537009 
L 422.832283 348.603301 
L 428.565474 348.318956 
L 434.298665 348.781016 
L 440.031856 349.029818 
L 445.765047 349.100904 
L 451.498238 348.603301 
L 457.231429 349.740679 
L 462.96462 350.664799 
L 468.697811 349.491878 
L 474.431002 349.989481 
L 480.164193 349.740679 
L 485.897384 350.167196 
L 491.630575 348.034612 
L 497.363766 335.736709 
L 503.096957 330.049818 
L 508.830148 346.50626 
L 514.563339 349.811765 
L 520.29653 351.162402 
L 531.762911 351.873263 
L 537.496102 351.731091 
L 543.229293 351.873263 
L 548.962484 351.660005 
L 554.695675 352.370866 
L 560.428866 352.157608 
L 566.162057 351.731091 
L 571.895248 351.766634 
L 577.628439 352.29978 
L 583.36163 351.766634 
L 589.094821 351.802177 
L 594.828012 352.086522 
L 600.561203 351.944349 
L 606.294394 351.944349 
L 612.027585 352.228694 
L 617.760776 352.015436 
L 623.493967 352.584125 
L 629.227158 351.944349 
L 652.159922 352.335323 
L 657.893113 352.726297 
L 663.626304 352.29978 
L 669.359495 352.548582 
L 675.092686 352.619668 
L 680.825877 352.193151 
L 692.292259 352.015436 
L 709.491832 352.050979 
L 715.225022 352.690754 
L 720.958213 352.086522 
L 726.691404 352.584125 
L 743.890977 352.584125 
L 749.624168 352.050979 
L 755.357359 352.726297 
L 761.09055 352.370866 
L 766.823741 352.228694 
L 772.556932 352.264237 
L 778.290123 352.655211 
L 784.023314 352.726297 
L 789.756505 352.335323 
L 795.489696 352.29978 
L 801.222887 352.584125 
L 806.956078 352.441952 
L 818.42246 352.797383 
L 835.622033 352.655211 
L 841.355224 352.406409 
L 847.088415 352.655211 
L 852.821606 352.548582 
L 858.554797 352.797383 
L 864.287988 352.441952 
L 870.021179 352.904012 
L 881.487561 352.441952 
L 892.953943 352.904012 
L 898.687134 352.655211 
L 904.420325 352.832926 
L 910.153515 352.619668 
L 915.886706 352.832926 
L 921.619897 352.477496 
L 927.353088 352.548582 
L 933.086279 352.157608 
L 938.81947 352.050979 
L 944.552661 351.446746 
L 950.285852 335.772252 
L 950.285852 335.772252 
" clip-path="url(#p18819311f5)" style="fill: none; stroke: #e4d354; stroke-linecap: square"/>
   </g>
   <g id="line2d_14">
    <path d="M 96.040398 353.213843 
L 136.172735 353.154367 
L 141.905925 352.888264 
L 147.639116 351.828498 
L 153.372307 348.634208 
L 159.105498 337.949265 
L 164.838689 292.587421 
L 170.57188 288.606597 
L 176.305071 304.707608 
L 187.771453 302.859368 
L 193.504644 309.932439 
L 199.237835 304.600979 
L 204.971026 312.775885 
L 210.704217 315.72596 
L 216.437408 312.989143 
L 222.170599 313.593376 
L 227.90379 311.389705 
L 233.636981 317.716372 
L 245.103363 320.950791 
L 250.836554 321.483937 
L 256.569745 325.749106 
L 262.302936 321.910454 
L 268.036127 328.059406 
L 273.769318 327.028657 
L 279.502509 328.770267 
L 285.2357 328.592552 
L 290.968891 329.552215 
L 296.702082 331.9336 
L 308.168464 333.959555 
L 313.901655 334.030642 
L 319.634846 335.274649 
L 325.368037 335.132477 
L 331.101228 332.751091 
L 336.834418 339.21993 
L 342.567609 336.127683 
L 348.3008 335.985511 
L 354.033991 340.96154 
L 359.767182 340.854911 
L 365.500373 338.615698 
L 371.233564 340.357308 
L 376.966755 340.997084 
L 382.699946 337.087346 
L 388.433137 344.444761 
L 394.166328 342.489893 
L 399.899519 343.236297 
L 405.63271 342.383263 
L 411.365901 344.338132 
L 417.099092 344.160417 
L 422.832283 344.906821 
L 428.565474 344.124874 
L 434.298665 344.231503 
L 440.031856 343.840529 
L 445.765047 343.804986 
L 451.498238 325.464761 
L 457.231429 299.51832 
L 462.96462 335.132477 
L 468.697811 344.089331 
L 474.431002 346.008657 
L 480.164193 346.293001 
L 485.897384 347.927982 
L 491.630575 346.719518 
L 497.363766 348.212327 
L 503.096957 348.105698 
L 508.830148 346.968319 
L 514.563339 346.541803 
L 520.29653 346.86169 
L 526.02972 347.78581 
L 531.762911 347.359293 
L 537.496102 347.821353 
L 543.229293 347.252664 
L 548.962484 347.927982 
L 554.695675 347.039406 
L 560.428866 346.577346 
L 566.162057 347.465922 
L 571.895248 345.724312 
L 577.628439 348.176784 
L 583.36163 348.461128 
L 594.828012 347.643638 
L 600.561203 347.679181 
L 606.294394 347.537009 
L 612.027585 348.425585 
L 617.760776 347.359293 
L 623.493967 347.110492 
L 629.227158 347.750267 
L 634.960349 346.008657 
L 640.69354 346.221915 
L 646.426731 347.394836 
L 652.159922 346.293001 
L 657.893113 347.78581 
L 663.626304 347.78581 
L 669.359495 347.963525 
L 675.092686 347.359293 
L 680.825877 347.608095 
L 686.559068 346.968319 
L 692.292259 347.572552 
L 703.758641 348.141241 
L 709.491832 348.105698 
L 715.225022 348.390042 
L 720.958213 347.927982 
L 726.691404 347.892439 
L 732.424595 347.465922 
L 738.157786 348.24787 
L 743.890977 347.572552 
L 749.624168 348.070155 
L 755.357359 348.781016 
L 761.09055 347.608095 
L 766.823741 347.181578 
L 772.556932 347.999069 
L 778.290123 348.283413 
L 784.023314 347.892439 
L 789.756505 348.852102 
L 795.489696 349.278619 
L 801.222887 347.465922 
L 812.689269 348.816559 
L 818.42246 348.887645 
L 824.155651 350.238282 
L 829.888842 348.994275 
L 835.622033 349.776222 
L 841.355224 349.420791 
L 847.088415 349.847308 
L 852.821606 350.664799 
L 864.287988 351.126859 
L 870.021179 349.811765 
L 875.75437 350.167196 
L 881.487561 350.238282 
L 887.220752 351.731091 
L 892.953943 351.873263 
L 898.687134 351.446746 
L 904.420325 352.015436 
L 910.153515 352.157608 
L 915.886706 352.76184 
L 921.619897 351.695548 
L 927.353088 352.29978 
L 933.086279 350.202739 
L 938.81947 351.695548 
L 944.552661 351.02023 
L 950.285852 340.997084 
L 950.285852 340.997084 
" clip-path="url(#p18819311f5)" style="fill: none; stroke: #2b908f; stroke-linecap: square"/>
   </g>
   <g id="line2d_15">
    <path d="M 96.040398 353.213956 
L 136.172735 353.099026 
L 141.905925 352.691165 
L 147.639116 351.012574 
L 153.372307 345.379036 
L 159.105498 324.762786 
L 164.838689 238.490866 
L 170.57188 244.177758 
L 176.305071 247.589893 
L 182.038262 249.722477 
L 187.771453 254.023188 
L 193.504644 251.357458 
L 199.237835 264.366222 
L 204.971026 265.219256 
L 210.704217 267.671728 
L 216.437408 269.484424 
L 222.170599 273.074275 
L 227.90379 274.815885 
L 233.636981 279.756372 
L 239.370172 279.649743 
L 245.103363 284.519144 
L 250.836554 288.890941 
L 256.569745 291.130155 
L 262.302936 294.684462 
L 268.036127 297.989967 
L 273.769318 298.558657 
L 279.502509 302.823825 
L 285.2357 301.188844 
L 290.968891 307.515511 
L 296.702082 309.434836 
L 302.435273 311.140904 
L 308.168464 314.80184 
L 313.901655 314.197608 
L 319.634846 316.010305 
L 325.368037 317.041054 
L 331.101228 321.16405 
L 336.834418 319.102552 
L 342.567609 324.114125 
L 348.3008 316.792252 
L 354.033991 335.274649 
L 359.767182 331.57817 
L 365.500373 329.72993 
L 371.233564 332.85772 
L 376.966755 330.511878 
L 382.699946 335.274649 
L 388.433137 333.817383 
L 394.166328 335.736709 
L 399.899519 336.803001 
L 405.63271 336.803001 
L 411.365901 339.006672 
L 417.099092 336.5542 
L 422.832283 338.509069 
L 428.565474 339.575361 
L 434.298665 341.352514 
L 440.031856 342.34772 
L 445.765047 340.783825 
L 451.498238 340.819368 
L 457.231429 342.489893 
L 462.96462 343.804986 
L 468.697811 344.444761 
L 474.431002 343.698357 
L 480.164193 344.65802 
L 485.897384 342.845323 
L 491.630575 332.50229 
L 497.363766 124.753039 
L 503.096957 232.875061 
L 508.830148 319.493525 
L 514.563339 333.78184 
L 520.29653 342.738694 
L 526.02972 345.084537 
L 531.762911 348.24787 
L 543.229293 349.562964 
L 548.962484 349.776222 
L 554.695675 349.811765 
L 560.428866 349.989481 
L 566.162057 349.989481 
L 571.895248 350.735885 
L 577.628439 351.126859 
L 583.36163 351.126859 
L 589.094821 350.806971 
L 594.828012 350.984687 
L 600.561203 351.02023 
L 606.294394 350.806971 
L 612.027585 350.735885 
L 617.760776 351.304574 
L 623.493967 351.588919 
L 629.227158 350.842514 
L 634.960349 351.197945 
L 640.69354 351.091316 
L 646.426731 351.908806 
L 652.159922 351.660005 
L 657.893113 351.624462 
L 663.626304 351.83772 
L 669.359495 351.83772 
L 675.092686 352.228694 
L 680.825877 351.660005 
L 686.559068 351.802177 
L 692.292259 351.48229 
L 698.02545 351.02023 
L 703.758641 351.162402 
L 715.225022 351.766634 
L 720.958213 351.48229 
L 726.691404 351.766634 
L 732.424595 351.553376 
L 738.157786 352.050979 
L 749.624168 352.086522 
L 755.357359 352.335323 
L 761.09055 351.944349 
L 772.556932 351.944349 
L 778.290123 352.086522 
L 784.023314 352.015436 
L 812.689269 352.441952 
L 818.42246 352.868469 
L 824.155651 352.29978 
L 829.888842 352.29978 
L 835.622033 352.157608 
L 841.355224 351.873263 
L 847.088415 351.83772 
L 858.554797 352.370866 
L 864.287988 352.193151 
L 870.021179 352.548582 
L 875.75437 352.050979 
L 887.220752 352.086522 
L 892.953943 352.015436 
L 904.420325 352.29978 
L 921.619897 351.553376 
L 927.353088 350.593713 
L 933.086279 348.674387 
L 938.81947 348.070155 
L 944.552661 335.985511 
L 950.285852 182.261728 
L 950.285852 182.261728 
" clip-path="url(#p18819311f5)" style="fill: none; stroke: #f45b5b; stroke-linecap: square"/>
   </g>
   <g id="line2d_16">
    <path d="M 96.040398 353.213888 
L 136.172735 353.095363 
L 141.905925 352.643257 
L 147.639116 350.767054 
L 153.372307 344.650041 
L 159.105498 322.025969 
L 164.838689 233.08832 
L 170.57188 225.304387 
L 176.305071 251.641803 
L 182.038262 245.457308 
L 187.771453 242.542777 
L 193.504644 259.745623 
L 199.237835 254.200904 
L 204.971026 265.396971 
L 210.704217 264.650567 
L 216.437408 265.823488 
L 222.170599 267.884986 
L 227.90379 265.077084 
L 233.636981 277.481615 
L 239.370172 275.384574 
L 245.103363 281.81787 
L 250.836554 283.488394 
L 256.569745 287.966821 
L 262.302936 286.260754 
L 268.036127 296.461615 
L 273.769318 294.862177 
L 279.502509 298.096597 
L 285.2357 296.568245 
L 290.968891 302.112964 
L 296.702082 305.738357 
L 302.435273 308.333001 
L 308.168464 308.688432 
L 313.901655 312.918057 
L 319.634846 312.313825 
L 325.368037 310.572215 
L 331.101228 313.52229 
L 336.834418 318.924836 
L 342.567609 317.92963 
L 348.3008 319.884499 
L 354.033991 324.043039 
L 359.767182 325.749106 
L 365.500373 323.545436 
L 371.233564 329.481128 
L 376.966755 326.317795 
L 382.699946 325.144874 
L 388.433137 331.258282 
L 399.899519 333.355323 
L 405.63271 332.715548 
L 417.099092 333.213151 
L 422.832283 335.594537 
L 428.565474 336.625286 
L 434.298665 337.407233 
L 440.031856 336.305398 
L 445.765047 331.47154 
L 451.498238 50.396934 
L 457.231429 150.024162 
L 462.96462 301.579818 
L 468.697811 327.384087 
L 474.431002 337.549406 
L 480.164193 340.001878 
L 485.897384 344.409218 
L 497.363766 344.977907 
L 503.096957 346.186372 
L 508.830148 345.297795 
L 514.563339 342.987496 
L 520.29653 344.444761 
L 526.02972 346.328544 
L 531.762911 346.435173 
L 537.496102 346.826147 
L 543.229293 346.008657 
L 548.962484 346.008657 
L 554.695675 345.368881 
L 560.428866 346.39963 
L 566.162057 347.110492 
L 571.895248 346.079743 
L 577.628439 346.932776 
L 583.36163 347.039406 
L 589.094821 346.612889 
L 594.828012 347.821353 
L 600.561203 346.86169 
L 606.294394 346.932776 
L 612.027585 348.034612 
L 617.760776 346.683975 
L 623.493967 346.826147 
L 629.227158 348.034612 
L 634.960349 345.902027 
L 640.69354 345.048994 
L 646.426731 347.217121 
L 652.159922 346.115286 
L 657.893113 348.354499 
L 663.626304 346.470716 
L 669.359495 347.821353 
L 675.092686 348.212327 
L 680.825877 347.359293 
L 686.559068 347.537009 
L 692.292259 347.465922 
L 698.02545 348.034612 
L 703.758641 347.430379 
L 709.491832 346.470716 
L 715.225022 346.932776 
L 720.958213 346.293001 
L 726.691404 347.465922 
L 732.424595 347.537009 
L 738.157786 348.212327 
L 743.890977 347.110492 
L 749.624168 348.070155 
L 755.357359 347.679181 
L 761.09055 347.927982 
L 766.823741 346.826147 
L 772.556932 347.892439 
L 778.290123 348.176784 
L 784.023314 348.923188 
L 789.756505 348.958731 
L 795.489696 348.852102 
L 801.222887 346.968319 
L 806.956078 348.532215 
L 812.689269 349.456334 
L 818.42246 349.17199 
L 824.155651 349.527421 
L 829.888842 350.273825 
L 835.622033 348.674387 
L 841.355224 349.811765 
L 847.088415 350.309368 
L 852.821606 350.273825 
L 858.554797 350.522627 
L 864.287988 350.238282 
L 870.021179 349.100904 
L 875.75437 349.705136 
L 881.487561 350.45154 
L 887.220752 351.624462 
L 892.953943 352.015436 
L 898.687134 350.309368 
L 904.420325 351.37566 
L 910.153515 351.766634 
L 921.619897 351.411203 
L 927.353088 350.593713 
L 933.086279 348.070155 
L 938.81947 347.999069 
L 944.552661 339.930791 
L 950.285852 233.301578 
L 950.285852 233.301578 
" clip-path="url(#p18819311f5)" style="fill: none; stroke: #91e8e1; stroke-linecap: square"/>
   </g>
   <g id="line2d_17">
    <path d="M 96.040398 353.21385 
L 136.172735 353.131536 
L 141.905925 352.822241 
L 147.639116 351.588396 
L 153.372307 347.710542 
L 159.105498 332.792102 
L 164.838689 264.721653 
L 170.57188 266.107833 
L 176.305071 278.832252 
L 182.038262 275.491203 
L 187.771453 277.090642 
L 193.504644 285.087833 
L 199.237835 287.931278 
L 204.971026 287.789106 
L 210.704217 290.170492 
L 216.437408 296.035099 
L 222.170599 297.243563 
L 227.90379 299.838207 
L 233.636981 298.061054 
L 239.370172 303.534687 
L 245.103363 306.875735 
L 250.836554 310.358956 
L 256.569745 309.257121 
L 262.302936 313.52229 
L 268.036127 313.771091 
L 273.769318 317.289855 
L 279.502509 318.640492 
L 285.2357 319.351353 
L 290.968891 321.057421 
L 296.702082 324.149668 
L 302.435273 325.180417 
L 308.168464 323.261091 
L 313.901655 328.770267 
L 319.634846 329.836559 
L 331.101228 335.16802 
L 336.834418 333.604125 
L 342.567609 336.09214 
L 348.3008 330.227533 
L 354.033991 342.134462 
L 359.767182 339.362102 
L 365.500373 338.686784 
L 371.233564 340.819368 
L 376.966755 339.68199 
L 382.699946 342.951952 
L 394.166328 343.094125 
L 405.63271 342.560979 
L 411.365901 345.830941 
L 417.099092 343.662814 
L 422.832283 345.013451 
L 428.565474 346.0442 
L 434.298665 345.830941 
L 440.031856 347.679181 
L 445.765047 346.897233 
L 451.498238 348.034612 
L 457.231429 346.86169 
L 462.96462 347.430379 
L 468.697811 347.501466 
L 474.431002 348.638844 
L 480.164193 349.065361 
L 485.897384 347.892439 
L 491.630575 347.217121 
L 497.363766 314.446409 
L 503.096957 307.408881 
L 508.830148 340.890454 
L 514.563339 347.608095 
L 520.29653 349.385248 
L 526.02972 350.522627 
L 531.762911 350.771428 
L 537.496102 351.37566 
L 548.962484 351.624462 
L 554.695675 351.162402 
L 560.428866 351.197945 
L 577.628439 351.83772 
L 583.36163 352.015436 
L 589.094821 351.446746 
L 594.828012 351.766634 
L 600.561203 351.588919 
L 606.294394 351.908806 
L 612.027585 351.802177 
L 617.760776 351.517833 
L 623.493967 351.83772 
L 634.960349 352.015436 
L 640.69354 351.695548 
L 646.426731 351.731091 
L 652.159922 352.584125 
L 663.626304 352.264237 
L 669.359495 352.086522 
L 680.825877 352.193151 
L 686.559068 351.517833 
L 692.292259 351.517833 
L 698.02545 351.979893 
L 703.758641 351.304574 
L 709.491832 352.228694 
L 720.958213 352.228694 
L 726.691404 351.944349 
L 732.424595 352.477496 
L 743.890977 352.157608 
L 755.357359 352.335323 
L 761.09055 352.29978 
L 766.823741 352.441952 
L 772.556932 351.979893 
L 784.023314 352.406409 
L 789.756505 351.908806 
L 795.489696 352.406409 
L 801.222887 352.477496 
L 806.956078 352.228694 
L 818.42246 352.619668 
L 824.155651 352.050979 
L 829.888842 352.29978 
L 870.021179 352.619668 
L 875.75437 352.868469 
L 881.487561 352.29978 
L 887.220752 352.726297 
L 898.687134 352.406409 
L 904.420325 352.690754 
L 915.886706 352.690754 
L 927.353088 352.015436 
L 933.086279 351.304574 
L 938.81947 352.157608 
L 944.552661 350.167196 
L 950.285852 312.811428 
L 950.285852 312.811428 
" clip-path="url(#p18819311f5)" style="fill: none; stroke: #7cb5ec; stroke-linecap: square"/>
   </g>
   <g id="line2d_18">
    <path d="M 96.040398 353.213841 
L 136.172735 353.125908 
L 141.905925 352.768338 
L 147.639116 351.366775 
L 153.372307 346.83242 
L 159.105498 330.380642 
L 164.838689 259.887795 
L 170.57188 250.468881 
L 176.305071 280.040717 
L 182.038262 272.363413 
L 187.771453 267.707271 
L 193.504644 288.571054 
L 199.237835 278.405735 
L 204.971026 288.535511 
L 216.437408 291.983188 
L 222.170599 292.622964 
L 227.90379 289.815061 
L 233.636981 296.248357 
L 239.370172 300.620155 
L 245.103363 304.103376 
L 250.836554 304.672065 
L 256.569745 306.271503 
L 262.302936 305.738357 
L 268.036127 311.425248 
L 273.769318 312.882514 
L 279.502509 313.700005 
L 285.2357 316.578994 
L 290.968891 316.863338 
L 296.702082 320.382102 
L 302.435273 322.4436 
L 308.168464 320.23993 
L 313.901655 325.358132 
L 319.634846 326.033451 
L 325.368037 327.88169 
L 331.101228 327.384087 
L 336.834418 332.075773 
L 342.567609 330.973937 
L 348.3008 328.983525 
L 354.033991 334.919218 
L 359.767182 334.137271 
L 365.500373 334.030642 
L 371.233564 338.118095 
L 376.966755 336.021054 
L 382.699946 334.386072 
L 388.433137 341.316971 
L 394.166328 339.291016 
L 399.899519 340.499481 
L 405.63271 338.580155 
L 411.365901 341.4236 
L 417.099092 340.96154 
L 422.832283 341.707945 
L 428.565474 342.063376 
L 434.298665 342.667608 
L 445.765047 341.850117 
L 451.498238 300.051466 
L 457.231429 266.925323 
L 462.96462 328.059406 
L 468.697811 342.241091 
L 474.431002 345.902027 
L 480.164193 346.0442 
L 485.897384 348.461128 
L 491.630575 348.390042 
L 497.363766 347.927982 
L 503.096957 347.679181 
L 508.830148 347.110492 
L 514.563339 346.115286 
L 520.29653 346.790604 
L 526.02972 346.577346 
L 531.762911 347.465922 
L 537.496102 347.039406 
L 543.229293 348.034612 
L 548.962484 346.221915 
L 554.695675 347.359293 
L 560.428866 348.034612 
L 566.162057 347.856896 
L 571.895248 347.359293 
L 577.628439 348.034612 
L 583.36163 347.963525 
L 589.094821 347.537009 
L 594.828012 348.496672 
L 617.760776 347.252664 
L 623.493967 348.674387 
L 629.227158 347.927982 
L 634.960349 346.755061 
L 640.69354 346.470716 
L 646.426731 347.714724 
L 652.159922 347.252664 
L 657.893113 348.638844 
L 663.626304 348.070155 
L 669.359495 348.745473 
L 675.092686 347.572552 
L 680.825877 348.034612 
L 686.559068 348.141241 
L 692.292259 347.750267 
L 698.02545 349.17199 
L 703.758641 347.465922 
L 709.491832 347.252664 
L 715.225022 347.430379 
L 720.958213 348.425585 
L 726.691404 348.745473 
L 732.424595 347.927982 
L 738.157786 348.638844 
L 743.890977 348.105698 
L 749.624168 348.496672 
L 755.357359 348.354499 
L 761.09055 347.78581 
L 766.823741 347.074949 
L 772.556932 349.065361 
L 778.290123 348.176784 
L 784.023314 348.532215 
L 789.756505 349.278619 
L 795.489696 349.136447 
L 801.222887 348.425585 
L 806.956078 348.212327 
L 812.689269 349.314162 
L 818.42246 348.994275 
L 824.155651 350.025024 
L 829.888842 349.776222 
L 835.622033 350.629256 
L 841.355224 350.131653 
L 847.088415 350.664799 
L 852.821606 350.735885 
L 858.554797 351.162402 
L 864.287988 350.45154 
L 870.021179 350.131653 
L 875.75437 350.735885 
L 881.487561 350.522627 
L 887.220752 351.944349 
L 892.953943 351.695548 
L 898.687134 351.269031 
L 915.886706 352.122065 
L 921.619897 351.48229 
L 927.353088 351.411203 
L 933.086279 349.207533 
L 938.81947 350.771428 
L 944.552661 348.745473 
L 950.285852 325.820192 
L 950.285852 325.820192 
" clip-path="url(#p18819311f5)" style="fill: none; stroke: #434348; stroke-linecap: square"/>
   </g>
   <g id="line2d_19">
    <path d="M 96.040398 353.214058 
L 136.172735 353.121306 
L 141.905925 352.788335 
L 147.639116 351.485622 
L 153.372307 347.037184 
L 159.105498 330.138675 
L 164.838689 266.676522 
L 170.57188 267.956072 
L 176.305071 273.465248 
L 182.038262 276.130979 
L 187.771453 277.019556 
L 193.504644 279.294312 
L 199.237835 286.936072 
L 204.971026 287.931278 
L 210.704217 292.942851 
L 216.437408 294.257945 
L 222.170599 300.513526 
L 227.90379 301.224387 
L 233.636981 297.136934 
L 239.370172 304.38772 
L 245.103363 304.956409 
L 250.836554 307.97757 
L 262.302936 313.735548 
L 268.036127 319.067009 
L 273.769318 319.31581 
L 279.502509 320.950791 
L 285.2357 321.057421 
L 290.968891 323.509893 
L 296.702082 324.29184 
L 302.435273 326.922027 
L 308.168464 326.779855 
L 313.901655 330.369705 
L 319.634846 331.151653 
L 325.368037 330.831765 
L 331.101228 333.817383 
L 336.834418 333.675211 
L 342.567609 336.305398 
L 348.3008 331.293825 
L 354.033991 343.485099 
L 359.767182 338.828956 
L 365.500373 339.930791 
L 371.233564 339.148844 
L 376.966755 342.525436 
L 382.699946 342.027833 
L 388.433137 342.489893 
L 394.166328 343.27184 
L 399.899519 344.302589 
L 405.63271 343.342926 
L 411.365901 345.226709 
L 417.099092 344.764649 
L 422.832283 346.755061 
L 428.565474 346.648432 
L 434.298665 347.003863 
L 440.031856 348.212327 
L 445.765047 347.217121 
L 457.231429 348.390042 
L 462.96462 348.781016 
L 468.697811 348.141241 
L 474.431002 349.065361 
L 485.897384 349.776222 
L 491.630575 348.781016 
L 497.363766 337.229518 
L 503.096957 328.450379 
L 508.830148 345.368881 
L 514.563339 349.598507 
L 520.29653 350.700342 
L 526.02972 351.233488 
L 531.762911 351.517833 
L 537.496102 351.411203 
L 548.962484 351.624462 
L 554.695675 351.446746 
L 560.428866 350.878057 
L 566.162057 350.878057 
L 571.895248 351.731091 
L 577.628439 351.731091 
L 583.36163 351.588919 
L 589.094821 352.050979 
L 600.561203 351.802177 
L 623.493967 351.873263 
L 629.227158 351.126859 
L 634.960349 351.908806 
L 640.69354 350.771428 
L 646.426731 352.193151 
L 652.159922 351.873263 
L 657.893113 352.228694 
L 663.626304 352.193151 
L 669.359495 352.29978 
L 675.092686 352.228694 
L 680.825877 352.513039 
L 692.292259 351.553376 
L 698.02545 351.269031 
L 703.758641 351.695548 
L 709.491832 351.944349 
L 715.225022 352.584125 
L 720.958213 351.944349 
L 726.691404 352.441952 
L 732.424595 352.157608 
L 738.157786 352.548582 
L 743.890977 352.584125 
L 749.624168 352.015436 
L 755.357359 352.655211 
L 761.09055 352.086522 
L 766.823741 352.015436 
L 778.290123 352.264237 
L 789.756505 352.086522 
L 795.489696 352.619668 
L 801.222887 352.264237 
L 818.42246 352.655211 
L 824.155651 352.264237 
L 835.622033 352.228694 
L 841.355224 352.015436 
L 847.088415 352.441952 
L 858.554797 352.548582 
L 864.287988 352.29978 
L 870.021179 352.726297 
L 875.75437 352.655211 
L 881.487561 352.193151 
L 887.220752 352.655211 
L 892.953943 352.477496 
L 898.687134 352.548582 
L 910.153515 352.904012 
L 915.886706 352.655211 
L 921.619897 352.726297 
L 927.353088 352.584125 
L 933.086279 351.553376 
L 938.81947 352.122065 
L 944.552661 350.344911 
L 950.285852 311.780679 
L 950.285852 311.780679 
" clip-path="url(#p18819311f5)" style="fill: none; stroke: #90ed7d; stroke-linecap: square"/>
   </g>
   <g id="line2d_20">
    <path d="M 96.040398 353.213934 
L 136.172735 353.116053 
L 141.905925 352.729591 
L 147.639116 351.265699 
L 153.372307 346.257458 
L 159.105498 327.739518 
L 164.838689 259.816709 
L 170.57188 247.021203 
L 176.305071 278.441278 
L 182.038262 269.271166 
L 187.771453 264.970454 
L 193.504644 287.931278 
L 199.237835 276.095436 
L 204.971026 290.241578 
L 210.704217 291.521129 
L 216.437408 289.850604 
L 222.170599 293.333825 
L 227.90379 289.530717 
L 233.636981 297.243563 
L 239.370172 299.447233 
L 245.103363 300.975585 
L 250.836554 301.25993 
L 256.569745 307.444424 
L 262.302936 304.920866 
L 268.036127 318.320604 
L 273.769318 314.446409 
L 279.502509 316.401278 
L 285.2357 315.690417 
L 296.702082 319.422439 
L 302.435273 323.190005 
L 308.168464 322.123713 
L 313.901655 327.384087 
L 319.634846 325.642477 
L 325.368037 325.500305 
L 331.101228 324.362926 
L 336.834418 332.644462 
L 342.567609 329.481128 
L 348.3008 329.125698 
L 354.033991 336.09214 
L 365.500373 334.208357 
L 371.233564 334.848132 
L 376.966755 337.940379 
L 382.699946 330.19199 
L 388.433137 340.535024 
L 394.166328 339.077758 
L 399.899519 341.139256 
L 405.63271 338.437982 
L 411.365901 339.077758 
L 417.099092 340.14405 
L 422.832283 343.165211 
L 428.565474 341.850117 
L 434.298665 341.707945 
L 440.031856 342.418806 
L 445.765047 340.854911 
L 451.498238 324.647271 
L 457.231429 286.900529 
L 462.96462 329.445585 
L 468.697811 342.951952 
L 474.431002 344.693563 
L 480.164193 344.338132 
L 485.897384 346.790604 
L 491.630575 345.866484 
L 497.363766 347.039406 
L 503.096957 346.755061 
L 508.830148 345.830941 
L 514.563339 345.795398 
L 520.29653 345.93757 
L 526.02972 346.683975 
L 531.762911 347.714724 
L 537.496102 346.577346 
L 543.229293 346.826147 
L 548.962484 346.115286 
L 554.695675 346.826147 
L 560.428866 346.683975 
L 566.162057 346.719518 
L 571.895248 345.262252 
L 577.628439 346.364087 
L 583.36163 347.714724 
L 589.094821 346.86169 
L 594.828012 347.608095 
L 600.561203 346.897233 
L 606.294394 346.968319 
L 612.027585 347.714724 
L 617.760776 346.470716 
L 623.493967 347.32375 
L 629.227158 346.328544 
L 634.960349 347.110492 
L 640.69354 346.150829 
L 646.426731 346.790604 
L 652.159922 346.612889 
L 657.893113 347.039406 
L 663.626304 346.39963 
L 669.359495 347.430379 
L 675.092686 347.394836 
L 680.825877 347.714724 
L 686.559068 347.394836 
L 692.292259 347.537009 
L 709.491832 347.359293 
L 715.225022 347.963525 
L 720.958213 347.679181 
L 726.691404 347.537009 
L 732.424595 347.821353 
L 743.890977 347.78581 
L 749.624168 348.674387 
L 761.09055 347.394836 
L 766.823741 346.079743 
L 772.556932 348.425585 
L 778.290123 347.572552 
L 789.756505 349.278619 
L 795.489696 349.207533 
L 801.222887 347.146035 
L 806.956078 348.816559 
L 812.689269 349.065361 
L 818.42246 349.065361 
L 824.155651 349.989481 
L 829.888842 350.025024 
L 835.622033 349.17199 
L 841.355224 350.309368 
L 847.088415 349.918394 
L 852.821606 350.522627 
L 858.554797 350.949143 
L 864.287988 350.9136 
L 870.021179 349.314162 
L 875.75437 350.380454 
L 881.487561 350.45154 
L 887.220752 351.873263 
L 892.953943 351.944349 
L 898.687134 350.984687 
L 904.420325 351.944349 
L 915.886706 352.264237 
L 921.619897 351.731091 
L 927.353088 351.695548 
L 933.086279 350.09611 
L 938.81947 350.522627 
L 944.552661 349.029818 
L 950.285852 322.870117 
L 950.285852 322.870117 
" clip-path="url(#p18819311f5)" style="fill: none; stroke: #f7a35c; stroke-linecap: square"/>
   </g>
   <g id="line2d_21">
    <path d="M 96.040398 353.214087 
L 136.172735 353.141109 
L 141.905925 352.876713 
L 147.639116 351.688872 
L 153.372307 348.19927 
L 159.105498 334.350529 
L 164.838689 279.685286 
L 170.57188 285.016747 
L 176.305071 287.682477 
L 182.038262 289.779518 
L 187.771453 289.246372 
L 193.504644 290.063863 
L 199.237835 300.300267 
L 204.971026 297.172477 
L 210.704217 302.717196 
L 216.437408 305.809443 
L 222.170599 305.809443 
L 227.90379 304.84978 
L 233.636981 308.723975 
L 239.370172 312.882514 
L 245.103363 312.49154 
L 256.569745 319.244724 
L 262.302936 321.235136 
L 268.036127 325.21596 
L 273.769318 324.078582 
L 279.502509 325.429218 
L 285.2357 324.505099 
L 290.968891 328.308207 
L 296.702082 330.725136 
L 302.435273 331.329368 
L 308.168464 330.689593 
L 313.901655 332.146859 
L 319.634846 336.056597 
L 325.368037 334.066185 
L 331.101228 335.736709 
L 336.834418 337.656035 
L 342.567609 339.148844 
L 348.3008 336.056597 
L 354.033991 344.764649 
L 359.767182 342.098919 
L 365.500373 341.850117 
L 371.233564 343.27184 
L 376.966755 344.338132 
L 382.699946 343.947158 
L 388.433137 344.19596 
L 394.166328 345.724312 
L 399.899519 345.688769 
L 405.63271 345.439967 
L 411.365901 346.790604 
L 417.099092 346.0442 
L 422.832283 347.643638 
L 428.565474 348.354499 
L 434.298665 347.394836 
L 440.031856 347.856896 
L 445.765047 348.958731 
L 451.498238 348.283413 
L 457.231429 348.567758 
L 462.96462 349.029818 
L 468.697811 348.958731 
L 474.431002 349.491878 
L 480.164193 350.344911 
L 485.897384 349.705136 
L 491.630575 348.461128 
L 497.363766 317.92963 
L 503.096957 325.535848 
L 508.830148 345.297795 
L 514.563339 349.100904 
L 520.29653 350.45154 
L 526.02972 350.700342 
L 531.762911 350.487084 
L 537.496102 351.02023 
L 548.962484 351.162402 
L 554.695675 351.48229 
L 566.162057 351.091316 
L 571.895248 351.873263 
L 577.628439 352.050979 
L 583.36163 351.766634 
L 589.094821 351.802177 
L 594.828012 352.050979 
L 600.561203 352.086522 
L 606.294394 351.624462 
L 612.027585 352.122065 
L 623.493967 351.588919 
L 629.227158 351.660005 
L 634.960349 351.873263 
L 640.69354 351.766634 
L 646.426731 352.086522 
L 652.159922 352.228694 
L 657.893113 352.086522 
L 663.626304 351.695548 
L 669.359495 351.944349 
L 675.092686 352.513039 
L 680.825877 352.335323 
L 686.559068 351.624462 
L 692.292259 352.050979 
L 703.758641 351.340117 
L 709.491832 352.228694 
L 720.958213 352.335323 
L 726.691404 352.086522 
L 732.424595 352.441952 
L 749.624168 352.264237 
L 761.09055 352.086522 
L 766.823741 352.193151 
L 772.556932 352.086522 
L 778.290123 352.228694 
L 784.023314 351.802177 
L 789.756505 351.944349 
L 795.489696 352.513039 
L 801.222887 352.441952 
L 818.42246 352.690754 
L 829.888842 352.29978 
L 835.622033 352.619668 
L 841.355224 352.050979 
L 847.088415 352.370866 
L 852.821606 352.513039 
L 858.554797 352.29978 
L 864.287988 352.584125 
L 870.021179 352.584125 
L 875.75437 352.726297 
L 881.487561 352.370866 
L 887.220752 352.939555 
L 892.953943 352.655211 
L 904.420325 352.584125 
L 910.153515 352.406409 
L 915.886706 352.619668 
L 921.619897 352.584125 
L 927.353088 352.086522 
L 933.086279 350.878057 
L 938.81947 350.842514 
L 944.552661 347.146035 
L 950.285852 256.226859 
L 950.285852 256.226859 
" clip-path="url(#p18819311f5)" style="fill: none; stroke: #8085e9; stroke-linecap: square"/>
   </g>
   <g id="line2d_22">
    <path d="M 96.040398 353.213977 
L 136.172735 353.136078 
L 141.905925 352.827656 
L 147.639116 351.415533 
L 153.372307 347.394111 
L 159.105498 331.738114 
L 164.838689 273.074275 
L 170.57188 267.138582 
L 176.305071 291.414499 
L 182.038262 282.493188 
L 187.771453 278.014761 
L 193.504644 298.878544 
L 199.237835 286.7939 
L 204.971026 298.203226 
L 210.704217 299.944836 
L 216.437408 300.904499 
L 222.170599 299.198432 
L 227.90379 294.684462 
L 233.636981 307.444424 
L 239.370172 308.297458 
L 245.103363 308.937233 
L 250.836554 310.963188 
L 256.569745 315.121728 
L 262.302936 311.67405 
L 268.036127 323.723151 
L 273.769318 319.31581 
L 279.502509 319.635698 
L 285.2357 320.986334 
L 290.968891 322.621316 
L 296.702082 325.535848 
L 302.435273 326.388881 
L 308.168464 324.469555 
L 313.901655 329.694387 
L 319.634846 330.156447 
L 325.368037 327.952776 
L 331.101228 327.846147 
L 336.834418 336.305398 
L 342.567609 332.964349 
L 348.3008 333.284237 
L 354.033991 338.437982 
L 359.767182 337.656035 
L 365.500373 336.5542 
L 371.233564 339.21993 
L 376.966755 338.082552 
L 382.699946 332.928806 
L 388.433137 342.454349 
L 394.166328 341.103713 
L 399.899519 342.916409 
L 405.63271 341.281428 
L 411.365901 341.06817 
L 417.099092 342.667608 
L 422.832283 343.911615 
L 428.565474 342.80978 
L 434.298665 342.418806 
L 445.765047 342.525436 
L 451.498238 300.300267 
L 457.231429 285.40772 
L 462.96462 331.009481 
L 468.697811 341.06817 
L 474.431002 344.124874 
L 480.164193 343.911615 
L 485.897384 346.932776 
L 491.630575 346.612889 
L 497.363766 346.932776 
L 503.096957 346.86169 
L 508.830148 345.759855 
L 514.563339 346.364087 
L 520.29653 344.871278 
L 526.02972 346.221915 
L 531.762911 346.612889 
L 537.496102 346.221915 
L 543.229293 345.546597 
L 548.962484 345.617683 
L 554.695675 345.191166 
L 560.428866 346.541803 
L 566.162057 346.932776 
L 571.895248 346.470716 
L 577.628439 346.577346 
L 583.36163 347.32375 
L 589.094821 346.612889 
L 594.828012 346.683975 
L 600.561203 347.430379 
L 606.294394 346.968319 
L 612.027585 346.826147 
L 617.760776 346.150829 
L 623.493967 347.146035 
L 629.227158 347.394836 
L 634.960349 346.0442 
L 640.69354 347.074949 
L 646.426731 346.932776 
L 652.159922 345.333338 
L 657.893113 346.790604 
L 663.626304 346.86169 
L 669.359495 347.181578 
L 675.092686 347.217121 
L 680.825877 346.648432 
L 686.559068 346.293001 
L 692.292259 346.221915 
L 698.02545 346.50626 
L 703.758641 346.328544 
L 709.491832 347.750267 
L 715.225022 346.932776 
L 720.958213 347.003863 
L 726.691404 347.465922 
L 732.424595 346.221915 
L 738.157786 347.394836 
L 743.890977 346.86169 
L 749.624168 347.146035 
L 755.357359 347.679181 
L 761.09055 347.181578 
L 766.823741 345.902027 
L 772.556932 347.465922 
L 778.290123 347.714724 
L 784.023314 348.141241 
L 789.756505 348.354499 
L 795.489696 348.283413 
L 801.222887 346.008657 
L 806.956078 346.968319 
L 812.689269 349.065361 
L 818.42246 349.100904 
L 824.155651 349.385248 
L 829.888842 349.278619 
L 835.622033 349.420791 
L 841.355224 349.278619 
L 847.088415 350.238282 
L 852.821606 350.522627 
L 858.554797 350.344911 
L 864.287988 349.598507 
L 870.021179 349.349705 
L 875.75437 350.309368 
L 881.487561 350.202739 
L 887.220752 351.37566 
L 892.953943 351.908806 
L 898.687134 350.593713 
L 904.420325 351.37566 
L 915.886706 351.83772 
L 921.619897 351.233488 
L 927.353088 350.984687 
L 933.086279 348.354499 
L 938.81947 349.456334 
L 944.552661 343.911615 
L 950.285852 284.981203 
L 950.285852 284.981203 
" clip-path="url(#p18819311f5)" style="fill: none; stroke: #f15c80; stroke-linecap: square"/>
   </g>
   <g id="line2d_23">
    <path d="M 53.328125 353.2239 
L 992.998125 353.2239 
" clip-path="url(#p18819311f5)" style="fill: none; stroke: #dedede; stroke-width: 2; stroke-linecap: square"/>
   </g>
   <g id="text_17">
    <!-- Cutadapt: Lengths of Trimmed Sequences (3' end) -->
    <g transform="translate(321.810625 19.3575) scale(0.16 -0.16)">
     <defs>
      <path id="DejaVuSans-43" d="M 4122 4306 
L 4122 3641 
Q 3803 3938 3442 4084 
Q 3081 4231 2675 4231 
Q 1875 4231 1450 3742 
Q 1025 3253 1025 2328 
Q 1025 1406 1450 917 
Q 1875 428 2675 428 
Q 3081 428 3442 575 
Q 3803 722 4122 1019 
L 4122 359 
Q 3791 134 3420 21 
Q 3050 -91 2638 -91 
Q 1578 -91 968 557 
Q 359 1206 359 2328 
Q 359 3453 968 4101 
Q 1578 4750 2638 4750 
Q 3056 4750 3426 4639 
Q 3797 4528 4122 4306 
z
" transform="scale(0.015625)"/>
      <path id="DejaVuSans-75" d="M 544 1381 
L 544 3500 
L 1119 3500 
L 1119 1403 
Q 1119 906 1312 657 
Q 1506 409 1894 409 
Q 2359 409 2629 706 
Q 2900 1003 2900 1516 
L 2900 3500 
L 3475 3500 
L 3475 0 
L 2900 0 
L 2900 538 
Q 2691 219 2414 64 
Q 2138 -91 1772 -91 
Q 1169 -91 856 284 
Q 544 659 544 1381 
z
M 1991 3584 
L 1991 3584 
z
" transform="scale(0.015625)"/>
      <path id="DejaVuSans-61" d="M 2194 1759 
Q 1497 1759 1228 1600 
Q 959 1441 959 1056 
Q 959 750 1161 570 
Q 1363 391 1709 391 
Q 2188 391 2477 730 
Q 2766 1069 2766 1631 
L 2766 1759 
L 2194 1759 
z
M 3341 1997 
L 3341 0 
L 2766 0 
L 2766 531 
Q 2569 213 2275 61 
Q 1981 -91 1556 -91 
Q 1019 -91 701 211 
Q 384 513 384 1019 
Q 384 1609 779 1909 
Q 1175 2209 1959 2209 
L 2766 2209 
L 2766 2266 
Q 2766 2663 2505 2880 
Q 2244 3097 1772 3097 
Q 1472 3097 1187 3025 
Q 903 2953 641 2809 
L 641 3341 
Q 956 3463 1253 3523 
Q 1550 3584 1831 3584 
Q 2591 3584 2966 3190 
Q 3341 2797 3341 1997 
z
" transform="scale(0.015625)"/>
      <path id="DejaVuSans-3a" d="M 750 794 
L 1409 794 
L 1409 0 
L 750 0 
L 750 794 
z
M 750 3309 
L 1409 3309 
L 1409 2516 
L 750 2516 
L 750 3309 
z
" transform="scale(0.015625)"/>
      <path id="DejaVuSans-6f" d="M 1959 3097 
Q 1497 3097 1228 2736 
Q 959 2375 959 1747 
Q 959 1119 1226 758 
Q 1494 397 1959 397 
Q 2419 397 2687 759 
Q 2956 1122 2956 1747 
Q 2956 2369 2687 2733 
Q 2419 3097 1959 3097 
z
M 1959 3584 
Q 2709 3584 3137 3096 
Q 3566 2609 3566 1747 
Q 3566 888 3137 398 
Q 2709 -91 1959 -91 
Q 1206 -91 779 398 
Q 353 888 353 1747 
Q 353 2609 779 3096 
Q 1206 3584 1959 3584 
z
" transform="scale(0.015625)"/>
      <path id="DejaVuSans-66" d="M 2375 4863 
L 2375 4384 
L 1825 4384 
Q 1516 4384 1395 4259 
Q 1275 4134 1275 3809 
L 1275 3500 
L 2222 3500 
L 2222 3053 
L 1275 3053 
L 1275 0 
L 697 0 
L 697 3053 
L 147 3053 
L 147 3500 
L 697 3500 
L 697 3744 
Q 697 4328 969 4595 
Q 1241 4863 1831 4863 
L 2375 4863 
z
" transform="scale(0.015625)"/>
      <path id="DejaVuSans-53" d="M 3425 4513 
L 3425 3897 
Q 3066 4069 2747 4153 
Q 2428 4238 2131 4238 
Q 1616 4238 1336 4038 
Q 1056 3838 1056 3469 
Q 1056 3159 1242 3001 
Q 1428 2844 1947 2747 
L 2328 2669 
Q 3034 2534 3370 2195 
Q 3706 1856 3706 1288 
Q 3706 609 3251 259 
Q 2797 -91 1919 -91 
Q 1588 -91 1214 -16 
Q 841 59 441 206 
L 441 856 
Q 825 641 1194 531 
Q 1563 422 1919 422 
Q 2459 422 2753 634 
Q 3047 847 3047 1241 
Q 3047 1584 2836 1778 
Q 2625 1972 2144 2069 
L 1759 2144 
Q 1053 2284 737 2584 
Q 422 2884 422 3419 
Q 422 4038 858 4394 
Q 1294 4750 2059 4750 
Q 2388 4750 2728 4690 
Q 3069 4631 3425 4513 
z
" transform="scale(0.015625)"/>
      <path id="DejaVuSans-71" d="M 947 1747 
Q 947 1113 1208 752 
Q 1469 391 1925 391 
Q 2381 391 2643 752 
Q 2906 1113 2906 1747 
Q 2906 2381 2643 2742 
Q 2381 3103 1925 3103 
Q 1469 3103 1208 2742 
Q 947 2381 947 1747 
z
M 2906 525 
Q 2725 213 2448 61 
Q 2172 -91 1784 -91 
Q 1150 -91 751 415 
Q 353 922 353 1747 
Q 353 2572 751 3078 
Q 1150 3584 1784 3584 
Q 2172 3584 2448 3432 
Q 2725 3281 2906 2969 
L 2906 3500 
L 3481 3500 
L 3481 -1331 
L 2906 -1331 
L 2906 525 
z
" transform="scale(0.015625)"/>
      <path id="DejaVuSans-33" d="M 2597 2516 
Q 3050 2419 3304 2112 
Q 3559 1806 3559 1356 
Q 3559 666 3084 287 
Q 2609 -91 1734 -91 
Q 1441 -91 1130 -33 
Q 819 25 488 141 
L 488 750 
Q 750 597 1062 519 
Q 1375 441 1716 441 
Q 2309 441 2620 675 
Q 2931 909 2931 1356 
Q 2931 1769 2642 2001 
Q 2353 2234 1838 2234 
L 1294 2234 
L 1294 2753 
L 1863 2753 
Q 2328 2753 2575 2939 
Q 2822 3125 2822 3475 
Q 2822 3834 2567 4026 
Q 2313 4219 1838 4219 
Q 1578 4219 1281 4162 
Q 984 4106 628 3988 
L 628 4550 
Q 988 4650 1302 4700 
Q 1616 4750 1894 4750 
Q 2613 4750 3031 4423 
Q 3450 4097 3450 3541 
Q 3450 3153 3228 2886 
Q 3006 2619 2597 2516 
z
" transform="scale(0.015625)"/>
      <path id="DejaVuSans-27" d="M 1147 4666 
L 1147 2931 
L 616 2931 
L 616 4666 
L 1147 4666 
z
" transform="scale(0.015625)"/>
     </defs>
     <use xlink:href="#DejaVuSans-43"/>
     <use xlink:href="#DejaVuSans-75" x="69.824219"/>
     <use xlink:href="#DejaVuSans-74" x="133.203125"/>
     <use xlink:href="#DejaVuSans-61" x="172.412109"/>
     <use xlink:href="#DejaVuSans-64" x="233.691406"/>
     <use xlink:href="#DejaVuSans-61" x="297.167969"/>
     <use xlink:href="#DejaVuSans-70" x="358.447266"/>
     <use xlink:href="#DejaVuSans-74" x="421.923828"/>
     <use xlink:href="#DejaVuSans-3a" x="461.132812"/>
     <use xlink:href="#DejaVuSans-20" x="494.824219"/>
     <use xlink:href="#DejaVuSans-4c" x="526.611328"/>
     <use xlink:href="#DejaVuSans-65" x="580.574219"/>
     <use xlink:href="#DejaVuSans-6e" x="642.097656"/>
     <use xlink:href="#DejaVuSans-67" x="705.476562"/>
     <use xlink:href="#DejaVuSans-74" x="768.953125"/>
     <use xlink:href="#DejaVuSans-68" x="808.162109"/>
     <use xlink:href="#DejaVuSans-73" x="871.541016"/>
     <use xlink:href="#DejaVuSans-20" x="923.640625"/>
     <use xlink:href="#DejaVuSans-6f" x="955.427734"/>
     <use xlink:href="#DejaVuSans-66" x="1016.609375"/>
     <use xlink:href="#DejaVuSans-20" x="1051.814453"/>
     <use xlink:href="#DejaVuSans-54" x="1083.601562"/>
     <use xlink:href="#DejaVuSans-72" x="1129.935547"/>
     <use xlink:href="#DejaVuSans-69" x="1171.048828"/>
     <use xlink:href="#DejaVuSans-6d" x="1198.832031"/>
     <use xlink:href="#DejaVuSans-6d" x="1296.244141"/>
     <use xlink:href="#DejaVuSans-65" x="1393.65625"/>
     <use xlink:href="#DejaVuSans-64" x="1455.179688"/>
     <use xlink:href="#DejaVuSans-20" x="1518.65625"/>
     <use xlink:href="#DejaVuSans-53" x="1550.443359"/>
     <use xlink:href="#DejaVuSans-65" x="1613.919922"/>
     <use xlink:href="#DejaVuSans-71" x="1675.443359"/>
     <use xlink:href="#DejaVuSans-75" x="1738.919922"/>
     <use xlink:href="#DejaVuSans-65" x="1802.298828"/>
     <use xlink:href="#DejaVuSans-6e" x="1863.822266"/>
     <use xlink:href="#DejaVuSans-63" x="1927.201172"/>
     <use xlink:href="#DejaVuSans-65" x="1982.181641"/>
     <use xlink:href="#DejaVuSans-73" x="2043.705078"/>
     <use xlink:href="#DejaVuSans-20" x="2095.804688"/>
     <use xlink:href="#DejaVuSans-28" x="2127.591797"/>
     <use xlink:href="#DejaVuSans-33" x="2166.605469"/>
     <use xlink:href="#DejaVuSans-27" x="2230.228516"/>
     <use xlink:href="#DejaVuSans-20" x="2257.71875"/>
     <use xlink:href="#DejaVuSans-65" x="2289.505859"/>
     <use xlink:href="#DejaVuSans-6e" x="2351.029297"/>
     <use xlink:href="#DejaVuSans-64" x="2414.408203"/>
     <use xlink:href="#DejaVuSans-29" x="2477.884766"/>
    </g>
   </g>
  </g>
 </g>
 <defs>
  <clipPath id="p18819311f5">
   <rect x="53.328125" y="35.2559" width="939.67" height="317.968"/>
  </clipPath>
 </defs>
</svg>
