<?xml version="1.0" encoding="utf-8" standalone="no"?>
<!DOCTYPE svg PUBLIC "-//W3C//DTD SVG 1.1//EN"
  "http://www.w3.org/Graphics/SVG/1.1/DTD/svg11.dtd">
<svg xmlns:xlink="http://www.w3.org/1999/xlink" width="1000.318125pt" height="388.844525pt" viewBox="0 0 1000.318125 388.844525" xmlns="http://www.w3.org/2000/svg" version="1.1">
 <metadata>
  <rdf:RDF xmlns:dc="http://purl.org/dc/elements/1.1/" xmlns:cc="http://creativecommons.org/ns#" xmlns:rdf="http://www.w3.org/1999/02/22-rdf-syntax-ns#">
   <cc:Work>
    <dc:type rdf:resource="http://purl.org/dc/dcmitype/StillImage"/>
    <dc:date>2024-08-21T12:01:24.577190</dc:date>
    <dc:format>image/svg+xml</dc:format>
    <dc:creator>
     <cc:Agent>
      <dc:title>Matplotlib v3.8.1, https://matplotlib.org/</dc:title>
     </cc:Agent>
    </dc:creator>
   </cc:Work>
  </rdf:RDF>
 </metadata>
 <defs>
  <style type="text/css">*{stroke-linejoin: round; stroke-linecap: butt}</style>
 </defs>
 <g id="figure_1">
  <g id="axes_1">
   <g id="patch_1">
    <path d="M 38.058125 353.2239 
L 993.118125 353.2239 
L 993.118125 35.2559 
L 38.058125 35.2559 
z
" style="fill: #ffffff"/>
   </g>
   <g id="patch_2">
    <path d="M 38.058125 131.087869 
L 955.533397 131.087869 
L 955.533397 -440.119067 
L 38.058125 -440.119067 
z
" clip-path="url(#p173dd79896)" style="fill: #c3e6c3"/>
   </g>
   <g id="patch_3">
    <path d="M 38.058125 194.555307 
L 955.533397 194.555307 
L 955.533397 131.087869 
L 38.058125 131.087869 
z
" clip-path="url(#p173dd79896)" style="fill: #e6dcc3"/>
   </g>
   <g id="patch_4">
    <path d="M 38.058125 353.2239 
L 955.533397 353.2239 
L 955.533397 194.555307 
L 38.058125 194.555307 
z
" clip-path="url(#p173dd79896)" style="fill: #e6c3c3"/>
   </g>
   <g id="matplotlib.axis_1">
    <g id="xtick_1">
     <g id="text_1">
      <!-- 0 -->
      <g transform="translate(73.097853 366.30265) scale(0.08 -0.08)">
       <defs>
        <path id="DejaVuSans-30" d="M 2034 4250 
Q 1547 4250 1301 3770 
Q 1056 3291 1056 2328 
Q 1056 1369 1301 889 
Q 1547 409 2034 409 
Q 2525 409 2770 889 
Q 3016 1369 3016 2328 
Q 3016 3291 2770 3770 
Q 2525 4250 2034 4250 
z
M 2034 4750 
Q 2819 4750 3233 4129 
Q 3647 3509 3647 2328 
Q 3647 1150 3233 529 
Q 2819 -91 2034 -91 
Q 1250 -91 836 529 
Q 422 1150 422 2328 
Q 422 3509 836 4129 
Q 1250 4750 2034 4750 
z
" transform="scale(0.015625)"/>
       </defs>
       <use xlink:href="#DejaVuSans-30"/>
      </g>
     </g>
    </g>
    <g id="xtick_2">
     <g id="text_2">
      <!-- 20 -->
      <g transform="translate(187.094647 366.30265) scale(0.08 -0.08)">
       <defs>
        <path id="DejaVuSans-32" d="M 1228 531 
L 3431 531 
L 3431 0 
L 469 0 
L 469 531 
Q 828 903 1448 1529 
Q 2069 2156 2228 2338 
Q 2531 2678 2651 2914 
Q 2772 3150 2772 3378 
Q 2772 3750 2511 3984 
Q 2250 4219 1831 4219 
Q 1534 4219 1204 4116 
Q 875 4013 500 3803 
L 500 4441 
Q 881 4594 1212 4672 
Q 1544 4750 1819 4750 
Q 2544 4750 2975 4387 
Q 3406 4025 3406 3419 
Q 3406 3131 3298 2873 
Q 3191 2616 2906 2266 
Q 2828 2175 2409 1742 
Q 1991 1309 1228 531 
z
" transform="scale(0.015625)"/>
       </defs>
       <use xlink:href="#DejaVuSans-32"/>
       <use xlink:href="#DejaVuSans-30" x="63.623047"/>
      </g>
     </g>
    </g>
    <g id="xtick_3">
     <g id="text_3">
      <!-- 40 -->
      <g transform="translate(303.636441 366.30265) scale(0.08 -0.08)">
       <defs>
        <path id="DejaVuSans-34" d="M 2419 4116 
L 825 1625 
L 2419 1625 
L 2419 4116 
z
M 2253 4666 
L 3047 4666 
L 3047 1625 
L 3713 1625 
L 3713 1100 
L 3047 1100 
L 3047 0 
L 2419 0 
L 2419 1100 
L 313 1100 
L 313 1709 
L 2253 4666 
z
" transform="scale(0.015625)"/>
       </defs>
       <use xlink:href="#DejaVuSans-34"/>
       <use xlink:href="#DejaVuSans-30" x="63.623047"/>
      </g>
     </g>
    </g>
    <g id="xtick_4">
     <g id="text_4">
      <!-- 60 -->
      <g transform="translate(420.178235 366.30265) scale(0.08 -0.08)">
       <defs>
        <path id="DejaVuSans-36" d="M 2113 2584 
Q 1688 2584 1439 2293 
Q 1191 2003 1191 1497 
Q 1191 994 1439 701 
Q 1688 409 2113 409 
Q 2538 409 2786 701 
Q 3034 994 3034 1497 
Q 3034 2003 2786 2293 
Q 2538 2584 2113 2584 
z
M 3366 4563 
L 3366 3988 
Q 3128 4100 2886 4159 
Q 2644 4219 2406 4219 
Q 1781 4219 1451 3797 
Q 1122 3375 1075 2522 
Q 1259 2794 1537 2939 
Q 1816 3084 2150 3084 
Q 2853 3084 3261 2657 
Q 3669 2231 3669 1497 
Q 3669 778 3244 343 
Q 2819 -91 2113 -91 
Q 1303 -91 875 529 
Q 447 1150 447 2328 
Q 447 3434 972 4092 
Q 1497 4750 2381 4750 
Q 2619 4750 2861 4703 
Q 3103 4656 3366 4563 
z
" transform="scale(0.015625)"/>
       </defs>
       <use xlink:href="#DejaVuSans-36"/>
       <use xlink:href="#DejaVuSans-30" x="63.623047"/>
      </g>
     </g>
    </g>
    <g id="xtick_5">
     <g id="text_5">
      <!-- 80 -->
      <g transform="translate(536.720029 366.30265) scale(0.08 -0.08)">
       <defs>
        <path id="DejaVuSans-38" d="M 2034 2216 
Q 1584 2216 1326 1975 
Q 1069 1734 1069 1313 
Q 1069 891 1326 650 
Q 1584 409 2034 409 
Q 2484 409 2743 651 
Q 3003 894 3003 1313 
Q 3003 1734 2745 1975 
Q 2488 2216 2034 2216 
z
M 1403 2484 
Q 997 2584 770 2862 
Q 544 3141 544 3541 
Q 544 4100 942 4425 
Q 1341 4750 2034 4750 
Q 2731 4750 3128 4425 
Q 3525 4100 3525 3541 
Q 3525 3141 3298 2862 
Q 3072 2584 2669 2484 
Q 3125 2378 3379 2068 
Q 3634 1759 3634 1313 
Q 3634 634 3220 271 
Q 2806 -91 2034 -91 
Q 1263 -91 848 271 
Q 434 634 434 1313 
Q 434 1759 690 2068 
Q 947 2378 1403 2484 
z
M 1172 3481 
Q 1172 3119 1398 2916 
Q 1625 2713 2034 2713 
Q 2441 2713 2670 2916 
Q 2900 3119 2900 3481 
Q 2900 3844 2670 4047 
Q 2441 4250 2034 4250 
Q 1625 4250 1398 4047 
Q 1172 3844 1172 3481 
z
" transform="scale(0.015625)"/>
       </defs>
       <use xlink:href="#DejaVuSans-38"/>
       <use xlink:href="#DejaVuSans-30" x="63.623047"/>
      </g>
     </g>
    </g>
    <g id="xtick_6">
     <g id="text_6">
      <!-- 100 -->
      <g transform="translate(650.716822 366.30265) scale(0.08 -0.08)">
       <defs>
        <path id="DejaVuSans-31" d="M 794 531 
L 1825 531 
L 1825 4091 
L 703 3866 
L 703 4441 
L 1819 4666 
L 2450 4666 
L 2450 531 
L 3481 531 
L 3481 0 
L 794 0 
L 794 531 
z
" transform="scale(0.015625)"/>
       </defs>
       <use xlink:href="#DejaVuSans-31"/>
       <use xlink:href="#DejaVuSans-30" x="63.623047"/>
       <use xlink:href="#DejaVuSans-30" x="127.246094"/>
      </g>
     </g>
    </g>
    <g id="xtick_7">
     <g id="text_7">
      <!-- 120 -->
      <g transform="translate(767.258616 366.30265) scale(0.08 -0.08)">
       <use xlink:href="#DejaVuSans-31"/>
       <use xlink:href="#DejaVuSans-32" x="63.623047"/>
       <use xlink:href="#DejaVuSans-30" x="127.246094"/>
      </g>
     </g>
    </g>
    <g id="xtick_8">
     <g id="text_8">
      <!-- 140 -->
      <g transform="translate(883.80041 366.30265) scale(0.08 -0.08)">
       <use xlink:href="#DejaVuSans-31"/>
       <use xlink:href="#DejaVuSans-34" x="63.623047"/>
       <use xlink:href="#DejaVuSans-30" x="127.246094"/>
      </g>
     </g>
    </g>
    <g id="text_9">
     <!-- Position (bp) -->
     <g transform="translate(484.285 379.564837) scale(0.1 -0.1)">
      <defs>
       <path id="DejaVuSans-50" d="M 1259 4147 
L 1259 2394 
L 2053 2394 
Q 2494 2394 2734 2622 
Q 2975 2850 2975 3272 
Q 2975 3691 2734 3919 
Q 2494 4147 2053 4147 
L 1259 4147 
z
M 628 4666 
L 2053 4666 
Q 2838 4666 3239 4311 
Q 3641 3956 3641 3272 
Q 3641 2581 3239 2228 
Q 2838 1875 2053 1875 
L 1259 1875 
L 1259 0 
L 628 0 
L 628 4666 
z
" transform="scale(0.015625)"/>
       <path id="DejaVuSans-6f" d="M 1959 3097 
Q 1497 3097 1228 2736 
Q 959 2375 959 1747 
Q 959 1119 1226 758 
Q 1494 397 1959 397 
Q 2419 397 2687 759 
Q 2956 1122 2956 1747 
Q 2956 2369 2687 2733 
Q 2419 3097 1959 3097 
z
M 1959 3584 
Q 2709 3584 3137 3096 
Q 3566 2609 3566 1747 
Q 3566 888 3137 398 
Q 2709 -91 1959 -91 
Q 1206 -91 779 398 
Q 353 888 353 1747 
Q 353 2609 779 3096 
Q 1206 3584 1959 3584 
z
" transform="scale(0.015625)"/>
       <path id="DejaVuSans-73" d="M 2834 3397 
L 2834 2853 
Q 2591 2978 2328 3040 
Q 2066 3103 1784 3103 
Q 1356 3103 1142 2972 
Q 928 2841 928 2578 
Q 928 2378 1081 2264 
Q 1234 2150 1697 2047 
L 1894 2003 
Q 2506 1872 2764 1633 
Q 3022 1394 3022 966 
Q 3022 478 2636 193 
Q 2250 -91 1575 -91 
Q 1294 -91 989 -36 
Q 684 19 347 128 
L 347 722 
Q 666 556 975 473 
Q 1284 391 1588 391 
Q 1994 391 2212 530 
Q 2431 669 2431 922 
Q 2431 1156 2273 1281 
Q 2116 1406 1581 1522 
L 1381 1569 
Q 847 1681 609 1914 
Q 372 2147 372 2553 
Q 372 3047 722 3315 
Q 1072 3584 1716 3584 
Q 2034 3584 2315 3537 
Q 2597 3491 2834 3397 
z
" transform="scale(0.015625)"/>
       <path id="DejaVuSans-69" d="M 603 3500 
L 1178 3500 
L 1178 0 
L 603 0 
L 603 3500 
z
M 603 4863 
L 1178 4863 
L 1178 4134 
L 603 4134 
L 603 4863 
z
" transform="scale(0.015625)"/>
       <path id="DejaVuSans-74" d="M 1172 4494 
L 1172 3500 
L 2356 3500 
L 2356 3053 
L 1172 3053 
L 1172 1153 
Q 1172 725 1289 603 
Q 1406 481 1766 481 
L 2356 481 
L 2356 0 
L 1766 0 
Q 1100 0 847 248 
Q 594 497 594 1153 
L 594 3053 
L 172 3053 
L 172 3500 
L 594 3500 
L 594 4494 
L 1172 4494 
z
" transform="scale(0.015625)"/>
       <path id="DejaVuSans-6e" d="M 3513 2113 
L 3513 0 
L 2938 0 
L 2938 2094 
Q 2938 2591 2744 2837 
Q 2550 3084 2163 3084 
Q 1697 3084 1428 2787 
Q 1159 2491 1159 1978 
L 1159 0 
L 581 0 
L 581 3500 
L 1159 3500 
L 1159 2956 
Q 1366 3272 1645 3428 
Q 1925 3584 2291 3584 
Q 2894 3584 3203 3211 
Q 3513 2838 3513 2113 
z
" transform="scale(0.015625)"/>
       <path id="DejaVuSans-20" transform="scale(0.015625)"/>
       <path id="DejaVuSans-28" d="M 1984 4856 
Q 1566 4138 1362 3434 
Q 1159 2731 1159 2009 
Q 1159 1288 1364 580 
Q 1569 -128 1984 -844 
L 1484 -844 
Q 1016 -109 783 600 
Q 550 1309 550 2009 
Q 550 2706 781 3412 
Q 1013 4119 1484 4856 
L 1984 4856 
z
" transform="scale(0.015625)"/>
       <path id="DejaVuSans-62" d="M 3116 1747 
Q 3116 2381 2855 2742 
Q 2594 3103 2138 3103 
Q 1681 3103 1420 2742 
Q 1159 2381 1159 1747 
Q 1159 1113 1420 752 
Q 1681 391 2138 391 
Q 2594 391 2855 752 
Q 3116 1113 3116 1747 
z
M 1159 2969 
Q 1341 3281 1617 3432 
Q 1894 3584 2278 3584 
Q 2916 3584 3314 3078 
Q 3713 2572 3713 1747 
Q 3713 922 3314 415 
Q 2916 -91 2278 -91 
Q 1894 -91 1617 61 
Q 1341 213 1159 525 
L 1159 0 
L 581 0 
L 581 4863 
L 1159 4863 
L 1159 2969 
z
" transform="scale(0.015625)"/>
       <path id="DejaVuSans-70" d="M 1159 525 
L 1159 -1331 
L 581 -1331 
L 581 3500 
L 1159 3500 
L 1159 2969 
Q 1341 3281 1617 3432 
Q 1894 3584 2278 3584 
Q 2916 3584 3314 3078 
Q 3713 2572 3713 1747 
Q 3713 922 3314 415 
Q 2916 -91 2278 -91 
Q 1894 -91 1617 61 
Q 1341 213 1159 525 
z
M 3116 1747 
Q 3116 2381 2855 2742 
Q 2594 3103 2138 3103 
Q 1681 3103 1420 2742 
Q 1159 2381 1159 1747 
Q 1159 1113 1420 752 
Q 1681 391 2138 391 
Q 2594 391 2855 752 
Q 3116 1113 3116 1747 
z
" transform="scale(0.015625)"/>
       <path id="DejaVuSans-29" d="M 513 4856 
L 1013 4856 
Q 1481 4119 1714 3412 
Q 1947 2706 1947 2009 
Q 1947 1309 1714 600 
Q 1481 -109 1013 -844 
L 513 -844 
Q 928 -128 1133 580 
Q 1338 1288 1338 2009 
Q 1338 2731 1133 3434 
Q 928 4138 513 4856 
z
" transform="scale(0.015625)"/>
      </defs>
      <use xlink:href="#DejaVuSans-50"/>
      <use xlink:href="#DejaVuSans-6f" x="56.677734"/>
      <use xlink:href="#DejaVuSans-73" x="117.859375"/>
      <use xlink:href="#DejaVuSans-69" x="169.958984"/>
      <use xlink:href="#DejaVuSans-74" x="197.742188"/>
      <use xlink:href="#DejaVuSans-69" x="236.951172"/>
      <use xlink:href="#DejaVuSans-6f" x="264.734375"/>
      <use xlink:href="#DejaVuSans-6e" x="325.916016"/>
      <use xlink:href="#DejaVuSans-20" x="389.294922"/>
      <use xlink:href="#DejaVuSans-28" x="421.082031"/>
      <use xlink:href="#DejaVuSans-62" x="460.095703"/>
      <use xlink:href="#DejaVuSans-70" x="523.572266"/>
      <use xlink:href="#DejaVuSans-29" x="587.048828"/>
     </g>
    </g>
   </g>
   <g id="matplotlib.axis_2">
    <g id="ytick_1">
     <g id="line2d_1">
      <path d="M 38.058125 353.2239 
L 993.118125 353.2239 
" clip-path="url(#p173dd79896)" style="fill: none; stroke: #dedede; stroke-linecap: square"/>
     </g>
     <g id="text_10">
      <!-- 0 -->
      <g transform="translate(25.968125 356.263275) scale(0.08 -0.08)">
       <use xlink:href="#DejaVuSans-30"/>
      </g>
     </g>
    </g>
    <g id="ytick_2">
     <g id="line2d_2">
      <path d="M 38.058125 313.556752 
L 993.118125 313.556752 
" clip-path="url(#p173dd79896)" style="fill: none; stroke: #dedede; stroke-linecap: square"/>
     </g>
     <g id="text_11">
      <!-- 5 -->
      <g transform="translate(25.968125 316.596127) scale(0.08 -0.08)">
       <defs>
        <path id="DejaVuSans-35" d="M 691 4666 
L 3169 4666 
L 3169 4134 
L 1269 4134 
L 1269 2991 
Q 1406 3038 1543 3061 
Q 1681 3084 1819 3084 
Q 2600 3084 3056 2656 
Q 3513 2228 3513 1497 
Q 3513 744 3044 326 
Q 2575 -91 1722 -91 
Q 1428 -91 1123 -41 
Q 819 9 494 109 
L 494 744 
Q 775 591 1075 516 
Q 1375 441 1709 441 
Q 2250 441 2565 725 
Q 2881 1009 2881 1497 
Q 2881 1984 2565 2268 
Q 2250 2553 1709 2553 
Q 1456 2553 1204 2497 
Q 953 2441 691 2322 
L 691 4666 
z
" transform="scale(0.015625)"/>
       </defs>
       <use xlink:href="#DejaVuSans-35"/>
      </g>
     </g>
    </g>
    <g id="ytick_3">
     <g id="line2d_3">
      <path d="M 38.058125 273.889603 
L 993.118125 273.889603 
" clip-path="url(#p173dd79896)" style="fill: none; stroke: #dedede; stroke-linecap: square"/>
     </g>
     <g id="text_12">
      <!-- 10 -->
      <g transform="translate(20.878125 276.928978) scale(0.08 -0.08)">
       <use xlink:href="#DejaVuSans-31"/>
       <use xlink:href="#DejaVuSans-30" x="63.623047"/>
      </g>
     </g>
    </g>
    <g id="ytick_4">
     <g id="line2d_4">
      <path d="M 38.058125 234.222455 
L 993.118125 234.222455 
" clip-path="url(#p173dd79896)" style="fill: none; stroke: #dedede; stroke-linecap: square"/>
     </g>
     <g id="text_13">
      <!-- 15 -->
      <g transform="translate(20.878125 237.26183) scale(0.08 -0.08)">
       <use xlink:href="#DejaVuSans-31"/>
       <use xlink:href="#DejaVuSans-35" x="63.623047"/>
      </g>
     </g>
    </g>
    <g id="ytick_5">
     <g id="line2d_5">
      <path d="M 38.058125 194.555307 
L 993.118125 194.555307 
" clip-path="url(#p173dd79896)" style="fill: none; stroke: #dedede; stroke-linecap: square"/>
     </g>
     <g id="text_14">
      <!-- 20 -->
      <g transform="translate(20.878125 197.594682) scale(0.08 -0.08)">
       <use xlink:href="#DejaVuSans-32"/>
       <use xlink:href="#DejaVuSans-30" x="63.623047"/>
      </g>
     </g>
    </g>
    <g id="ytick_6">
     <g id="line2d_6">
      <path d="M 38.058125 154.888158 
L 993.118125 154.888158 
" clip-path="url(#p173dd79896)" style="fill: none; stroke: #dedede; stroke-linecap: square"/>
     </g>
     <g id="text_15">
      <!-- 25 -->
      <g transform="translate(20.878125 157.927533) scale(0.08 -0.08)">
       <use xlink:href="#DejaVuSans-32"/>
       <use xlink:href="#DejaVuSans-35" x="63.623047"/>
      </g>
     </g>
    </g>
    <g id="ytick_7">
     <g id="line2d_7">
      <path d="M 38.058125 115.22101 
L 993.118125 115.22101 
" clip-path="url(#p173dd79896)" style="fill: none; stroke: #dedede; stroke-linecap: square"/>
     </g>
     <g id="text_16">
      <!-- 30 -->
      <g transform="translate(20.878125 118.260385) scale(0.08 -0.08)">
       <defs>
        <path id="DejaVuSans-33" d="M 2597 2516 
Q 3050 2419 3304 2112 
Q 3559 1806 3559 1356 
Q 3559 666 3084 287 
Q 2609 -91 1734 -91 
Q 1441 -91 1130 -33 
Q 819 25 488 141 
L 488 750 
Q 750 597 1062 519 
Q 1375 441 1716 441 
Q 2309 441 2620 675 
Q 2931 909 2931 1356 
Q 2931 1769 2642 2001 
Q 2353 2234 1838 2234 
L 1294 2234 
L 1294 2753 
L 1863 2753 
Q 2328 2753 2575 2939 
Q 2822 3125 2822 3475 
Q 2822 3834 2567 4026 
Q 2313 4219 1838 4219 
Q 1578 4219 1281 4162 
Q 984 4106 628 3988 
L 628 4550 
Q 988 4650 1302 4700 
Q 1616 4750 1894 4750 
Q 2613 4750 3031 4423 
Q 3450 4097 3450 3541 
Q 3450 3153 3228 2886 
Q 3006 2619 2597 2516 
z
" transform="scale(0.015625)"/>
       </defs>
       <use xlink:href="#DejaVuSans-33"/>
       <use xlink:href="#DejaVuSans-30" x="63.623047"/>
      </g>
     </g>
    </g>
    <g id="ytick_8">
     <g id="line2d_8">
      <path d="M 38.058125 75.553861 
L 993.118125 75.553861 
" clip-path="url(#p173dd79896)" style="fill: none; stroke: #dedede; stroke-linecap: square"/>
     </g>
     <g id="text_17">
      <!-- 35 -->
      <g transform="translate(20.878125 78.593236) scale(0.08 -0.08)">
       <use xlink:href="#DejaVuSans-33"/>
       <use xlink:href="#DejaVuSans-35" x="63.623047"/>
      </g>
     </g>
    </g>
    <g id="ytick_9">
     <g id="line2d_9">
      <path d="M 38.058125 35.886713 
L 993.118125 35.886713 
" clip-path="url(#p173dd79896)" style="fill: none; stroke: #dedede; stroke-linecap: square"/>
     </g>
     <g id="text_18">
      <!-- 40 -->
      <g transform="translate(20.878125 38.926088) scale(0.08 -0.08)">
       <use xlink:href="#DejaVuSans-34"/>
       <use xlink:href="#DejaVuSans-30" x="63.623047"/>
      </g>
     </g>
    </g>
    <g id="text_19">
     <!-- Phred Score -->
     <g transform="translate(14.798438 224.20865) rotate(-90) scale(0.1 -0.1)">
      <defs>
       <path id="DejaVuSans-68" d="M 3513 2113 
L 3513 0 
L 2938 0 
L 2938 2094 
Q 2938 2591 2744 2837 
Q 2550 3084 2163 3084 
Q 1697 3084 1428 2787 
Q 1159 2491 1159 1978 
L 1159 0 
L 581 0 
L 581 4863 
L 1159 4863 
L 1159 2956 
Q 1366 3272 1645 3428 
Q 1925 3584 2291 3584 
Q 2894 3584 3203 3211 
Q 3513 2838 3513 2113 
z
" transform="scale(0.015625)"/>
       <path id="DejaVuSans-72" d="M 2631 2963 
Q 2534 3019 2420 3045 
Q 2306 3072 2169 3072 
Q 1681 3072 1420 2755 
Q 1159 2438 1159 1844 
L 1159 0 
L 581 0 
L 581 3500 
L 1159 3500 
L 1159 2956 
Q 1341 3275 1631 3429 
Q 1922 3584 2338 3584 
Q 2397 3584 2469 3576 
Q 2541 3569 2628 3553 
L 2631 2963 
z
" transform="scale(0.015625)"/>
       <path id="DejaVuSans-65" d="M 3597 1894 
L 3597 1613 
L 953 1613 
Q 991 1019 1311 708 
Q 1631 397 2203 397 
Q 2534 397 2845 478 
Q 3156 559 3463 722 
L 3463 178 
Q 3153 47 2828 -22 
Q 2503 -91 2169 -91 
Q 1331 -91 842 396 
Q 353 884 353 1716 
Q 353 2575 817 3079 
Q 1281 3584 2069 3584 
Q 2775 3584 3186 3129 
Q 3597 2675 3597 1894 
z
M 3022 2063 
Q 3016 2534 2758 2815 
Q 2500 3097 2075 3097 
Q 1594 3097 1305 2825 
Q 1016 2553 972 2059 
L 3022 2063 
z
" transform="scale(0.015625)"/>
       <path id="DejaVuSans-64" d="M 2906 2969 
L 2906 4863 
L 3481 4863 
L 3481 0 
L 2906 0 
L 2906 525 
Q 2725 213 2448 61 
Q 2172 -91 1784 -91 
Q 1150 -91 751 415 
Q 353 922 353 1747 
Q 353 2572 751 3078 
Q 1150 3584 1784 3584 
Q 2172 3584 2448 3432 
Q 2725 3281 2906 2969 
z
M 947 1747 
Q 947 1113 1208 752 
Q 1469 391 1925 391 
Q 2381 391 2643 752 
Q 2906 1113 2906 1747 
Q 2906 2381 2643 2742 
Q 2381 3103 1925 3103 
Q 1469 3103 1208 2742 
Q 947 2381 947 1747 
z
" transform="scale(0.015625)"/>
       <path id="DejaVuSans-53" d="M 3425 4513 
L 3425 3897 
Q 3066 4069 2747 4153 
Q 2428 4238 2131 4238 
Q 1616 4238 1336 4038 
Q 1056 3838 1056 3469 
Q 1056 3159 1242 3001 
Q 1428 2844 1947 2747 
L 2328 2669 
Q 3034 2534 3370 2195 
Q 3706 1856 3706 1288 
Q 3706 609 3251 259 
Q 2797 -91 1919 -91 
Q 1588 -91 1214 -16 
Q 841 59 441 206 
L 441 856 
Q 825 641 1194 531 
Q 1563 422 1919 422 
Q 2459 422 2753 634 
Q 3047 847 3047 1241 
Q 3047 1584 2836 1778 
Q 2625 1972 2144 2069 
L 1759 2144 
Q 1053 2284 737 2584 
Q 422 2884 422 3419 
Q 422 4038 858 4394 
Q 1294 4750 2059 4750 
Q 2388 4750 2728 4690 
Q 3069 4631 3425 4513 
z
" transform="scale(0.015625)"/>
       <path id="DejaVuSans-63" d="M 3122 3366 
L 3122 2828 
Q 2878 2963 2633 3030 
Q 2388 3097 2138 3097 
Q 1578 3097 1268 2742 
Q 959 2388 959 1747 
Q 959 1106 1268 751 
Q 1578 397 2138 397 
Q 2388 397 2633 464 
Q 2878 531 3122 666 
L 3122 134 
Q 2881 22 2623 -34 
Q 2366 -91 2075 -91 
Q 1284 -91 818 406 
Q 353 903 353 1747 
Q 353 2603 823 3093 
Q 1294 3584 2113 3584 
Q 2378 3584 2631 3529 
Q 2884 3475 3122 3366 
z
" transform="scale(0.015625)"/>
      </defs>
      <use xlink:href="#DejaVuSans-50"/>
      <use xlink:href="#DejaVuSans-68" x="60.302734"/>
      <use xlink:href="#DejaVuSans-72" x="123.681641"/>
      <use xlink:href="#DejaVuSans-65" x="162.544922"/>
      <use xlink:href="#DejaVuSans-64" x="224.068359"/>
      <use xlink:href="#DejaVuSans-20" x="287.544922"/>
      <use xlink:href="#DejaVuSans-53" x="319.332031"/>
      <use xlink:href="#DejaVuSans-63" x="382.808594"/>
      <use xlink:href="#DejaVuSans-6f" x="437.789062"/>
      <use xlink:href="#DejaVuSans-72" x="498.970703"/>
      <use xlink:href="#DejaVuSans-65" x="537.833984"/>
     </g>
    </g>
   </g>
   <g id="line2d_10">
    <path d="M 81.469943 106.512924 
L 87.297033 107.032621 
L 93.124123 82.084067 
L 98.951212 73.840099 
L 104.778302 69.037318 
L 110.605392 45.057778 
L 116.432481 43.354823 
L 122.259571 42.241337 
L 128.086661 41.238023 
L 145.56793 41.195313 
L 174.703378 42.343512 
L 203.838827 43.599105 
L 232.974275 45.049401 
L 262.109724 46.32171 
L 291.245172 46.993796 
L 320.38062 48.156479 
L 349.516069 49.075985 
L 378.651517 50.498128 
L 407.786966 51.439544 
L 436.922414 53.054757 
L 466.057863 54.682342 
L 495.193311 55.369809 
L 524.32876 52.971364 
L 553.464208 43.21489 
L 582.599656 43.971985 
L 611.735105 45.128659 
L 640.870553 46.280724 
L 670.006002 47.730047 
L 699.14145 49.237492 
L 728.276899 50.686341 
L 757.412347 51.747933 
L 786.547796 53.393985 
L 815.683244 54.927625 
L 844.818692 56.972733 
L 873.954141 59.351786 
L 903.089589 61.731611 
L 932.225038 64.270231 
L 949.706307 65.995306 
" clip-path="url(#p173dd79896)" style="fill: none; stroke: #5cb85c; stroke-linecap: square"/>
   </g>
   <g id="line2d_11">
    <path d="M 81.469943 106.494277 
L 87.297033 107.015959 
L 93.124123 82.051284 
L 98.951212 73.8096 
L 104.778302 69.008079 
L 110.605392 45.014745 
L 116.432481 43.314991 
L 122.259571 42.203033 
L 128.086661 41.198479 
L 145.56793 41.155419 
L 174.703378 42.302655 
L 203.838827 43.555781 
L 232.974275 44.994263 
L 262.109724 46.257221 
L 291.245172 46.922574 
L 320.38062 48.079217 
L 349.516069 48.988132 
L 378.651517 50.404353 
L 407.786966 51.335837 
L 436.922414 52.939328 
L 466.057863 54.555399 
L 495.193311 55.223133 
L 524.32876 52.808572 
L 553.464208 43.037247 
L 582.599656 43.779259 
L 611.735105 44.916447 
L 640.870553 46.046346 
L 670.006002 47.471292 
L 699.14145 48.953137 
L 728.276899 50.373696 
L 757.412347 51.402458 
L 786.547796 53.009842 
L 815.683244 54.494297 
L 844.818692 56.471848 
L 873.954141 58.739975 
L 903.089589 60.866711 
L 932.225038 61.921258 
L 949.706307 53.129009 
" clip-path="url(#p173dd79896)" style="fill: none; stroke: #5cb85c; stroke-linecap: square"/>
   </g>
   <g id="line2d_12">
    <path d="M 81.469943 109.218984 
L 87.297033 108.349093 
L 93.124123 85.097422 
L 98.951212 76.32611 
L 104.778302 73.247364 
L 110.605392 50.160875 
L 116.432481 48.931056 
L 122.259571 48.683118 
L 128.086661 48.334949 
L 145.56793 47.678789 
L 174.703378 49.430187 
L 203.838827 51.395801 
L 232.974275 52.059824 
L 262.109724 53.201166 
L 291.245172 54.519194 
L 320.38062 55.879712 
L 349.516069 57.022227 
L 378.651517 58.780066 
L 407.786966 60.922468 
L 436.922414 62.361488 
L 466.057863 62.673485 
L 495.193311 64.279823 
L 524.32876 63.596238 
L 553.464208 53.290123 
L 582.599656 53.593061 
L 611.735105 54.665402 
L 640.870553 56.362126 
L 670.006002 57.622642 
L 699.14145 58.993728 
L 728.276899 60.722519 
L 757.412347 62.477911 
L 786.547796 64.605218 
L 815.683244 67.374738 
L 844.818692 69.739951 
L 873.954141 72.435563 
L 903.089589 75.638529 
L 932.225038 79.142321 
L 949.706307 81.531513 
" clip-path="url(#p173dd79896)" style="fill: none; stroke: #5cb85c; stroke-linecap: square"/>
   </g>
   <g id="line2d_13">
    <path d="M 81.469943 109.128034 
L 87.297033 108.241472 
L 93.124123 84.957459 
L 98.951212 76.177032 
L 104.778302 73.0922 
L 110.605392 49.976069 
L 116.432481 48.741824 
L 122.259571 48.492668 
L 128.086661 48.1403 
L 145.56793 47.479303 
L 174.703378 49.219217 
L 203.838827 51.159605 
L 232.974275 51.786059 
L 262.109724 52.893839 
L 291.245172 54.173095 
L 320.38062 55.494855 
L 349.516069 56.594693 
L 378.651517 58.310217 
L 407.786966 60.412707 
L 436.922414 61.803325 
L 466.057863 62.049593 
L 495.193311 63.615593 
L 524.32876 62.883166 
L 553.464208 52.494327 
L 582.599656 52.739429 
L 611.735105 53.74913 
L 640.870553 55.378115 
L 670.006002 56.564593 
L 699.14145 57.851518 
L 728.276899 59.485178 
L 757.412347 61.131183 
L 786.547796 63.125108 
L 815.683244 65.726059 
L 844.818692 67.847576 
L 873.954141 70.148449 
L 903.089589 72.563146 
L 932.225038 72.920713 
L 949.706307 59.097992 
" clip-path="url(#p173dd79896)" style="fill: none; stroke: #5cb85c; stroke-linecap: square"/>
   </g>
   <g id="line2d_14">
    <path d="M 81.469943 106.726177 
L 87.297033 107.507529 
L 93.124123 82.587723 
L 98.951212 74.042059 
L 104.778302 69.616677 
L 110.605392 45.417535 
L 116.432481 43.836637 
L 122.259571 42.30465 
L 128.086661 41.615864 
L 145.56793 41.454468 
L 174.703378 42.536001 
L 203.838827 43.761266 
L 232.974275 45.539846 
L 262.109724 47.070835 
L 291.245172 48.17476 
L 320.38062 49.559993 
L 349.516069 50.490513 
L 378.651517 52.326829 
L 407.786966 53.316392 
L 436.922414 55.235683 
L 466.057863 56.816323 
L 495.193311 57.773015 
L 524.32876 55.318678 
L 553.464208 44.898547 
L 582.599656 45.738426 
L 611.735105 47.054017 
L 640.870553 48.331685 
L 670.006002 49.862839 
L 699.14145 51.500472 
L 728.276899 52.964966 
L 757.412347 53.884745 
L 786.547796 55.943732 
L 815.683244 57.499275 
L 844.818692 59.846564 
L 873.954141 62.597964 
L 903.089589 65.317799 
L 932.225038 68.162671 
L 949.706307 69.920617 
" clip-path="url(#p173dd79896)" style="fill: none; stroke: #5cb85c; stroke-linecap: square"/>
   </g>
   <g id="line2d_15">
    <path d="M 81.469943 106.707271 
L 87.297033 107.490918 
L 93.124123 82.555831 
L 98.951212 74.012936 
L 104.778302 69.588847 
L 110.605392 45.378486 
L 116.432481 43.798484 
L 122.259571 42.266877 
L 128.086661 41.578574 
L 145.56793 41.416029 
L 174.703378 42.496698 
L 203.838827 43.71941 
L 232.974275 45.486058 
L 262.109724 47.006999 
L 291.245172 48.105466 
L 320.38062 49.484305 
L 349.516069 50.407026 
L 378.651517 52.236552 
L 407.786966 53.217427 
L 436.922414 55.126542 
L 466.057863 56.697516 
L 495.193311 57.641491 
L 524.32876 55.176021 
L 553.464208 44.741626 
L 582.599656 45.565487 
L 611.735105 46.861331 
L 640.870553 48.116165 
L 670.006002 49.622161 
L 699.14145 51.232376 
L 728.276899 52.666914 
L 757.412347 53.551944 
L 786.547796 55.568824 
L 815.683244 57.070826 
L 844.818692 59.344103 
L 873.954141 61.97065 
L 903.089589 64.398175 
L 932.225038 65.609144 
L 949.706307 55.944483 
" clip-path="url(#p173dd79896)" style="fill: none; stroke: #5cb85c; stroke-linecap: square"/>
   </g>
   <g id="line2d_16">
    <path d="M 81.469943 107.854283 
L 87.297033 107.81946 
L 93.124123 86.757689 
L 98.951212 76.940237 
L 104.778302 72.166221 
L 110.605392 49.946924 
L 116.432481 47.859831 
L 122.259571 47.155932 
L 128.086661 47.48356 
L 145.56793 46.951966 
L 174.703378 48.664089 
L 203.838827 50.674459 
L 232.974275 51.100444 
L 262.109724 52.346551 
L 291.245172 53.787408 
L 320.38062 55.885932 
L 349.516069 57.261604 
L 378.651517 58.821815 
L 407.786966 60.88436 
L 436.922414 62.412202 
L 466.057863 64.354182 
L 495.193311 66.099005 
L 524.32876 65.153382 
L 553.464208 54.605816 
L 582.599656 55.032707 
L 611.735105 56.259342 
L 640.870553 58.057344 
L 670.006002 59.578635 
L 699.14145 61.117017 
L 728.276899 63.089378 
L 757.412347 64.929275 
L 786.547796 67.484626 
L 815.683244 70.498665 
L 844.818692 73.090184 
L 873.954141 76.106364 
L 903.089589 79.828802 
L 932.225038 83.769343 
L 949.706307 86.512672 
" clip-path="url(#p173dd79896)" style="fill: none; stroke: #5cb85c; stroke-linecap: square"/>
   </g>
   <g id="line2d_17">
    <path d="M 81.469943 107.774728 
L 87.297033 107.730396 
L 93.124123 86.64482 
L 98.951212 76.817152 
L 104.778302 72.037713 
L 110.605392 49.794792 
L 116.432481 47.702393 
L 122.259571 46.997417 
L 128.086661 47.323115 
L 145.56793 46.786412 
L 174.703378 48.488477 
L 203.838827 50.473757 
L 232.974275 50.865027 
L 262.109724 52.07721 
L 291.245172 53.481608 
L 320.38062 55.543361 
L 349.516069 56.878384 
L 378.651517 58.397668 
L 407.786966 60.418518 
L 436.922414 61.899983 
L 466.057863 63.793767 
L 495.193311 65.49673 
L 524.32876 64.504217 
L 553.464208 53.875325 
L 582.599656 54.24357 
L 611.735105 55.40692 
L 640.870553 57.135736 
L 670.006002 58.578351 
L 699.14145 60.029721 
L 728.276899 61.903165 
L 757.412347 63.629912 
L 786.547796 66.047187 
L 815.683244 68.883623 
L 844.818692 71.220977 
L 873.954141 73.812149 
L 903.089589 76.675972 
L 932.225038 77.234466 
L 949.706307 62.376602 
" clip-path="url(#p173dd79896)" style="fill: none; stroke: #5cb85c; stroke-linecap: square"/>
   </g>
   <g id="line2d_18">
    <path d="M 81.469943 106.757694 
L 87.297033 107.678813 
L 93.124123 82.582555 
L 98.951212 74.181362 
L 104.778302 69.263256 
L 110.605392 45.028092 
L 116.432481 43.424049 
L 122.259571 41.959592 
L 128.086661 41.25415 
L 145.56793 41.017 
L 174.703378 42.055297 
L 203.838827 43.277895 
L 232.974275 44.942469 
L 262.109724 46.377495 
L 291.245172 47.424706 
L 320.38062 48.718092 
L 349.516069 49.673158 
L 378.651517 51.379881 
L 407.786966 52.433475 
L 436.922414 54.263341 
L 466.057863 55.895987 
L 495.193311 56.690881 
L 524.32876 54.355217 
L 553.464208 44.131905 
L 582.599656 44.886093 
L 611.735105 46.135375 
L 640.870553 47.373218 
L 670.006002 48.91962 
L 699.14145 50.478341 
L 728.276899 51.95246 
L 757.412347 52.894242 
L 786.547796 54.862661 
L 815.683244 56.405385 
L 844.818692 58.709945 
L 873.954141 61.450096 
L 903.089589 64.132746 
L 932.225038 66.852339 
L 949.706307 68.648383 
" clip-path="url(#p173dd79896)" style="fill: none; stroke: #5cb85c; stroke-linecap: square"/>
   </g>
   <g id="line2d_19">
    <path d="M 81.469943 106.742173 
L 87.297033 107.66399 
L 93.124123 82.555034 
L 98.951212 74.156034 
L 104.778302 69.238682 
L 110.605392 44.99372 
L 116.432481 43.391909 
L 122.259571 41.92787 
L 128.086661 41.222132 
L 145.56793 40.984079 
L 174.703378 42.021527 
L 203.838827 43.241771 
L 232.974275 44.89712 
L 262.109724 46.32436 
L 291.245172 47.366142 
L 320.38062 48.652905 
L 349.516069 49.59974 
L 378.651517 51.299471 
L 407.786966 52.344981 
L 436.922414 54.166023 
L 466.057863 55.788997 
L 495.193311 56.572542 
L 524.32876 54.225132 
L 553.464208 43.988612 
L 582.599656 44.727023 
L 611.735105 45.957812 
L 640.870553 47.173722 
L 670.006002 48.697333 
L 699.14145 50.230744 
L 728.276899 51.677578 
L 757.412347 52.587367 
L 786.547796 54.514681 
L 815.683244 56.00615 
L 844.818692 58.241573 
L 873.954141 60.86804 
L 903.089589 63.283427 
L 932.225038 64.45436 
L 949.706307 55.169217 
" clip-path="url(#p173dd79896)" style="fill: none; stroke: #5cb85c; stroke-linecap: square"/>
   </g>
   <g id="line2d_20">
    <path d="M 81.469943 107.359952 
L 87.297033 107.592104 
L 93.124123 84.201626 
L 98.951212 76.115916 
L 104.778302 71.36289 
L 110.605392 48.201229 
L 116.432481 46.605747 
L 122.259571 45.897569 
L 128.086661 46.230385 
L 145.56793 45.803176 
L 174.703378 47.538585 
L 203.838827 49.477827 
L 232.974275 49.869835 
L 262.109724 50.982345 
L 291.245172 52.354138 
L 320.38062 54.493707 
L 349.516069 55.937007 
L 378.651517 57.494425 
L 407.786966 59.438643 
L 436.922414 60.9748 
L 466.057863 62.883945 
L 495.193311 64.598348 
L 524.32876 63.979354 
L 553.464208 53.460371 
L 582.599656 53.877114 
L 611.735105 55.079274 
L 640.870553 56.805112 
L 670.006002 58.335439 
L 699.14145 59.878744 
L 728.276899 61.763894 
L 757.412347 63.675216 
L 786.547796 66.121326 
L 815.683244 69.087255 
L 844.818692 71.663957 
L 873.954141 74.697537 
L 903.089589 78.369543 
L 932.225038 82.369365 
L 949.706307 84.967137 
" clip-path="url(#p173dd79896)" style="fill: none; stroke: #5cb85c; stroke-linecap: square"/>
   </g>
   <g id="line2d_21">
    <path d="M 81.469943 107.289826 
L 87.297033 107.514092 
L 93.124123 84.10249 
L 98.951212 76.008303 
L 104.778302 71.251623 
L 110.605392 48.068344 
L 116.432481 46.469011 
L 122.259571 45.759649 
L 128.086661 46.090171 
L 145.56793 45.657597 
L 174.703378 47.383436 
L 203.838827 49.300329 
L 232.974275 49.659743 
L 262.109724 50.740878 
L 291.245172 52.079164 
L 320.38062 54.181715 
L 349.516069 55.585623 
L 378.651517 57.104647 
L 407.786966 59.009545 
L 436.922414 60.50291 
L 466.057863 62.366528 
L 495.193311 64.040666 
L 524.32876 63.375911 
L 553.464208 52.780841 
L 582.599656 53.141674 
L 611.735105 54.283758 
L 640.870553 55.943457 
L 670.006002 57.398927 
L 699.14145 58.860864 
L 728.276899 60.653713 
L 757.412347 62.456685 
L 786.547796 64.77334 
L 815.683244 67.571085 
L 844.818692 69.905466 
L 873.954141 72.533967 
L 903.089589 75.396304 
L 932.225038 76.159838 
L 949.706307 61.667509 
" clip-path="url(#p173dd79896)" style="fill: none; stroke: #5cb85c; stroke-linecap: square"/>
   </g>
   <g id="line2d_22">
    <path d="M 81.469943 106.973823 
L 87.297033 107.748092 
L 93.124123 83.017055 
L 98.951212 74.646901 
L 104.778302 69.482766 
L 110.605392 45.545579 
L 116.432481 43.862266 
L 122.259571 42.377931 
L 128.086661 41.612414 
L 145.56793 41.384527 
L 174.703378 42.468419 
L 203.838827 43.714664 
L 232.974275 45.363534 
L 262.109724 46.822781 
L 291.245172 47.849928 
L 320.38062 49.184035 
L 349.516069 50.19788 
L 378.651517 51.876919 
L 407.786966 52.926866 
L 436.922414 54.755367 
L 466.057863 56.382621 
L 495.193311 57.225736 
L 524.32876 54.76416 
L 553.464208 44.394291 
L 582.599656 45.139138 
L 611.735105 46.394276 
L 640.870553 47.659908 
L 670.006002 49.155707 
L 699.14145 50.755046 
L 728.276899 52.268211 
L 757.412347 53.290184 
L 786.547796 55.250219 
L 815.683244 56.873758 
L 844.818692 59.231123 
L 873.954141 61.972577 
L 903.089589 64.658704 
L 932.225038 67.390242 
L 949.706307 69.207126 
" clip-path="url(#p173dd79896)" style="fill: none; stroke: #5cb85c; stroke-linecap: square"/>
   </g>
   <g id="line2d_23">
    <path d="M 81.469943 106.959519 
L 87.297033 107.73484 
L 93.124123 82.992515 
L 98.951212 74.622624 
L 104.778302 69.459434 
L 110.605392 45.51212 
L 116.432481 43.830808 
L 122.259571 42.347067 
L 128.086661 41.581768 
L 145.56793 41.353029 
L 174.703378 42.436387 
L 203.838827 43.680319 
L 232.974275 45.319566 
L 262.109724 46.771232 
L 291.245172 47.792493 
L 320.38062 49.119609 
L 349.516069 50.124504 
L 378.651517 51.797481 
L 407.786966 52.838517 
L 436.922414 54.657392 
L 466.057863 56.27502 
L 495.193311 57.102817 
L 524.32876 54.628413 
L 553.464208 44.244689 
L 582.599656 44.972935 
L 611.735105 46.210901 
L 640.870553 47.454892 
L 670.006002 48.925997 
L 699.14145 50.50055 
L 728.276899 51.985083 
L 757.412347 52.974009 
L 786.547796 54.893232 
L 815.683244 56.466689 
L 844.818692 58.754875 
L 873.954141 61.379138 
L 903.089589 63.790957 
L 932.225038 64.917394 
L 949.706307 55.362314 
" clip-path="url(#p173dd79896)" style="fill: none; stroke: #5cb85c; stroke-linecap: square"/>
   </g>
   <g id="line2d_24">
    <path d="M 81.469943 108.705911 
L 87.297033 106.917764 
L 93.124123 84.052285 
L 98.951212 75.208213 
L 104.778302 70.963164 
L 110.605392 47.492912 
L 116.432481 46.208694 
L 122.259571 45.376191 
L 128.086661 45.912577 
L 145.56793 45.183367 
L 174.703378 47.14211 
L 203.838827 48.90045 
L 232.974275 49.333677 
L 262.109724 50.385409 
L 291.245172 51.738857 
L 320.38062 53.840828 
L 349.516069 55.30964 
L 378.651517 56.872564 
L 407.786966 58.776687 
L 436.922414 60.324153 
L 466.057863 62.122877 
L 495.193311 63.878982 
L 524.32876 63.339284 
L 553.464208 52.805074 
L 582.599656 53.220392 
L 611.735105 54.36711 
L 640.870553 56.175892 
L 670.006002 57.591411 
L 699.14145 59.148531 
L 728.276899 61.044316 
L 757.412347 63.034038 
L 786.547796 65.428157 
L 815.683244 68.453741 
L 844.818692 71.070899 
L 873.954141 74.115896 
L 903.089589 77.743879 
L 932.225038 81.737626 
L 949.706307 84.374682 
" clip-path="url(#p173dd79896)" style="fill: none; stroke: #5cb85c; stroke-linecap: square"/>
   </g>
   <g id="line2d_25">
    <path d="M 81.469943 108.640087 
L 87.297033 106.8432 
L 93.124123 83.955501 
L 98.951212 75.103369 
L 104.778302 70.853879 
L 110.605392 47.362743 
L 116.432481 46.074947 
L 122.259571 45.240963 
L 128.086661 45.7759 
L 145.56793 45.041487 
L 174.703378 46.992063 
L 203.838827 48.729188 
L 232.974275 49.132547 
L 262.109724 50.154405 
L 291.245172 51.47378 
L 320.38062 53.54037 
L 349.516069 54.970394 
L 378.651517 56.493505 
L 407.786966 58.356379 
L 436.922414 59.860343 
L 466.057863 61.610081 
L 495.193311 63.325436 
L 524.32876 62.740607 
L 553.464208 52.132562 
L 582.599656 52.493512 
L 611.735105 53.580539 
L 640.870553 55.324861 
L 670.006002 56.667084 
L 699.14145 58.143193 
L 728.276899 59.946153 
L 757.412347 61.831691 
L 786.547796 64.095346 
L 815.683244 66.956018 
L 844.818692 69.3312 
L 873.954141 71.980595 
L 903.089589 74.82103 
L 932.225038 75.644339 
L 949.706307 61.374741 
" clip-path="url(#p173dd79896)" style="fill: none; stroke: #5cb85c; stroke-linecap: square"/>
   </g>
   <g id="line2d_26">
    <path d="M 81.469943 106.255354 
L 87.297033 106.813381 
L 93.124123 81.686701 
L 98.951212 73.595323 
L 104.778302 68.787319 
L 110.605392 44.576017 
L 116.432481 42.884166 
L 122.259571 41.742131 
L 128.086661 40.671542 
L 145.56793 40.6149 
L 174.703378 41.736931 
L 203.838827 43.048841 
L 232.974275 44.472772 
L 262.109724 45.746434 
L 291.245172 46.415772 
L 320.38062 47.555007 
L 349.516069 48.498947 
L 378.651517 49.867437 
L 407.786966 50.800338 
L 436.922414 52.498536 
L 466.057863 54.076571 
L 495.193311 54.76932 
L 524.32876 52.543895 
L 553.464208 42.706007 
L 582.599656 43.394746 
L 611.735105 44.46593 
L 640.870553 45.534824 
L 670.006002 46.808643 
L 699.14145 48.227607 
L 728.276899 49.58647 
L 757.412347 50.513199 
L 786.547796 52.262924 
L 815.683244 53.760868 
L 844.818692 55.826217 
L 873.954141 58.230731 
L 903.089589 60.603212 
L 932.225038 63.119519 
L 949.706307 64.753282 
" clip-path="url(#p173dd79896)" style="fill: none; stroke: #5cb85c; stroke-linecap: square"/>
   </g>
   <g id="line2d_27">
    <path d="M 81.469943 106.244918 
L 87.297033 106.802182 
L 93.124123 81.669935 
L 98.951212 73.579068 
L 104.778302 68.769144 
L 110.605392 44.550814 
L 116.432481 42.860762 
L 122.259571 41.718723 
L 128.086661 40.647362 
L 145.56793 40.591312 
L 174.703378 41.712466 
L 203.838827 43.023138 
L 232.974275 44.438891 
L 262.109724 45.702772 
L 291.245172 46.364083 
L 320.38062 47.495481 
L 349.516069 48.412666 
L 378.651517 49.794065 
L 407.786966 50.715005 
L 436.922414 52.40357 
L 466.057863 53.970702 
L 495.193311 54.577936 
L 524.32876 52.292272 
L 553.464208 42.437375 
L 582.599656 43.112142 
L 611.735105 44.164499 
L 640.870553 45.21301 
L 670.006002 46.463811 
L 699.14145 47.859685 
L 728.276899 49.192587 
L 757.412347 50.088458 
L 786.547796 51.803091 
L 815.683244 53.255784 
L 844.818692 55.260944 
L 873.954141 57.564069 
L 903.089589 59.69593 
L 932.225038 60.78281 
L 949.706307 52.322915 
" clip-path="url(#p173dd79896)" style="fill: none; stroke: #5cb85c; stroke-linecap: square"/>
   </g>
   <g id="line2d_28">
    <path d="M 81.469943 108.70053 
L 87.297033 108.033064 
L 93.124123 87.586268 
L 98.951212 78.052721 
L 104.778302 72.941881 
L 110.605392 50.429321 
L 116.432481 49.192211 
L 122.259571 49.084979 
L 128.086661 48.133108 
L 145.56793 46.631406 
L 174.703378 47.886719 
L 203.838827 49.399588 
L 232.974275 49.551866 
L 262.109724 50.758924 
L 291.245172 51.940028 
L 320.38062 53.235465 
L 349.516069 54.34963 
L 378.651517 56.154314 
L 407.786966 58.24701 
L 436.922414 59.791098 
L 466.057863 60.195053 
L 495.193311 61.743926 
L 524.32876 61.33132 
L 553.464208 51.057306 
L 582.599656 51.403506 
L 611.735105 52.411732 
L 640.870553 53.968393 
L 670.006002 55.228451 
L 699.14145 56.587132 
L 728.276899 58.274379 
L 757.412347 60.023891 
L 786.547796 62.115291 
L 815.683244 64.829304 
L 844.818692 67.145276 
L 873.954141 69.861485 
L 903.089589 73.019662 
L 932.225038 76.529129 
L 949.706307 78.917324 
" clip-path="url(#p173dd79896)" style="fill: none; stroke: #5cb85c; stroke-linecap: square"/>
   </g>
   <g id="line2d_29">
    <path d="M 81.469943 108.633682 
L 87.297033 107.944517 
L 93.124123 87.479206 
L 98.951212 77.930701 
L 104.778302 72.810836 
L 110.605392 50.27687 
L 116.432481 49.0317 
L 122.259571 48.924039 
L 128.086661 47.968959 
L 145.56793 46.462094 
L 174.703378 47.708744 
L 203.838827 49.203978 
L 232.974275 49.329271 
L 262.109724 50.51041 
L 291.245172 51.660499 
L 320.38062 52.921832 
L 349.516069 53.999614 
L 378.651517 55.769157 
L 407.786966 57.829428 
L 436.922414 59.307996 
L 466.057863 59.554333 
L 495.193311 61.067201 
L 524.32876 60.614323 
L 553.464208 50.264168 
L 582.599656 50.560429 
L 611.735105 51.513726 
L 640.870553 53.011094 
L 670.006002 54.205991 
L 699.14145 55.491048 
L 728.276899 57.095306 
L 757.412347 58.752248 
L 786.547796 60.726892 
L 815.683244 63.296999 
L 844.818692 65.401777 
L 873.954141 67.767553 
L 903.089589 70.219945 
L 932.225038 70.840831 
L 949.706307 57.919852 
" clip-path="url(#p173dd79896)" style="fill: none; stroke: #5cb85c; stroke-linecap: square"/>
   </g>
   <g id="line2d_30">
    <path d="M 81.469943 106.740517 
L 87.297033 107.316988 
L 93.124123 82.428311 
L 98.951212 74.200201 
L 104.778302 69.038381 
L 110.605392 44.805272 
L 116.432481 43.124705 
L 122.259571 41.659775 
L 128.086661 40.861561 
L 145.56793 40.622925 
L 174.703378 41.568947 
L 203.838827 42.719183 
L 232.974275 44.380958 
L 262.109724 45.783093 
L 291.245172 46.893121 
L 320.38062 48.113252 
L 349.516069 49.135521 
L 378.651517 50.776268 
L 407.786966 51.81251 
L 436.922414 53.63421 
L 466.057863 55.279091 
L 495.193311 56.193722 
L 524.32876 54.810615 
L 553.464208 43.908812 
L 582.599656 44.633962 
L 611.735105 45.951277 
L 640.870553 47.276401 
L 670.006002 48.817856 
L 699.14145 50.499171 
L 728.276899 52.144309 
L 757.412347 53.232869 
L 786.547796 55.30792 
L 815.683244 57.045053 
L 844.818692 59.465717 
L 873.954141 62.349442 
L 903.089589 65.23952 
L 932.225038 68.113365 
L 949.706307 70.001231 
" clip-path="url(#p173dd79896)" style="fill: none; stroke: #5cb85c; stroke-linecap: square"/>
   </g>
   <g id="line2d_31">
    <path d="M 81.469943 106.727622 
L 87.297033 107.306129 
L 93.124123 82.409674 
L 98.951212 74.182125 
L 104.778302 69.021562 
L 110.605392 44.781758 
L 116.432481 43.10236 
L 122.259571 41.637152 
L 128.086661 40.839004 
L 145.56793 40.599313 
L 174.703378 41.545035 
L 203.838827 42.693705 
L 232.974275 44.346378 
L 262.109724 45.740534 
L 291.245172 46.84434 
L 320.38062 48.057941 
L 349.516069 49.071166 
L 378.651517 50.706776 
L 407.786966 51.734647 
L 436.922414 53.547533 
L 466.057863 55.182561 
L 495.193311 56.076559 
L 524.32876 54.678422 
L 553.464208 43.76167 
L 582.599656 44.472414 
L 611.735105 45.770519 
L 640.870553 47.073075 
L 670.006002 48.592186 
L 699.14145 50.248237 
L 728.276899 51.864514 
L 757.412347 52.920123 
L 786.547796 54.956477 
L 815.683244 56.645196 
L 844.818692 58.999578 
L 873.954141 61.770899 
L 903.089589 64.388706 
L 932.225038 65.666054 
L 949.706307 56.275008 
" clip-path="url(#p173dd79896)" style="fill: none; stroke: #5cb85c; stroke-linecap: square"/>
   </g>
   <g id="line2d_32">
    <path d="M 81.469943 108.097735 
L 87.297033 106.883898 
L 93.124123 83.157621 
L 98.951212 75.057325 
L 104.778302 71.224172 
L 110.605392 47.852749 
L 116.432481 46.086925 
L 122.259571 44.870742 
L 128.086661 44.942918 
L 145.56793 44.961329 
L 174.703378 46.384372 
L 203.838827 48.007077 
L 232.974275 49.044731 
L 262.109724 50.160216 
L 291.245172 51.28371 
L 320.38062 53.086321 
L 349.516069 54.323558 
L 378.651517 55.765986 
L 407.786966 57.490618 
L 436.922414 59.020652 
L 466.057863 60.818388 
L 495.193311 62.564337 
L 524.32876 61.437649 
L 553.464208 51.291303 
L 582.599656 51.754678 
L 611.735105 52.925184 
L 640.870553 54.755649 
L 670.006002 56.195341 
L 699.14145 57.766055 
L 728.276899 59.626132 
L 757.412347 61.633225 
L 786.547796 63.997592 
L 815.683244 67.024319 
L 844.818692 69.581103 
L 873.954141 72.605918 
L 903.089589 76.190826 
L 932.225038 80.151936 
L 949.706307 82.839915 
" clip-path="url(#p173dd79896)" style="fill: none; stroke: #5cb85c; stroke-linecap: square"/>
   </g>
   <g id="line2d_33">
    <path d="M 81.469943 108.046912 
L 87.297033 106.82474 
L 93.124123 83.081244 
L 98.951212 74.975025 
L 104.778302 71.13852 
L 110.605392 47.750373 
L 116.432481 45.979668 
L 122.259571 44.763656 
L 128.086661 44.834355 
L 145.56793 44.849075 
L 174.703378 46.264702 
L 203.838827 47.870357 
L 232.974275 48.882929 
L 262.109724 49.972526 
L 291.245172 51.068106 
L 320.38062 52.839609 
L 349.516069 54.043444 
L 378.651517 55.451413 
L 407.786966 57.141519 
L 436.922414 58.63089 
L 466.057863 60.376091 
L 495.193311 62.08489 
L 524.32876 60.916995 
L 553.464208 50.70539 
L 582.599656 51.11909 
L 611.735105 52.234962 
L 640.870553 54.004053 
L 670.006002 55.376804 
L 699.14145 56.874794 
L 728.276899 58.652515 
L 757.412347 60.561901 
L 786.547796 62.806986 
L 815.683244 65.68206 
L 844.818692 68.018671 
L 873.954141 70.680829 
L 903.089589 73.528855 
L 932.225038 74.456907 
L 949.706307 60.633395 
" clip-path="url(#p173dd79896)" style="fill: none; stroke: #5cb85c; stroke-linecap: square"/>
   </g>
   <g id="line2d_34">
    <path d="M 81.469943 104.878779 
L 87.297033 105.995918 
L 93.124123 77.613417 
L 98.951212 70.210078 
L 104.778302 67.088141 
L 110.605392 41.443627 
L 116.432481 40.610811 
L 122.259571 39.584712 
L 128.086661 39.424675 
L 145.56793 38.966422 
L 174.703378 39.744534 
L 203.838827 40.47193 
L 232.974275 41.856513 
L 262.109724 42.890648 
L 291.245172 43.521016 
L 320.38062 44.41722 
L 349.516069 45.243321 
L 378.651517 46.088242 
L 407.786966 46.949031 
L 436.922414 48.050073 
L 466.057863 49.074938 
L 495.193311 50.061408 
L 524.32876 49.643215 
L 553.464208 43.050826 
L 582.599656 43.687943 
L 611.735105 44.564054 
L 640.870553 45.475535 
L 670.006002 46.570657 
L 699.14145 47.580698 
L 728.276899 48.824663 
L 757.412347 49.66285 
L 786.547796 51.228041 
L 815.683244 52.882251 
L 844.818692 54.355863 
L 873.954141 56.274941 
L 903.089589 58.445942 
L 932.225038 60.802078 
L 949.706307 62.249725 
" clip-path="url(#p173dd79896)" style="fill: none; stroke: #5cb85c; stroke-linecap: square"/>
   </g>
   <g id="line2d_35">
    <path d="M 81.469943 104.773097 
L 87.297033 105.916799 
L 93.124123 77.460683 
L 98.951212 70.084386 
L 104.778302 66.981853 
L 110.605392 41.272935 
L 116.432481 40.441066 
L 122.259571 39.406476 
L 128.086661 39.24928 
L 145.56793 38.787058 
L 174.703378 39.550301 
L 203.838827 40.252843 
L 232.974275 41.58765 
L 262.109724 42.582935 
L 291.245172 43.186231 
L 320.38062 44.048145 
L 349.516069 44.836426 
L 378.651517 45.647575 
L 407.786966 46.473625 
L 436.922414 47.539101 
L 466.057863 48.527437 
L 495.193311 49.471258 
L 524.32876 49.087433 
L 553.464208 42.489048 
L 582.599656 43.076453 
L 611.735105 43.897294 
L 640.870553 44.752593 
L 670.006002 45.792068 
L 699.14145 46.742816 
L 728.276899 47.921808 
L 757.412347 48.694935 
L 786.547796 50.192842 
L 815.683244 51.769656 
L 844.818692 53.139959 
L 873.954141 54.910972 
L 903.089589 56.782135 
L 932.225038 57.685312 
L 949.706307 50.060093 
" clip-path="url(#p173dd79896)" style="fill: none; stroke: #5cb85c; stroke-linecap: square"/>
   </g>
   <g id="line2d_36">
    <path d="M 81.469943 109.410226 
L 87.297033 108.755432 
L 93.124123 83.237339 
L 98.951212 75.968914 
L 104.778302 72.781253 
L 110.605392 49.363358 
L 116.432481 48.664025 
L 122.259571 48.213994 
L 128.086661 48.07711 
L 145.56793 47.597004 
L 174.703378 48.813363 
L 203.838827 50.191102 
L 232.974275 51.018752 
L 262.109724 51.694905 
L 291.245172 52.710327 
L 320.38062 53.859135 
L 349.516069 55.248383 
L 378.651517 56.563604 
L 407.786966 57.886096 
L 436.922414 59.230661 
L 466.057863 60.477238 
L 495.193311 61.985829 
L 524.32876 62.763794 
L 553.464208 55.261008 
L 582.599656 55.927781 
L 611.735105 56.920142 
L 640.870553 58.005946 
L 670.006002 59.444471 
L 699.14145 60.975094 
L 728.276899 62.491859 
L 757.412347 64.567641 
L 786.547796 66.703313 
L 815.683244 69.010426 
L 844.818692 71.513932 
L 873.954141 74.281287 
L 903.089589 77.549255 
L 932.225038 80.843761 
L 949.706307 83.109704 
" clip-path="url(#p173dd79896)" style="fill: none; stroke: #5cb85c; stroke-linecap: square"/>
   </g>
   <g id="line2d_37">
    <path d="M 81.469943 108.953996 
L 87.297033 108.283128 
L 93.124123 82.59944 
L 98.951212 75.309422 
L 104.778302 72.117354 
L 110.605392 48.566222 
L 116.432481 47.845695 
L 122.259571 47.397874 
L 128.086661 47.253991 
L 145.56793 46.761912 
L 174.703378 47.943254 
L 203.838827 49.257066 
L 232.974275 49.996826 
L 262.109724 50.587524 
L 291.245172 51.518566 
L 320.38062 52.577612 
L 349.516069 53.875037 
L 378.651517 55.107209 
L 407.786966 56.3461 
L 436.922414 57.606896 
L 466.057863 58.767535 
L 495.193311 60.211511 
L 524.32876 60.961481 
L 553.464208 53.325156 
L 582.599656 53.896706 
L 611.735105 54.788085 
L 640.870553 55.756478 
L 670.006002 57.072583 
L 699.14145 58.466477 
L 728.276899 59.822539 
L 757.412347 61.715484 
L 786.547796 63.639152 
L 815.683244 65.702704 
L 844.818692 67.883008 
L 873.954141 70.164247 
L 903.089589 72.495108 
L 932.225038 72.321428 
L 949.706307 58.844887 
" clip-path="url(#p173dd79896)" style="fill: none; stroke: #5cb85c; stroke-linecap: square"/>
   </g>
   <g id="line2d_38">
    <path d="M 81.469943 104.941921 
L 87.297033 105.979596 
L 93.124123 78.291921 
L 98.951212 70.789102 
L 104.778302 67.524609 
L 110.605392 42.086754 
L 116.432481 41.262727 
L 122.259571 39.893042 
L 128.086661 39.684576 
L 145.56793 39.353077 
L 174.703378 40.101835 
L 203.838827 40.869379 
L 232.974275 42.351359 
L 262.109724 43.472789 
L 291.245172 44.338758 
L 320.38062 45.325781 
L 349.516069 46.21701 
L 378.651517 47.194918 
L 407.786966 48.1155 
L 436.922414 49.391503 
L 466.057863 50.479925 
L 495.193311 51.55206 
L 524.32876 50.081835 
L 553.464208 42.927657 
L 582.599656 43.607249 
L 611.735105 44.625624 
L 640.870553 45.585622 
L 670.006002 46.710084 
L 699.14145 47.862646 
L 728.276899 49.241536 
L 757.412347 50.222359 
L 786.547796 52.064344 
L 815.683244 54.101946 
L 844.818692 55.64211 
L 873.954141 57.788671 
L 903.089589 60.28046 
L 932.225038 62.828248 
L 949.706307 64.521542 
" clip-path="url(#p173dd79896)" style="fill: none; stroke: #5cb85c; stroke-linecap: square"/>
   </g>
   <g id="line2d_39">
    <path d="M 81.469943 104.867612 
L 87.297033 105.926817 
L 93.124123 78.18923 
L 98.951212 70.706328 
L 104.778302 67.449647 
L 110.605392 41.971136 
L 116.432481 41.149075 
L 122.259571 39.771759 
L 128.086661 39.566205 
L 145.56793 39.231872 
L 174.703378 39.969405 
L 203.838827 40.722514 
L 232.974275 42.169674 
L 262.109724 43.262023 
L 291.245172 44.107526 
L 320.38062 45.07069 
L 349.516069 45.934234 
L 378.651517 46.890848 
L 407.786966 47.786814 
L 436.922414 49.036723 
L 466.057863 50.098604 
L 495.193311 51.134306 
L 524.32876 49.675186 
L 553.464208 42.512992 
L 582.599656 43.157214 
L 611.735105 44.134145 
L 640.870553 45.049699 
L 670.006002 46.131235 
L 699.14145 47.237956 
L 728.276899 48.567335 
L 757.412347 49.496397 
L 786.547796 51.280457 
L 815.683244 53.251256 
L 844.818692 54.702771 
L 873.954141 56.711552 
L 903.089589 58.904502 
L 932.225038 59.915151 
L 949.706307 51.826159 
" clip-path="url(#p173dd79896)" style="fill: none; stroke: #5cb85c; stroke-linecap: square"/>
   </g>
   <g id="line2d_40">
    <path d="M 81.469943 107.807079 
L 87.297033 108.054161 
L 93.124123 81.955531 
L 98.951212 75.431014 
L 104.778302 71.792014 
L 110.605392 48.505106 
L 116.432481 47.074809 
L 122.259571 45.968412 
L 128.086661 46.661138 
L 145.56793 46.33422 
L 174.703378 47.585008 
L 203.838827 49.253299 
L 232.974275 50.246807 
L 262.109724 51.016947 
L 291.245172 52.097738 
L 320.38062 53.433569 
L 349.516069 54.830354 
L 378.651517 56.427398 
L 407.786966 57.850823 
L 436.922414 59.53206 
L 466.057863 60.909421 
L 495.193311 62.509141 
L 524.32876 62.434746 
L 553.464208 54.668964 
L 582.599656 55.392552 
L 611.735105 56.551942 
L 640.870553 57.821697 
L 670.006002 59.463324 
L 699.14145 61.241196 
L 728.276899 63.15059 
L 757.412347 65.467518 
L 786.547796 68.242044 
L 815.683244 70.94565 
L 844.818692 73.897337 
L 873.954141 77.243364 
L 903.089589 81.031079 
L 932.225038 84.863284 
L 949.706307 87.564844 
" clip-path="url(#p173dd79896)" style="fill: none; stroke: #5cb85c; stroke-linecap: square"/>
   </g>
   <g id="line2d_41">
    <path d="M 81.469943 107.487708 
L 87.297033 107.723752 
L 93.124123 81.509463 
L 98.951212 74.968359 
L 104.778302 71.326603 
L 110.605392 47.949047 
L 116.432481 46.50172 
L 122.259571 45.395214 
L 128.086661 46.086021 
L 145.56793 45.745854 
L 174.703378 46.966788 
L 203.838827 48.58973 
L 232.974275 49.516126 
L 262.109724 50.220936 
L 291.245172 51.233656 
L 320.38062 52.498995 
L 349.516069 53.822781 
L 378.651517 55.351919 
L 407.786966 56.71041 
L 436.922414 58.316961 
L 466.057863 59.61004 
L 495.193311 61.155663 
L 524.32876 61.039518 
L 553.464208 53.1632 
L 582.599656 53.801198 
L 611.735105 54.870649 
L 640.870553 56.036777 
L 670.006002 57.564445 
L 699.14145 59.2123 
L 728.276899 60.959795 
L 757.412347 63.080223 
L 786.547796 65.634566 
L 815.683244 68.075869 
L 844.818692 70.680565 
L 873.954141 73.509266 
L 903.089589 76.316695 
L 932.225038 76.465182 
L 949.706307 62.227667 
" clip-path="url(#p173dd79896)" style="fill: none; stroke: #5cb85c; stroke-linecap: square"/>
   </g>
   <g id="line2d_42">
    <path d="M 38.058125 353.2239 
L 993.118125 353.2239 
" clip-path="url(#p173dd79896)" style="fill: none; stroke: #dedede; stroke-width: 2; stroke-linecap: square"/>
   </g>
   <g id="text_20">
    <!-- FastQC: Mean Quality Scores -->
    <g transform="translate(400.349375 19.3575) scale(0.16 -0.16)">
     <defs>
      <path id="DejaVuSans-46" d="M 628 4666 
L 3309 4666 
L 3309 4134 
L 1259 4134 
L 1259 2759 
L 3109 2759 
L 3109 2228 
L 1259 2228 
L 1259 0 
L 628 0 
L 628 4666 
z
" transform="scale(0.015625)"/>
      <path id="DejaVuSans-61" d="M 2194 1759 
Q 1497 1759 1228 1600 
Q 959 1441 959 1056 
Q 959 750 1161 570 
Q 1363 391 1709 391 
Q 2188 391 2477 730 
Q 2766 1069 2766 1631 
L 2766 1759 
L 2194 1759 
z
M 3341 1997 
L 3341 0 
L 2766 0 
L 2766 531 
Q 2569 213 2275 61 
Q 1981 -91 1556 -91 
Q 1019 -91 701 211 
Q 384 513 384 1019 
Q 384 1609 779 1909 
Q 1175 2209 1959 2209 
L 2766 2209 
L 2766 2266 
Q 2766 2663 2505 2880 
Q 2244 3097 1772 3097 
Q 1472 3097 1187 3025 
Q 903 2953 641 2809 
L 641 3341 
Q 956 3463 1253 3523 
Q 1550 3584 1831 3584 
Q 2591 3584 2966 3190 
Q 3341 2797 3341 1997 
z
" transform="scale(0.015625)"/>
      <path id="DejaVuSans-51" d="M 2522 4238 
Q 1834 4238 1429 3725 
Q 1025 3213 1025 2328 
Q 1025 1447 1429 934 
Q 1834 422 2522 422 
Q 3209 422 3611 934 
Q 4013 1447 4013 2328 
Q 4013 3213 3611 3725 
Q 3209 4238 2522 4238 
z
M 3406 84 
L 4238 -825 
L 3475 -825 
L 2784 -78 
Q 2681 -84 2626 -87 
Q 2572 -91 2522 -91 
Q 1538 -91 948 567 
Q 359 1225 359 2328 
Q 359 3434 948 4092 
Q 1538 4750 2522 4750 
Q 3503 4750 4090 4092 
Q 4678 3434 4678 2328 
Q 4678 1516 4351 937 
Q 4025 359 3406 84 
z
" transform="scale(0.015625)"/>
      <path id="DejaVuSans-43" d="M 4122 4306 
L 4122 3641 
Q 3803 3938 3442 4084 
Q 3081 4231 2675 4231 
Q 1875 4231 1450 3742 
Q 1025 3253 1025 2328 
Q 1025 1406 1450 917 
Q 1875 428 2675 428 
Q 3081 428 3442 575 
Q 3803 722 4122 1019 
L 4122 359 
Q 3791 134 3420 21 
Q 3050 -91 2638 -91 
Q 1578 -91 968 557 
Q 359 1206 359 2328 
Q 359 3453 968 4101 
Q 1578 4750 2638 4750 
Q 3056 4750 3426 4639 
Q 3797 4528 4122 4306 
z
" transform="scale(0.015625)"/>
      <path id="DejaVuSans-3a" d="M 750 794 
L 1409 794 
L 1409 0 
L 750 0 
L 750 794 
z
M 750 3309 
L 1409 3309 
L 1409 2516 
L 750 2516 
L 750 3309 
z
" transform="scale(0.015625)"/>
      <path id="DejaVuSans-4d" d="M 628 4666 
L 1569 4666 
L 2759 1491 
L 3956 4666 
L 4897 4666 
L 4897 0 
L 4281 0 
L 4281 4097 
L 3078 897 
L 2444 897 
L 1241 4097 
L 1241 0 
L 628 0 
L 628 4666 
z
" transform="scale(0.015625)"/>
      <path id="DejaVuSans-75" d="M 544 1381 
L 544 3500 
L 1119 3500 
L 1119 1403 
Q 1119 906 1312 657 
Q 1506 409 1894 409 
Q 2359 409 2629 706 
Q 2900 1003 2900 1516 
L 2900 3500 
L 3475 3500 
L 3475 0 
L 2900 0 
L 2900 538 
Q 2691 219 2414 64 
Q 2138 -91 1772 -91 
Q 1169 -91 856 284 
Q 544 659 544 1381 
z
M 1991 3584 
L 1991 3584 
z
" transform="scale(0.015625)"/>
      <path id="DejaVuSans-6c" d="M 603 4863 
L 1178 4863 
L 1178 0 
L 603 0 
L 603 4863 
z
" transform="scale(0.015625)"/>
      <path id="DejaVuSans-79" d="M 2059 -325 
Q 1816 -950 1584 -1140 
Q 1353 -1331 966 -1331 
L 506 -1331 
L 506 -850 
L 844 -850 
Q 1081 -850 1212 -737 
Q 1344 -625 1503 -206 
L 1606 56 
L 191 3500 
L 800 3500 
L 1894 763 
L 2988 3500 
L 3597 3500 
L 2059 -325 
z
" transform="scale(0.015625)"/>
     </defs>
     <use xlink:href="#DejaVuSans-46"/>
     <use xlink:href="#DejaVuSans-61" x="48.394531"/>
     <use xlink:href="#DejaVuSans-73" x="109.673828"/>
     <use xlink:href="#DejaVuSans-74" x="161.773438"/>
     <use xlink:href="#DejaVuSans-51" x="200.982422"/>
     <use xlink:href="#DejaVuSans-43" x="279.693359"/>
     <use xlink:href="#DejaVuSans-3a" x="349.517578"/>
     <use xlink:href="#DejaVuSans-20" x="383.208984"/>
     <use xlink:href="#DejaVuSans-4d" x="414.996094"/>
     <use xlink:href="#DejaVuSans-65" x="501.275391"/>
     <use xlink:href="#DejaVuSans-61" x="562.798828"/>
     <use xlink:href="#DejaVuSans-6e" x="624.078125"/>
     <use xlink:href="#DejaVuSans-20" x="687.457031"/>
     <use xlink:href="#DejaVuSans-51" x="719.244141"/>
     <use xlink:href="#DejaVuSans-75" x="797.955078"/>
     <use xlink:href="#DejaVuSans-61" x="861.333984"/>
     <use xlink:href="#DejaVuSans-6c" x="922.613281"/>
     <use xlink:href="#DejaVuSans-69" x="950.396484"/>
     <use xlink:href="#DejaVuSans-74" x="978.179688"/>
     <use xlink:href="#DejaVuSans-79" x="1017.388672"/>
     <use xlink:href="#DejaVuSans-20" x="1076.568359"/>
     <use xlink:href="#DejaVuSans-53" x="1108.355469"/>
     <use xlink:href="#DejaVuSans-63" x="1171.832031"/>
     <use xlink:href="#DejaVuSans-6f" x="1226.8125"/>
     <use xlink:href="#DejaVuSans-72" x="1287.994141"/>
     <use xlink:href="#DejaVuSans-65" x="1326.857422"/>
     <use xlink:href="#DejaVuSans-73" x="1388.380859"/>
    </g>
   </g>
  </g>
 </g>
 <defs>
  <clipPath id="p173dd79896">
   <rect x="38.058125" y="35.2559" width="955.06" height="317.968"/>
  </clipPath>
 </defs>
</svg>
